<svg xmlns="http://www.w3.org/2000/svg" viewBox="0 0 48 32"><path fill="#5EC1EC" d="M0 3c0-1.6 1.3-3 3-3h42c1.6 0 3 1.3 3 3v26c0 1.6-1.3 3-3 3H3c-1.6 0-3-1.3-3-3V3z"/><path fill="#FFF" d="M48 19.2h-2.5c-.2 0-.4 0-.5.1-.1.1-.2.2-.2.4s.1.4.3.4c.1 0 .3.1.5.1h.7c.7 0 1.2.1 1.5.5.1 0 .1.1.1.1M48 23c-.3.5-1 .7-1.8.7h-2.6v-1.2h2.6c.3 0 .4 0 .5-.1.1-.1.2-.2.2-.4s-.1-.3-.2-.4c-.1-.1-.2-.1-.5-.1-1.3 0-2.8 0-2.8-1.7 0-.8.5-1.7 1.9-1.7H48V17h-2.5c-.8 0-1.3.2-1.7.5V17h-3.7c-.6 0-1.3.1-1.6.5V17h-6.6v.5c-.5-.4-1.4-.5-1.8-.5h-4.4v.5c-.4-.4-1.3-.5-1.9-.5H19l-1.1 1.2-1-1.2H9.5v7.9h7.1l1.1-1.2 1.1 1.2h4.4V23h.4c.6 0 1.3 0 1.9-.3v2.1h3.6v-2.1h.2c.2 0 .2 0 .2.2v1.8h11c.7 0 1.4-.2 1.8-.5v.5H46c.7 0 1.4-.1 2-.4V23zm-5.4-2.3c.3.3.4.6.4 1.2 0 1.2-.8 1.8-2.1 1.8h-2.6v-1.2h2.6c.3 0 .4 0 .6-.1.1-.1.2-.2.2-.4s-.1-.3-.2-.4c-.1-.1-.2-.1-.5-.1-1.3 0-2.8 0-2.8-1.7 0-.8.5-1.7 1.9-1.7h2.7v1.2h-2.5c-.2 0-.4 0-.5.1-.1.1-.2.2-.2.4s.1.4.3.4c.1 0 .3.1.5.1h.7c.7 0 1.2.1 1.5.4zm-12.2-.3c-.2.1-.4.1-.7.1h-1.6v-1.3h1.7c.2 0 .5 0 .6.1.2.1.3.3.3.5 0 .3-.1.5-.3.6zm.9.7c.3.1.5.3.7.5.2.3.2.5.2 1v1.1h-1.4V23c0-.3 0-.8-.2-1.1-.2-.2-.5-.3-1-.3h-1.4v2.1h-1.4V18h3.1c.7 0 1.2 0 1.6.3.4.3.7.6.7 1.3 0 .9-.6 1.3-.9 1.5zM33 18h4.5v1.2h-3.2v1h3.1v1.2h-3.1v1.1h3.2v1.2H33V18zm-9.1 2.6h-1.7v-1.4H24c.5 0 .8.2.8.7-.1.5-.4.7-.9.7zm-3.1 2.6l-2.1-2.3 2.1-2.2v4.5zm-5.4-.7h-3.3v-1.1h3v-1.2h-3v-1h3.4l1.5 1.6-1.6 1.7zm10.8-2.6c0 1.6-1.2 1.9-2.3 1.9h-1.7v1.9h-2.6l-1.7-1.9-1.7 1.9h-5.3V18h5.4l1.7 1.9 1.7-1.9H24c.9 0 2.2.3 2.2 1.9zM4.3 11.5l-.9-2.2-.9 2.3m22.2-1c-.2.1-.4.1-.7.1h-1.6V9.5H24c.2 0 .5 0 .6.1.2.1.3.3.3.5s-.1.4-.2.5zm11.7.9l-.9-2.3-.9 2.3h1.8zM14.6 14h-1.4V9.6l-2 4.4H10L8 9.6V14H5.3l-.5-1.3H2L1.5 14H0l2.4-5.6h2l2.3 5.3V8.3h2.2l1.8 3.8 1.6-3.8h2.2l.1 5.7zm5.5 0h-4.5V8.3h4.5v1.2h-3.2v1H20v1.2h-3.1v1.1h3.2V14zm6.3-4.2c0 .9-.6 1.4-1 1.5.3.1.5.3.7.5.2.3.2.5.2 1V14H25v-.7c0-.3 0-.8-.2-1.1-.2-.2-.5-.2-1-.2h-1.4v2H21V8.3h3.1c.7 0 1.2 0 1.6.3.5.2.7.6.7 1.2zm2.2 4.2h-1.4V8.3h1.4V14zm16 0h-1.9l-2.6-4.2V14h-2.7l-.5-1.3H34l-.5 1.3h-1.6c-.7 0-1.5-.1-2-.6s-.7-1.1-.7-2.2c0-.8.1-1.6.7-2.2.4-.5 1.1-.7 2-.7h1.3v1.2h-1.3c-.5 0-.8.1-1 .3-.2.2-.4.7-.4 1.3 0 .6.1 1 .4 1.3.2.2.6.3.9.3h.6l1.9-4.4h2l2.3 5.3V8.3h2.1l2.4 3.9V8.3h1.4V14h.1zM0 15.1h2.3l.5-1.3H4l.5 1.3H9v-1l.4 1h2.4l.4-1v1h11.3V13h.2c.2 0 .2 0 .2.3v1.8h5.8v-.5c.5.3 1.2.5 2.2.5h2.5l.5-1.3H36l.5 1.3h4.7v-1.2l.7 1.2h3.8V7.2H42v.9l-.5-.9h-3.8v.9l-.5-.9H32c-.9 0-1.6.1-2.3.5v-.5h-3.6v.5c-.4-.3-.9-.5-1.5-.5H11.5l-.9 2-.9-2H5.6v.9l-.4-.9H1.6L0 10.9v4.2z"/></svg>