<?xml version="1.0" encoding="utf-8"?>
<!-- Generator: Adobe Illustrator 20.0.0, SVG Export Plug-In . SVG Version: 6.00 Build 0)  -->
<svg version="1.1" id="eds-icon--health_svg"
	 xmlns="http://www.w3.org/2000/svg" xmlns:xlink="http://www.w3.org/1999/xlink" x="0px" y="0px" viewBox="0 0 24 24"
	 enable-background="new 0 0 24 24" xml:space="preserve">
<path id="eds-icon--health_base" fill-rule="evenodd" clip-rule="evenodd" fill="#231F20" d="M13.7,4.4
	c0.4-0.5,1-0.7,1.7-0.7c0,0.6-0.3,1.2-0.7,1.7c-0.4,0.5-1,0.7-1.7,0.7C13,5.4,13.3,4.8,13.7,4.4z M20.8,12.4l-2.1,6.4
	c-0.4,1.3-1.7,2.2-3,2.2c-0.4,0-0.8-0.1-1.2-0.2c-0.6-0.3-1.3-0.4-1.9-0.4c-0.7,0-1.3,0.1-1.9,0.4C10.2,20.9,9.7,21,9.3,21
	c-1.4,0-2.6-0.9-3-2.2l-2.1-6.4c-0.3-1-0.2-2.1,0.4-2.9c0.6-0.9,1.6-1.4,2.6-1.4c0.2,0,0.4,0,0.6,0.1l3.8,0.7c0.1,0,0.3,0,0.4,0.1
	V11h1V8.9c0.1,0,0.3,0,0.4-0.1l3.9-0.7c0.2,0,0.1-0.1,0.6-0.1c1,0,1.9,0.5,2.5,1.4C21,10.3,21.2,11.4,20.8,12.4z M17.9,7.1L17.9,7.1
	l-0.1,0c-0.2,0-0.5,0-0.8,0.1l-3.8,0.7c-0.1,0-0.2,0-0.2,0V7.1c0.9,0,1.7-0.3,2.4-1c0.9-0.9,1.2-2.2,0.9-3.3
	c-0.3-0.1-0.6-0.1-0.8-0.1c-0.9,0-1.7,0.3-2.4,1c0,0,0,0,0,0V2h-1v5.9c-0.1,0-0.2,0-0.2,0L7.9,7.1c-0.3,0-0.5-0.1-0.8-0.1
	c-2.8,0-4.9,2.8-3.9,5.6l2.1,6.4C6,20.9,7.6,22,9.3,22c0.5,0,1.1-0.1,1.6-0.3c0.5-0.2,1-0.3,1.6-0.3c0.5,0,1.1,0.1,1.6,0.3
	c0.5,0.2,1,0.3,1.6,0.3c1.7,0,3.4-1.1,4-2.9l2.2-6.4C22.7,9.9,20.4,7.1,17.9,7.1z"/>
<g id="eds-icon--health_dashes">
	<rect x="14" y="13" fill-rule="evenodd" clip-rule="evenodd" fill="#231F20" width="1" height="2"/>
	<rect x="10" y="13" fill-rule="evenodd" clip-rule="evenodd" fill="#231F20" width="1" height="2"/>
</g>
</svg>
