<svg xmlns="http://www.w3.org/2000/svg" viewBox="0 0 48 32"><path fill-rule="evenodd" clip-rule="evenodd" fill="#FFF" d="M3 31.5C1.6 31.5.5 30.4.5 29V3C.5 1.6 1.6.5 3 .5h42c1.4 0 2.5 1.1 2.5 2.5v26c0 1.4-1.1 2.5-2.5 2.5H3z"/><path d="M45 1c1.1 0 2 .9 2 2v26c0 1.1-.9 2-2 2H3c-1.1 0-2-.9-2-2V3c0-1.1.9-2 2-2h42m0-1H3C1.4 0 0 1.4 0 3v26c0 1.6 1.4 3 3 3h42c1.6 0 3-1.4 3-3V3c0-1.6-1.4-3-3-3z"/><path fill-rule="evenodd" clip-rule="evenodd" d="M34.7 12.3l2.1 5.1.3.9c.1.3.2.6.3.8.1-.2.2-.5.3-.8l.3-.9 1.9-5.1h.8l-2.3 5.8c-.2.6-.5 1.2-.7 1.7-.2.5-.4.9-.6 1.3-.2.4-.4.8-.6 1.1-.2.3-.5.6-.7.8-.3.3-.6.5-.9.6-.3.1-.4.2-.5.2l-.4-.6c.2-.1.4-.2.7-.3.2-.1.5-.3.7-.6.2-.2.4-.5.7-.8.2-.3.5-.7.6-1.2.1-.2.1-.3.1-.3 0-.1 0-.2-.1-.3l-2.9-7.3.9-.1zM32.3 16H31c-.5 0-.9.1-1.3.3-.4.1-.7.4-1 .6-.3.3-.4.7-.4 1.1 0 .6.2 1 .5 1.2.3.3.7.4 1.1.4.3 0 .6 0 .9-.1.3-.1.5-.2.7-.4.2-.1.4-.3.5-.5l.3-.6c.1-.2.1-.4.1-.5l-.1-1.5zm.8 2.3v1c0 .3 0 .6.1.9h-.7l-.1-1.1c-.1.2-.2.3-.4.5s-.3.3-.5.4c-.2.1-.4.2-.7.3-.3.1-.6.1-.9.1-.4 0-.7-.1-1-.2-.3-.1-.5-.3-.7-.5-.2-.2-.3-.4-.4-.7-.1-.3-.1-.5-.1-.8 0-.9.4-1.7 1.2-2.2.8-.5 2-.7 3.6-.7v-.2c0-.2 0-.4-.1-.7 0-.3-.1-.5-.3-.8-.1-.2-.3-.4-.6-.6-.3-.2-.6-.2-1.1-.2-.3 0-.7.1-1 .2-.3.1-.7.2-.9.4l-.3-.6c.4-.2.7-.4 1.1-.5.4-.1.8-.2 1.2-.2.6 0 1 .1 1.4.3.4.2.6.4.8.7.2.3.3.6.4 1 .1.4.1.7.1 1.1l-.1 3.1zm-11.7-3.5c.2.1.4.1.6.1h.8c1 0 1.8-.2 2.3-.7.6-.5.8-1.1.8-2 0-.4-.1-.8-.2-1.1-.1-.3-.4-.6-.6-.8-.3-.2-.6-.4-1-.5-.4-.1-.8-.2-1.2-.2H22c-.3 0-.5.1-.6.1v5.1zm-.8-5.6c.3-.1.7-.1 1.1-.1.4 0 .8-.1 1.3-.1.7 0 1.3.1 1.7.2.5.2.9.4 1.2.7.3.3.5.6.6.9.2.4.2.8.2 1.3 0 .6-.1 1.1-.3 1.5-.2.4-.5.8-.8 1.1-.4.3-.8.5-1.3.6-.5.1-1 .2-1.6.2-.5 0-1 0-1.3-.1v4.7h-.8V9.2zm-6.3.9c.4-.5.7-1.2.7-1.9-.6 0-1.4.4-1.9.9-.4.5-.8 1.2-.7 1.9.7 0 1.4-.4 1.9-.9zm1.6 4.6c0 1.8 1.7 2.5 1.7 2.5s-.3.9-.9 1.7c-.5.7-1.1 1.5-1.9 1.5-.8 0-1.1-.5-2.1-.5s-1.3.5-2.1.5-1.5-.8-2-1.5c-1.1-1.5-1.9-4.3-.8-6.1.6-.9 1.5-1.5 2.6-1.5.8 0 1.6.5 2.1.5s1.4-.7 2.4-.6c.4 0 1.6.2 2.3 1.2 0 0-1.4.7-1.3 2.3"/></svg>