<svg id="Layer_1" xmlns="http://www.w3.org/2000/svg" viewBox="0 0 176 176"><title>assortments</title><path d="M61.86,127.4l10.7-33.93-14.22-.55L46.82,154.46c0,.11-.1.22-.15.33l4.21,3.35,2.93-1.08a24.18,24.18,0,0,1,.73-3.47C55.67,149.5,64.54,137.11,61.86,127.4Z" style="fill:#c3c6cf"/><path d="M87.37,155.32l-6.5-62H66.73c1.14,11.82,4.42,24.84,5.83,31,2,8.9,7.88,30.26,7.88,32.09A30.34,30.34,0,0,0,83,158.14Z" style="fill:#c3c6cf"/><path d="M130.5,91.9s18.43,32.12,18.43,36.75H136.45l-15.57-26.12,4.52-8.26Z" style="fill:#9b9ea7"/><path d="M114,96.19l11.12.86L129.73,96l-4.59,32.52H114Z" style="fill:#9b9ea7"/><path d="M120.1,33.9a8.53,8.53,0,0,1,7.06,7.79c.67,5.29,23.91,23.88,11,30.24Z" style="fill:#6d717a"/><path d="M127.14,56,142.06,66.9s-2,13.84-16.54-1.5C119.71,59.28,120.78,54.26,127.14,56Z" style="fill:#282c35"/><path d="M98.37,59.86c-6.73,3-25.76-5-22.81-8.88,9-5.32,17-22.35,17-22.35L104,41.15c1.37,2,8.74-1.36,9.51-.31C114.94,42.73,108.72,55.24,98.37,59.86Z" style="fill:#bf4c28"/><path d="M134.33,96s.5-16.09.5-25.25S127.14,56,127.14,56l-12.28.9c-5.55,2.61-4.69,8.82-4.69,8.82l.18,10.35h2.27L114,99.67v17.57h12.42a.78.78,0,0,0,.75-.58l1.22-4.61a.78.78,0,0,1,1.41-.2l3,5a.78.78,0,0,0,.66.37h10.85a.8.8,0,0,0,.72-1.07C144,111.28,138.22,100.32,134.33,96Z" style="fill:#282c35"/><path d="M113.55,40.83l-13.5-13.37-7.46,6s4.72,6.33,6.45,7.71C103.07,44.9,111.84,40.16,113.55,40.83Z" style="fill:#282c35"/><path d="M152.23,99.92,103.63,6.59l1.77-.92L154,99a1,1,0,0,1-.42,1.35h0A1,1,0,0,1,152.23,99.92Z" style="fill:#282c35"/><path d="M83.52,21.31c2,3,7.54,12.69,15.52,19.84-1.49-1.39,2.65-6.73,18.83-11.62-1-1.89,3-4,2.4-5.21s-4.87.52-5.66-1,2.86-3.72,2.45-5.11-4.5.57-5.36-.43,3-4,2.41-5.2-4.5.57-5.31-.32,2.19-3.6,1.65-5.05-3.83.91-4.48-.32l-.65-1.24S92.59,7.52,83.87,17.14A3,3,0,0,0,83.52,21.31Z" style="fill:#f6682f"/><path d="M127.14,56l-.32-3.47c3.81.85,7.61-.24,6.41-11.42s-15.29-7.92-15.29-.12c0,3.08,3,6.29,3,9.49,0,1.87-.85,2.78-3,4.41a26.47,26.47,0,0,0-3.08,2s7.45,5.29,12.18,4.5S127.14,56,127.14,56Z" style="fill:#9b9ea7"/><path d="M122.23,41.61c0-1.63,2.78-2,2.78.6,1.69,0,5-2,8.08-2-1.87-10.06-15.15-6.76-15.15.81,0,3.08,3,6.29,3,9.49,0-3.93,2.48-3.81,2.48-6.16C123.44,43.21,122.21,43.22,122.23,41.61Z" style="fill:#282c35"/><path d="M110.35,76.08a19.88,19.88,0,0,0,3.51,8.57c7.58,11,30.12.49,31.45-3.5s-3.39-5.31-3.39-5.31l1.29,2.48s-8.67,4.33-21.65,4.33l-2.08-6.6Z" style="fill:#9b9ea7"/><path d="M123.09,50.49c-.78-.67,1,4.41,3.95,4.41l-.22-2.36A8.75,8.75,0,0,1,123.09,50.49Z" style="fill:#282c35"/><path d="M139.57,154.48c0,6.24,8.73,5.21,8.54,8.44H132.19c-.21-11.38,1.55-30.14,4.25-34.27h12.48C148.93,131.69,139.57,148.24,139.57,154.48Z" style="fill:#282c35"/><path d="M123.82,162.92s-3.43-3.2-2.41-9.55c.59-3.66,1.81-14.83,3.72-24.87H114l.25,34.42Z" style="fill:#282c35"/><path d="M121.87,162.7s-4.06-5.08-6.86-5.08-2.64,5.3-2.64,5.3Z" style="fill:#45494e"/><path d="M46.82,154.46c-2.24,4.66-10.87,6.91-11.28,8.56H53.7a47.25,47.25,0,0,1,.12-6l-2.93,1.08Z" style="fill:#6d717a"/><polygon points="108 66.81 108 95.67 90.02 99.67 90.02 74.75 108 66.81" style="fill:#282c35"/><path d="M82.79,51C92.06,51,108,53.21,108,66.81c0,9.18-9.67,10.38-9.67,15.27,0,8.17,37.36,11,37.36,22.18S108,109,108,127.07c0,0-25.82-3-39-30.84S82.79,51,82.79,51Z" style="fill:#9b9ea7"/><path d="M90.67,58.28a10.71,10.71,0,0,0-9.1,5.16,65.43,65.43,0,0,1,6.79,19.77h7.07C94.67,72.5,90.67,58.28,90.67,58.28Z" style="fill:#c3c6cf"/><path d="M56,51c-6,0-10.5,7-11.17,11.38a1,1,0,0,0,1,1.08h13Z" style="fill:#282c35"/><path d="M82.79,51c6,0,10.5,7,11.17,11.38a1,1,0,0,1-1,1.08H80Z" style="fill:#282c35"/><path d="M66,105.13H52.66s3-16.71,6.66-25.15c0,0-3.29-19.24-3.29-29H82.88s-.19,21.63-3.38,29.33l7.13,24.83H72l-3-8.91Z" style="fill:#c3c6cf"/><path d="M97,163c.19-1.69-9-1.78-9.48-6.38l-.14-1.31L83,158.14l-2.35-2.27c-.14,1.77-1.38,5-1.38,7.15Z" style="fill:#6d717a"/><path d="M59.48,79.94H79.66l.83,3.22H58.25S58.83,81.57,59.48,79.94Z" style="fill:#282c35"/><path d="M62.41,72.88l-31,45c-2.16,3.47-.84,4.13,1.88,1.22S66.73,78.79,66.73,78.79Z" style="fill:#282c35"/><path d="M135.69,104.26c0-13-37.32-14-37.32-22.17v41.25c9.09,3.6,9.62,3.73,9.62,3.73C108,112.65,135.69,115.42,135.69,104.26Z" style="fill:#d2d6df"/><path d="M60.64,127.07H51.95l-5.13,27.39c0,.11,3.4,3.16,3.4,3.16Z" style="fill:#282c35"/><path d="M40.26,88.76l1.6,5.07c1.46-1.59,3.42-5.27,5.43-9.52l-5.35-2.74Z" style="fill:#62666d"/><path d="M46.16,63.44,41.94,81.56l5.35,2.74C51.57,75.21,56,63.44,56,63.44Z" style="fill:#c3c6cf"/><path d="M69.21,51H56s3,12.73,12.27,22a1.29,1.29,0,0,0,1.81,0c9.3-9.28,12.27-22,12.27-22Z" style="fill:#62666d"/><path d="M62,51s-1.27,5.39-4.79,6.59a1.1,1.1,0,0,1-1.43-1.05V51Z" style="fill:#9b9ea7"/><path d="M77.3,51s1.27,5.39,4.79,6.59a1.1,1.1,0,0,0,1.43-1.05V51Z" style="fill:#9b9ea7"/><path d="M52.61,153.53a4.82,4.82,0,0,0,0-1.61L42.06,95.1l-1.8-.33-1.61.87,7.69,57.27a4.82,4.82,0,0,0,.48,1.54l4.33,8.5Z" style="fill:#f6682f"/><rect x="39.58" y="85.1" width="1.36" height="19.33" transform="translate(127.5 40.08) rotate(80.93)" style="fill:#9b9ea7"/><path d="M36.08,88.15h7.68a0,0,0,0,1,0,0V91.6a0,0,0,0,1,0,0H36.08a.87.87,0,0,1-.87-.87V89a.87.87,0,0,1,.87-.87Z" transform="translate(122.01 36.72) rotate(80.93)" style="fill:#9b9ea7"/><path d="M37.44,88c-.07,1.84-3.95,2.69-3.59,6.28a20.77,20.77,0,0,0,1.79,6.48s3.13-1.8,2.82-6.43Z" style="fill:#62666d"/><path d="M67.84,31s-2.09-6.48-7.78-6.48c-7.88,0-12.13,12.67-17.56,12.67-7.32,0-11.33-9.85-19.5-9.85-6.59,0-10,10.28-11.1,14.24a.54.54,0,0,0,.84.58c1.31-1,3.41-2.29,4.91-2.29,8.17,0,11.75,12.25,18.44,12.25,12,0,18.65-23.51,24.11-23.51,3.41,0,5.54,3,5.54,3Z" style="fill:#f6682f"/><path d="M63.74,42.49s-5.75-6.58.7-10.82c6-4,10.79.42,11,3.61S63.74,42.49,63.74,42.49Z" style="fill:#6d717a"/><path d="M75.56,51l-.8-2.14s3.89-3.19,3.89-7.27c0-12-15.49-10.75-15.49-2.49,0,4.55,2.82,6.38,1.74,8.59S63.18,51,63.18,51a11.24,11.24,0,0,0,6.48,1.76C73.83,52.74,75.56,51,75.56,51Z" style="fill:#c3c6cf"/><path d="M79,36.11,67,39.51c-.65.19-1.22.55-1.22,1.22s.58,1,1.22,1.22l12.39,3C81.89,40.73,79,36.11,79,36.11Z" style="fill:#6d717a"/><circle cx="58.44" cy="53.24" r="0.8" style="fill:#d2d6df"/><circle cx="81.06" cy="53.24" r="0.8" style="fill:#d2d6df"/><path d="M87.49,101.12a47.63,47.63,0,0,0-19.26,4.51,2.19,2.19,0,0,0-1.25,2v16.12c0,24.64,20.51,39.33,20.51,39.33S108,148.38,108,123.74V107.61a2.19,2.19,0,0,0-1.25-2A47.63,47.63,0,0,0,87.49,101.12Z" style="fill:#f6682f"/><circle cx="87.37" cy="120.98" r="9" transform="translate(-59.99 97.43) rotate(-45.08)" style="fill:#ffa71a"/><path d="M88.36,83.21a64.51,64.51,0,0,1,1.09,13.46L85,101.12h1.41c-.1,3-.28,6.24,1.45,4.88a22.33,22.33,0,0,0,4.27-4.89,32.2,32.2,0,0,0,3.38-14.68c0-1,0-2.11-.12-3.23Z" style="fill:#62666d"/><path d="M163.75,164.07H15.63a1,1,0,1,1,0-2H163.75a1,1,0,0,1,0,2Z" style="fill:#282c35"/></svg>
