<svg id="Layer_1" xmlns="http://www.w3.org/2000/svg" viewBox="0 0 472 340"><title>assortments-packages-complex</title><path d="M275.68,77.66s-.9-6.18-5.48-6.18-14,9.81-24.85,9.81c-7.58,0-13.44-6.82-16.28-10.94a1,1,0,0,1,1.2-1.43,25.69,25.69,0,0,0,10.25,2.43c6.67,0,18.2-13.3,28.61-13.3s9,19.34,9,19.34Z" style="fill:#f6682f"/><path d="M206.5,211H399.75a1.06,1.06,0,0,1,1.06,1.06V319.25a1.06,1.06,0,0,1-1.06,1.06H207.56a1.06,1.06,0,0,1-1.06-1.06V211a0,0,0,0,1,0,0Z" transform="translate(-45.9 64.18) rotate(-11.22)" style="fill:#edeff5"/><path d="M267,298.16a1.07,1.07,0,0,1-.59-.18l-15.34-10.29a1.06,1.06,0,0,1,1.19-1.77l14.45,9.7,30-44.69a1.06,1.06,0,0,1,1.47-.29L328,270.45l23.68-35.3a1.06,1.06,0,0,1,1.77,1.19l-24.27,36.18a1.07,1.07,0,0,1-1.47.29L297.88,253l-30,44.69a1.07,1.07,0,0,1-.68.45Z" style="fill:#f6682f"/><rect x="208.12" y="227.52" width="24.31" height="109.34" transform="translate(-50.71 48.27) rotate(-11.22)" style="fill:#363a43"/><path d="M220.18,291.51a9.78,9.78,0,0,1-9.56-7.89h0a9.77,9.77,0,1,1,11.47,7.7A9.91,9.91,0,0,1,220.18,291.51Zm0-17.42a7.64,7.64,0,0,0-7.5,9.12h0a7.64,7.64,0,1,0,7.5-9.12Z" style="fill:#9b9ea7"/><path d="M374.88,194.43h23.24a1.06,1.06,0,0,1,1.06,1.06V302.71a1.06,1.06,0,0,1-1.06,1.06H374.88a0,0,0,0,1,0,0V194.43A0,0,0,0,1,374.88,194.43Z" transform="translate(-41.08 80.09) rotate(-11.22)" style="fill:#363a43"/><path d="M390.89,269.7a1.07,1.07,0,0,1-1-.86l-7.78-39.49a1.06,1.06,0,0,1,2.09-.41l7.78,39.49a1.07,1.07,0,0,1-.84,1.25Z" style="fill:#9b9ea7"/><path d="M355.33,230.77l-9.08,6.37,7.43,4.51,2.1-10.59A.29.29,0,0,0,355.33,230.77Z" style="fill:#f6682f"/><path d="M260.31,117.1s6-3,7.57-8.65c0-7.76-4.73-11.39-4.73-18.39,0-18.11,31-18.57,32.26.76s.3,32.72-8.37,29.52a19.67,19.67,0,0,1-6.54-4l-1.81,17Z" style="fill:#ffa71a"/><path d="M280.5,116.39a59.24,59.24,0,0,1-4.67-5.57.3.3,0,0,0-.54.21l3.4,22.31Z" style="fill:#f6682f"/><path d="M266.93,110.8h2.56a3.67,3.67,0,0,0,3.36-2.18l7.66-17.15h13.93l1.28,9.58a1.15,1.15,0,0,0,1.14,1h.63c2.51-23.65-9.1-27.91-19.7-27.91s-16.49,8.39-16.49,14.61S269.94,104.73,266.93,110.8Z" style="fill:#282c35"/><path d="M137.6,254.75l-29.23,83.9H169l-29.23-83.9A1.14,1.14,0,0,0,137.6,254.75Z" style="fill:#9b9ea7"/><rect x="90.6" y="218.8" width="18.6" height="129.67" rx="1.06" ry="1.06" transform="translate(210.65 4.06) rotate(41.01)" style="fill:#9b9ea7"/><circle cx="107.74" cy="237.91" r="14.87" style="fill:#d2d6df"/><circle cx="96.91" cy="323.79" r="14.87" style="fill:#d2d6df"/><circle cx="217.69" cy="163.53" r="48.73" style="fill:#f6682f"/><path d="M212.21,157.13c6,17.15,16.27,35.93,16.27,35.93l6.28-2s-6.5-28.78-6.5-37.94l-16.05,4Z" style="fill:#ffa71a"/><path d="M260.31,116.54s-55.59,13.08-50.8,31.83c.72,2.8,1.64,5.75,2.69,8.76h0l16.05-4,24-8.5Z" style="fill:#282c35"/><path d="M345.8,166.48l2-7.11c.56-1.66,2.12-1.48,2,.68l-.28,6.16S347.34,166.44,345.8,166.48Z" style="fill:#f6682f"/><path d="M314.79,276.1c6.77-9.77,11.8-18.09,11.8-21.66,0-10.79-55.27-53.31-99.09-71.29,0,0-16.37,32.07,17.47,51,25.21,14.11,50.88,26.74,50.88,26.74s-4.59,5.9-10.71,15.26C293.41,276.18,305.27,276.15,314.79,276.1Z" style="fill:#45494e"/><path d="M279.5,326.06c.87-4.59,21.63-30.24,35.29-50-9.52,0-21.38.08-29.66.06-9.9,15.14-23.81,39.36-28.86,62.49h41.86C299.12,335.54,278.19,332.93,279.5,326.06Z" style="fill:#282c35"/><path d="M261.62,210.95l-34.12-27.8c-16.42,21.9-37.3,59.65-53.1,93,6.93,0,16.56,0,25.22,0C225.64,245.15,261.62,210.95,261.62,210.95Z" style="fill:#45494e"/><path d="M174.4,276.16c-13.14,27.75-22.78,52.46-23.42,62.49h42.84c0-4.09-20.49-4.53-20.49-19.79,0-8.67,11.55-25.19,26.3-42.74C191,276.16,181.33,276.18,174.4,276.16Z" style="fill:#282c35"/><path d="M187.55,249.67l33.77,2.09L236.58,236l7.73,10.46A1.59,1.59,0,0,0,246,247c5.12-1.53,27.61-8.94,46.77-26,0,0-19.89-15-29-19.27,0-19.57,19-35,21.16-52.27s-24.64-32.92-24.64-32.92a48.8,48.8,0,0,0-16.79,36.63c0,16.16-11.61,23.87-16,30C227.5,183.15,214.74,197.16,187.55,249.67Z" style="fill:#9b9ea7"/><rect x="205.94" y="160.91" width="26.11" height="7.85" rx="1.06" ry="1.06" transform="translate(-33.57 58.35) rotate(-14.11)" style="fill:#282c35"/><path d="M318,48.68,317,59.85,346.45,157l2.66-.76,2.71-.78-26.48-98-6.69-9A.38.38,0,0,0,318,48.68Z" style="fill:#f6682f"/><polygon points="361.35 154.62 352.83 158.6 347.05 160.25 337.89 161.39 337.37 159.57 360.85 152.85 361.35 154.62" style="fill:#45494e"/><path d="M357.57,175.15l-4.74-16.55-5.78,1.65,4.74,16.55a1.06,1.06,0,0,0,1.32.73l3.73-1.07A1.06,1.06,0,0,0,357.57,175.15Z" style="fill:#45494e"/><rect x="343.9" y="313.32" width="25.22" height="25.22" rx="1.06" ry="1.06" style="fill:#9b9ea7"/><path d="M275,75.22h3.2c0-1.09,0-2.5-.17-4.05A10.69,10.69,0,0,0,273,72.48,7.09,7.09,0,0,1,275,75.22Z" style="fill:#282c35"/><path d="M274,172.36s-16.79-20.93-16.79-32.27,15.16-19,25-2.62l20.36,34.89Z" style="fill:#9b9ea7"/><path d="M224.28,200.32h0c2.86,0,4.28-1.42,5.66-2.8s2.49-2.49,4.91-2.49h0c2.43,0,3.63,1.22,4.91,2.5s2.8,2.81,5.66,2.82h0c2.86,0,4.28-1.42,5.66-2.8s2.49-2.49,4.91-2.49h0c2.43,0,3.63,1.22,4.91,2.5a9.93,9.93,0,0,0,2.9,2.25c0-.39.07-.77.11-1.15a10,10,0,0,1-2.25-1.85c-1.38-1.38-2.8-2.81-5.66-2.81h0c-2.86,0-4.28,1.42-5.66,2.8s-2.49,2.49-4.91,2.49h0c-2.43,0-3.63-1.22-4.91-2.5s-2.8-2.81-5.66-2.82h0c-2.86,0-4.28,1.42-5.66,2.8s-2.49,2.49-4.91,2.49h0c-2.43,0-3.63-1.22-4.91-2.5-.3-.3-.68-.72-1-1l-.59.91c.26.24.59.61.84.86C220,198.89,221.41,200.32,224.28,200.32Z" style="fill:#6d717a"/><path d="M245.52,145h0c2.86,0,4.28-1.42,5.66-2.8s2.49-2.49,4.91-2.49h0c2.43,0,3.63,1.22,4.91,2.5s2.8,2.81,5.67,2.82h0c2.86,0,4.28-1.42,5.66-2.8s2.49-2.49,4.91-2.49h0c2.42,0,3.63,1.22,4.91,2.5a7.91,7.91,0,0,0,4.4,2.7l-.76-1.31a8.29,8.29,0,0,1-2.88-2.14c-1.38-1.38-2.8-2.81-5.66-2.82h0c-2.86,0-4.28,1.42-5.66,2.8s-2.49,2.49-4.91,2.49h0c-2.43,0-3.63-1.22-4.91-2.5s-2.8-2.81-5.67-2.82h0c-2.86,0-4.28,1.42-5.66,2.8s-2.49,2.49-4.91,2.49h0a6.12,6.12,0,0,1-1.08-.1c-.07.35-.14.69-.2,1A7.29,7.29,0,0,0,245.52,145Z" style="fill:#6d717a"/><path d="M256.06,182.93h0c-2.86,0-4.28,1.42-5.66,2.8s-2.49,2.49-4.91,2.49h0c-2.43,0-3.63-1.22-4.91-2.5s-2.8-2.81-5.66-2.82h0c-2.86,0-4.28,1.42-5.66,2.8s-2.49,2.49-4.91,2.49h0a4.58,4.58,0,0,1-.66-.07l-.7,1a7.83,7.83,0,0,0,1.35.16h0c2.86,0,4.28-1.42,5.66-2.8s2.49-2.49,4.91-2.49h0c2.43,0,3.63,1.22,4.91,2.5s2.8,2.81,5.66,2.82h0c2.86,0,4.28-1.42,5.66-2.8S253.62,184,256,184h0c2.43,0,3.63,1.22,4.91,2.5s2.66,2.64,5.23,2.79c.13-.35.25-.69.39-1-2.39,0-3.6-1.22-4.87-2.5S258.92,182.93,256.06,182.93Z" style="fill:#6d717a"/><path d="M261.06,120.06c1.38,1.38,2.8,2.81,5.66,2.82h0a6.82,6.82,0,0,0,2.1-.32l-1.07-.84a6.16,6.16,0,0,1-1,.09h0c-2.43,0-3.63-1.22-4.91-2.5a11.36,11.36,0,0,0-2.41-2l-.84.77A9.25,9.25,0,0,1,261.06,120.06Z" style="fill:#6d717a"/><path d="M213.62,249.3h0a6.44,6.44,0,0,0-4.5,1.7l1.66.1a5.35,5.35,0,0,1,2.84-.74h0A5.35,5.35,0,0,1,217,251.5l1.74.11A6.82,6.82,0,0,0,213.62,249.3Z" style="fill:#6d717a"/><path d="M256,238.29h0c-2.86,0-4.28,1.42-5.66,2.8s-2.49,2.49-4.91,2.49h0c-2.42,0-3.63-1.22-4.91-2.5l-.27-.27,2.36,3.24a6.52,6.52,0,0,0,2.82.6h0c2.86,0,4.28-1.42,5.66-2.8s2.49-2.49,4.91-2.49h0a6,6,0,0,1,4.59,2.18l1-.47C260.24,239.7,258.82,238.3,256,238.29Z" style="fill:#6d717a"/><path d="M272.32,175.44c-1.38,1.38-2.8,2.8-5.66,2.8h0c-2.87,0-4.29-1.43-5.67-2.82s-2.49-2.5-4.91-2.5h0c-2.42,0-3.63,1.21-4.91,2.49s-2.8,2.8-5.66,2.8h0c-2.87,0-4.29-1.43-5.66-2.81a7.32,7.32,0,0,0-3.5-2.33l.7-.91a8.76,8.76,0,0,1,3.56,2.5c1.28,1.28,2.49,2.5,4.91,2.5h0c2.42,0,3.63-1.21,4.91-2.49s2.8-2.8,5.66-2.8h0c2.87,0,4.29,1.43,5.67,2.82s2.49,2.5,4.91,2.5h0c2.42,0,3.63-1.21,4.91-2.49Z" style="fill:#6d717a"/><path d="M213.68,206.08c2.43,0,3.63,1.22,4.91,2.5s2.8,2.81,5.66,2.82h0c2.86,0,4.28-1.42,5.66-2.8s2.49-2.49,4.91-2.49h0c2.43,0,3.63,1.22,4.91,2.5s2.8,2.81,5.66,2.81h0c2.86,0,4.28-1.42,5.66-2.8s2.49-2.49,4.91-2.49h0c2.43,0,3.63,1.22,4.91,2.5s2.8,2.81,5.67,2.81h0c2.86,0,4.28-1.42,5.66-2.8a16.58,16.58,0,0,1,1.3-1.2l-.94-.61c-.39.34-.75.7-1.11,1.06-1.28,1.28-2.49,2.49-4.91,2.49h0c-2.43,0-3.63-1.22-4.91-2.5s-2.8-2.81-5.66-2.81h0c-2.86,0-4.28,1.42-5.66,2.8s-2.49,2.49-4.91,2.49h0c-2.43,0-3.63-1.22-4.91-2.5s-2.8-2.81-5.66-2.81h0c-2.86,0-4.28,1.42-5.66,2.8s-2.49,2.49-4.91,2.49h0c-2.43,0-3.63-1.22-4.91-2.5s-2.8-2.81-5.66-2.82h0a11.52,11.52,0,0,0-1.33.21l-.78,1.28a7.41,7.41,0,0,1,2.11-.42Z" style="fill:#6d717a"/><path d="M203.07,233.51c2.86,0,4.28-1.42,5.66-2.8s2.49-2.49,4.91-2.49h0c2.43,0,3.63,1.22,4.91,2.5s2.8,2.81,5.66,2.81h0c2.86,0,4.28-1.42,5.66-2.8s2.49-2.49,4.91-2.49h0c2.43,0,3.63,1.22,4.91,2.5s2.8,2.81,5.66,2.81h0c2.86,0,4.28-1.42,5.66-2.8s2.52-2.46,4.92-2.49,3.63,1.22,4.91,2.5,2.8,2.81,5.66,2.81h0c2.86,0,4.28-1.42,5.66-2.8s2.46-2.49,4.92-2.49a5.6,5.6,0,0,1,4.09,1.7l.9-.62a6.7,6.7,0,0,0-5-2.15h0c-2.86,0-4.28,1.42-5.66,2.8s-2.49,2.49-4.91,2.49h0c-2.43,0-3.63-1.22-4.91-2.5s-2.8-2.81-5.67-2.81h0c-2.86,0-4.28,1.42-5.66,2.8s-2.49,2.49-4.91,2.49h0c-2.43,0-3.63-1.22-4.91-2.5s-2.8-2.81-5.66-2.81h0c-2.86,0-4.28,1.42-5.66,2.8s-2.49,2.49-4.91,2.49h0c-2.43,0-3.63-1.22-4.91-2.5s-2.8-2.81-5.66-2.81h0c-2.86,0-4.28,1.42-5.66,2.8s-2.49,2.49-4.91,2.49h0c-2.4,0-3.73-1.26-5-2.53l-.5.92c1.3,1.3,2.8,2.67,5.49,2.68Z" style="fill:#6d717a"/><path d="M266.71,132.88c-2.43,0-3.63-1.22-4.91-2.5s-2.8-2.81-5.66-2.82h0c-2.86,0-4.28,1.42-5.66,2.8a10.82,10.82,0,0,1-2.06,1.74q-.35.72-.69,1.47a8.85,8.85,0,0,0,3.5-2.46c1.28-1.28,2.49-2.49,4.91-2.49h0c2.43,0,3.63,1.22,4.91,2.5s2.8,2.81,5.67,2.82h0c2.86,0,4.28-1.42,5.66-2.8a7.48,7.48,0,0,1,3.37-2.29l-.82-.85a9.18,9.18,0,0,0-3.3,2.39c-1.28,1.28-2.49,2.49-4.91,2.49Z" style="fill:#6d717a"/><path d="M213.64,239.3c2.43,0,3.63,1.22,4.91,2.5s2.8,2.81,5.66,2.81h0c2.86,0,4.28-1.42,5.66-2.8a8,8,0,0,1,3-2.18l1.28-1.34c-2.45.19-3.78,1.49-5,2.76s-2.49,2.49-4.91,2.49h0c-2.42,0-3.63-1.22-4.91-2.5s-2.8-2.81-5.66-2.81h0c-2.86,0-4.28,1.42-5.66,2.8s-2.49,2.49-4.91,2.49h0c-2.43,0-3.63-1.22-4.91-2.5a8.09,8.09,0,0,0-4.59-2.75l-.5.94c2,.19,3.17,1.39,4.33,2.56,1.38,1.38,2.8,2.81,5.66,2.82h0c2.86,0,4.28-1.42,5.66-2.8s2.49-2.49,4.91-2.49Z" style="fill:#6d717a"/><path d="M277.27,149.74h0c-2.86,0-4.28,1.42-5.66,2.8s-2.49,2.49-4.91,2.49h0c-2.43,0-3.63-1.22-4.91-2.5s-2.8-2.81-5.67-2.82h0c-2.86,0-4.28,1.42-5.66,2.8s-2.49,2.49-4.91,2.49h0a5.59,5.59,0,0,1-2-.36c0,.38,0,.74-.07,1.11a6.84,6.84,0,0,0,2.09.32h0c2.86,0,4.28-1.42,5.66-2.8s2.49-2.49,4.91-2.49h0c2.43,0,3.63,1.22,4.91,2.5s2.8,2.81,5.66,2.82h0c2.86,0,4.28-1.42,5.66-2.8s2.49-2.49,4.91-2.49h0c2.43,0,3.63,1.22,4.91,2.5s2.8,2.81,5.66,2.81h0a6.4,6.4,0,0,0,4.35-1.58l-.54-.93a5.46,5.46,0,0,1-3.8,1.45h0c-2.42,0-3.63-1.22-4.91-2.5S280.14,149.74,277.27,149.74Z" style="fill:#6d717a"/><path d="M296.11,161.23a9.09,9.09,0,0,0-3.36,2.41c-1.28,1.28-2.49,2.49-4.91,2.49h0c-2.43,0-3.63-1.22-4.91-2.5s-2.8-2.81-5.66-2.82h0c-2.86,0-4.28,1.42-5.66,2.8s-2.49,2.49-4.91,2.49h0c-2.43,0-3.63-1.22-4.91-2.5s-2.8-2.81-5.67-2.82h0c-2.86,0-4.28,1.42-5.66,2.8s-2.49,2.49-4.91,2.49h0a5.6,5.6,0,0,1-4.08-1.69q-.21.53-.44,1a6.45,6.45,0,0,0,4.51,1.72h0c2.86,0,4.28-1.42,5.66-2.8s2.49-2.49,4.91-2.49h0c2.43,0,3.63,1.22,4.91,2.5s2.8,2.81,5.67,2.82h0c2.86,0,4.28-1.42,5.66-2.8s2.49-2.49,4.91-2.49h0c2.42,0,3.63,1.22,4.91,2.5s2.8,2.81,5.67,2.82h0c2.86,0,4.28-1.42,5.66-2.8a7.8,7.8,0,0,1,3.15-2.23Z" style="fill:#6d717a"/><path d="M203.09,222.44c2.86,0,4.28-1.42,5.66-2.8s2.49-2.49,4.91-2.49h0c2.43,0,3.63,1.22,4.91,2.5s2.8,2.81,5.67,2.82h0c2.86,0,4.28-1.42,5.66-2.8s2.49-2.49,4.91-2.49h0c2.43,0,3.63,1.22,4.91,2.5s2.8,2.81,5.66,2.81h0c2.86,0,4.28-1.42,5.66-2.8s2.5-2.47,4.92-2.49,3.63,1.22,4.91,2.5,2.8,2.81,5.67,2.81h0c2.86,0,4.28-1.42,5.66-2.8s2.49-2.49,4.91-2.49h0c2.42,0,3.63,1.22,4.91,2.5s2.8,2.81,5.66,2.81h0a6.52,6.52,0,0,0,4.66-1.84l-.88-.65a5.46,5.46,0,0,1-3.79,1.43h0c-2.42,0-3.63-1.22-4.91-2.5s-2.8-2.81-5.66-2.81h0c-2.86,0-4.28,1.42-5.66,2.8s-2.49,2.49-4.91,2.49h0c-2.43,0-3.63-1.22-4.91-2.5s-2.8-2.81-5.67-2.81h0c-2.86,0-4.28,1.42-5.66,2.8s-2.49,2.49-4.91,2.49h0c-2.43,0-3.63-1.22-4.91-2.5s-2.8-2.81-5.66-2.81h0c-2.86,0-4.28,1.42-5.66,2.8s-2.49,2.49-4.91,2.49h0c-2.43,0-3.63-1.22-4.91-2.5s-2.8-2.81-5.66-2.82h0c-2.86,0-4.28,1.42-5.66,2.8s-2.49,2.49-4.91,2.49a.53.53,0,0,1-.22-.06l-.57,1a3.39,3.39,0,0,0,.78.11Z" style="fill:#6d717a"/><path d="M275.35,172.36H274s-13.63-17-16.32-28.65a3,3,0,0,0-.3,1.52c1.37,21.6,10.67,39.22,7.35,48.66C266.94,186.36,271.31,179,275.35,172.36Z" style="fill:#45494e"/><path d="M274,172.36s13,17,32.43,17c27.39,0,49.65-18.86,49.65-18.86s5.4-4.36,2.45-8.88c-2.47-3.8-5.75-3-5.75-3l1,3.34S341,172.36,302.61,172.36Z" style="fill:#ffa71a"/><path d="M471,340h0L1,339.93a1.13,1.13,0,0,1,0-2.24H1l470,.07a1.13,1.13,0,0,1,0,2.24Z" style="fill:#282c35"/></svg>
