<svg id="Layer_1" xmlns="http://www.w3.org/2000/svg" viewBox="0 0 472 340"><title>assortments-packages-complex</title><path d="M403.73,260.71c-3.66-3.2-10.48,5.88-14.35,2.5h0c-3.87-3.38,4.21-11.36.55-14.56s-10.48,5.88-14.35,2.5h0c-3.87-3.38,4.21-11.36.55-14.56s-10.48,5.88-14.35,2.5h0c-3.87-3.38,4.21-11.36.55-14.56S351.84,230.42,348,227h0c-3.87-3.38,4.21-11.36.55-14.56S338,218.37,334.17,215h0c-3.87-3.38,4.21-11.36.55-14.56s-10.48,5.88-14.35,2.5h0l-117.88,135h146l54.69-62.62h0C399.31,271.89,407.39,263.91,403.73,260.71Z" style="fill:#d2d6df"/><path d="M125.44,337.48c-19.92,0-48.18-41.18-61.37-41.18s5.92,20.59,0,20.59-31-26.51-40.64-26.51,11,37.95,3.69,37.95c-4.76,0-7.32-4-11.76-4-5.65,0,5.92,13.19,5.92,13.19Z" style="fill:#edeff5"/><circle cx="344.8" cy="313.93" r="23.69" style="fill:#6d717a"/><rect x="363.64" y="255.87" width="89.9" height="65.67" rx="0.88" ry="0.88" transform="translate(-84.79 205.81) rotate(-25.71)" style="fill:#edeff5"/><path d="M352.73,258.56h88.13a.88.88,0,0,1,.88.88v10.42a0,0,0,0,1,0,0h-89.9a0,0,0,0,1,0,0V259.45A.88.88,0,0,1,352.73,258.56Z" transform="translate(-75.34 198.27) rotate(-25.71)" style="fill:#9b9ea7"/><circle cx="361.66" cy="280.24" r="1.68" transform="translate(-85.77 184.62) rotate(-25.71)" style="fill:#d2d6df"/><circle cx="367.24" cy="278.44" r="1.68" transform="translate(-84.43 186.86) rotate(-25.71)" style="fill:#d2d6df"/><circle cx="372.82" cy="275.76" r="1.68" transform="translate(-82.72 189.01) rotate(-25.71)" style="fill:#d2d6df"/><path d="M390.46,318.06l-.2,0a.88.88,0,0,1-.66-1.06l3.54-15.43a.89.89,0,0,1,1.08-.66L406,304l6-21.64a.88.88,0,0,1,1.15-.6l12.36,4.38L428.83,275a.89.89,0,1,1,1.7.51l-3.59,12a.89.89,0,0,1-1.14.58l-12.34-4.38-5.95,21.56a.88.88,0,0,1-1.08.62l-11.77-3.06-3.34,14.54A.89.89,0,0,1,390.46,318.06Z" style="fill:#f6682f"/><circle cx="434.68" cy="326.33" r="11.71" style="fill:#6d717a"/><ellipse cx="11.57" cy="311.94" rx="4.08" ry="5.72" transform="translate(-154.42 47.58) rotate(-30)" style="fill:#edeff5"/><path d="M257.69,36.72a6.45,6.45,0,0,0,1,1.89l48.14,60.26,2.5-.54,1.19-2.26L265.49,33.49A6.45,6.45,0,0,0,264,32l-9.26-6.46a.48.48,0,0,0-.73.55Z" style="fill:#f6682f"/><path d="M281,218.06s49.81,17.12,49.81,27.3c0,11.52-16.67,54.25-16.67,54.25l-5.34-11.25,6-34.27L271,238Z" style="fill:#282c35"/><path d="M308.75,288.35,297,289.59a.92.92,0,0,0-.75,1.26l5.32,12.91a.92.92,0,0,0,1.2.5l11.3-4.66Z" style="fill:#282c35"/><path d="M265.77,110.49c-7.6-5.92-19.57-1.93-12.52,11,6.31,11.57,25.11,19.48,25.19,19.59,6.87,2.43,18.38-4,24.37-16.83l10.6-19.6-3.33-4.2,2-4.26c.92-1.73-.44-1.7-1.73-.43l-4.46,4.17c-1.81,1.88,1.14,4.3-2.12,8.59S285,128.66,285,128.66Z" style="fill:#45494e"/><path d="M308.35,95.67l-10.08,8.14c4.91,3.25,12.54-5.09,12.54-5.09s9.87-7.61,7.61-11.19Z" style="fill:#9b9ea7"/><path d="M318,119s-11.23-9.12-22.65-.56c-8.95,6.71-6,16.5-13.12,20.83-8.68,5.29-15,1.66-21.84,6.71s-10.91,22.19-10.91,22.19S277.43,162.93,318,119Z" style="fill:#282c35"/><path d="M167.72,220.82,155.3,268.52a.92.92,0,0,0,0,.59l28.78,68.32h8.58l-19.58-62.26L207.43,228S194.42,222.5,167.72,220.82Z" style="fill:#282c35"/><path d="M119.46,323.44l10.6-7-4.13-12.23-15,1.73a.92.92,0,0,0-.72,1.32l7.9,15.8A.92.92,0,0,0,119.46,323.44Z" style="fill:#282c35"/><path d="M130.06,316.46c5.59-4.19,8.11-15.1-1.4-48.94,0,0,32.91-25.91,45.58-38.31,0,0,37.47,13.42,86.69,13.42l17.7,33.58-30.56,15.15.09,11,41.27-14.94c6.43-6.15.86-40.32,5.61-58.22s13.7-49.78,24.89-63.48l28.24,11.47c9.23,2.8,16.22-1.68,17.62-5,0,0,4.19-5.87-3.08-13.14s-35-36.07-35-36.07-1.77-14.45-5.13-14.45S318,119,318,119c-5,0-51.46,48.94-71.59,48.94-32.16,0-60.4-10.35-86.69-10.35s-43.91,22.09-43.91,38.31,10.63,45.58,10.63,45.58l-16.16,14a1.21,1.21,0,0,0-.36,1.31Z" style="fill:#ffa71a"/><path d="M248.07,291.36,236,291.3a.92.92,0,0,0-.92.87l-.8,15.21a.92.92,0,0,0,1.31.88l12.59-5.89Z" style="fill:#282c35"/><path d="M126.11,172.54s-9.67-8.86-18.24-8.86c-35.81,0-41.57,74.94-68.23,74.94-9.22,0-17.63-6.06-20.73-8.6a.92.92,0,0,0-1.5.62c-.8,7.36-.27,35.95,29.74,35.95,43.52,0,34.54-94,60.26-94a21.63,21.63,0,0,1,14.28,5.66Z" style="fill:#ffa71a"/><path d="M246.39,168c-32.16,0-60.4-10.35-86.69-10.35s-47.85,22.09-47.85,38.31c0,5.63,1.28,12.84,3,19.86,5.19,0,10.11-7,13.58-7,7.92,0,6.57,10.35,12.63,10.35,8.39,0,13.38-10.35,19.25-10.35s3.64,10.35,12,10.35,13-10.35,18.18-10.35c6.34,0,3.54,10.35,9,10.35,7.55,0,12.47-9.41,19.55-9.41,8.67,0,1.32,11.09,10.19,11.09,11.36,0,27.22-12,34.21-12h37.39a238.77,238.77,0,0,1,10-27.47c-18.3-3.5-33.77-13-44.6-21.59C258.66,164.64,251.63,168,246.39,168Z" style="fill:#6d717a"/><path d="M327.77,122.94c3.39,3.53-10.72,25.63-5.31,25.63s11.56-7.64,15.1-7.64,1.68,15.85,1.68,15.85L367,176.54s5.75-7.86,1.46-12.05Z" style="fill:#45494e"/><path d="M148.8,213.59a5.57,5.57,0,0,0-4.25-2.11h0a5.58,5.58,0,0,0-4.25,2.1,4.69,4.69,0,0,1-3.6,1.83h0a4.66,4.66,0,0,1-.52,0c.18.33.37.65.56,1a5.59,5.59,0,0,0,4.22-2.1,4.69,4.69,0,0,1,3.6-1.83h0a4.69,4.69,0,0,1,3.6,1.84,9.64,9.64,0,0,0,1.51,1.3l.77-.61A7.52,7.52,0,0,1,148.8,213.59Z" style="fill:#45494e"/><path d="M117.35,213.55a5.86,5.86,0,0,0-3.51-2.06l.21,1a5.29,5.29,0,0,1,2.65,1.73,13.38,13.38,0,0,0,1,.93c.31-.13.63-.28.93-.45A9.25,9.25,0,0,1,117.35,213.55Z" style="fill:#45494e"/><path d="M250.49,213.59c1.41-.69,2.78-1.35,4.09-2A5.41,5.41,0,0,0,250.49,213.59Z" style="fill:#45494e"/><path d="M180.24,213.64a5.57,5.57,0,0,0-4.25-2.11h0a5.57,5.57,0,0,0-4.25,2.1,4.69,4.69,0,0,1-3.6,1.83h0a3.92,3.92,0,0,1-2.46-.8,13.85,13.85,0,0,0,.84,1.47,5.07,5.07,0,0,0,1.61.26h0a5.57,5.57,0,0,0,4.25-2.1,4.69,4.69,0,0,1,3.6-1.83h0a4.69,4.69,0,0,1,3.6,1.84,10.87,10.87,0,0,0,1.29,1.15l.73-.62A8.75,8.75,0,0,1,180.24,213.64Z" style="fill:#45494e"/><path d="M301.78,203.48h0a5.58,5.58,0,0,0-4.25,2.1,4.69,4.69,0,0,1-3.6,1.83h0a4.69,4.69,0,0,1-3.6-1.84,5.57,5.57,0,0,0-4.25-2.11h0a5.57,5.57,0,0,0-4.25,2.1,4.69,4.69,0,0,1-3.6,1.83h0a4.69,4.69,0,0,1-3.6-1.84,5.57,5.57,0,0,0-4.25-2.11h0a5.57,5.57,0,0,0-4.25,2.1,4.69,4.69,0,0,1-3.6,1.83h0a4.69,4.69,0,0,1-3.6-1.84,5.57,5.57,0,0,0-4.25-2.11h0a5.57,5.57,0,0,0-4.25,2.1,4.69,4.69,0,0,1-3.6,1.83h0a4.69,4.69,0,0,1-3.6-1.84,5.57,5.57,0,0,0-4.25-2.11h0a5.57,5.57,0,0,0-4.25,2.1,4.69,4.69,0,0,1-3.6,1.83h0a4.69,4.69,0,0,1-3.6-1.84,5.57,5.57,0,0,0-4.25-2.11h0a5.57,5.57,0,0,0-4.25,2.1,4.69,4.69,0,0,1-3.6,1.83h0a4.69,4.69,0,0,1-3.6-1.84,5.57,5.57,0,0,0-4.25-2.11h0a5.57,5.57,0,0,0-4.25,2.1,4.69,4.69,0,0,1-3.6,1.83h0a4.69,4.69,0,0,1-3.6-1.84,5.57,5.57,0,0,0-4.25-2.11h0a5.58,5.58,0,0,0-4.25,2.1,4.69,4.69,0,0,1-3.6,1.83h0a4.69,4.69,0,0,1-3.6-1.84A5.57,5.57,0,0,0,176,203.3h0a5.58,5.58,0,0,0-4.25,2.1,4.69,4.69,0,0,1-3.6,1.83h0a4.69,4.69,0,0,1-3.6-1.84,5.57,5.57,0,0,0-4.25-2.11h0a5.57,5.57,0,0,0-4.25,2.1,4.69,4.69,0,0,1-3.6,1.83h0a4.69,4.69,0,0,1-3.6-1.84,5.57,5.57,0,0,0-4.25-2.11h0a5.58,5.58,0,0,0-4.25,2.1,4.69,4.69,0,0,1-3.6,1.83h0a4.69,4.69,0,0,1-3.6-1.84,5.57,5.57,0,0,0-4.25-2.11h0a5.57,5.57,0,0,0-4.25,2.1,4.69,4.69,0,0,1-3.6,1.83h0a4.69,4.69,0,0,1-3.6-1.84,5.57,5.57,0,0,0-4.25-2.11h0a5.59,5.59,0,0,0-.7,0c0,.3.09.61.13.91a4.68,4.68,0,0,1,.57,0h0a4.69,4.69,0,0,1,3.6,1.84,5.57,5.57,0,0,0,4.25,2.11h0a5.57,5.57,0,0,0,4.25-2.1,4.69,4.69,0,0,1,3.6-1.83h0a4.69,4.69,0,0,1,3.6,1.84,5.57,5.57,0,0,0,4.25,2.11h0a5.58,5.58,0,0,0,4.25-2.1,4.69,4.69,0,0,1,3.6-1.83h0a4.69,4.69,0,0,1,3.6,1.84,5.57,5.57,0,0,0,4.25,2.11h0a5.57,5.57,0,0,0,4.25-2.1,4.69,4.69,0,0,1,3.6-1.83h0a4.69,4.69,0,0,1,3.6,1.84,5.57,5.57,0,0,0,4.25,2.11h0a5.58,5.58,0,0,0,4.25-2.1,4.69,4.69,0,0,1,3.6-1.83h0a4.69,4.69,0,0,1,3.6,1.84,5.57,5.57,0,0,0,4.25,2.11h0a5.58,5.58,0,0,0,4.25-2.1,4.69,4.69,0,0,1,3.6-1.83h0a4.69,4.69,0,0,1,3.6,1.84,5.57,5.57,0,0,0,4.25,2.11h0a5.57,5.57,0,0,0,4.25-2.1,4.62,4.62,0,0,1,3.61-1.83,4.69,4.69,0,0,1,3.6,1.84,5.57,5.57,0,0,0,4.25,2.11h0a5.57,5.57,0,0,0,4.25-2.1,4.69,4.69,0,0,1,3.6-1.83h0a4.69,4.69,0,0,1,3.6,1.84,5.57,5.57,0,0,0,4.25,2.11h0a5.57,5.57,0,0,0,4.25-2.1,4.69,4.69,0,0,1,3.6-1.83h0a4.69,4.69,0,0,1,3.6,1.84,5.57,5.57,0,0,0,4.25,2.11h0a5.57,5.57,0,0,0,4.25-2.1,4.69,4.69,0,0,1,3.6-1.83h0a4.69,4.69,0,0,1,3.6,1.84,5.57,5.57,0,0,0,4.25,2.11h0a5.57,5.57,0,0,0,4.25-2.1,4.69,4.69,0,0,1,3.6-1.83h0a4.69,4.69,0,0,1,3.6,1.84,5.57,5.57,0,0,0,4.25,2.11h0a5.57,5.57,0,0,0,4.25-2.1,4.69,4.69,0,0,1,3.6-1.83h0a4.69,4.69,0,0,1,3.6,1.84,5.57,5.57,0,0,0,4.25,2.11h0a5.58,5.58,0,0,0,4.25-2.1,4.69,4.69,0,0,1,3.6-1.83h0l.43,0,.29-.9A5.63,5.63,0,0,0,301.78,203.48Z" style="fill:#45494e"/><path d="M111.86,196.09a4.21,4.21,0,0,1,1.26-.18h0a4.69,4.69,0,0,1,3.6,1.84,5.57,5.57,0,0,0,4.25,2.11h0a5.57,5.57,0,0,0,4.25-2.1,4.69,4.69,0,0,1,3.6-1.83h0a4.69,4.69,0,0,1,3.6,1.84,5.57,5.57,0,0,0,4.25,2.11h0a5.57,5.57,0,0,0,4.25-2.1,4.69,4.69,0,0,1,3.6-1.83h0a4.69,4.69,0,0,1,3.6,1.84,5.57,5.57,0,0,0,4.25,2.11h0a5.57,5.57,0,0,0,4.25-2.1,4.69,4.69,0,0,1,3.6-1.83h0a4.69,4.69,0,0,1,3.6,1.84,5.57,5.57,0,0,0,4.25,2.11h0a5.58,5.58,0,0,0,4.25-2.1A4.69,4.69,0,0,1,176,196h0a4.69,4.69,0,0,1,3.6,1.84,5.57,5.57,0,0,0,4.25,2.11h0a5.58,5.58,0,0,0,4.25-2.1,4.69,4.69,0,0,1,3.6-1.83h0a4.69,4.69,0,0,1,3.6,1.84,5.57,5.57,0,0,0,4.25,2.11h0a5.58,5.58,0,0,0,4.25-2.1,4.69,4.69,0,0,1,3.6-1.83h0a4.69,4.69,0,0,1,3.6,1.84,5.57,5.57,0,0,0,4.25,2.11h0a5.57,5.57,0,0,0,4.25-2.1,4.69,4.69,0,0,1,3.6-1.83h0a4.69,4.69,0,0,1,3.6,1.84A5.57,5.57,0,0,0,231,200h0a5.57,5.57,0,0,0,4.25-2.1,4.69,4.69,0,0,1,3.6-1.83h0a4.69,4.69,0,0,1,3.6,1.84,5.57,5.57,0,0,0,4.25,2.11h0a5.57,5.57,0,0,0,4.25-2.1,4.69,4.69,0,0,1,3.6-1.83h0a4.69,4.69,0,0,1,3.6,1.84,5.57,5.57,0,0,0,4.25,2.11h0a5.57,5.57,0,0,0,4.25-2.1,4.69,4.69,0,0,1,3.6-1.83h0a4.69,4.69,0,0,1,3.6,1.84,5.57,5.57,0,0,0,4.25,2.11h0a5.57,5.57,0,0,0,4.25-2.1,4.69,4.69,0,0,1,3.6-1.83h0a4.69,4.69,0,0,1,3.6,1.84,5.57,5.57,0,0,0,4.25,2.11h0a5.58,5.58,0,0,0,4.25-2.1,4.69,4.69,0,0,1,3.6-1.83h0a4,4,0,0,1,2.82,1.09l.32-.92a4.84,4.84,0,0,0-3.14-1.09h0a5.58,5.58,0,0,0-4.25,2.1,4.69,4.69,0,0,1-3.6,1.83h0a4.69,4.69,0,0,1-3.6-1.84,5.57,5.57,0,0,0-4.25-2.11h0a5.57,5.57,0,0,0-4.25,2.1,4.69,4.69,0,0,1-3.6,1.83h0a4.69,4.69,0,0,1-3.6-1.84,5.57,5.57,0,0,0-4.25-2.11h0a5.57,5.57,0,0,0-4.25,2.1,4.69,4.69,0,0,1-3.6,1.83h0a4.69,4.69,0,0,1-3.6-1.84,5.57,5.57,0,0,0-4.25-2.11h0a5.57,5.57,0,0,0-4.25,2.1,4.69,4.69,0,0,1-3.6,1.83h0a4.69,4.69,0,0,1-3.6-1.84,5.57,5.57,0,0,0-4.25-2.11h0a5.57,5.57,0,0,0-4.25,2.1,4.69,4.69,0,0,1-3.6,1.83h0a4.69,4.69,0,0,1-3.6-1.84,5.57,5.57,0,0,0-4.25-2.11h0a5.58,5.58,0,0,0-4.25,2.1,4.69,4.69,0,0,1-3.6,1.83h0a4.69,4.69,0,0,1-3.6-1.84,5.57,5.57,0,0,0-4.25-2.11h0a5.58,5.58,0,0,0-4.25,2.1,4.69,4.69,0,0,1-3.6,1.83h0a4.69,4.69,0,0,1-3.6-1.84,5.57,5.57,0,0,0-4.25-2.11h0a5.57,5.57,0,0,0-4.25,2.1,4.69,4.69,0,0,1-3.6,1.83h0a4.69,4.69,0,0,1-3.6-1.84,5.57,5.57,0,0,0-4.25-2.11h0a5.58,5.58,0,0,0-4.25,2.1,4.69,4.69,0,0,1-3.6,1.83h0a4.69,4.69,0,0,1-3.6-1.84,5.57,5.57,0,0,0-4.25-2.11h0a5.57,5.57,0,0,0-4.25,2.1,4.69,4.69,0,0,1-3.6,1.83h0a4.69,4.69,0,0,1-3.6-1.84,5.57,5.57,0,0,0-4.25-2.11h0a5.57,5.57,0,0,0-4.25,2.1,4.69,4.69,0,0,1-3.6,1.83h0a4.69,4.69,0,0,1-3.6-1.84,5.57,5.57,0,0,0-4.25-2.11h0a5.57,5.57,0,0,0-4.25,2.1,4.69,4.69,0,0,1-3.6,1.83h0a4.69,4.69,0,0,1-3.6-1.84,5.57,5.57,0,0,0-4.25-2.11h0a5.23,5.23,0,0,0-1.23.15c0,.26,0,.53,0,.79C111.85,196,111.86,196,111.86,196.09Z" style="fill:#45494e"/><path d="M243.13,213.73a5.57,5.57,0,0,0-4.25-2.11h0a5.57,5.57,0,0,0-4.25,2.1,4.69,4.69,0,0,1-3.6,1.83h0a4.69,4.69,0,0,1-3.6-1.84,5.57,5.57,0,0,0-4.25-2.11h0a4.88,4.88,0,0,1,.42.94,4.86,4.86,0,0,1,3.21,1.81,5.57,5.57,0,0,0,4.25,2.11h0a5.57,5.57,0,0,0,4.25-2.1,4.69,4.69,0,0,1,3.6-1.83h0a4.69,4.69,0,0,1,3.6,1.84,6.8,6.8,0,0,0,2.55,1.82l1.4-.65A4.82,4.82,0,0,1,243.13,213.73Z" style="fill:#45494e"/><path d="M207.44,211.57h0a5.58,5.58,0,0,0-4.25,2.1,4.7,4.7,0,0,1-3.6,1.83h0a4.69,4.69,0,0,1-3.6-1.84,12.45,12.45,0,0,0-1.09-1c.2.58.38,1.18.56,1.77a5.43,5.43,0,0,0,4.13,2h0a5.58,5.58,0,0,0,4.25-2.1,4.7,4.7,0,0,1,3.6-1.83h0a4.09,4.09,0,0,1,3,1.22l.74-.56A5.07,5.07,0,0,0,207.44,211.57Z" style="fill:#45494e"/><path d="M309.67,182.76h0a4.69,4.69,0,0,1-3.6-1.84,13.11,13.11,0,0,0-1-1c-1.3-.35-2.58-.71-3.85-1.12a5.81,5.81,0,0,0-3.63,2.06,4.7,4.7,0,0,1-3.6,1.83h0a4.69,4.69,0,0,1-3.6-1.84,5.57,5.57,0,0,0-4.25-2.11h0a5.57,5.57,0,0,0-4.25,2.1,4.69,4.69,0,0,1-3.6,1.83h0a4.69,4.69,0,0,1-3.6-1.84,5.57,5.57,0,0,0-4.25-2.11h0a5.58,5.58,0,0,0-4.25,2.1,4.69,4.69,0,0,1-3.6,1.83h0a4.69,4.69,0,0,1-3.6-1.84,5.57,5.57,0,0,0-4.25-2.11h0a5.57,5.57,0,0,0-4.25,2.1,4.69,4.69,0,0,1-3.6,1.83h0a4.69,4.69,0,0,1-3.6-1.84,5.57,5.57,0,0,0-4.25-2.11h0a5.57,5.57,0,0,0-4.25,2.1,4.69,4.69,0,0,1-3.6,1.83h0a4.69,4.69,0,0,1-3.6-1.84,5.57,5.57,0,0,0-4.25-2.11h0a5.57,5.57,0,0,0-4.25,2.1,4.69,4.69,0,0,1-3.6,1.83h0a4.69,4.69,0,0,1-3.6-1.84,5.57,5.57,0,0,0-4.25-2.11h0a5.58,5.58,0,0,0-4.25,2.1,4.69,4.69,0,0,1-3.6,1.83h0a4.69,4.69,0,0,1-3.6-1.84,5.57,5.57,0,0,0-4.25-2.11h0a5.58,5.58,0,0,0-4.25,2.1,4.69,4.69,0,0,1-3.6,1.83h0a4.69,4.69,0,0,1-3.6-1.84,5.57,5.57,0,0,0-4.25-2.11h0a5.58,5.58,0,0,0-4.25,2.1,4.69,4.69,0,0,1-3.6,1.83h0a4.69,4.69,0,0,1-3.6-1.84,5.57,5.57,0,0,0-4.25-2.11h0a5.57,5.57,0,0,0-4.25,2.1,4.69,4.69,0,0,1-3.6,1.83h0a4.69,4.69,0,0,1-3.6-1.84,5.57,5.57,0,0,0-4.25-2.11h0a5.57,5.57,0,0,0-4.25,2.1,4.69,4.69,0,0,1-3.6,1.83h0a4.69,4.69,0,0,1-3.6-1.84,5.57,5.57,0,0,0-4.25-2.11h0a5.57,5.57,0,0,0-4.25,2.1,4.69,4.69,0,0,1-3.6,1.83h0a4.69,4.69,0,0,1-3.6-1.84l-.16-.16-.51.78,0,0a5.57,5.57,0,0,0,4.25,2.11h0a5.57,5.57,0,0,0,4.25-2.1,4.69,4.69,0,0,1,3.6-1.83h0a4.69,4.69,0,0,1,3.6,1.84,5.57,5.57,0,0,0,4.25,2.11h0a5.57,5.57,0,0,0,4.25-2.1,4.69,4.69,0,0,1,3.6-1.83h0a4.69,4.69,0,0,1,3.6,1.84,5.57,5.57,0,0,0,4.25,2.11h0a5.57,5.57,0,0,0,4.25-2.1,4.69,4.69,0,0,1,3.6-1.83h0a4.69,4.69,0,0,1,3.6,1.84,5.57,5.57,0,0,0,4.25,2.11h0a5.58,5.58,0,0,0,4.25-2.1,4.69,4.69,0,0,1,3.6-1.83h0a4.69,4.69,0,0,1,3.6,1.84,5.57,5.57,0,0,0,4.25,2.11h0a5.58,5.58,0,0,0,4.25-2.1,4.69,4.69,0,0,1,3.6-1.83h0a4.69,4.69,0,0,1,3.6,1.84,5.57,5.57,0,0,0,4.25,2.11h0a5.58,5.58,0,0,0,4.25-2.1,4.69,4.69,0,0,1,3.6-1.83h0a4.69,4.69,0,0,1,3.6,1.84,5.57,5.57,0,0,0,4.25,2.11h0a5.57,5.57,0,0,0,4.25-2.1,4.69,4.69,0,0,1,3.6-1.83h0a4.69,4.69,0,0,1,3.6,1.84,5.57,5.57,0,0,0,4.25,2.11h0a5.57,5.57,0,0,0,4.25-2.1,4.69,4.69,0,0,1,3.6-1.83h0a4.69,4.69,0,0,1,3.6,1.84,5.57,5.57,0,0,0,4.25,2.11h0a5.57,5.57,0,0,0,4.25-2.1,4.69,4.69,0,0,1,3.6-1.83h0a4.69,4.69,0,0,1,3.6,1.84,5.57,5.57,0,0,0,4.25,2.11h0a5.58,5.58,0,0,0,4.25-2.1,4.69,4.69,0,0,1,3.6-1.83h0a4.69,4.69,0,0,1,3.6,1.84,5.57,5.57,0,0,0,4.25,2.11h0a5.57,5.57,0,0,0,4.25-2.1,4.69,4.69,0,0,1,3.6-1.83h0a4.69,4.69,0,0,1,3.6,1.84,5.57,5.57,0,0,0,4.25,2.11,5.42,5.42,0,0,0,4.26-2.1,4.69,4.69,0,0,1,3.6-1.83h0a4.69,4.69,0,0,1,3.6,1.84,5.57,5.57,0,0,0,4.25,2.11h.19l.41-.95A4.69,4.69,0,0,1,309.67,182.76Z" style="fill:#45494e"/><path d="M301.8,187h0a5.58,5.58,0,0,0-4.25,2.1,4.69,4.69,0,0,1-3.6,1.83h0a4.69,4.69,0,0,1-3.6-1.84,5.57,5.57,0,0,0-4.25-2.11h0a5.57,5.57,0,0,0-4.25,2.1,4.69,4.69,0,0,1-3.6,1.83h0a4.69,4.69,0,0,1-3.6-1.84,5.57,5.57,0,0,0-4.25-2.11h0a5.57,5.57,0,0,0-4.25,2.1,4.69,4.69,0,0,1-3.6,1.83h0a4.69,4.69,0,0,1-3.6-1.84,5.57,5.57,0,0,0-4.25-2.11h0a5.57,5.57,0,0,0-4.25,2.1,4.69,4.69,0,0,1-3.6,1.83h0a4.69,4.69,0,0,1-3.6-1.84,5.57,5.57,0,0,0-4.25-2.11h0a5.57,5.57,0,0,0-4.25,2.1,4.69,4.69,0,0,1-3.6,1.83h0a4.69,4.69,0,0,1-3.6-1.84,5.57,5.57,0,0,0-4.25-2.11h0a5.57,5.57,0,0,0-4.25,2.1,4.69,4.69,0,0,1-3.6,1.83h0a4.69,4.69,0,0,1-3.6-1.84,5.57,5.57,0,0,0-4.25-2.11h0a5.58,5.58,0,0,0-4.25,2.1,4.69,4.69,0,0,1-3.6,1.83h0A4.69,4.69,0,0,1,196,189a5.57,5.57,0,0,0-4.25-2.11h0a5.57,5.57,0,0,0-4.25,2.1,4.69,4.69,0,0,1-3.6,1.83h0a4.69,4.69,0,0,1-3.6-1.84,5.57,5.57,0,0,0-4.25-2.11h0a5.57,5.57,0,0,0-4.25,2.1,4.69,4.69,0,0,1-3.6,1.83h0a4.69,4.69,0,0,1-3.6-1.84,5.57,5.57,0,0,0-4.25-2.11h0a5.57,5.57,0,0,0-4.25,2.1,4.69,4.69,0,0,1-3.6,1.83h0a4.69,4.69,0,0,1-3.6-1.84,5.57,5.57,0,0,0-4.25-2.11h0a5.57,5.57,0,0,0-4.25,2.1,4.69,4.69,0,0,1-3.6,1.83h0a4.69,4.69,0,0,1-3.6-1.84,5.57,5.57,0,0,0-4.25-2.11h0a5.57,5.57,0,0,0-4.25,2.1,4.69,4.69,0,0,1-3.6,1.83h0a4.69,4.69,0,0,1-3.6-1.84,5.84,5.84,0,0,0-3.55-2.06c-.12.3-.24.6-.36.9a4.84,4.84,0,0,1,3.25,1.82,5.57,5.57,0,0,0,4.25,2.11h0a5.57,5.57,0,0,0,4.25-2.1,4.69,4.69,0,0,1,3.6-1.83h0a4.69,4.69,0,0,1,3.6,1.84,5.57,5.57,0,0,0,4.25,2.11h0a5.57,5.57,0,0,0,4.25-2.1,4.69,4.69,0,0,1,3.6-1.83h0a4.69,4.69,0,0,1,3.6,1.84,5.57,5.57,0,0,0,4.25,2.11h0a5.57,5.57,0,0,0,4.25-2.1,4.69,4.69,0,0,1,3.6-1.83h0a4.69,4.69,0,0,1,3.6,1.84,5.57,5.57,0,0,0,4.25,2.11h0a5.58,5.58,0,0,0,4.25-2.1,4.69,4.69,0,0,1,3.6-1.83h0a4.69,4.69,0,0,1,3.6,1.84,5.57,5.57,0,0,0,4.25,2.11h0a5.57,5.57,0,0,0,4.25-2.1,4.69,4.69,0,0,1,3.6-1.83h0a4.69,4.69,0,0,1,3.6,1.84,5.57,5.57,0,0,0,4.25,2.11h0a5.58,5.58,0,0,0,4.25-2.1,4.69,4.69,0,0,1,3.6-1.83h0a4.69,4.69,0,0,1,3.6,1.84,5.57,5.57,0,0,0,4.25,2.11h0a5.57,5.57,0,0,0,4.25-2.1,4.69,4.69,0,0,1,3.6-1.83h0a4.69,4.69,0,0,1,3.6,1.84,5.57,5.57,0,0,0,4.25,2.11h0a5.57,5.57,0,0,0,4.25-2.1,4.69,4.69,0,0,1,3.6-1.83h0a4.69,4.69,0,0,1,3.6,1.84,5.57,5.57,0,0,0,4.25,2.11h0a5.57,5.57,0,0,0,4.25-2.1,4.69,4.69,0,0,1,3.6-1.83h0a4.69,4.69,0,0,1,3.6,1.84,5.57,5.57,0,0,0,4.25,2.11h0a5.57,5.57,0,0,0,4.25-2.1,4.69,4.69,0,0,1,3.6-1.83h0a4.69,4.69,0,0,1,3.6,1.84,5.57,5.57,0,0,0,4.25,2.11h0a5.57,5.57,0,0,0,4.25-2.1,4.69,4.69,0,0,1,3.6-1.83h0a4.69,4.69,0,0,1,3.6,1.84,5.57,5.57,0,0,0,4.25,2.11h0a5.58,5.58,0,0,0,4.25-2.1,4.69,4.69,0,0,1,3.6-1.83h0a4.69,4.69,0,0,1,3.6,1.84,9.9,9.9,0,0,0,1.46,1.27l.34-.88a10.25,10.25,0,0,1-1.15-1A5.57,5.57,0,0,0,301.8,187Z" style="fill:#45494e"/><path d="M128.87,171.26h0a4.69,4.69,0,0,1,3.6,1.84,5.36,5.36,0,0,0,8.51,0,4.69,4.69,0,0,1,3.6-1.83h0a4.69,4.69,0,0,1,3.6,1.84,5.57,5.57,0,0,0,4.25,2.11h0a5.57,5.57,0,0,0,4.25-2.1,4.69,4.69,0,0,1,3.6-1.83h0a4.69,4.69,0,0,1,3.6,1.84,5.57,5.57,0,0,0,4.25,2.11h0a5.58,5.58,0,0,0,4.25-2.1,4.69,4.69,0,0,1,3.6-1.83h0a4.69,4.69,0,0,1,3.6,1.84,5.57,5.57,0,0,0,4.25,2.11h0a5.57,5.57,0,0,0,4.25-2.1,4.7,4.7,0,0,1,3.6-1.83h0a4.69,4.69,0,0,1,3.6,1.84,5.57,5.57,0,0,0,4.25,2.11h0a5.58,5.58,0,0,0,4.25-2.1,4.69,4.69,0,0,1,3.6-1.83h0a4.69,4.69,0,0,1,3.6,1.84,5.57,5.57,0,0,0,4.25,2.11h0a5.58,5.58,0,0,0,4.25-2.1,4.69,4.69,0,0,1,3.6-1.83h0a4.69,4.69,0,0,1,3.6,1.84,5.57,5.57,0,0,0,4.25,2.11h0a5.57,5.57,0,0,0,4.25-2.1,4.69,4.69,0,0,1,3.6-1.83h0a4.69,4.69,0,0,1,3.6,1.84,5.57,5.57,0,0,0,4.25,2.11h0a5.57,5.57,0,0,0,4.25-2.1,4.69,4.69,0,0,1,3.6-1.83h0a4.69,4.69,0,0,1,3.6,1.84,5.57,5.57,0,0,0,4.25,2.11h0a5.57,5.57,0,0,0,4.25-2.1,4.69,4.69,0,0,1,3.6-1.83h0a4.69,4.69,0,0,1,3.6,1.84,5.57,5.57,0,0,0,4.25,2.11h0a5.57,5.57,0,0,0,4.25-2.1,6.23,6.23,0,0,1,2.06-1.54l-1-.54a8.76,8.76,0,0,0-1.71,1.43,4.69,4.69,0,0,1-3.6,1.83h0a4.69,4.69,0,0,1-3.6-1.84,5.57,5.57,0,0,0-4.25-2.11h0a5.57,5.57,0,0,0-4.25,2.1,4.69,4.69,0,0,1-3.6,1.83h0a4.69,4.69,0,0,1-3.6-1.84,5.57,5.57,0,0,0-4.25-2.11h0a5.57,5.57,0,0,0-4.25,2.1,4.69,4.69,0,0,1-3.6,1.83h0a4.69,4.69,0,0,1-3.6-1.84,5.57,5.57,0,0,0-4.25-2.11h0a5.57,5.57,0,0,0-4.25,2.1,4.69,4.69,0,0,1-3.6,1.83h0a4.69,4.69,0,0,1-3.6-1.84,5.57,5.57,0,0,0-4.25-2.11h0a5.58,5.58,0,0,0-4.25,2.1,4.69,4.69,0,0,1-3.6,1.83h0a4.69,4.69,0,0,1-3.6-1.84,5.57,5.57,0,0,0-4.25-2.11h0a5.58,5.58,0,0,0-4.25,2.1,4.7,4.7,0,0,1-3.6,1.83h0a4.69,4.69,0,0,1-3.6-1.84,5.57,5.57,0,0,0-4.25-2.11h0a5.57,5.57,0,0,0-4.25,2.1,4.7,4.7,0,0,1-3.6,1.83h0a4.69,4.69,0,0,1-3.6-1.84,5.57,5.57,0,0,0-4.25-2.11h0a5.58,5.58,0,0,0-4.25,2.1,4.69,4.69,0,0,1-3.6,1.83h0a4.69,4.69,0,0,1-3.6-1.84,5.57,5.57,0,0,0-4.25-2.11h0a5.57,5.57,0,0,0-4.25,2.1,4.69,4.69,0,0,1-3.6,1.83h0a4.69,4.69,0,0,1-3.6-1.84,5.57,5.57,0,0,0-4.25-2.11h0a5.57,5.57,0,0,0-4.25,2.1,4.69,4.69,0,0,1-3.6,1.83h0a4.69,4.69,0,0,1-3.6-1.84,5.57,5.57,0,0,0-4.25-2.11h0a5.57,5.57,0,0,0-4.25,2.1,6,6,0,0,1-2.2,1.59c-.36.38-.72.75-1.06,1.13a5.7,5.7,0,0,0,3.91-2.08A4.69,4.69,0,0,1,128.87,171.26Z" style="fill:#45494e"/><path d="M262.52,167.17h0a5.57,5.57,0,0,0,4.25-2.1,4.69,4.69,0,0,1,3.6-1.83h0a4.7,4.7,0,0,1,.58,0l-1.25-.91a5.83,5.83,0,0,0-3.59,2.05,4.69,4.69,0,0,1-3.6,1.83h0a4.69,4.69,0,0,1-3.6-1.84l-.25-.25-.87.44.47.46A5.57,5.57,0,0,0,262.52,167.17Z" style="fill:#45494e"/><path d="M215.36,167.1h0a4.93,4.93,0,0,0,3.43-1.32l-1.28-.18a3.91,3.91,0,0,1-2.15.59h0a4.24,4.24,0,0,1-3.18-1.42l-1.58-.26.5.49A5.57,5.57,0,0,0,215.36,167.1Z" style="fill:#45494e"/><path d="M152.49,158.79a4.82,4.82,0,0,0,3-1q-2.4.22-4.74.66a5,5,0,0,0,1.74.3Z" style="fill:#45494e"/><path d="M136.75,167a5.57,5.57,0,0,0,4.25-2.1,4.69,4.69,0,0,1,3.6-1.83h0a4.69,4.69,0,0,1,3.6,1.84,5.57,5.57,0,0,0,4.25,2.11h0a5.57,5.57,0,0,0,4.25-2.1,4.69,4.69,0,0,1,3.6-1.83h0a4.69,4.69,0,0,1,3.6,1.84,5.57,5.57,0,0,0,4.25,2.11h0a5.57,5.57,0,0,0,4.25-2.1,4.69,4.69,0,0,1,3.6-1.83h0a4.69,4.69,0,0,1,3.6,1.84,5.57,5.57,0,0,0,4.25,2.11h0a5.57,5.57,0,0,0,4.25-2.1,4.7,4.7,0,0,1,3.6-1.83h0a4.69,4.69,0,0,1,3.6,1.84,5.57,5.57,0,0,0,4.25,2.11h0a5.58,5.58,0,0,0,4.25-2.1,7.44,7.44,0,0,1,1.65-1.35l-1.29-.23a13.41,13.41,0,0,0-1,.93,4.69,4.69,0,0,1-3.6,1.83h0a4.69,4.69,0,0,1-3.6-1.84,5.57,5.57,0,0,0-4.25-2.11h0a5.57,5.57,0,0,0-4.25,2.1,4.7,4.7,0,0,1-3.6,1.83h0a4.69,4.69,0,0,1-3.6-1.84,5.57,5.57,0,0,0-4.25-2.11h0a5.58,5.58,0,0,0-4.25,2.1,4.7,4.7,0,0,1-3.6,1.83h0a4.69,4.69,0,0,1-3.6-1.84,5.57,5.57,0,0,0-4.25-2.11h0a5.57,5.57,0,0,0-4.25,2.1,4.69,4.69,0,0,1-3.6,1.83h0a4.69,4.69,0,0,1-3.6-1.84,5.57,5.57,0,0,0-4.25-2.11h0a5.57,5.57,0,0,0-4.25,2.1,4.69,4.69,0,0,1-3.6,1.83h0a4,4,0,0,1-2.86-1.13l-.83.49a5.05,5.05,0,0,0,3.68,1.56Z" style="fill:#45494e"/><path d="M168.21,158.81a4.82,4.82,0,0,0,2.5-.65c-1.88-.17-3.75-.31-5.6-.4a4.83,4.83,0,0,0,3.09,1Z" style="fill:#45494e"/><path d="M313.37,191.78h-.11c-41.59-.06-79.38-40.6-79.76-41a.92.92,0,1,1,1.35-1.25,161.4,161.4,0,0,0,23.8,20.22c13.17,9.19,33.33,20.16,54.61,20.19h.1a64.87,64.87,0,0,0,34-9.32,50.31,50.31,0,0,0,11.55-9.37.92.92,0,0,1,1.42,1.17C360.18,172.61,344,191.78,313.37,191.78Z" style="fill:#282c35"/><path d="M214,238.73s8.38-31.62,20.12-43.36c0,0-37.85-13.8-32.81-37.1L232,163.68s28,23.49,26.1,28.34S236.88,221.47,233,229.86c0,0,1.58,7.46,10.62,12.23C243.59,242.09,221.92,240.15,214,238.73Z" style="fill:#d2d6df"/><path d="M201.27,158.27c6.34-18.64,25.54-43.44,50.9-51.08l16.22,5.22S263,147.08,232,163.68Z" style="fill:#d2d6df"/><path d="M256.72,194.62H244.88a.92.92,0,0,0-.8.46C236.87,207.8,233,229.86,233,229.86S255.3,197.23,256.72,194.62Z" style="fill:#282c35"/><path d="M247.58,108.78l4.59-1.59,16.33,4.9s-2.78,21.21-9.58,29a.78.78,0,0,1-1.32-.29Z" style="fill:#6d717a"/><path d="M226.89,84.68a.79.79,0,0,0,1.37.05c1.34-2.19,4.51-6.68,8-6.68,4.66,0,6.37,9.48,11,9.48S258.33,72,262.77,72s4.45,5.61,4.45,5.61l3.13.67s-.43-13.59-8.26-13.59c-6.53,0-10.26,8.24-14.84,8.24s-3.19-12.75-11.89-12.75C227,60.17,221.64,74.46,226.89,84.68Z" style="fill:#f6682f"/><path d="M174.35,325.87h13.51a1,1,0,0,1,.77.37l10.11,12.55h-19Z" style="fill:#282c35"/><path d="M224.8,124.22,249,132.54s6.17-19.93-.3-20.83C240,110.5,224.8,124.22,224.8,124.22Z" style="fill:#282c35"/><path d="M244.84,130.84S219,154.57,203.51,160.34c-10.44,5.2-17.9-3.14-10.07-10.6S223,125.14,223,125.14Z" style="fill:#9b9ea7"/><path d="M217.27,228s5.35,7.49,5.56,7.42,10.6-9.12,10.14-5.57c1.81,7.15,10.62,9.91,10.62,12.23,0,0-10.25,0-29.62-3.35C214,238.73,216.41,230.48,217.27,228Z" style="fill:#9b9ea7"/><path d="M312.19,95.48h4.29a0,0,0,0,1,0,0v14a.92.92,0,0,1-.92.92h-2.45a.92.92,0,0,1-.92-.92v-14A0,0,0,0,1,312.19,95.48Z" transform="translate(5.14 220.41) rotate(-38.93)" style="fill:#9b9ea7"/><path d="M312.49,97.3s7.85,2.2,4.51,6l-1.72,2.12s-4.45-3.06-2.09-7.43Z" style="fill:#45494e"/><path d="M274.08,79.68a.92.92,0,0,0-.64-.68l-3.49-1-.72-.2-3.49-1a.92.92,0,0,0-.91.24L255,87a.92.92,0,0,0-.26.53l-2.6,19.69,16.33,4.9,8.77-18.52Z" style="fill:#9b9ea7"/><line x1="275.27" y1="84.84" x2="271.35" y2="83.6" style="fill:#6d717a"/><polygon points="273.31 91.44 274.98 83.6 277.27 93.57 268.5 112.09 273.31 91.44" style="fill:#6d717a"/><path d="M269,92.62l7.6,2.33.65-1.38-.24-1-7.3-2.24a.92.92,0,0,0-1.15.62l-.17.57A.92.92,0,0,0,269,92.62Z" style="fill:#282c35"/><path d="M211.7,95.28c-5.41,4.06-58.54,45-59.26,85.93,36.65,18.32,97.52-9.86,103.6-12.77a.93.93,0,0,0,.53-.78c1.59-29-23.73-63.05-43.93-72.48A.91.91,0,0,0,211.7,95.28Z" style="fill:#f6682f"/><circle cx="213.77" cy="142.07" r="14.71" transform="translate(24.86 315.84) rotate(-76.22)" style="fill:#ffa71a"/><polygon points="432.03 268.1 425.7 275.6 432.63 277.65 432.03 268.1" style="fill:#f6682f"/><path d="M471,340h0L1,339.93a1.13,1.13,0,0,1,0-2.24H1l470,.07a1.13,1.13,0,0,1,0,2.24Z" style="fill:#282c35"/></svg>
