<svg id="Layer_1" xmlns="http://www.w3.org/2000/svg" viewBox="0 0 176 176"><title>assortments</title><path d="M81.08,55.37C76.48,55.37,68.14,78,68.14,78L77,82.41,80.6,78Z" style="fill:#45494e"/><path d="M81.08,55.37s-5.32,7.8-4.06,27L80.6,78Z" style="fill:#282c35"/><path d="M84,91.34s-16.68,32.27-16.68,35.8h13l14.51-28-3-8Z" style="fill:#45494e"/><path d="M103.79,93.24l-11.61.89L87.38,93l4.8,34h11.61Z" style="fill:#45494e"/><path d="M82.23,89.15,70.79,111.63a.61.61,0,0,0,.54.88H83.2a1,1,0,0,0,.88-.53l6.13-11.65a.52.52,0,0,1,1,.12l2.64,11.29a1,1,0,0,0,1,.77h13.08a1,1,0,0,0,1-1c0-3.56-.36-15.86-6.71-22.38l4.41-20.93,3.64,10.93h9s-1-23.78-13.07-23.78H81.08S75.17,67.15,82.23,89.15Z" style="fill:#9b9ea7"/><path d="M77.1,154.13c0,6.52-8.92,8.82-8.92,8.82H84.8c.22-11.89-1.57-32.35-4.44-35.8h-13C67.32,129.74,77.1,147.61,77.1,154.13Z" style="fill:#282c35"/><path d="M93.54,162.95s3.59-3.34,2.51-10c-.62-3.82-1.89-15.49-3.88-26h11.61l-.26,36Z" style="fill:#282c35"/><path d="M98.38,105.68a2.42,2.42,0,0,1,3.95,0,3.4,3.4,0,0,0,5.36,0,4.83,4.83,0,0,1,.81-.7c0-.35-.09-.7-.14-1.06a4.58,4.58,0,0,0-1.37,1,2.42,2.42,0,0,1-3.95,0,3.4,3.4,0,0,0-5.36,0,2.42,2.42,0,0,1-3.95,0A4,4,0,0,0,92,103.79l.29,1.23a5.12,5.12,0,0,1,.76.66,3.4,3.4,0,0,0,5.36,0Z" style="fill:#6d717a"/><path d="M86.39,106a2.53,2.53,0,0,1-2-1A3.39,3.39,0,0,0,79,105a2.42,2.42,0,0,1-3.95,0,8.22,8.22,0,0,0-.63-.58l-.47.92.38.37a3.39,3.39,0,0,0,5.36,0,2.42,2.42,0,0,1,3.95,0A3.49,3.49,0,0,0,86.39,107l.33,0,.63-1.2A2.09,2.09,0,0,1,86.39,106Z" style="fill:#6d717a"/><path d="M97.67,85.5a2.42,2.42,0,0,1-3.95,0,3.4,3.4,0,0,0-5.36,0,2.42,2.42,0,0,1-3.95,0,3.49,3.49,0,0,0-2.68-1.31,3.35,3.35,0,0,0-.89.11c.08.32.16.64.25,1a2.34,2.34,0,0,1,.64-.08,2.53,2.53,0,0,1,2,1,3.4,3.4,0,0,0,5.36,0,2.42,2.42,0,0,1,3.95,0,3.4,3.4,0,0,0,5.36,0,2.42,2.42,0,0,1,3.95,0l.39.38.24-1.16a3.41,3.41,0,0,0-2.61-1.24A3.49,3.49,0,0,0,97.67,85.5Z" style="fill:#6d717a"/><path d="M95.69,102.13a3.49,3.49,0,0,0,2.68-1.31,2.42,2.42,0,0,1,3.95,0,3.4,3.4,0,0,0,5.36,0l.08-.07c-.08-.37-.17-.75-.26-1.13-.19.16-.36.33-.52.49a2.42,2.42,0,0,1-3.95,0,3.39,3.39,0,0,0-5.36,0,2.42,2.42,0,0,1-3.95,0,3.39,3.39,0,0,0-5.36,0,2.42,2.42,0,0,1-3.95,0,3.39,3.39,0,0,0-5.36,0,2.53,2.53,0,0,1-2,1,2.12,2.12,0,0,1-.85-.17l-.46.91a3.15,3.15,0,0,0,1.31.26,3.49,3.49,0,0,0,2.68-1.31,2.42,2.42,0,0,1,3.95,0,3.39,3.39,0,0,0,5.36,0,2.42,2.42,0,0,1,3.95,0A3.49,3.49,0,0,0,95.69,102.13Z" style="fill:#6d717a"/><path d="M79.76,66.73a2.42,2.42,0,0,1,3.95,0,3.39,3.39,0,0,0,5.36,0,2.42,2.42,0,0,1,3.95,0,3.39,3.39,0,0,0,5.36,0,2.42,2.42,0,0,1,3.95,0,3.4,3.4,0,0,0,5.36,0,2.42,2.42,0,0,1,3.95,0,3.39,3.39,0,0,0,5.36,0l.06-.06q-.17-.53-.35-1.05l-.42.4a2.42,2.42,0,0,1-3.95,0A3.39,3.39,0,0,0,107,66,2.42,2.42,0,0,1,103,66a3.39,3.39,0,0,0-5.36,0,2.42,2.42,0,0,1-3.95,0,3.39,3.39,0,0,0-5.36,0,2.42,2.42,0,0,1-3.95,0A3.39,3.39,0,0,0,79,66l-.22.21q0,.65-.05,1.33A5.77,5.77,0,0,0,79.76,66.73Z" style="fill:#6d717a"/><path d="M80.73,56.21a2.08,2.08,0,0,1,1-.24,2.53,2.53,0,0,1,2,1,3.4,3.4,0,0,0,5.36,0A2.42,2.42,0,0,1,93,57a3.4,3.4,0,0,0,5.36,0,2.42,2.42,0,0,1,3.95,0,3.4,3.4,0,0,0,5.36,0,2.7,2.7,0,0,1,1.69-1,8.12,8.12,0,0,0-1.57-.46,6.51,6.51,0,0,0-.83.74,2.42,2.42,0,0,1-3.95,0,5.3,5.3,0,0,0-1.1-.91H98.77a5.31,5.31,0,0,0-1.1.91,2.42,2.42,0,0,1-3.95,0,5.31,5.31,0,0,0-1.1-.91H89.46a5.3,5.3,0,0,0-1.1.91,2.42,2.42,0,0,1-3.95,0,5.31,5.31,0,0,0-1.1-.91H81.08S80.94,55.65,80.73,56.21Z" style="fill:#6d717a"/><path d="M107,109.85a2.42,2.42,0,0,1-3.95,0,3.4,3.4,0,0,0-5.36,0,2.42,2.42,0,0,1-3.95,0l-.44-.42.41,1.75a3.06,3.06,0,0,0,2,.69,3.49,3.49,0,0,0,2.68-1.31,2.42,2.42,0,0,1,3.95,0,3.4,3.4,0,0,0,5.36,0,3.4,3.4,0,0,1,1.17-.87c0-.33,0-.68,0-1A3.93,3.93,0,0,0,107,109.85Z" style="fill:#6d717a"/><path d="M83.7,91.07a3.4,3.4,0,0,0,5.36,0,2.42,2.42,0,0,1,3.95,0,3.4,3.4,0,0,0,5.36,0,2.42,2.42,0,0,1,3.95,0,3.63,3.63,0,0,0,2.27,1.29q-.45-.75-1-1.45a6.57,6.57,0,0,1-.6-.54,3.4,3.4,0,0,0-5.36,0,2.42,2.42,0,0,1-3.95,0,3.4,3.4,0,0,0-5.36,0,2.42,2.42,0,0,1-3.95,0,3.66,3.66,0,0,0-2.2-1.28l0,.07-.46.91A2.55,2.55,0,0,1,83.7,91.07Z" style="fill:#6d717a"/><path d="M114.31,71.91a2.53,2.53,0,0,1-2-1,3.49,3.49,0,0,0-2.68-1.31,3.17,3.17,0,0,0-2.31.95l.35,1.05a2.41,2.41,0,0,1,3.93,0,3.4,3.4,0,0,0,5.36,0,3.54,3.54,0,0,1,1.12-.84q-.1-.49-.22-1a4.21,4.21,0,0,0-1.6,1.13A2.53,2.53,0,0,1,114.31,71.91Z" style="fill:#6d717a"/><path d="M84.41,109.85a3.39,3.39,0,0,0-5.36,0,2.42,2.42,0,0,1-3.95,0,3.49,3.49,0,0,0-2.68-1.31h-.05l-.55,1.07a2.35,2.35,0,0,1,.6-.07,2.53,2.53,0,0,1,2,1,3.39,3.39,0,0,0,5.36,0,2.42,2.42,0,0,1,3.95,0,6.94,6.94,0,0,0,.76.69l.48-.91C84.77,110.19,84.59,110,84.41,109.85Z" style="fill:#6d717a"/><path d="M105,62.17a2.53,2.53,0,0,1-2-1,3.39,3.39,0,0,0-5.36,0,2.42,2.42,0,0,1-3.95,0,3.39,3.39,0,0,0-5.36,0,2.42,2.42,0,0,1-3.95,0,3.49,3.49,0,0,0-2.68-1.31,3.14,3.14,0,0,0-2.24.89q-.15.77-.28,1.64c.19-.17.37-.34.54-.51a2.42,2.42,0,0,1,3.95,0,3.39,3.39,0,0,0,5.36,0,2.42,2.42,0,0,1,3.95,0,3.39,3.39,0,0,0,5.36,0,2.42,2.42,0,0,1,3.95,0,3.4,3.4,0,0,0,5.36,0,2.42,2.42,0,0,1,3.95,0,3.49,3.49,0,0,0,2.68,1.31,3.15,3.15,0,0,0,1.31-.26c-.14-.31-.3-.61-.45-.91a2.12,2.12,0,0,1-.86.18,2.53,2.53,0,0,1-2-1,3.39,3.39,0,0,0-5.36,0A2.53,2.53,0,0,1,105,62.17Z" style="fill:#6d717a"/><path d="M103,70.89a3.4,3.4,0,0,0-5.36,0,2.42,2.42,0,0,1-3.95,0,3.4,3.4,0,0,0-5.36,0,2.42,2.42,0,0,1-3.95,0,3.39,3.39,0,0,0-5.36,0l-.23.22q0,.61.07,1.24a6.31,6.31,0,0,0,.87-.76,2.42,2.42,0,0,1,3.95,0,3.4,3.4,0,0,0,5.36,0,2.42,2.42,0,0,1,3.95,0,3.4,3.4,0,0,0,5.36,0,2.42,2.42,0,0,1,3.95,0,3.38,3.38,0,0,0,3.29,1.26l.23-1.11a2.13,2.13,0,0,1-.84.17A2.53,2.53,0,0,1,103,70.89Z" style="fill:#6d717a"/><path d="M81.73,94.92a2.53,2.53,0,0,1,2,1,3.39,3.39,0,0,0,5.36,0,2.42,2.42,0,0,1,3.95,0,3.39,3.39,0,0,0,5.36,0,2.42,2.42,0,0,1,3.95,0A3.49,3.49,0,0,0,105,97.26a3.06,3.06,0,0,0,1.65-.44c-.11-.33-.24-.65-.36-1a2.06,2.06,0,0,1-1.28.41,2.53,2.53,0,0,1-2-1,3.39,3.39,0,0,0-5.36,0,2.42,2.42,0,0,1-3.95,0,3.39,3.39,0,0,0-5.36,0,2.42,2.42,0,0,1-3.95,0,3.49,3.49,0,0,0-2.68-1.31,3.31,3.31,0,0,0-2.5,1.14l-1,2a4.29,4.29,0,0,0,1.55-1.12A2.53,2.53,0,0,1,81.73,94.92Z" style="fill:#6d717a"/><path d="M100.35,79.32a3.49,3.49,0,0,0-2.68,1.31,2.42,2.42,0,0,1-3.95,0,3.39,3.39,0,0,0-5.36,0,2.42,2.42,0,0,1-3.95,0,3.49,3.49,0,0,0-2.68-1.31,3,3,0,0,0-1.87.59q.1.55.22,1.11a2.2,2.2,0,0,1,1.65-.7,2.53,2.53,0,0,1,2,1,3.39,3.39,0,0,0,5.36,0,2.42,2.42,0,0,1,3.95,0,3.39,3.39,0,0,0,5.36,0,2.42,2.42,0,0,1,3.95,0,4.78,4.78,0,0,0,1.29,1l.22-1a4.9,4.9,0,0,1-.8-.69A3.49,3.49,0,0,0,100.35,79.32Z" style="fill:#6d717a"/><path d="M118.77,74.46a3.56,3.56,0,0,0-2.48,1.3,2.42,2.42,0,0,1-3.95,0,3.49,3.49,0,0,0-2.68-1.31,3.31,3.31,0,0,0-1,.13l.32.95a2.35,2.35,0,0,1,.64-.08,2.53,2.53,0,0,1,2,1,3.4,3.4,0,0,0,5.36,0,2.57,2.57,0,0,1,1.91-1C118.86,75.14,118.82,74.8,118.77,74.46Z" style="fill:#6d717a"/><path d="M100.35,74.45a3.49,3.49,0,0,0-2.68,1.31,2.42,2.42,0,0,1-3.95,0,3.4,3.4,0,0,0-5.36,0,2.42,2.42,0,0,1-3.95,0,3.49,3.49,0,0,0-2.68-1.31,3.34,3.34,0,0,0-2.54,1.17q.07.61.16,1.24l.4-.39a2.42,2.42,0,0,1,3.95,0,3.4,3.4,0,0,0,5.36,0,2.42,2.42,0,0,1,3.95,0,3.4,3.4,0,0,0,5.36,0,2.42,2.42,0,0,1,3.95,0,3.63,3.63,0,0,0,2.26,1.29l.21-1a2.65,2.65,0,0,1-1.76-1A3.49,3.49,0,0,0,100.35,74.45Z" style="fill:#6d717a"/><path d="M82.23,89.15h19.94l.57-3.06H81.31S81.89,88.13,82.23,89.15Z" style="fill:#282c35"/><path d="M99,55.37S95.85,53,95.85,49.84s5.39-4.75,5.39-9.85c.36-7-10.35-10.5-14.09-1.51S84.85,52,89.26,50.2v5.18s1.16,2,4.74,2S99,55.37,99,55.37Z" style="fill:#ffa71a"/><path d="M89.26,50.2a12.73,12.73,0,0,0,3.44-2.27.14.14,0,0,1,.23.14c-.53,1.53-2,5.58-3.67,7.31Z" style="fill:#f6682f"/><path d="M85.95,43.19a.52.52,0,0,1-.51.39h-1.1s1.87-12.3,11.58-12.3c3.09,0,6.82,1.64,6.82,8,0,2.76-2.23,6.52-3.37,8.26a2.1,2.1,0,0,1-1.76,1H96.36a1,1,0,0,1-1-1V39.62H87S86.26,42,85.95,43.19Z" style="fill:#282c35"/><path d="M106.59,68.22c-1.74,8.09-9.26,11-11.72,19.62h7.51Z" style="fill:#45494e"/><path d="M131.5,123.5l-2.3-4.29L93.72,89.15l-.9,1-.92,1.05,34.49,31.19,4.56,1.7A.45.45,0,0,0,131.5,123.5Z" style="fill:#f6682f"/><polygon points="88.14 94.44 90.62 90.19 92.58 87.95 96.09 85.01 96.8 85.63 88.83 95.04 88.14 94.44" style="fill:#45494e"/><path d="M84.57,84.9l6.05,5.29,2-2.24-6.05-5.29a1,1,0,0,0-1.44.1l-.62.71A1,1,0,0,0,84.57,84.9Z" style="fill:#45494e"/><path d="M110.23,79.15h9A28.15,28.15,0,0,1,99,87.84a14.3,14.3,0,0,1-9.49,4.1c-1.3,0,2.52-4.46,2.52-4.46l-1.26-1.1s1.14-1.21,5.31-1.37S110.23,79.15,110.23,79.15Z" style="fill:#ffa71a"/><circle cx="61.15" cy="84.3" r="19.66" style="fill:#f6682f"/><circle cx="61.15" cy="84.32" r="4" style="fill:#ffa71a"/><path d="M95.58,162.72s4.24-5.31,7.16-5.31,2.76,5.54,2.76,5.54Z" style="fill:#45494e"/><path d="M131.56,163.95H47.86a1,1,0,1,1,0-2h83.7a1,1,0,0,1,0,2Z" style="fill:#282c35"/><path d="M98.85,30.31c.24-.62,1.9-8.36,8.49-7.3,7.13,1.14,2.88,15.28,10.47,15a1,1,0,0,1,.81,1.58c-1.51,1.83-4.26,4.17-8.06,3.58-6.06-.94-3-14.31-6.84-14.31-2.07,0-3,2.25-3,2.25Z" style="fill:#f6682f"/><rect x="98.26" y="30.59" width="2" height="2.71" transform="translate(19.93 -35.73) rotate(22.63)" style="fill:#282c35"/></svg>
