<?xml version="1.0" encoding="utf-8"?>
<!-- Generator: Adobe Illustrator 20.0.0, SVG Export Plug-In . SVG Version: 6.00 Build 0)  -->
<svg version="1.1" id="eds-icon--auto_svg"
	 xmlns="http://www.w3.org/2000/svg" xmlns:xlink="http://www.w3.org/1999/xlink" x="0px" y="0px" viewBox="0 0 24 24"
	 enable-background="new 0 0 24 24" xml:space="preserve">
<path id="eds-icon--auto_base" fill-rule="evenodd" clip-rule="evenodd" fill="#231F20" d="M22,10h-3V4H5v6H4.9H2v1
	h1.3C3.1,11.3,3,11.6,3,12v6h1v1c0,1.1,0.9,2,2,2s2-0.9,2-2v-1h8v1c0,1.1,0.9,2,2,2h0c1.1,0,2-0.9,2-2v-1h1v-6c0-0.4-0.1-0.7-0.3-1
	H22V10z M6,5h12v5h-5.5V7h-1v3H6V5z M7,19c0,0.6-0.4,1-1,1s-1-0.4-1-1v-1h2V19z M19,19c0,0.6-0.4,1-1,1s-1-0.4-1-1v-1h2V19z M20,17
	L20,17h-4.1H8H4v-5c0-0.6,0.4-1,0.9-1H5h6.5h1h6.4c0.6,0,1.1,0.4,1.1,1V17z"/>
<g id="eds-icon--auto_circles">
	<path fill-rule="evenodd" clip-rule="evenodd" fill="#231F20" d="M17,12c-1.1,0-2,0.9-2,2c0,1.1,0.9,2,2,2s2-0.9,2-2
		C19,12.9,18.1,12,17,12z M17,15c-0.6,0-1-0.4-1-1c0-0.6,0.4-1,1-1c0.6,0,1,0.4,1,1C18,14.5,17.6,15,17,15z"/>
	<path fill-rule="evenodd" clip-rule="evenodd" fill="#231F20" d="M7,12c-1.1,0-2,0.9-2,2s0.9,2,2,2s2-0.9,2-2S8.1,12,7,12z M7,15
		c-0.6,0-1-0.4-1-1c0-0.6,0.4-1,1-1c0.6,0,1,0.4,1,1C8,14.5,7.5,15,7,15z"/>
</g>
<rect id="eds-icon--auto_dash" x="11" y="13" fill-rule="evenodd" clip-rule="evenodd" fill="#231F20" width="2" height="1"/>
</svg>
