<?xml version="1.0" encoding="utf-8"?>
<!-- Generator: Adobe Illustrator 20.0.0, SVG Export Plug-In . SVG Version: 6.00 Build 0)  -->
<svg version="1.1" id="eds-icon--balloon_svg"
	 xmlns="http://www.w3.org/2000/svg" xmlns:xlink="http://www.w3.org/1999/xlink" x="0px" y="0px" viewBox="0 0 24 24"
	 enable-background="new 0 0 24 24" xml:space="preserve">
<path id="eds-icon--balloon_base" fill-rule="evenodd" clip-rule="evenodd" fill="#231F20" d="M16.8,4.4
	c-1.3-1.3-3.1-1.9-4.9-1.9c-1.8,0-3.5,0.6-4.9,1.9C4.3,7,4.3,11.2,7,13.8l3.8,3.7l-1,3h1.6v2h1v-2H14l-1-3l3.8-3.7
	C19.5,11.2,19.5,7,16.8,4.4z M11.3,19.5l0.3-1h0.6l0.3,1H11.3z M11.9,17.1l-4.1-4C6.6,12.1,6,10.7,6,9.1c0-1.5,0.6-2.9,1.7-4
	c1.1-1.1,2.6-1.7,4.1-1.7c1.6,0,3,0.6,4.1,1.7c1.1,1.1,1.7,2.5,1.7,4c0,1.5-0.6,2.9-1.7,4L11.9,17.1z"/>
<path id="eds-icon--balloon_line" fill-rule="evenodd" clip-rule="evenodd" fill="#231F20" d="M7.2,9.7h1
	c0-1.9,1.6-3.4,3.6-3.4v-1C9.3,5.3,7.2,7.3,7.2,9.7z"/>
</svg>
