<?xml version="1.0" encoding="utf-8"?>
<!-- Generator: Adobe Illustrator 20.1.0, SVG Export Plug-In . SVG Version: 6.00 Build 0)  -->
<svg version="1.1" id="eds-icon--bathroom_svg"
	 xmlns="http://www.w3.org/2000/svg" xmlns:xlink="http://www.w3.org/1999/xlink" x="0px" y="0px" viewBox="0 0 24 24"
	 enable-background="new 0 0 24 24" xml:space="preserve">
<path id="eds-icon--bathroom_man-base" d="M8.8,9.1c-0.4-0.5-1-0.9-1.7-0.9c-0.7,0-1.3,0.3-1.7,0.9l-3.5,4.7
	l0.8,0.6l2.4-3.2v4.5v6.5h1v-6h2v6h1v-6.5v-4.5l2.4,3.2l0.8-0.6L8.8,9.1z M8.1,15.2h-2v-4.1v-0.8c0-0.2,0-0.4,0.1-0.6l0.1-0.1l0,0
	c0.2-0.3,0.5-0.4,0.8-0.4c0.3,0,0.6,0.1,0.8,0.4l0,0L8,9.8c0.1,0.2,0.1,0.3,0.1,0.6V15.2z"/>
<path id="eds-icon--bathroom_man-circle" d="M7.1,6.8c1.4,0,2.5-1.1,2.5-2.5S8.5,1.8,7.1,1.8
	c-1.4,0-2.5,1.1-2.5,2.5S5.7,6.8,7.1,6.8z M7.1,2.8c0.8,0,1.5,0.7,1.5,1.5S7.9,5.8,7.1,5.8S5.6,5.1,5.6,4.2S6.3,2.8,7.1,2.8z"/>
<path id="eds-icon--bathroom_woman-circle" d="M18.1,6.8c1.4,0,2.5-1.1,2.5-2.5s-1.1-2.5-2.5-2.5
	c-1.4,0-2.5,1.1-2.5,2.5S16.7,6.8,18.1,6.8z M18.1,2.8c0.8,0,1.5,0.7,1.5,1.5s-0.7,1.5-1.5,1.5s-1.5-0.7-1.5-1.5S17.3,2.8,18.1,2.8z
	"/>
<path id="eds-icon--bathroom_woman-base_1_" d="M20.3,9.9C20,8.8,19,8.2,18.1,8.2c-0.9,0-1.9,0.6-2.2,1.7l-1.8,6.3
	h2v6h1v-6h2v6h1v-6h2L20.3,9.9z M15.6,15.2l1.3-5.1c0.2-0.7,0.7-0.9,1.1-0.9c0.4,0,1,0.2,1.1,0.9l1.4,5.1H15.6z"/>
</svg>
