<?xml version="1.0" encoding="utf-8"?>
<!-- Generator: Adobe Illustrator 20.1.0, SVG Export Plug-In . SVG Version: 6.00 Build 0)  -->
<svg version="1.1" id="eds-icon--beaker_svg"
	 xmlns="http://www.w3.org/2000/svg" xmlns:xlink="http://www.w3.org/1999/xlink" x="0px" y="0px" viewBox="0 0 24 24"
	 enable-background="new 0 0 24 24" xml:space="preserve">
<path id="eds-icon--beaker_base" fill-rule="evenodd" clip-rule="evenodd" d="M14,7.3V4h1V3H9v1h1v3.3
	C7.1,8.2,5,10.8,5,14c0,3.9,3.1,7,7,7s7-3.1,7-7C19,10.8,16.9,8.2,14,7.3z M12,20c-2.7,0-5-1.8-5.8-4.3h11.5C17,18.2,14.7,20,12,20z
	 M6,14.6c0-0.2,0-0.4,0-0.6c0-0.1,0-0.3,0-0.4h2v-1.1H6.2c0.1-0.4,0.2-0.7,0.4-1.1h1.5v-1.1H7.2C8,9.4,9,8.6,10.3,8.3L11,8V7.3V4h2
	v3.3V8l0.7,0.2C16.2,9,18,11.4,18,14c0,0.2,0,0.4,0,0.6H6z"/>
</svg>
