<?xml version="1.0" encoding="utf-8"?>
<!-- Generator: Adobe Illustrator 20.1.0, SVG Export Plug-In . SVG Version: 6.00 Build 0)  -->
<svg version="1.1" id="eds-icon--bell_svg"
	 xmlns="http://www.w3.org/2000/svg" xmlns:xlink="http://www.w3.org/1999/xlink" x="0px" y="0px" viewBox="0 0 24 24"
	 enable-background="new 0 0 24 24" xml:space="preserve">
<polygon id="eds-icon--bell_base" points="2,19 3,19 3,20 4,20 4,19 20,19 20,20 21,20 21,19 22,19 22,18 2,18 "/>
<path id="eds-icon--bell_curve" d="M13,10v1c2,0,3.6,1.5,3.6,3.4h1.1C17.7,12,15.6,10,13,10z"/>
<path id="eds-icon--bell_bell" d="M12.5,7V5H14V4h-4v1h1.5v2C6.2,7.3,2,11.6,2,17h20C22,11.6,17.8,7.3,12.5,7z
	 M11.9,8c4.6,0,8.4,3.5,8.9,8H3C3.5,11.5,7.3,8,11.9,8z"/>
</svg>
