<?xml version="1.0" encoding="utf-8"?>
<!-- Generator: Adobe Illustrator 20.0.0, SVG Export Plug-In . SVG Version: 6.00 Build 0)  -->
<svg version="1.1" id="eds-icon--bike_svg"
	 xmlns="http://www.w3.org/2000/svg" xmlns:xlink="http://www.w3.org/1999/xlink" x="0px" y="0px" viewBox="0 0 24 24"
	 enable-background="new 0 0 24 24" xml:space="preserve">
<path id="eds-icon--bike_base" fill-rule="evenodd" clip-rule="evenodd" fill="#231F20" d="M18.8,11
	c-0.4,0-0.7,0.1-1.1,0.1L15.7,6H18v1h1V5h-0.5H18h-4v1h0.7l0.4,1h-4.7L9.9,6H11V5H8v1h0.8l0.7,1.7v0.1L7,11.4
	C6.4,11.1,5.8,11,5.2,11C2.9,11,1,12.8,1,15c0,2.2,2,4,4.2,4s4.2-1.8,4.2-4v0h1.9l0,0l4.4-6.2l1.1,2.7c-1.3,0.7-2.2,2-2.2,3.5
	c0,2.2,1.9,4,4.2,4s4.2-1.8,4.2-4C23,12.8,21.1,11,18.8,11z M15.1,8l-2.8,4l-1.6-4H15.1z M8.5,15c0,1.7-1.5,3-3.2,3S2,16.7,2,15
	c0-1.7,1.4-3,3.1-3c0.4,0,0.8,0.1,1.2,0.2L4.4,15h1.2h0L8.5,15L8.5,15z M8.1,14H6.4l0.9-1.2C7.6,13.1,7.9,13.5,8.1,14z M7.8,11.9
	L10,8.9l1.7,4.1l-0.7,1H9.2C8.9,13.2,8.5,12.5,7.8,11.9z M18.8,18c-1.7,0-3.2-1.3-3.2-3c0-1.1,0.6-2,1.5-2.6l0.9,2.3l0.9-0.4
	l-0.9-2.3c0.2,0,0.5-0.1,0.7-0.1c1.7,0,3.2,1.3,3.2,3C22,16.7,20.6,18,18.8,18z"/>
</svg>
