<?xml version="1.0" encoding="UTF-8" standalone="no"?>
<svg viewBox="0 0 220 234" version="1.1" xmlns="http://www.w3.org/2000/svg" xmlns:xlink="http://www.w3.org/1999/xlink">
    <!-- Generator: Sketch 43.2 (39069) - http://www.bohemiancoding.com/sketch -->
    <title>Illustration_content</title>
    <desc>Created with Sketch.</desc>
    <defs></defs>
    <g id="Page-1" stroke="none" stroke-width="1" fill="none" fill-rule="evenodd">
        <g id="Illustration_content">
            <polygon id="Fill" fill="#FEFEFE" points="2 140.339071 29.4508703 197.393787 29.4508703 140.339071"></polygon>
            <path d="M104.382814,73.4474958 L104.382814,73.4474958 C47.260473,73.4474958 17.0896246,106.061796 17.0896246,145.547424 L17.0896246,150.415899 L161.511688,154.293685 L173.158869,85.8810616 L104.382814,73.4474958 Z" id="Fill" fill="#FEFEFE"></path>
            <polygon id="Fill" fill="#00808C" points="132.910754 221.211014 23.1595442 210.422683 23.1595442 117.499614 132.910754 117.499614"></polygon>
            <polygon id="Fill" fill="#FEFEFE" points="132.910754 215.509855 132.932223 151.496973 162.869717 151.496973"></polygon>
            <path d="M26.050151,106.582836 L36.5100256,96.1194431 L36.5100256,96.1194431 C38.7371594,98.347326 38.7371594,101.958999 36.5100256,104.186881 L31.0598018,109.638938 L26.050151,106.582836 Z" id="Fill" fill="#A4DBE2"></path>
            <path d="M8.98168162,140.339444 L8.98168162,123.352743 C8.98261504,123.350876 24.2850588,108.040484 24.2850588,108.040484 C26.9742341,105.350404 30.6201622,103.839627 34.4229044,103.839627 L53.2658001,103.839627 C53.2658001,107.768768 50.0819136,110.953725 46.1540935,110.953725 L32.7371527,110.953725 L36.8637908,120.93718 C36.8637908,120.93718 35.4842,126.682429 32.6867482,124.544184 L31.169945,123.21175 L23.0949517,128.025134 L23.0949517,140.339444 L8.98168162,140.339444 Z" id="Fill" fill="#A4DBE2"></path>
            <path d="M34.7676155,127.773867 L23.0952317,128.025041 L33.3889581,103.976792 L53.2660802,103.976792 L53.2660802,108.866743 C53.2660802,119.152726 45.048274,127.552573 34.7676155,127.773867" id="Fill" fill="#A4DBE2"></path>
            <path d="M23.1600109,185.414558 L23.1600109,212.583337 C23.1600109,212.583337 23.9506154,233.948043 45.8364516,233.948043 C67.7222878,233.948043 66.2717572,213.505864 66.2717572,213.505864 L151.837191,213.505864 C151.837191,213.505864 158.956365,233.948043 137.597909,233.948043 L44.7256849,233.948043" id="Fill" fill="#A4DBE2"></path>
            <path d="M23.1600109,185.414558 L23.1600109,212.583337 C23.1600109,212.583337 23.9506154,233.948043 45.8364516,233.948043 C67.7222878,233.948043 66.2717572,213.505864 66.2717572,213.505864 L23.1600109,185.414558 Z" id="Fill" fill="#00808C"></path>
            <path d="M133.795447,103.29627 L145.136468,114.778364 L137.108145,114.778364 L133.616231,111.148017 C131.427367,108.958417 131.508575,105.384094 133.795447,103.29627" id="Fill" fill="#A4DBE2"></path>
            <polygon id="Fill" fill="#A4DBE2" points="145.092317 114.68359 146.662325 151.95254 132.932689 151.95254 132.932689 136.091247 132.786143 119.176705 132.786143 112.603237"></polygon>
            <path d="M133.152603,132.579391 L133.152603,132.579391 C122.333362,132.579391 112.996389,124.988155 110.785123,114.39404 L109.679024,109.093248 L142.56425,114.225968 L133.152603,132.579391 Z" id="Fill" fill="#A4DBE2"></path>
            <path d="M132.026155,32.0519202 C132.026155,32.0519202 107.522083,57.6286874 141.763564,101.027583 C156.802784,120.089708 168.257682,139.356319 152.006886,174.706451 L154.762334,174.706451 C172.840761,174.706451 218.583811,158.594918 218.583811,132.579297 C218.583811,88.5697408 164.825506,115.485479 164.825506,53.8722864 C164.825506,25.1497786 140.605193,9.80763993 115.992845,16.4838186 C115.651214,16.5771917 115.306783,16.6714986 114.961419,16.7686066 C89.260706,23.9480664 65.8365981,49.1802868 62.6545784,79.0942358 C62.6545784,79.0942358 87.0914442,71.8111318 109.67921,74.9960892 C142.667112,79.6479384 108.864337,42.0204353 108.864337,42.0204353 C108.864337,42.0204353 119.871194,32.3637864 132.026155,32.0519202" id="Fill" fill="#042C2D"></path>
            <path d="M123.419673,32.7338241 C115.83099,34.6722503 95.0988581,45.8004597 98.6327761,76.432448 C103.344667,117.274788 149.959528,69.8449738 149.959528,69.8449738 L128.8979,27.9456501 L117.246985,24.2910259 L113.090477,30.843952 C113.090477,30.843952 125.949234,32.0876821 123.419673,32.7338241" id="Fill" fill="#A4DBE2"></path>
            <path d="M115.992938,16.4840987 C140.605287,9.80792005 164.8256,25.149125 164.8256,53.8725666 C164.8256,115.485759 218.583904,88.5700209 218.583904,132.579577 C218.583904,158.595198 172.840854,174.706731 154.762427,174.706731 L152.006979,174.706731 C168.257775,139.356599 156.802878,120.089988 141.762724,101.027864 C107.522176,57.6280338 132.026248,32.0522003 132.026248,32.0522003 C112.645704,33.5097548 103.544885,47.4307545 103.544885,47.4307545" id="Fill" fill="#042C2D"></path>
            <path d="M112.586525,44.9469359 C112.586525,49.4652616 110.161507,53.1273556 107.169904,53.1273556 C104.178302,53.1273556 101.753284,49.4652616 101.753284,44.9469359 C101.753284,40.4286102 104.178302,36.7665162 107.169904,36.7665162 C110.161507,36.7665162 112.586525,40.4286102 112.586525,44.9469359" id="Fill" fill="#A4DBE2"></path>
            <rect id="Rectangle-4" x="0" y="0" width="220" height="234"></rect>
        </g>
    </g>
</svg>
