<?xml version="1.0" encoding="UTF-8" standalone="no"?>
<svg viewBox="0 0 220 234" version="1.1" xmlns="http://www.w3.org/2000/svg" xmlns:xlink="http://www.w3.org/1999/xlink">
    <!-- Generator: Sketch 43.2 (39069) - http://www.bohemiancoding.com/sketch -->
    <title>illustration_preview</title>
    <desc>Created with Sketch.</desc>
    <defs></defs>
    <g id="Page-1" stroke="none" stroke-width="1" fill="none" fill-rule="evenodd">
        <g id="illustration_preview">
            <path d="M86.1682716,88.018567 C85.4362456,90.0574423 88.6632681,87.3621532 84.3812397,67.9640557 C81.1736515,53.4328911 74.768655,39.8051079 74.768655,24.9211325 L74.768655,22.7346337 C74.768655,10.7307088 84.4682314,1.00055707 96.4323687,1.00055707 L145.955642,1.00055707 L135.015971,24.0465329 L105.731228,71.376108 L80.4721651,101.988948 L86.1682716,88.018567 Z" id="Fill" fill="#003D40"></path>
            <polygon id="Fill" fill="#A3DBE2" points="119.018079 107.524282 109.362484 67.2265882 92.0307729 86.0954694 102.112558 110.405994"></polygon>
            <path d="M133.757798,62.2951532 C133.154522,56.8250453 131.976443,49.6092571 131.976443,49.6092571 L137.198723,48.6808075 L135.015601,24.0462544 C135.015601,24.0462544 131.464673,27.4146695 125.829646,31.956645 C120.383409,36.3454262 109.158701,36.6118912 109.158701,41.6115923 C110.018439,52.301761 103.144242,51.6119229 103.144242,51.6119229 C103.487582,47.4738231 99.8783511,41.9569756 94.4654304,44.7153993 C89.0515843,47.4738231 89.3949239,52.8189074 91.9732103,55.7500228 C94.5514967,58.6811381 103.144242,62.4747832 96.9567251,73.6811698 C80.9743109,100.406591 54.5084695,110.405994 54.5084695,110.405994 L128.2358,110.405994 L118.622583,101.457889 C114.842145,92.3200882 111.935033,90.578024 107.123651,90.578024 C102.311343,90.578024 98.8742446,84.8884849 115.200924,81.9573695 C138.485028,78.6942587 134.138559,71.3244683 134.105156,67.0066631 C132.585327,66.9492934 128.714829,66.4815926 127.168853,63.2811428 C127.182182,63.284173 131.717789,62.602161 133.757798,62.2951532 Z" id="Fill" fill="#A3DBE2"></path>
            <path d="M57.273205,107.034783 L49.7548452,106.281542 C49.7548452,106.281542 22.4329683,113.485382 22.4329683,147.74053 L22.4329683,228.357809 L41.0427174,228.357809 L47.2802085,148.069201 L58.0682701,153.44771 L58.3619624,234.918504 L156.350128,234.918504 L156.373373,177.651462 L57.273205,107.034783 Z" id="Fill" fill="#FEFEFE"></path>
            <path d="M156.358936,194.407285 L48.5169716,194.407285 L48.5169716,115.194561 C48.5169716,107.545993 54.6980107,101.345806 62.3218166,101.345806 L142.554091,101.345806 C150.178822,101.345806 156.358936,107.545993 156.358936,115.194561 L156.358936,194.407285 Z" id="Fill" fill="#01808C"></path>
            <path d="M159.989905,130.116916 C159.989905,130.116916 155.381194,122.068186 155.381194,124.478441 L155.381194,133.041532 L154.071691,133.041532 L147.357597,133.041532 C143.603071,133.041532 142.237116,133.726728 142.237116,140.576829 L142.237116,146.077893 C142.237116,148.555925 143.716901,150.106435 145.992567,151.068309 L155.209987,154.961298 L155.381194,179.03273 L190.487905,198.960525 L175.359675,173.843178 C175.359675,173.843178 165.681384,164.357208 163.915637,154.105268 C161.475242,139.938055 159.989905,130.116916 159.989905,130.116916 Z" id="Fill" fill="#FEFEFE"></path>
            <polygon id="Fill" fill="#FEFEFE" points="171.420523 164.407809 155.330758 177.233411 155.330758 192.126362 177.599712 209.091302 193.993023 195.438451"></polygon>
            <path d="M48.9001325,158.495598 L48.9001325,190.456546 C48.9001325,190.456546 49.8283527,215.591534 75.5001633,215.591534 C101.171049,215.591534 99.4700828,191.542832 99.4700828,191.542832 L199.837238,191.542832 C199.837238,191.542832 208.188443,215.591534 183.134828,215.591534 L74.1971385,215.591534" id="Fill" fill="#A3DBE2"></path>
            <path d="M48.9001325,158.495598 L48.9001325,190.456546 C48.9001325,190.456546 49.8283527,215.591534 75.5001633,215.591534 C101.171049,215.591534 99.4700828,191.542832 99.4700828,191.542832 L48.9001325,158.495598 Z" id="Fill" fill="#01808C"></path>
            <path d="M152.049607,98.0662724 L52.8013136,98.0662724 C50.4349538,98.0662724 48.5174343,99.99002 48.5174343,102.364066 L48.5174343,114.776508 L156.333486,114.776508 L156.333486,102.364066 C156.333486,99.99002 154.415041,98.0662724 152.049607,98.0662724" id="Fill" fill="#01808C"></path>
            <path d="M56.2497022,106.102561 C56.2497022,106.731121 55.7416336,107.239912 55.1160336,107.239912 C54.4895082,107.239912 53.9814395,106.731121 53.9814395,106.102561 C53.9814395,105.474 54.4895082,104.96521 55.1160336,104.96521 C55.7416336,104.96521 56.2497022,105.474 56.2497022,106.102561" id="Fill" fill="#CAFFFF"></path>
            <path d="M60.6829482,106.102561 C60.6829482,106.731121 60.1748795,107.239912 59.5492795,107.239912 C58.9227541,107.239912 58.4146854,106.731121 58.4146854,106.102561 C58.4146854,105.474 58.9227541,104.96521 59.5492795,104.96521 C60.1748795,104.96521 60.6829482,105.474 60.6829482,106.102561" id="Fill" fill="#CAFFFF"></path>
            <path d="M65.1161941,106.102561 C65.1161941,106.731121 64.6081254,107.239912 63.9825254,107.239912 C63.356,107.239912 62.8479314,106.731121 62.8479314,106.102561 C62.8479314,105.474 63.356,104.96521 63.9825254,104.96521 C64.6081254,104.96521 65.1161941,105.474 65.1161941,106.102561" id="Fill" fill="#CAFFFF"></path>
            <path d="M50.4307314,141.166284 L49.0425657,141.166284 L49.0425657,132.085118 C49.0425657,127.363024 44.1543716,127 44.1543716,127 C44.1543716,127 43.2492876,148.61245 39.9908,163.50571 C36.7323124,178.398041 17,209.155719 17,232.948169 C17,233.628722 17.0323905,234.72987 17.0814391,235.369572 L47.8709538,235.369572 C47.925555,234.72987 47.9560947,233.625937 47.9560947,232.948169 C47.9560947,210.426767 49.2239527,165.139781 49.2239527,165.139781 L58.9984899,161.010966 C61.4120473,159.991528 62.9816,157.619339 62.9816,154.992755 L62.9816,149.15745 C62.9816,141.892332 61.5332805,141.166284 57.5510959,141.166284 L50.4307314,141.166284 Z" id="Fill" fill="#A3DBE2"></path>
            <rect id="Rectangle-4" x="0" y="0" width="220" height="234"></rect>
        </g>
    </g>
</svg>
