<?xml version="1.0" encoding="UTF-8" standalone="no"?>
<svg viewBox="0 0 201 230" version="1.1" xmlns="http://www.w3.org/2000/svg" xmlns:xlink="http://www.w3.org/1999/xlink">
    <!-- Generator: Sketch 43.2 (39069) - http://www.bohemiancoding.com/sketch -->
    <title>illustration_edit</title>
    <desc>Created with Sketch.</desc>
    <defs>
        <polygon id="path-1" points="0.672466667 0.524407258 114.443933 0.524407258 114.443933 93.4588742 0.672466667 93.4588742 0.672466667 0.524407258"></polygon>
    </defs>
    <g id="Page-1" stroke="none" stroke-width="1" fill="none" fill-rule="evenodd">
        <g id="illustration_edit">
            <path d="M133.93976,13.2218625 L145.241493,13.2218625 C149.47976,13.2218625 157.956293,21.210923 152.30496,32.020419 C146.65456,42.8299149 147.82776,49.4087577 154.187493,53.6384794 C160.546293,57.8682012 162.943093,63.5081407 162.943093,72.4370359 C162.943093,81.3668625 154.18936,84.8914754 149.24456,84.8914754 L112.352693,84.8914754 L112.352693,14.6320802 L133.93976,13.2218625 Z" id="Fill" fill="#042C2D"></path>
            <g id="Fill" transform="translate(42.200000, 0.407044)">
                <mask id="mask-2" fill="white">
                    <use xlink:href="#path-1"></use>
                </mask>
                <g id="Clip-4"></g>
                <path d="M114.443933,18.1547371 C114.443933,9.6096 108.351133,2.48772097 100.265667,0.870720968 L79.2526,0.524220968 C79.2526,0.524220968 70.6864667,1.42586613 69.2304667,2.07974516 C58.2507333,5.55219677 58.9134,17.2959387 47.6723333,17.2959387 C47.1151333,17.2959387 46.5663333,17.308979 46.0203333,17.329471 C45.6918,17.3136363 45.3679333,17.280104 45.0356667,17.280104 C42.371,17.280104 39.8332667,17.8128944 37.513,18.7657694 C29.6860667,21.4474185 24.5079333,28.1985798 24.5079333,42.1852573 C24.5079333,47.7329831 27.0223333,52.3082734 21.6967333,52.3082734 C21.2888667,52.2831242 20.8838,52.2458661 20.4694,52.2458661 C9.5354,52.2458661 0.672466667,61.0918621 0.672466667,72.0028863 C0.672466667,82.4230355 8.76353333,90.9392976 19.0143333,91.6853903 C24.6376667,93.2986645 29.7859333,93.4588742 35.0238,93.4588742 L49.889,93.4588742 C50.4359333,93.4588742 50.9754,93.4449024 51.5064667,93.4178903 C66.955,92.6475798 72.5914,79.4377331 72.5914,64.0007855 L72.5914,55.7853823 C72.5914,50.4686565 78.8606,46.0377411 81.1052667,46.0377411 L91.5082,46.0377411 C103.1702,46.0377411 99.0094,30.9761685 111.485267,27.9154185 C113.351933,25.1201323 114.443933,21.765975 114.443933,18.1547371" id="Fill-3" fill="#042C2D" mask="url(#mask-2)"></path>
            </g>
            <polygon id="Fill" fill="#042C2D" points="145.892027 33.280673 117.79496 23.5926448 125.28496 37.9938181 127.87216 42.9687012 145.892027 42.9687012"></polygon>
            <polygon id="Fill" fill="#FEFEFE" points="140.121413 230.26229 61.4582133 230.26229 51.0562133 116.989391 152.419947 116.989391"></polygon>
            <path d="M138.48052,230.26229 L160.915987,230.26229 L170.52092,135.582097 C171.300253,126.128794 164.252653,117.834218 154.780253,117.055524 L150.45892,116.700641 L138.48052,230.26229 Z" id="Fill" fill="#A4DBE2"></path>
            <path d="M152.420413,156.721298 L152.420413,156.721298 L152.420413,116.861689 L141.83268,116.861689 L141.170013,127.388955 L140.146147,143.679113 C139.70188,150.746036 145.325213,156.721298 152.420413,156.721298" id="Fill" fill="#A4DBE2"></path>
            <path d="M63.9220267,230.26229 L42.4898933,230.475593 L31.05936,135.582097 C30.2790933,126.128794 37.3266933,117.834218 46.8000267,117.055524 L51.1204267,116.700641 L63.9220267,230.26229 Z" id="Fill" fill="#A4DBE2"></path>
            <path d="M49.1594,156.721298 L49.1594,156.721298 L49.1594,116.861689 L59.7471333,116.861689 L60.4098,127.388955 L61.4336667,143.679113 C61.8779333,150.746036 56.2546,156.721298 49.1594,156.721298" id="Fill" fill="#A4DBE2"></path>
            <path d="M130.689613,32.1056468 L142.363747,62.0294613 C142.959213,63.555179 141.831747,65.2001226 140.190947,65.2001226 L135.796813,65.2001226 C135.796813,65.2001226 137.031613,77.0817194 137.031613,81.4837597 C137.031613,85.8858 139.01028,90.9854976 118.367747,90.9854976 C105.70708,90.9854976 117.641613,115.814272 117.641613,115.814272 C117.641613,115.814272 77.80788,115.059796 84.5204133,111.006119 C92.0281467,106.472744 97.4741467,97.8130379 97.4741467,81.4669935 C97.4741467,71.7221468 96.0228133,67.5166427 94.3689467,65.6462879 C91.7229467,62.6526024 90.2389467,56.0663081 95.7960133,53.2486669 C101.35308,50.4319573 106.189613,57.194296 105.83588,61.4202919 C105.83588,61.4202919 108.051613,60.6257637 108.051613,45.0062516 L127.44348,26.8215218 L130.689613,32.1056468 Z" id="Fill" fill="#A4DBE2"></path>
            <path d="M118.311653,91.0117645 C110.121653,91.0117645 112.235653,102.14168 114.742587,109.103349 C115.920453,112.373676 113.473253,115.814458 109.990053,115.814458 L90.67472,115.814458 C86.0444533,115.814458 86.42432,110.172656 89.8216533,107.031801 C95.3348533,101.932103 97.4413867,93.9477 97.4413867,81.5053694 C97.4413867,71.7717 95.99192,67.5708532 94.33992,65.7023613 C91.69672,62.7124016 90.2145867,56.1326274 95.7660533,53.3196435 C99.5133867,51.4194823 102.932187,53.8813089 104.64952,56.9793169 C107.120053,61.4353815 113.988453,59.8407363 114.100453,54.7494218 C114.10232,54.6749056 114.103253,54.5994581 114.103253,54.523079 C114.103253,54.1281435 114.123787,52.8501919 114.148053,51.4157565 C114.19472,48.6698371 116.438453,46.4650911 119.190853,46.4650911 L131.04232,46.4650911" id="Fill" fill="#A4DBE2"></path>
            <polygon id="Fill" fill="#FEFEFE" points="121.383067 117.921122 79.832 117.921122 78.5794667 105.831812 122.636533 105.831812"></polygon>
            <path d="M114.791027,56.1922403 C114.791027,50.8755145 121.06116,46.4445992 123.305827,46.4445992 L136.51436,46.4445992 C148.17636,46.4445992 148.027027,38.9706315 149.74716,28.3222766 L122.436893,18.0446395 L83.7586267,28.3222766 L107.477427,56.1922403 L114.791027,56.1922403 Z" id="Fill" fill="#042C2D"></path>
            <polygon id="Fill" fill="#FEFEFE" points="89.2596 59.434996 124.619867 59.434996 124.619867 53.3172218 89.2596 53.3172218"></polygon>
            <polygon id="Fill" fill="#FEFEFE" points="129.051893 56.3762952 129.051893 56.3762952 124.620427 59.4351823 124.620427 53.3174081"></polygon>
            <path d="M90.9898133,53.3174081 L90.9898133,59.4351823 L87.57288,59.4351823 C86.59008,59.4351823 85.7930133,58.6397226 85.7930133,57.6579726 L85.7930133,55.0946177 C85.7930133,54.1128677 86.59008,53.3174081 87.57288,53.3174081 L90.9898133,53.3174081 Z" id="Fill" fill="#FEFEFE"></path>
            <path d="M114.790933,62.992396 C114.790933,63.068775 109.250667,59.5888718 108.975333,59.5860774 C107.3056,59.564654 105.6312,58.7496339 104.650267,56.9798758 C102.932,53.8809363 99.5132,51.4200411 95.7658667,53.319271 C90.2144,56.1331863 91.6965333,62.7129605 94.3406667,65.7019887 C95.9926667,67.5704806 97.4421333,71.7713274 97.4421333,81.5059282 L111.678267,81.1398677 L114.790933,62.992396" id="Fill" fill="#A4DBE2"></path>
            <path d="M149.747253,37.9365339 C149.747253,37.9365339 154.485787,28.8157597 155.490987,24.8244895 C156.496187,20.8332194 149.747253,22.1838242 149.747253,22.1838242 L141.68512,34.9763806 L149.747253,37.9365339 Z" id="Fill" fill="#042C2D"></path>
            <rect id="Rectangle-2" x="0" y="0" width="201" height="230"></rect>
        </g>
    </g>
</svg>
