<?xml version="1.0" encoding="UTF-8" standalone="no"?>
<svg width="103px" height="305px" viewBox="0 0 103 305" version="1.1" xmlns="http://www.w3.org/2000/svg" xmlns:xlink="http://www.w3.org/1999/xlink">
    <!-- Generator: Sketch 44.1 (41455) - http://www.bohemiancoding.com/sketch -->
    <title>illustration_blue_delete</title>
    <desc>Created with Sketch.</desc>
    <defs></defs>
    <g id="Page-1" stroke="none" stroke-width="1" fill="none" fill-rule="evenodd">
        <g id="illustration_blue_delete" fill-rule="nonzero">
            <path d="M66.1697987,133.364599 L66.1697987,155.636599 C59.0627987,159.690599 52.5887987,165.034599 44.0277987,166.087599 C41.1667987,166.439599 38.4357987,165.939599 35.6527987,165.641599 C29.0627987,163.881599 23.2547987,160.647599 18.0757987,156.256599 C16.7557987,155.137599 15.5447987,153.889599 14.2827987,152.700599 C17.7497987,150.722599 21.2607987,149.245599 25.4627987,149.311599 C31.5027987,149.405599 37.5857987,149.942599 43.5867987,148.459599 C50.8277987,146.669599 56.5227987,143.303599 58.0857987,135.307599 C58.3257987,134.077599 59.0597987,133.485599 60.3687987,133.497599 C62.1957987,133.514599 66.1697987,133.364599 66.1697987,133.364599" id="Fill-10" fill="#00808C" transform="translate(40.226299, 149.786500) scale(-1, 1) rotate(-90.000000) translate(-40.226299, -149.786500) "></path>
            <polygon id="Fill-14" fill="#00808C" transform="translate(41.864000, 131.564500) scale(-1, 1) rotate(-90.000000) translate(-41.864000, -131.564500) " points="9.4285 142.7005 74.2995 142.7005 74.2995 120.4285 9.4285 120.4285"></polygon>
            <path d="M17.7453321,167.623016 C23.9053321,164.650016 30.1493321,161.797016 36.5943321,159.442016 C37.8563321,160.631016 39.0673321,161.879016 40.3873321,162.998016 C45.5663321,167.388016 51.3733321,170.623016 57.9633321,172.382016 C57.1513321,173.019016 56.1983321,172.749016 55.3063321,172.753016 C49.8093321,172.777016 44.3113321,172.754016 38.8143321,172.777016 C38.1063321,172.779016 37.1633321,172.474016 36.7793321,173.283016 C36.3683321,174.149016 37.2973321,174.578016 37.7833321,175.075016 C39.8793321,177.215016 42.0563321,179.278016 44.1223321,181.445016 C48.1733321,185.694016 48.5183321,192.379016 45.0653321,197.036016 C43.7643321,198.792016 42.5253321,198.921016 40.9833321,197.360016 C37.5323321,193.867016 34.0403321,190.415016 30.5493321,186.963016 C29.9783321,186.398016 29.4833321,185.351016 28.6353321,185.589016 C27.6243321,185.872016 28.1093321,187.014016 28.0473321,187.784016 C27.5963321,193.413016 22.8783321,198.269016 17.2603321,198.922016 C15.7383321,199.099016 14.7413321,198.602016 14.6193321,197.058016 C14.4413321,194.812016 13.5883321,195.253016 12.3613321,196.319016 C10.8153321,197.664016 8.91433214,198.313016 6.96233214,198.763016 C4.40833214,199.352016 3.58433214,198.699016 3.57333214,196.043016 C3.54433214,188.880016 3.56533214,183.716016 3.56533214,176.553016 C3.56533214,173.887016 11.9303321,170.429016 17.7453321,167.623016 Z" id="Fill-2" fill="#002D2F" transform="translate(30.760658, 179.202674) scale(-1, 1) rotate(-90.000000) translate(-30.760658, -179.202674) "></path>
            <path d="M50.796,130.137683 C50.5157191,130.359764 50.1525655,130.51255 49.7049,130.599899 C41.7089,132.163899 38.3439,137.857899 36.5539,145.098899 C35.0699,151.099899 35.6069,157.182899 35.7009,163.222899 C35.7669,167.424899 34.2899,170.935899 32.3119,174.403899 C29.9569,180.847899 27.1039,187.091899 24.1309,193.251899 C21.3249,199.066899 22.4989,204.098899 27.5429,206.902899 C28.0299,206.927899 28.5319,206.886899 29.0019,206.988899 C33.4369,207.957899 36.6619,206.438899 38.6709,202.442899 C41.0149,197.779899 43.3809,193.127899 45.7369,188.472899 C45.7429,187.811899 45.7769,187.178899 46.1079,186.553899 C48.1609,182.680899 50.1519,178.774899 52.2259,174.912899 C52.8459,173.757899 53.3519,171.733899 55.1389,172.764899 C56.8439,173.749899 55.4219,175.263899 54.8289,176.436899 C52.5889,180.863899 50.2929,185.261899 48.0169,189.670899 C50.4419,192.295899 52.8069,194.978899 55.3189,197.516899 C56.4289,198.637899 56.7219,199.830899 56.7169,201.320899 C56.6779,211.307899 56.6789,221.294899 56.7039,231.281899 C56.7189,237.429899 60.6759,242.309899 66.6449,243.638899 C69.3119,244.232899 70.1229,243.596899 70.1229,240.783899 C70.1316437,203.347062 70.0922504,127.022965 70.09,122.707027 L70.09,94.843 L50.796,94.843 L50.796,130.137683 Z" id="Combined-Shape" fill="#A3DBE2"></path>
            <polygon id="Fill-15" fill="#EDFFF7" transform="translate(49.092500, 99.129000) scale(-1, 1) rotate(-90.000000) translate(-49.092500, -99.129000) " points="43.3785 124.1685 54.8065 124.1685 54.8065 74.0895 43.3785 74.0895"></polygon>
            <polygon id="Fill-16" fill="#002D2F" transform="translate(49.058500, 46.707500) scale(-1, 1) rotate(-90.000000) translate(-49.058500, -46.707500) " points="2.351 75.766 95.766 75.766 95.766 17.649 2.351 17.649"></polygon>
            <rect id="Rectangle-4" fill="#C95048" x="45" y="269" width="36" height="35"></rect>
            <rect id="Rectangle-5" fill="#A3DBE2" x="0" y="286" width="103" height="19"></rect>
        </g>
    </g>
</svg>