<?xml version="1.0" encoding="UTF-8" standalone="no"?>
<svg viewBox="0 0 240 90" version="1.1" xmlns="http://www.w3.org/2000/svg" xmlns:xlink="http://www.w3.org/1999/xlink">
    <!-- Generator: Sketch 44.1 (41455) - http://www.bohemiancoding.com/sketch -->
    <title>illustration_blue_ticket</title>
    <desc>Created with Sketch.</desc>
    <defs></defs>
    <g id="Page-1" stroke="none" stroke-width="1" fill="none" fill-rule="evenodd">
        <g id="illustration_blue_ticket" fill-rule="nonzero">
            <path d="M101.632499,57.6596843 C107.792499,54.6866843 114.036499,51.8336843 120.481499,49.4786843 C121.743499,50.6676843 122.954499,51.9156843 124.274499,53.0346843 C129.453499,57.4246843 135.260499,60.6596843 141.850499,62.4186843 C141.038499,63.0556843 140.085499,62.7856843 139.193499,62.7896843 C133.696499,62.8136843 128.198499,62.7906843 122.701499,62.8136843 C121.993499,62.8156843 121.050499,62.5106843 120.666499,63.3196843 C120.255499,64.1856843 121.184499,64.6146843 121.670499,65.1116843 C123.766499,67.2516843 125.943499,69.3146843 128.009499,71.4816843 C132.060499,75.7306843 132.405499,82.4156843 128.952499,87.0726843 C127.651499,88.8286843 126.412499,88.9576843 124.870499,87.3966843 C121.419499,83.9036843 117.927499,80.4516843 114.436499,76.9996843 C113.865499,76.4346843 113.370499,75.3876843 112.522499,75.6256843 C111.511499,75.9086843 111.996499,77.0506843 111.934499,77.8206843 C111.483499,83.4496843 106.765499,88.3056843 101.147499,88.9586843 C99.6254991,89.1356843 98.6284991,88.6386843 98.5064991,87.0946843 C98.3284991,84.8486843 97.4754991,85.2896843 96.2484991,86.3556843 C94.7024991,87.7006843 92.8014991,88.3496843 90.8494991,88.7996843 C88.2954991,89.3886843 87.4714991,88.7356843 87.4604991,86.0796843 C87.4314991,78.9166843 87.4524991,71.7526843 87.4524991,64.5896843 C87.4524991,61.9236843 87.4584991,61.6367323 87.4604991,58.9707323 C87.4614991,58.1507323 95.8174991,60.4656843 101.632499,57.6596843 Z" id="Fill-2" fill="#002D2F" transform="translate(114.647825, 69.239342) scale(-1, 1) translate(-114.647825, -69.239342) "></path>
            <path d="M192.30198,89.1444095 C190.477436,84.8438253 186.216029,81.8273672 181.25009,81.8273672 C176.284151,81.8273672 172.022744,84.8438253 170.1982,89.1444095 L161.495391,89.1444095 L116.128121,89.1445983 L116.128121,22.0001887 L153.652219,22.0001887 L169.995431,22 C171.690527,26.5703723 176.089953,29.8273672 181.25009,29.8273672 C186.410227,29.8273672 190.809653,26.5703723 192.504749,22 L238.587623,22 C238.587623,22 239.167649,74.1711281 239.13484,74.588654 C238.494731,82.7347673 231.729117,89.1444095 223.477376,89.1444095 L192.30198,89.1444095 Z M182.902769,75.1331646 L182.902769,70.4058919 L178.184459,70.4058919 L178.184459,75.1331646 L182.902769,75.1331646 Z M182.902769,63.435889 L182.902769,58.7086163 L178.184459,58.7086163 L178.184459,63.435889 L182.902769,63.435889 Z M182.902769,51.7386135 L182.902769,47.0113408 L178.184459,47.0113408 L178.184459,51.7386135 L182.902769,51.7386135 Z M182.902769,40.0413379 L182.902769,35.3140652 L178.184459,35.3140652 L178.184459,40.0413379 L182.902769,40.0413379 Z" id="Combined-Shape" fill="#FDFEFE" transform="translate(177.632151, 55.572299) rotate(-360.000000) translate(-177.632151, -55.572299) "></path>
            <path d="M267.761896,44.2815567 C267.761896,45.7909601 267.539399,47.2455904 267.154099,48.6337746 L251.274498,48.6337746 L235.394897,48.6337746 L205.554958,48.6337746 C205.940258,47.2455904 206.162755,45.7909601 206.162755,44.2815567 C206.162755,35.7576029 199.598185,28.7619087 191.214747,27.9905955 L191.214747,27.9133744 L251.274498,27.9133744 C260.380599,27.9133744 267.761896,35.2412989 267.761896,44.2815567" id="Fill" fill="#A3DBE2" transform="translate(229.488321, 38.273575) scale(-1, 1) rotate(-450.000000) translate(-229.488321, -38.273575) "></path>
            <path d="M111.332151,43.1561975 L111.332151,65.4281975 C104.225151,69.4821975 97.7511506,74.8261975 89.1901506,75.8791975 C86.3291506,76.2311975 83.5981506,75.7311975 80.8151506,75.4331975 C74.2251506,73.6731975 68.4171506,70.4391975 63.2381506,66.0481975 C61.9181506,64.9291975 60.7071506,63.6811975 59.4451506,62.4921975 C62.9121506,60.5141975 66.4231506,59.0371975 70.6251506,59.1031975 C76.6651506,59.1971975 82.7481506,59.7341975 88.7491506,58.2511975 C95.9901506,56.4611975 101.685151,53.0951975 103.248151,45.0991975 C103.488151,43.8691975 104.222151,43.2771975 105.531151,43.2891975 C107.358151,43.3061975 111.332151,43.1561975 111.332151,43.1561975" id="Fill-10" fill="#00808C" transform="translate(85.388651, 59.578099) scale(-1, 1) rotate(-360.000000) translate(-85.388651, -59.578099) "></path>
            <polygon id="Fill-14" fill="#00808C" transform="translate(66.880651, 57.864000) scale(-1, 1) rotate(-180.000000) translate(-66.880651, -57.864000) " points="34.4451506 69 99.3161506 69 99.3161506 46.728 34.4451506 46.728"></polygon>
            <path d="M94.2985362,70.6404205 C93.3295362,66.2054205 94.8485362,62.9804205 98.8445362,60.9714205 C103.507536,58.6274205 114.108536,53.8654205 114.733536,53.5344205 C118.606536,51.4814205 122.512536,49.4904205 126.374536,47.4164205 C127.529536,46.7964205 129.553536,46.2904205 128.522536,44.5034205 C127.537536,42.7984205 126.023536,44.2204205 124.850536,44.8134205 C120.423536,47.0534205 116.025536,49.3494205 111.616536,51.6254205 C108.991536,49.2004205 106.308536,46.8354205 103.770536,44.3234205 C102.649536,43.2134205 101.456536,42.9204205 99.9665362,42.9254205 C89.9795362,42.9644205 79.9925363,42.9634205 70.0055363,42.9384205 C63.8575363,42.9234205 58.9775362,38.9664205 57.6485362,32.9974205 C57.0545362,30.3304205 57.6905362,29.5194205 60.5035362,29.5194205 C99.0375362,29.5104205 178.771536,29.5524205 178.771536,29.5524205 C178.771536,29.5524205 178.860536,42.0284205 178.771536,47.9944205 C176.943536,48.0444205 174.796536,48.1434205 172.969536,48.1274205 C171.661536,48.1154205 170.927536,48.7074205 170.687536,49.9374205 C169.123536,57.9334205 163.429536,61.2984205 156.188536,63.0884205 C150.187536,64.5724205 144.104536,64.0354205 138.064536,63.9414205 C133.862536,63.8754205 130.351536,65.3524205 126.883536,67.3304205 C120.439536,69.6854205 114.195536,72.5384205 108.035536,75.5114205 C102.220536,78.3174205 97.1885362,77.1434205 94.3845362,72.0994205 C94.3595362,71.6124205 94.4005362,71.1104205 94.2985362,70.6404205 Z" id="Fill-9" fill="#A3DBE2" transform="translate(118.128121, 53.259078) scale(-1, 1) translate(-118.128121, -53.259078) "></path>
            <polygon id="Fill-13" fill="#A3DBE2" transform="translate(48.523651, 39.353000) scale(-1, 1) rotate(-180.000000) translate(-48.523651, -39.353000) " points="30.4451506 49 66.6021506 49 66.6021506 29.706 30.4451506 29.706"></polygon>
            <polygon id="Fill-15" fill="#EDFFF7" transform="translate(45.159151, 49.960500) scale(-1, 1) rotate(-180.000000) translate(-45.159151, -49.960500) " points="39.4451506 75 50.8731506 75 50.8731506 24.921 39.4451506 24.921"></polygon>
            <polygon id="Fill-18" fill="#002D2F" transform="translate(20.099493, 49.902199) scale(-1, 1) rotate(-180.000000) translate(-20.099493, -49.902199) " points="0.338835173 81 39.8601509 81 39.8601509 18.8043974 0.338835173 18.8043974"></polygon>
        </g>
    </g>
</svg>
