<?xml version="1.0" encoding="UTF-8" standalone="no"?>
<svg viewBox="0 0 184 130" version="1.1" xmlns="http://www.w3.org/2000/svg" xmlns:xlink="http://www.w3.org/1999/xlink">
    <!-- Generator: Sketch 44.1 (41455) - http://www.bohemiancoding.com/sketch -->
    <title>illustration_blue_money</title>
    <desc>Created with Sketch.</desc>
    <defs></defs>
    <g id="Page-1" stroke="none" stroke-width="1" fill="none" fill-rule="evenodd">
        <g id="illustration_blue_money">
            <path d="M101.632499,80.6596843 C107.792499,77.6866843 114.036499,74.8336843 120.481499,72.4786843 C121.743499,73.6676843 122.954499,74.9156843 124.274499,76.0346843 C129.453499,80.4246843 135.260499,83.6596843 141.850499,85.4186843 C141.038499,86.0556843 140.085499,85.7856843 139.193499,85.7896843 C133.696499,85.8136843 128.198499,85.7906843 122.701499,85.8136843 C121.993499,85.8156843 121.050499,85.5106843 120.666499,86.3196843 C120.255499,87.1856843 121.184499,87.6146843 121.670499,88.1116843 C123.766499,90.2516843 125.943499,92.3146843 128.009499,94.4816843 C132.060499,98.7306843 132.405499,105.415684 128.952499,110.072684 C127.651499,111.828684 126.412499,111.957684 124.870499,110.396684 C121.419499,106.903684 117.927499,103.451684 114.436499,99.9996843 C113.865499,99.4346843 113.370499,98.3876843 112.522499,98.6256843 C111.511499,98.9086843 111.996499,100.050684 111.934499,100.820684 C111.483499,106.449684 106.765499,111.305684 101.147499,111.958684 C99.6254991,112.135684 98.6284991,111.638684 98.5064991,110.094684 C98.3284991,107.848684 97.4754991,108.289684 96.2484991,109.355684 C94.7024991,110.700684 92.8014991,111.349684 90.8494991,111.799684 C88.2954991,112.388684 87.4714991,111.735684 87.4604991,109.079684 C87.4314991,101.916684 87.4524991,94.7526843 87.4524991,87.5896843 C87.4524991,84.9236843 87.4584991,84.6367323 87.4604991,81.9707323 C87.4614991,81.1507323 95.8174991,83.4656843 101.632499,80.6596843 Z" id="Fill-2" fill="#002D2F" fill-rule="nonzero" transform="translate(114.647825, 92.239342) scale(-1, 1) translate(-114.647825, -92.239342) "></path>
            <path d="M132.687564,98.4820648 L85.1523855,98.4822536 L85.1523855,31.337844 L213.463705,31.3376553 C213.463705,31.3376553 214.071448,83.5087834 214.037071,83.9263093 C213.366374,92.0724226 206.27746,98.4820648 197.631404,98.4820648 L132.687564,98.4820648 Z" id="Combined-Shape" fill="#FDFEFE" fill-rule="nonzero" transform="translate(149.595431, 64.909954) rotate(-450.000000) translate(-149.595431, -64.909954) "></path>
            <path d="M170.964358,16.8430569 C170.964358,18.3524603 170.741861,19.8070906 170.356561,21.1952748 L154.47696,21.1952748 L138.597359,21.1952748 L108.75742,21.1952748 C109.14272,19.8070906 109.365217,18.3524603 109.365217,16.8430569 C109.365217,8.3191031 102.800647,1.3234089 94.4172091,0.5520957 L94.4172091,0.4748746 L154.47696,0.4748746 C163.583061,0.4748746 170.964358,7.8027991 170.964358,16.8430569" id="Fill" fill="#A3DBE2" fill-rule="nonzero" transform="translate(132.690784, 10.835075) scale(-1, 1) translate(-132.690784, -10.835075) "></path>
            <circle id="Oval" fill="#39C2C9" transform="translate(151.500000, 65.500000) rotate(-90.000000) translate(-151.500000, -65.500000) " cx="151.5" cy="65.5" r="21.5"></circle>
            <path d="M111.332151,66.1561975 L111.332151,88.4281975 C104.225151,92.4821975 97.7511506,97.8261975 89.1901506,98.8791975 C86.3291506,99.2311975 83.5981506,98.7311975 80.8151506,98.4331975 C74.2251506,96.6731975 68.4171506,93.4391975 63.2381506,89.0481975 C61.9181506,87.9291975 60.7071506,86.6811975 59.4451506,85.4921975 C62.9121506,83.5141975 66.4231506,82.0371975 70.6251506,82.1031975 C76.6651506,82.1971975 82.7481506,82.7341975 88.7491506,81.2511975 C95.9901506,79.4611975 101.685151,76.0951975 103.248151,68.0991975 C103.488151,66.8691975 104.222151,66.2771975 105.531151,66.2891975 C107.358151,66.3061975 111.332151,66.1561975 111.332151,66.1561975" id="Fill-10" fill="#00808C" fill-rule="nonzero" transform="translate(85.388651, 82.578099) scale(-1, 1) rotate(-360.000000) translate(-85.388651, -82.578099) "></path>
            <polygon id="Fill-14" fill="#00808C" fill-rule="nonzero" transform="translate(66.880651, 80.864000) scale(-1, 1) rotate(-180.000000) translate(-66.880651, -80.864000) " points="34.4451506 92 99.3161506 92 99.3161506 69.728 34.4451506 69.728"></polygon>
            <path d="M94.2985362,93.6404205 C93.3295362,89.2054205 94.8485362,85.9804205 98.8445362,83.9714205 C103.507536,81.6274205 114.108536,76.8654205 114.733536,76.5344205 C118.606536,74.4814205 122.512536,72.4904205 126.374536,70.4164205 C127.529536,69.7964205 129.553536,69.2904205 128.522536,67.5034205 C127.537536,65.7984205 126.023536,67.2204205 124.850536,67.8134205 C120.423536,70.0534205 116.025536,72.3494205 111.616536,74.6254205 C108.991536,72.2004205 106.308536,69.8354205 103.770536,67.3234205 C102.649536,66.2134205 101.456536,65.9204205 99.9665362,65.9254205 C89.9795362,65.9644205 79.9925363,65.9634205 70.0055363,65.9384205 C63.8575363,65.9234205 58.9775362,61.9664205 57.6485362,55.9974205 C57.0545362,53.3304205 57.6905362,52.5194205 60.5035362,52.5194205 C99.0375362,52.5104205 178.771536,52.5524205 178.771536,52.5524205 C178.771536,52.5524205 178.860536,65.0284205 178.771536,70.9944205 C176.943536,71.0444205 174.796536,71.1434205 172.969536,71.1274205 C171.661536,71.1154205 170.927536,71.7074205 170.687536,72.9374205 C169.123536,80.9334205 163.429536,84.2984205 156.188536,86.0884205 C150.187536,87.5724205 144.104536,87.0354205 138.064536,86.9414205 C133.862536,86.8754205 130.351536,88.3524205 126.883536,90.3304205 C120.439536,92.6854205 114.195536,95.5384205 108.035536,98.5114205 C102.220536,101.317421 97.1885362,100.143421 94.3845362,95.0994205 C94.3595362,94.6124205 94.4005362,94.1104205 94.2985362,93.6404205 Z" id="Fill-9" fill="#A3DBE2" fill-rule="nonzero" transform="translate(118.128121, 76.259078) scale(-1, 1) translate(-118.128121, -76.259078) "></path>
            <polygon id="Fill-13" fill="#A3DBE2" fill-rule="nonzero" transform="translate(48.523651, 62.353000) scale(-1, 1) rotate(-180.000000) translate(-48.523651, -62.353000) " points="30.4451506 72 66.6021506 72 66.6021506 52.706 30.4451506 52.706"></polygon>
            <polygon id="Fill-15" fill="#EDFFF7" fill-rule="nonzero" transform="translate(45.159151, 72.960500) scale(-1, 1) rotate(-180.000000) translate(-45.159151, -72.960500) " points="39.4451506 98 50.8731506 98 50.8731506 47.921 39.4451506 47.921"></polygon>
            <polygon id="Fill-18" fill="#002D2F" fill-rule="nonzero" transform="translate(20.099493, 72.902199) scale(-1, 1) rotate(-180.000000) translate(-20.099493, -72.902199) " points="0.338835173 104 39.8601509 104 39.8601509 41.8043974 0.338835173 41.8043974"></polygon>
        </g>
    </g>
</svg>
