<?xml version="1.0" encoding="utf-8"?>
<!-- Generator: Adobe Illustrator 20.0.0, SVG Export Plug-In . SVG Version: 6.00 Build 0)  -->
<svg version="1.1" id="eds-icon--bold_svg"
	 xmlns="http://www.w3.org/2000/svg" xmlns:xlink="http://www.w3.org/1999/xlink" x="0px" y="0px" viewBox="0 0 24 24"
	 enable-background="new 0 0 24 24" xml:space="preserve">
<path id="eds-icon--bold_base" fill-rule="evenodd" clip-rule="evenodd" d="M8,12.8h4.7c3.2,0,5.2,1.1,5.2,3.6
	c0,2.3-1.5,3.5-4.7,3.5H8V12.8z M8,4.1h4.6c3.2,0,4.7,1,4.7,3.3s-1.7,3.3-4.7,3.3H8V4.1z M13.4,22c4.4,0,6.9-2.1,6.9-5.5
	c0-2.9-1.9-4.4-4.3-4.9v-0.1c2.1-0.4,3.7-1.9,3.7-4.6c0-3.3-2.5-5-6.8-5H5.7v20H13.4z"/>
</svg>
