<?xml version="1.0" encoding="utf-8"?>
<!-- Generator: Adobe Illustrator 20.1.0, SVG Export Plug-In . SVG Version: 6.00 Build 0)  -->
<svg version="1.1" id="eds-icon--bold-chunky_svg"
	 xmlns="http://www.w3.org/2000/svg" xmlns:xlink="http://www.w3.org/1999/xlink" x="0px" y="0px" viewBox="0 0 24 24"
	 enable-background="new 0 0 24 24" xml:space="preserve">
<path id="eds-icon--bold-chunky_base" fill-rule="evenodd" clip-rule="evenodd" d="M8.9,12.9h3
	c2.1,0,3.3,0.6,3.3,2.2c0,1.5-0.9,2.2-3,2.2H8.9V12.9z M8.9,6.8h2.9c2.1,0,3,0.5,3,2s-1,2-3,2H8.9V6.8z M12.4,19.4
	c3,0,5.2-1.3,5.2-4.1c0-2.3-1.2-3.3-3.1-3.6v0c1.5-0.3,2.6-1.3,2.6-3.4c0-2.7-2.2-3.7-5.2-3.7H6.4v14.8H12.4z"/>
</svg>
