<?xml version="1.0" encoding="utf-8"?>
<!-- Generator: Adobe Illustrator 20.1.0, SVG Export Plug-In . SVG Version: 6.00 Build 0)  -->
<svg version="1.1" id="eds-icon--boogie_svg"
	 xmlns="http://www.w3.org/2000/svg" xmlns:xlink="http://www.w3.org/1999/xlink" x="0px" y="0px" viewBox="0 0 24 24"
	 enable-background="new 0 0 24 24" xml:space="preserve">
<path id="eds-icon--boogie_base" fill-rule="evenodd" clip-rule="evenodd" d="M13,9.8v5.3l-2-1.7V9.8
	c0-0.8,0.6-1,1-1C12.4,8.8,13,9,13,9.8z M17,13.8v-2l-3.5-3.3c-0.4-0.4-0.9-0.7-1.5-0.7c-0.7,0-1.3,0.3-1.7,0.9L8,6.5V4.2H7v2.5
	l3,2.8c0,0,0,0.2,0,0.2v4l5,4.3v4.1h1v-4.6l-2-1.7v-5.7l2,1.8v1.7H17z"/>
<rect id="eds-icon--boogie_leg" x="6.3" y="18.3" transform="matrix(0.5325 -0.8464 0.8464 0.5325 -11.4964 16.8317)" fill-rule="evenodd" clip-rule="evenodd" width="6.3" height="1"/>
<path id="eds-icon--boogie_head" fill-rule="evenodd" clip-rule="evenodd" d="M12,1.8c-1.4,0-2.5,1.1-2.5,2.5
	s1.1,2.5,2.5,2.5s2.5-1.1,2.5-2.5S13.4,1.8,12,1.8z M12,5.8c-0.8,0-1.5-0.7-1.5-1.5s0.7-1.5,1.5-1.5s1.5,0.7,1.5,1.5
	S12.8,5.8,12,5.8z"/>
</svg>
