<?xml version="1.0" encoding="utf-8"?>
<!-- Generator: Adobe Illustrator 20.1.0, SVG Export Plug-In . SVG Version: 6.00 Build 0)  -->
<svg version="1.1" id="eds-icon--book-open_svg"
	 xmlns="http://www.w3.org/2000/svg" xmlns:xlink="http://www.w3.org/1999/xlink" x="0px" y="0px" viewBox="0 0 24 24"
	 enable-background="new 0 0 24 24" xml:space="preserve">
<path id="eds-icon--book-open_base" d="M3,3.8L3,3.8l0,14.4h5.6c1.3,0,2.4,0.8,2.8,2h0h1h0c0.4-1.2,1.5-2,2.8-2H21
	V3.8H3z M11.5,18.4c-0.7-0.8-1.7-1.3-2.9-1.3H4V4.8h7.5V18.4z M20,17.2h-4.6c-1.1,0-2.1,0.5-2.9,1.3V4.8H20V17.2z"/>
<rect id="eds-icon--book-open_line_5_" x="6" y="14.1" width="4" height="1"/>
<rect id="eds-icon--book-open_line_4_" x="6" y="11" width="4" height="1"/>
<rect id="eds-icon--book-open_line_3_" x="6" y="7.9" width="4" height="1"/>
<rect id="eds-icon--book-open_line_2_" x="14" y="14.1" width="4" height="1"/>
<rect id="eds-icon--book-open_line_1_" x="14" y="11" width="4" height="1"/>
<rect id="eds-icon--book-open_line" x="14" y="7.9" width="4" height="1"/>
</svg>
