<svg id="Layer_1" xmlns="http://www.w3.org/2000/svg" viewBox="0 0 120 120"><title>circle-icon</title><circle cx="60.02" cy="60" r="49" style="fill:#70e4e0"/><path d="M93.74,18.26l-37.05,8c-1.89.41-6.72,5.49-6.72,5.49s-6.48-2.63-8.36-2.22l-37.1,8L16.15,91.37l37.68-8.16.12.55a2.65,2.65,0,0,0,3.16,2l8.43-1.83a2.65,2.65,0,0,0,2-3.14l-.12-.55L105.38,72Z" style="fill:#00acaf;stroke:#00acaf;stroke-linecap:round;stroke-linejoin:round;stroke-width:1.1504088182063075px"/><path d="M103,70.6,67.58,78.26c-1.8.39-6.41,5.29-6.41,5.29s-6.2-2.56-8-2.17L17.75,89.05,6.48,37l35.43-7.67c1.8-.39,8,2.17,8,2.17s4.6-4.9,6.41-5.29L91.7,18.58Z" style="fill:#f6f9ff"/><path d="M101.17,69.09,67,76.5c-1.74.38-6.19,5.11-6.19,5.11s-6-2.47-7.73-2.1L18.76,86.94,7.87,36.64l34.26-7.42c1.74-.38,7.73,2.1,7.73,2.1s4.45-4.74,6.19-5.11l34.22-7.41Z" style="fill:#c3c6cf"/><path d="M99.14,67.23,66.21,74.37c-1.68.36-6,4.94-6,4.94s-5.77-2.4-7.45-2l-33,7.14L9.31,35.78l33-7.14c1.67-.36,7.45,2,7.45,2s4.28-4.57,6-4.94L88.61,18.6Z" style="fill:#f6f9ff"/><line x1="15.8" y1="41.55" x2="40.46" y2="36.21" style="fill:none;stroke:#d2d6df;stroke-linecap:round;stroke-miterlimit:10;stroke-width:1.0353679363856767px"/><line x1="17.28" y1="48.41" x2="38.25" y2="43.87" style="fill:none;stroke:#d2d6df;stroke-linecap:round;stroke-miterlimit:10;stroke-width:1.0353679363856767px"/><line x1="18.77" y1="55.27" x2="43.43" y2="49.92" style="fill:none;stroke:#d2d6df;stroke-linecap:round;stroke-miterlimit:10;stroke-width:1.0353679363856767px"/><line x1="20.25" y1="62.12" x2="35.81" y2="58.75" style="fill:none;stroke:#d2d6df;stroke-linecap:round;stroke-miterlimit:10;stroke-width:1.0353679363856767px"/><line x1="21.74" y1="68.98" x2="46.4" y2="63.63" style="fill:none;stroke:#d2d6df;stroke-linecap:round;stroke-miterlimit:10;stroke-width:1.0353679363856767px"/><line x1="23.22" y1="75.83" x2="43.7" y2="71.4" style="fill:none;stroke:#d2d6df;stroke-linecap:round;stroke-miterlimit:10;stroke-width:1.0353679363856767px"/><line x1="60.81" y1="31.8" x2="81.53" y2="27.32" style="fill:none;stroke:#d2d6df;stroke-linecap:round;stroke-miterlimit:10;stroke-width:1.0353679363856767px"/><line x1="62.3" y1="38.66" x2="86.96" y2="33.32" style="fill:none;stroke:#d2d6df;stroke-linecap:round;stroke-miterlimit:10;stroke-width:1.0353679363856767px"/><line x1="63.78" y1="45.52" x2="78.43" y2="42.34" style="fill:none;stroke:#d2d6df;stroke-linecap:round;stroke-miterlimit:10;stroke-width:1.0353679363856767px"/><line x1="65.27" y1="52.37" x2="89.93" y2="47.03" style="fill:none;stroke:#d2d6df;stroke-linecap:round;stroke-miterlimit:10;stroke-width:1.0353679363856767px"/><line x1="66.75" y1="59.23" x2="87.79" y2="54.67" style="fill:none;stroke:#d2d6df;stroke-linecap:round;stroke-miterlimit:10;stroke-width:1.0353679363856767px"/><line x1="68.24" y1="66.08" x2="89.28" y2="61.52" style="fill:none;stroke:#d2d6df;stroke-linecap:round;stroke-miterlimit:10;stroke-width:1.0353679363856767px"/><path d="M66.12,74.32c-1.68.36-6,4.92-6,4.92L49.67,30.84s4.28-4.56,6-4.92Z" style="fill:#edeff5"/><circle cx="65.35" cy="59.48" r="28.6" transform="translate(-3.97 4.68) rotate(-3.98)" style="fill:#fff;stroke:#c3c6cf;stroke-linecap:round;stroke-miterlimit:10;stroke-width:2.760981163695138px"/><line x1="86.68" y1="79.37" x2="109.19" y2="98.95" style="fill:none;stroke:#c3c6cf;stroke-linecap:round;stroke-miterlimit:10;stroke-width:3.566267336439553px"/><rect x="99.53" y="80.79" width="8.51" height="26.93" rx="1.79" ry="1.79" transform="translate(-35.49 110.34) rotate(-48.83)" style="fill:#fb8825"/><circle cx="65.42" cy="59.53" r="13.97" style="fill:#479980"/><polyline points="59.27 61.09 64.47 66.59 70.41 52.55" style="fill:none;stroke:#fff;stroke-linecap:round;stroke-linejoin:round;stroke-width:2.300817636412615px"/></svg>
