<?xml version="1.0" encoding="utf-8"?>
<!-- Generator: Adobe Illustrator 20.1.0, SVG Export Plug-In . SVG Version: 6.00 Build 0)  -->
<svg version="1.1" id="eds-icon--briefcase_svg"
	 xmlns="http://www.w3.org/2000/svg" xmlns:xlink="http://www.w3.org/1999/xlink" x="0px" y="0px" viewBox="0 0 24 24"
	 enable-background="new 0 0 24 24" xml:space="preserve">
<path id="eds-icon--briefcase_base" fill-rule="evenodd" clip-rule="evenodd" d="M17,14v-2h2v7H5v-7h2v2h1v-2h8v2
	H17z M4,7h4h1h6h1h4v4h-3v-1h-1v1H8v-1H7v1H4h0V7z M9,6h6V5H9V6z M8,4L8,4v1v1H4H3v1v4v1h1h0v8h16v-8h1h0V6h0h-1h-4V5V4v0H8z"/>
</svg>
