<?xml version="1.0" encoding="utf-8"?>
<!-- Generator: Adobe Illustrator 19.1.0, SVG Export Plug-In . SVG Version: 6.00 Build 0)  -->
<svg version="1.1" id="eds-icon--bug_svg"
	 xmlns="http://www.w3.org/2000/svg" xmlns:xlink="http://www.w3.org/1999/xlink" x="0px" y="0px" viewBox="0 0 24 24"
	 enable-background="new 0 0 24 24" xml:space="preserve">
<path id="eds-icon--bug_base" fill-rule="evenodd" clip-rule="evenodd" d="M21,16v-1h-3v-2h1.4l1.4-1.4l-0.7-0.7
	L18.9,12H18V9h-0.7h-0.9c0-0.2,0-0.3,0-0.5c0-1.9-1.1-3.5-2.8-4.2L15.1,3H16V2h-1.5h0.1l-2,2c-0.2,0-0.4,0-0.6,0s-0.4,0-0.6,0l-2-2
	l0.1,0L8,2v1h0.9l1.3,1.3C8.6,5,7.5,6.6,7.5,8.5c0,0.2,0,0.3,0,0.5H6v1v2H5.1L4,10.8l-0.7,0.7L4.6,13H6v2H3v1h3c0,0.7,0.1,1.4,0.3,2
	H4.6l-1.4,1.4l0.7,0.7L5.1,19h1.7c1,1.8,3,3,5.2,3s4.2-1.2,5.2-3h1.7l1.2,1.2l0.7-0.7L19.4,18h-1.7c0.2-0.6,0.3-1.3,0.3-2H21z
	 M8.5,8.9c0-0.1,0-0.3,0-0.4C8.5,6.6,10.1,5,12,5s3.5,1.6,3.5,3.5c0,0.1,0,0.2,0,0.4l0,0.1h-3h-1h-3L8.5,8.9z M7,16v-6h0.5h1.1h2.9
	v11C9,20.7,7,18.6,7,16z M12.5,21V10h2.9h1.1H17v6C17,18.6,15,20.7,12.5,21z"/>
</svg>
