<?xml version="1.0" encoding="utf-8"?>
<!-- Generator: Adobe Illustrator 20.0.0, SVG Export Plug-In . SVG Version: 6.00 Build 0)  -->
<svg version="1.1" id="eds-icon--bus_svg"
	 xmlns="http://www.w3.org/2000/svg" xmlns:xlink="http://www.w3.org/1999/xlink" x="0px" y="0px" viewBox="0 0 24 24"
	 enable-background="new 0 0 24 24" xml:space="preserve">
<path id="eds-icon--bus_base" fill-rule="evenodd" clip-rule="evenodd" fill="#231F20" d="M5,5h14l0,6h-6.5V7h-1v4
	H5V5z M7,19c0,0.6-0.4,1-1,1s-1-0.4-1-1v-1h2V19z M19,19c0,0.6-0.4,1-1,1s-1-0.4-1-1v-1h2V19z M19,17h-3H8H5v-5h6.5h1H19V17z M20,7
	V4H4v3H2h0v3h1V8h1v11c0,1.1,0.9,2,2,2s2-0.9,2-2v-1h8v1c0,1.1,0.9,2,2,2s2-0.9,2-2V8h1v2h1V7H20z"/>
<g id="eds-icon--bus_dashes">
	<rect x="6" y="14" fill-rule="evenodd" clip-rule="evenodd" fill="#231F20" width="3" height="1"/>
	<rect x="15" y="14" fill-rule="evenodd" clip-rule="evenodd" fill="#231F20" width="3" height="1"/>
</g>
</svg>
