<?xml version="1.0" encoding="utf-8"?>
<!-- Generator: Adobe Illustrator 20.0.0, SVG Export Plug-In . SVG Version: 6.00 Build 0)  -->
<svg version="1.1" id="eds-icon--business_svg"
	 xmlns="http://www.w3.org/2000/svg" xmlns:xlink="http://www.w3.org/1999/xlink" x="0px" y="0px" viewBox="0 0 24 24"
	 enable-background="new 0 0 24 24" xml:space="preserve">
<path id="eds-icon--business_base" fill-rule="evenodd" clip-rule="evenodd" fill="#231F20" d="M4,17h16V4H4V17z
	 M11.5,2v1H3v14H2v1h8.3L7,21.3L7.7,22l3.8-3.8V22h1v-3.8l3.8,3.8l0.7-0.7L13.7,18H22v-1h-1V3h-8.5V2H11.5z"/>
<g id="eds-icon--business_lines">
	<rect x="16" y="9" fill-rule="evenodd" clip-rule="evenodd" fill="#231F20" width="1" height="4"/>
	<rect x="14" y="7" fill-rule="evenodd" clip-rule="evenodd" fill="#231F20" width="1" height="6"/>
	<rect x="12" y="9" fill-rule="evenodd" clip-rule="evenodd" fill="#231F20" width="1" height="4"/>
</g>
<path id="eds-icon--business_circle" fill-rule="evenodd" clip-rule="evenodd" fill="#231F20" d="M8,9
	c-1.1,0-2,0.9-2,2c0,1.1,0.9,2,2,2c1.1,0,2-0.9,2-2C10,9.9,9.1,9,8,9z M8,12c-0.6,0-1-0.4-1-1c0-0.6,0.4-1,1-1s1,0.4,1,1
	C9,11.6,8.6,12,8,12z"/>
</svg>
