<?xml version="1.0" encoding="UTF-8" standalone="no"?>
<svg width="144px" height="144px" viewBox="0 0 144 144" version="1.1" xmlns="http://www.w3.org/2000/svg" xmlns:xlink="http://www.w3.org/1999/xlink">
    <!-- Generator: Sketch 46.2 (44496) - http://www.bohemiancoding.com/sketch -->
    <title>img_changes</title>
    <desc>Created with Sketch.</desc>
    <defs></defs>
    <g id="assets" stroke="none" stroke-width="1" fill="none" fill-rule="evenodd">
        <g id="img_changes">
            <rect id="Rectangle" fill-opacity="0" fill="#D8D8D8" x="0" y="0" width="144" height="144"></rect>
            <g id="gra_calendar" transform="translate(25.000000, 31.000000)">
                <polygon id="Fill-2" fill="#FFFFFF" points="0.5 81.5 93.5 81.5 93.5 15.5 0.5 15.5"></polygon>
                <polygon id="Fill-3" fill="#FFFFFF" points="0.5 15.5 93.5 15.5 93.5 0.5 0.5 0.5"></polygon>
                <polygon id="Stroke-4" stroke="#3A3A3A" stroke-width="3" points="0.5 81.5 93.5 81.5 93.5 15.5 0.5 15.5"></polygon>
                <polygon id="Fill-6" fill="#D2D6DF" points="30.5 35 39.5 35 39.5 26 30.5 26"></polygon>
                <polygon id="Fill-7" fill="#D2D6DF" points="42.5 35 51.5 35 51.5 26 42.5 26"></polygon>
                <polygon id="Fill-8" fill="#D2D6DF" points="54.5 35 63.5 35 63.5 26 54.5 26"></polygon>
                <polygon id="Fill-9" fill="#D2D6DF" points="66.5 35 75.5 35 75.5 26 66.5 26"></polygon>
                <polygon id="Fill-10" fill="#D2D6DF" points="78.5 35 87.5 35 87.5 26 78.5 26"></polygon>
                <polygon id="Fill-11" fill="#D2D6DF" points="6.5 47 15.5 47 15.5 38 6.5 38"></polygon>
                <polygon id="Fill-12" fill="#D2D6DF" points="18.5 47 27.5 47 27.5 38 18.5 38"></polygon>
                <polygon id="Fill-13" fill="#D2D6DF" points="30.5 47 39.5 47 39.5 38 30.5 38"></polygon>
                <polygon id="Fill-14" fill="#D2D6DF" points="42.5 47 51.5 47 51.5 38 42.5 38"></polygon>
                <polygon id="Fill-15" fill="#D2D6DF" points="54.5 47 63.5 47 63.5 38 54.5 38"></polygon>
                <polygon id="Fill-16" fill="#D2D6DF" points="66.5 47 75.5 47 75.5 38 66.5 38"></polygon>
                <polygon id="Fill-17" fill="#D2D6DF" points="78.5 47 87.5 47 87.5 38 78.5 38"></polygon>
                <polygon id="Fill-18" fill="#D2D6DF" points="6.5 59 15.5 59 15.5 50 6.5 50"></polygon>
                <polygon id="Fill-19" fill="#D2D6DF" points="18.5 59 27.5 59 27.5 50 18.5 50"></polygon>
                <polygon id="Fill-20" fill="#D2D6DF" points="30.5 59 39.5 59 39.5 50 30.5 50"></polygon>
                <polygon id="Fill-21" fill="#F6682F" points="42.5 59 51.5 59 51.5 50 42.5 50"></polygon>
                <polygon id="Fill-22" fill="#F6682F" points="54.5 59 63.5 59 63.5 50 54.5 50"></polygon>
                <polygon id="Fill-23" fill="#F6682F" points="66.5 59 75.5 59 75.5 50 66.5 50"></polygon>
                <polygon id="Fill-24" fill="#F6682F" points="78.5 59 87.5 59 87.5 50 78.5 50"></polygon>
                <polygon id="Fill-25" fill="#F6682F" points="6.5 71 15.5 71 15.5 62 6.5 62"></polygon>
                <polygon id="Fill-26" fill="#F6682F" points="18.5 71 27.5 71 27.5 62 18.5 62"></polygon>
                <polygon id="Fill-27" fill="#F6682F" points="30.5 71 39.5 71 39.5 62 30.5 62"></polygon>
                <polygon id="Fill-28" fill="#F6682F" points="42.5 71 51.5 71 51.5 62 42.5 62"></polygon>
                <polygon id="Fill-29" fill="#F6682F" points="54.5 71 63.5 71 63.5 62 54.5 62"></polygon>
                <polyline id="Stroke-30" stroke="#3A3A3A" stroke-width="3" points="0.5 11 0.5 0.5 93.5 0.5 93.5 11"></polyline>
                <path d="M9.5,6.5 L84.5,6.5" id="Stroke-32" stroke="#3A3A3A" stroke-width="3" stroke-linejoin="round"></path>
                <path d="M24.5,30.5 L21.5,30.5" id="Stroke-37" stroke="#3A3A3A" stroke-width="3" stroke-linejoin="round"></path>
                <path d="M12.5,30.5 L9.5,30.5" id="Stroke-38" stroke="#3A3A3A" stroke-width="3" stroke-linejoin="round"></path>
                <path d="M84.5,66.5 L81.5,66.5" id="Stroke-39" stroke="#3A3A3A" stroke-width="3" stroke-linejoin="round"></path>
                <path d="M72.5,66.5 L69.5,66.5" id="Stroke-40" stroke="#3A3A3A" stroke-width="3" stroke-linejoin="round"></path>
            </g>
        </g>
    </g>
</svg>