<?xml version="1.0" encoding="utf-8"?>
<!-- Generator: Adobe Illustrator 20.0.0, SVG Export Plug-In . SVG Version: 6.00 Build 0)  -->
<svg version="1.1" id="eds-icon--calendar-add_svg"
	 xmlns="http://www.w3.org/2000/svg" xmlns:xlink="http://www.w3.org/1999/xlink" x="0px" y="0px" viewBox="0 0 24 24"
	 enable-background="new 0 0 24 24" xml:space="preserve">
<path id="eds-icon--calendar-add_base" fill-rule="evenodd" clip-rule="evenodd" fill="#010101" d="M21,21H3V9h18
	V21z M3,8V5h4v1h1V5h8v1h1V5h4v3H3z M17,4V2h-1v2H8V2H7v2H2v18h20V4H17z"/>
<polygon id="eds-icon--calendar-add_plus" fill-rule="evenodd" clip-rule="evenodd" fill="#010101" points="
	12.5,14.5 12.5,12 11.5,12 11.5,14.5 9,14.5 9,15.5 11.5,15.5 11.5,18 12.5,18 12.5,15.5 15,15.5 15,14.5 "/>
</svg>
