<?xml version="1.0" encoding="utf-8"?>
<!-- Generator: Adobe Illustrator 19.1.0, SVG Export Plug-In . SVG Version: 6.00 Build 0)  -->
<svg version="1.1" id="eds-icon--calendar_svg"
	 xmlns="http://www.w3.org/2000/svg" xmlns:xlink="http://www.w3.org/1999/xlink" x="0px" y="0px" viewBox="0 0 24 24"
	 enable-background="new 0 0 24 24" xml:space="preserve">
<path id="eds-icon--calendar_base" fill-rule="evenodd" clip-rule="evenodd" d="M17,4V2h-1v2H8V2H7v2H2v18h20V4H17z
	 M21,21H3V9h18V21z M3,8V5h4v1h1V5h8v1h1V5h4v3H3z"/>
<g id="eds-icon--calendar_squares">
	<rect x="15" y="16" fill-rule="evenodd" clip-rule="evenodd" width="2" height="2"/>
	<rect x="11" y="16" fill-rule="evenodd" clip-rule="evenodd" width="2" height="2"/>
	<rect x="7" y="16" fill-rule="evenodd" clip-rule="evenodd" width="2" height="2"/>
	<rect x="15" y="12" fill-rule="evenodd" clip-rule="evenodd" width="2" height="2"/>
	<rect x="11" y="12" fill-rule="evenodd" clip-rule="evenodd" width="2" height="2"/>
	<rect x="7" y="12" fill-rule="evenodd" clip-rule="evenodd" width="2" height="2"/>
</g>
</svg>
