<?xml version="1.0" encoding="utf-8"?>
<!-- Generator: Adobe Illustrator 20.0.0, SVG Export Plug-In . SVG Version: 6.00 Build 0)  -->
<svg version="1.1" id="eds-icon--calendar-repeat-fill_svg"
	 xmlns="http://www.w3.org/2000/svg" xmlns:xlink="http://www.w3.org/1999/xlink" x="0px" y="0px" viewBox="0 0 24 24"
	 enable-background="new 0 0 24 24" xml:space="preserve">
<rect id="eds-icon--calendar-repeat-fill_base" x="2" y="8" width="20" height="14"/>
<polygon id="eds-icon--calendar-repeat-fill_top" points="17,4 17,2 16,2 16,4 8,4 8,2 7,2 7,4 2,4 2,7 22,7 22,4 "/>
<path id="eds-icon--calendar-repeat-fill_arrow" fill-rule="evenodd" clip-rule="evenodd" fill="#FFFFFF" d="M14.2,13
	c-0.5-0.6-1.3-1-2.2-1c-1.7,0-3,1.3-3,3s1.3,3,3,3c0.7,0,1.3-0.2,1.8-0.6l0.6,0.8C13.7,18.7,12.9,19,12,19c-2.2,0-4-1.8-4-4
	s1.8-4,4-4c1.2,0,2.3,0.5,3,1.4V11l1,0v3h-3l0-1H14.2z"/>
</svg>
