<?xml version="1.0" encoding="utf-8"?>
<!-- Generator: Adobe Illustrator 19.1.0, SVG Export Plug-In . SVG Version: 6.00 Build 0)  -->
<svg version="1.1" id="eds-icon--camera_svg"
	 xmlns="http://www.w3.org/2000/svg" xmlns:xlink="http://www.w3.org/1999/xlink" x="0px" y="0px" viewBox="0 0 24 24"
	 enable-background="new 0 0 24 24" xml:space="preserve">
<path id="eds-icon--camera_base" fill-rule="evenodd" clip-rule="evenodd" d="M6,8V7h15v12H3V7h2v1H6z M9,5h6v1H9V5
	z M8,4v2H6V4H5v2H2v14h20V6h-6V4H8z"/>
<path id="eds-icon--camera_circle" fill-rule="evenodd" clip-rule="evenodd" d="M12,18c2.8,0,5-2.2,5-5s-2.2-5-5-5
	s-5,2.2-5,5S9.2,18,12,18 M12,9c2.2,0,4,1.8,4,4s-1.8,4-4,4s-4-1.8-4-4S9.8,9,12,9"/>
</svg>
