<?xml version="1.0" encoding="UTF-8" standalone="no"?>
<svg width="144px" height="144px" viewBox="0 0 144 144" version="1.1" xmlns="http://www.w3.org/2000/svg" xmlns:xlink="http://www.w3.org/1999/xlink">
    <!-- Generator: Sketch 43.2 (39069) - http://www.bohemiancoding.com/sketch -->
    <title>camera-graphic</title>
    <desc>Created with Sketch.</desc>
    <defs></defs>
    <g id="Page-1" stroke="none" stroke-width="1" fill="none" fill-rule="evenodd">
        <g id="camera-graphic">
            <rect id="Rectangle-path" x="0" y="0" width="144" height="144"></rect>
            <path d="M57.625,41.8695652 L112.25,41.8695652 L112.25,61.9565217 L57.625,61.9565217 L57.625,41.8695652 Z M31.75,53.3478261 L57.625,53.3478261 L57.625,61.9565217 L31.75,61.9565217 L31.75,53.3478261 Z" id="Combined-Shape" fill="#FFFFFF" fill-rule="nonzero"></path>
            <path d="M115.125,105 L28.875,105 L28.875,61.9565217 L115.125,61.9565217 L115.125,105 Z M31.75,102.130435 L112.25,102.130435 L112.25,64.826087 L31.75,64.826087 L31.75,102.130435 Z" id="Shape" fill="#3A3A3A" fill-rule="nonzero"></path>
            <rect id="Rectangle-path" fill="#F16932" fill-rule="nonzero" x="31.75" y="64.826087" width="80.5" height="37.3043478"></rect>
            <polyline id="Shape" fill="#3A3A3A" fill-rule="nonzero" points="115.125 63.3913043 112.25 63.3913043 112.25 41.8695652 57.625 41.8695652 57.625 53.3478261 31.75 53.3478261 31.75 63.3913043 28.875 63.3913043 28.875 50.4782609 54.75 50.4782609 54.75 39 115.125 39"></polyline>
            <ellipse id="Oval" fill="#FFFFFF" fill-rule="nonzero" cx="77.75" cy="73.4347826" rx="24.4375" ry="24.3913043"></ellipse>
            <path d="M77.75,98.5434783 C63.95,98.5434783 52.59375,87.2086957 52.59375,73.4347826 C52.59375,59.6608696 63.95,48.326087 77.75,48.326087 C91.55,48.326087 102.90625,59.6608696 102.90625,73.4347826 C102.90625,87.2086957 91.55,98.5434783 77.75,98.5434783 Z M77.75,49.7608696 C64.66875,49.7608696 54.03125,60.3782609 54.03125,73.4347826 C54.03125,86.4913043 64.66875,97.1086957 77.75,97.1086957 C90.83125,97.1086957 101.46875,86.4913043 101.46875,73.4347826 C101.46875,60.3782609 90.83125,49.7608696 77.75,49.7608696 Z" id="Shape" fill="#3A3A3A" fill-rule="nonzero"></path>
            <rect id="Rectangle-path" fill="#FFFFFF" fill-rule="nonzero" x="30.3125" y="40.4347826" width="20.125" height="5.73913043"></rect>
            <path d="M51.15625,46.8913043 L29.59375,46.8913043 L29.59375,39.7173913 L51.15625,39.7173913 L51.15625,46.8913043 Z M31.03125,45.4565217 L49.71875,45.4565217 L49.71875,41.1521739 L31.03125,41.1521739 L31.03125,45.4565217 Z" id="Shape" fill="#3A3A3A" fill-rule="nonzero"></path>
            <path d="M51.875,47.6086957 L28.875,47.6086957 L28.875,39 L51.875,39 L51.875,47.6086957 Z M31.75,44.7391304 L49,44.7391304 L49,41.8695652 L31.75,41.8695652 L31.75,44.7391304 Z" id="Shape" fill="#3A3A3A" fill-rule="nonzero"></path>
            <ellipse id="Oval" fill="#FFFFFF" fill-rule="nonzero" cx="77.75" cy="73.4347826" rx="11.5" ry="11.4782609"></ellipse>
            <path d="M77.75,85.6304348 C70.99375,85.6304348 65.53125,80.1782609 65.53125,73.4347826 C65.53125,66.6913043 70.99375,61.2391304 77.75,61.2391304 C84.50625,61.2391304 89.96875,66.6913043 89.96875,73.4347826 C89.96875,80.1782609 84.50625,85.6304348 77.75,85.6304348 Z M77.75,62.673913 C71.85625,62.673913 66.96875,67.5521739 66.96875,73.4347826 C66.96875,79.3173913 71.85625,84.1956522 77.75,84.1956522 C83.64375,84.1956522 88.53125,79.3173913 88.53125,73.4347826 C88.53125,67.5521739 83.64375,62.673913 77.75,62.673913 Z" id="Shape" fill="#3A3A3A" fill-rule="nonzero"></path>
            <rect id="Rectangle-path" fill="#3A3A3A" fill-rule="nonzero" x="26" y="61.9565217" width="4.3125" height="2.86956522"></rect>
            <rect id="Rectangle-path" fill="#3A3A3A" fill-rule="nonzero" x="112.25" y="61.9565217" width="5.75" height="2.86956522"></rect>
            <rect id="Rectangle-path" fill="#3A3A3A" fill-rule="nonzero" x="38.9375" y="64.1086957" width="2.875" height="15.0652174"></rect>
            <rect id="Rectangle-path" fill="#3A3A3A" fill-rule="nonzero" x="38.9375" y="46.173913" width="2.875" height="12.9130435"></rect>
            <path d="M77.75,99.2608696 C63.51875,99.2608696 51.875,87.6391304 51.875,73.4347826 C51.875,59.2304348 63.51875,47.6086957 77.75,47.6086957 C91.98125,47.6086957 103.625,59.2304348 103.625,73.4347826 C103.625,87.6391304 91.98125,99.2608696 77.75,99.2608696 Z M77.75,50.4782609 C65.1,50.4782609 54.75,60.8086957 54.75,73.4347826 C54.75,86.0608696 65.1,96.3913043 77.75,96.3913043 C90.4,96.3913043 100.75,86.0608696 100.75,73.4347826 C100.75,60.8086957 90.4,50.4782609 77.75,50.4782609 Z" id="Shape" fill="#3A3A3A" fill-rule="nonzero"></path>
            <path d="M77.75,54.7826087 C67.4,54.7826087 59.0625,63.1043478 59.0625,73.4347826 C59.0625,83.7652174 67.4,92.0869565 77.75,92.0869565 C88.1,92.0869565 96.4375,83.7652174 96.4375,73.4347826 C96.4375,63.1043478 88.1,54.7826087 77.75,54.7826087 Z M77.75,83.4782609 C72.14375,83.4782609 67.6875,79.0304348 67.6875,73.4347826 C67.6875,67.8391304 72.14375,63.3913043 77.75,63.3913043 C83.35625,63.3913043 87.8125,67.8391304 87.8125,73.4347826 C87.8125,79.0304348 83.35625,83.4782609 77.75,83.4782609 Z" id="Shape" fill="#D2D6DF" fill-rule="nonzero"></path>
            <path d="M77.75,93.5217391 C66.68125,93.5217391 57.625,84.4826087 57.625,73.4347826 C57.625,62.3869565 66.68125,53.3478261 77.75,53.3478261 C88.81875,53.3478261 97.875,62.3869565 97.875,73.4347826 C97.875,84.4826087 88.81875,93.5217391 77.75,93.5217391 Z M77.75,56.2173913 C68.2625,56.2173913 60.5,63.9652174 60.5,73.4347826 C60.5,82.9043478 68.2625,90.6521739 77.75,90.6521739 C87.2375,90.6521739 95,82.9043478 95,73.4347826 C95,63.9652174 87.2375,56.2173913 77.75,56.2173913 Z" id="Shape" fill="#3A3A3A" fill-rule="nonzero"></path>
            <path d="M77.75,86.3478261 C70.5625,86.3478261 64.8125,80.6086957 64.8125,73.4347826 C64.8125,66.2608696 70.5625,60.5217391 77.75,60.5217391 C84.9375,60.5217391 90.6875,66.2608696 90.6875,73.4347826 C90.6875,80.6086957 84.9375,86.3478261 77.75,86.3478261 Z M77.75,63.3913043 C72.14375,63.3913043 67.6875,67.8391304 67.6875,73.4347826 C67.6875,79.0304348 72.14375,83.4782609 77.75,83.4782609 C83.35625,83.4782609 87.8125,79.0304348 87.8125,73.4347826 C87.8125,67.8391304 83.35625,63.3913043 77.75,63.3913043 Z" id="Shape" fill="#3A3A3A" fill-rule="nonzero"></path>
        </g>
    </g>
</svg>