<?xml version="1.0" encoding="utf-8"?>
<!-- Generator: Adobe Illustrator 19.1.0, SVG Export Plug-In . SVG Version: 6.00 Build 0)  -->
<svg version="1.1" id="eds-icon--cart_svg"
	 xmlns="http://www.w3.org/2000/svg" xmlns:xlink="http://www.w3.org/1999/xlink" x="0px" y="0px" viewBox="0 0 24 24"
	 enable-background="new 0 0 24 24" xml:space="preserve">
<path id="eds-icon--cart_base" fill-rule="evenodd" clip-rule="evenodd" d="M20,14l2-9L9,5v1l11.9,0l-1.7,7.1L7,14
	V2H2v3h4v12h1h13v-1H7v-1L20,14z M3,3h3v1H3V3z"/>
<g id="eds-icon--cart_circles">
	<path fill-rule="evenodd" clip-rule="evenodd" d="M8,18c-1.1,0-2,0.9-2,2s0.9,2,2,2s2-0.9,2-2S9.1,18,8,18z M8,21c-0.6,0-1-0.4-1-1
		s0.4-1,1-1s1,0.4,1,1S8.6,21,8,21z"/>
	<path fill-rule="evenodd" clip-rule="evenodd" d="M18,18c-1.1,0-2,0.9-2,2s0.9,2,2,2s2-0.9,2-2S19.1,18,18,18z M18,21
		c-0.6,0-1-0.4-1-1s0.4-1,1-1s1,0.4,1,1S18.6,21,18,21z"/>
</g>
</svg>
