<?xml version="1.0" encoding="utf-8"?>
<!-- Generator: Adobe Illustrator 20.1.0, SVG Export Plug-In . SVG Version: 6.00 Build 0)  -->
<svg version="1.1" id="eds-icon--gift_svg"
	 xmlns="http://www.w3.org/2000/svg" xmlns:xlink="http://www.w3.org/1999/xlink" x="0px" y="0px" viewBox="0 0 24 24"
	 enable-background="new 0 0 24 24" xml:space="preserve">
<path id="eds-icon--chair_base" fill-rule="evenodd" clip-rule="evenodd" d="M8,7c0-2.2,1.8-4,4-4s4,1.8,4,4v8H8V7z
	 M18,17c0,0.6-0.4,1-1,1H7c-0.6,0-1-0.4-1-1v-1h1h10h1V17z M19,12h-1v1v2h-1V7c0-2.8-2.2-5-5-5S7,4.2,7,7v8H6v-2v-1H5H4v1h1v4
	c0,1.1,0.9,2,2,2h1v3h1v-3h6v3h1v-3h1c1.1,0,2-0.9,2-2v-4h1v-1H19z"/>
<rect id="eds-icon--chair_dot_5_" x="14" y="10" fill-rule="evenodd" clip-rule="evenodd" width="1" height="1"/>
<rect id="eds-icon--chair_dot_4_" x="9" y="10" fill-rule="evenodd" clip-rule="evenodd" width="1" height="1"/>
<rect id="eds-icon--chair_dot_3_" x="11.5" y="8" fill-rule="evenodd" clip-rule="evenodd" width="1" height="1"/>
<rect id="eds-icon--chair_dot_2_" x="14" y="6" fill-rule="evenodd" clip-rule="evenodd" width="1" height="1"/>
<rect id="eds-icon--chair_dot_1_" x="9" y="6" fill-rule="evenodd" clip-rule="evenodd" width="1" height="1"/>
<rect id="eds-icon--chair_dot" x="11.5" y="12" fill-rule="evenodd" clip-rule="evenodd" width="1" height="1"/>
</svg>
