<?xml version="1.0" encoding="UTF-8" standalone="no"?>
<svg width="144px" height="144px" viewBox="0 0 144 144" version="1.1" xmlns="http://www.w3.org/2000/svg" xmlns:xlink="http://www.w3.org/1999/xlink">
    <!-- Generator: Sketch 46.2 (44496) - http://www.bohemiancoding.com/sketch -->
    <title>img_changes</title>
    <desc>Created with Sketch.</desc>
    <defs></defs>
    <g id="assets" stroke="none" stroke-width="1" fill="none" fill-rule="evenodd">
        <g id="img_changes">
            <rect id="Rectangle" fill-opacity="0" fill="#D8D8D8" x="0" y="0" width="144" height="144"></rect>
            <g id="img_design" transform="translate(25.000000, 31.000000)">
                <path d="M93.5,11 C93.5,5.201 88.799,0.5 83,0.5 C77.201,0.5 72.5,5.201 72.5,11 L72.5,12.5 L15.5,12.5 L15.5,66.5 L84.5,66.5 L84.5,66.38 C89.5865,65.651 93.5,61.2875 93.5,56 C93.5,55.49 93.452,54.992 93.3815,54.5 L93.5,54.5 L93.5,11 Z" id="Fill-1" fill="#FFFFFF"></path>
                <path d="M72.5,56 C72.5,50.201 77.201,45.5 83,45.5 C88.799,45.5 93.5,50.201 93.5,56 C93.5,61.799 88.799,66.5 83,66.5 L15.5,66.5 L15.5,12.5 L71,12.5" id="Stroke-3" stroke="#3A3A3A" stroke-width="3"></path>
                <path d="M72.5,56 L72.5,11 C72.5,5.201 77.201,0.5 83,0.5 C88.799,0.5 93.5,5.201 93.5,11 L93.5,56" id="Stroke-5" stroke="#3A3A3A" stroke-width="3"></path>
                <polygon id="Fill-7" fill="#F6682F" points="0.5 68 9.5 68 9.5 21.5 0.5 21.5"></polygon>
                <polyline id="Fill-9" fill="#FFFFFF" points="9.5 68 9.5 74 5 80 0.5 74 0.5 68"></polyline>
                <polyline id="Stroke-10" stroke="#3A3A3A" stroke-width="3" points="9.5 21.5 9.5 74 5 80 0.5 74 0.5 21.5"></polyline>
                <path d="M0.5,68 L9.5,68" id="Stroke-11" stroke="#3A3A3A" stroke-width="3"></path>
                <path d="M0.5,17 C0.5,14.516 2.516,12.5 5,12.5 C7.484,12.5 9.5,14.516 9.5,17 L9.5,21.5 L0.5,21.5 L0.5,17 Z" id="Fill-12" fill="#D2D6DF"></path>
                <path d="M0.5,17 C0.5,14.516 2.516,12.5 5,12.5 C7.484,12.5 9.5,14.516 9.5,17 L9.5,21.5 L0.5,21.5 L0.5,17 Z" id="Stroke-13" stroke="#3A3A3A" stroke-width="3"></path>
                <path d="M5,80 L5,83" id="Stroke-14" stroke="#3A3A3A" stroke-width="3"></path>
                <polygon id="Fill-15" fill="#D2D6DF" points="54.5 45.5 63.5 45.5 63.5 36.5 54.5 36.5"></polygon>
                <polygon id="Fill-16" fill="#D2D6DF" points="39.5 45.5 48.5 45.5 48.5 36.5 39.5 36.5"></polygon>
                <polygon id="Stroke-17" stroke="#3A3A3A" stroke-width="3" points="54.5 45.5 63.5 45.5 63.5 36.5 54.5 36.5"></polygon>
                <polygon id="Stroke-18" stroke="#3A3A3A" stroke-width="3" points="39.5 45.5 48.5 45.5 48.5 36.5 39.5 36.5"></polygon>
                <path d="M53,51.5 L65,51.5" id="Stroke-19" stroke="#3A3A3A" stroke-width="3"></path>
                <path d="M53,57.5 L65,57.5" id="Stroke-20" stroke="#3A3A3A" stroke-width="3"></path>
                <path d="M38,51.5 L50,51.5" id="Stroke-21" stroke="#3A3A3A" stroke-width="3"></path>
                <path d="M38,57.5 L50,57.5" id="Stroke-22" stroke="#3A3A3A" stroke-width="3"></path>
                <polygon id="Fill-23" fill="#D2D6DF" points="24.5 45.5 33.5 45.5 33.5 36.5 24.5 36.5"></polygon>
                <polygon id="Stroke-24" stroke="#3A3A3A" stroke-width="3" points="24.5 45.5 33.5 45.5 33.5 36.5 24.5 36.5"></polygon>
                <path d="M23,51.5 L35,51.5" id="Stroke-25" stroke="#3A3A3A" stroke-width="3"></path>
                <path d="M23,57.5 L35,57.5" id="Stroke-26" stroke="#3A3A3A" stroke-width="3"></path>
                <polygon id="Fill-30" fill="#D2D6DF" points="24.5 30.5 63.5 30.5 63.5 21.5 24.5 21.5"></polygon>
                <polygon id="Stroke-31" stroke="#3A3A3A" stroke-width="3" points="24.5 30.5 63.5 30.5 63.5 21.5 24.5 21.5"></polygon>
                <polygon id="Fill-32" fill="#3A3A3A" points="14 74 95 74 95 71 14 71"></polygon>
                <polygon id="Fill-33" fill="#F6682F" points="14 83 95 83 95 74 14 74"></polygon>
                <path d="M87.5,83 L87.5,77" id="Stroke-34" stroke="#3A3A3A" stroke-width="3"></path>
                <path d="M81.5,83 L81.5,80" id="Stroke-35" stroke="#3A3A3A" stroke-width="3"></path>
                <path d="M75.5,83 L75.5,80" id="Stroke-36" stroke="#3A3A3A" stroke-width="3"></path>
                <path d="M69.5,83 L69.5,77" id="Stroke-37" stroke="#3A3A3A" stroke-width="3"></path>
                <path d="M63.5,83 L63.5,80" id="Stroke-38" stroke="#3A3A3A" stroke-width="3"></path>
                <path d="M57.5,83 L57.5,80" id="Stroke-39" stroke="#3A3A3A" stroke-width="3"></path>
                <path d="M51.5,83 L51.5,77" id="Stroke-40" stroke="#3A3A3A" stroke-width="3"></path>
                <path d="M45.5,83 L45.5,80" id="Stroke-41" stroke="#3A3A3A" stroke-width="3"></path>
                <path d="M39.5,83 L39.5,80" id="Stroke-42" stroke="#3A3A3A" stroke-width="3"></path>
                <path d="M33.5,83 L33.5,77" id="Stroke-43" stroke="#3A3A3A" stroke-width="3"></path>
                <path d="M27.5,83 L27.5,80" id="Stroke-44" stroke="#3A3A3A" stroke-width="3"></path>
                <path d="M21.5,83 L21.5,80" id="Stroke-45" stroke="#3A3A3A" stroke-width="3"></path>
            </g>
        </g>
    </g>
</svg>