<?xml version="1.0" encoding="utf-8"?>
<!-- Generator: Adobe Illustrator 20.0.0, SVG Export Plug-In . SVG Version: 6.00 Build 0)  -->
<svg version="1.1" id="eds-icon--charity_svg"
	 xmlns="http://www.w3.org/2000/svg" xmlns:xlink="http://www.w3.org/1999/xlink" x="0px" y="0px" viewBox="0 0 24 24"
	 enable-background="new 0 0 24 24" xml:space="preserve">
<path id="eds-icon--charity_base" fill-rule="evenodd" clip-rule="evenodd" fill="#231F20" d="M5.8,21.9l-0.7-0.7
	l2.4-2.6c3.1-3.3,7.9-8.3,9.3-9.9c1-1.1,1.4-2.3,1.1-3.6c-0.4-1.5-1.8-2.2-3-2.2c-1.1,0-2.1,0.6-2.5,1.5l-0.4,0.7l-0.4-0.6
	c-1-1.5-2.8-1.9-4.3-1.1C6.5,4,6,4.9,5.9,5.8c0,1.1,0.3,2,1.2,2.9l3.8,4l-0.7,0.7l-3.8-4C5.4,8.3,4.9,7.2,5,5.8
	c0.1-1.3,0.8-2.5,1.9-3.2c1.7-1,3.7-0.6,5.1,0.8c0.7-0.9,1.8-1.4,3-1.4c1.9,0,3.5,1.2,3.9,2.9c0.4,1.6,0,3.2-1.3,4.5
	C16,11,11.3,16,8.2,19.4L5.8,21.9z"/>
<polygon id="eds-icon--charity_line" fill-rule="evenodd" clip-rule="evenodd" fill="#231F20" points="18.3,22 
	13.2,16.6 13.8,15.9 18.9,21.3 "/>
</svg>
