<?xml version="1.0" encoding="utf-8"?>
<!-- Generator: Adobe Illustrator 19.1.0, SVG Export Plug-In . SVG Version: 6.00 Build 0)  -->
<svg version="1.1" id="eds-icon--chat_svg"
	 xmlns="http://www.w3.org/2000/svg" xmlns:xlink="http://www.w3.org/1999/xlink" x="0px" y="0px" viewBox="0 0 24 24"
	 enable-background="new 0 0 24 24" xml:space="preserve">
<path id="eds-icon--chat_base" fill-rule="evenodd" clip-rule="evenodd" d="M15,5c3.3,0,6,2.7,6,6s-2.7,6-6,6h-1.6
	L12,18.5L10.4,17H9c-3.3,0-6-2.7-6-6s2.7-6,6-6H15 M15,4H9c-3.9,0-7,3.1-7,7s3.1,7,7,7h1l2,2l1.8-2H15c3.9,0,7-3.1,7-7S18.9,4,15,4"
	/>
<g id="eds-icon--chat_dots">
	<rect x="11" y="10" fill-rule="evenodd" clip-rule="evenodd" width="2" height="2"/>
	<rect x="15" y="10" fill-rule="evenodd" clip-rule="evenodd" width="2" height="2"/>
	<rect x="7" y="10" fill-rule="evenodd" clip-rule="evenodd" width="2" height="2"/>
</g>
</svg>
