<?xml version="1.0" encoding="utf-8"?>
<!-- Generator: Adobe Illustrator 20.0.0, SVG Export Plug-In . SVG Version: 6.00 Build 0)  -->
<svg version="1.1" id="eds-icon--city_svg"
	 xmlns="http://www.w3.org/2000/svg" xmlns:xlink="http://www.w3.org/1999/xlink" x="0px" y="0px" viewBox="0 0 24 24"
	 enable-background="new 0 0 24 24" xml:space="preserve">
<path id="eds-icon--city_base" fill-rule="evenodd" clip-rule="evenodd" d="M13,21h4v-3h-4V21z M10,9.9l10,4.6V21
	h-2v-3v-0.9V17h-6v0.1V18v3h-2V9.9z M4,3h8v6.7l-4.4-2L7.2,8.7L9,9.5V21H4v-2h2v-1H4v-3h2v-1H4V3z M3,2v19H2v1h20v-1h-1v-6l1.5,0.7
	l0.5-0.9l-4-1.8V10h-1v2.5l-5-2.3V3V2L3,2z"/>
</svg>
