<?xml version="1.0" encoding="utf-8"?>
<!-- Generator: Adobe Illustrator 20.0.0, SVG Export Plug-In . SVG Version: 6.00 Build 0)  -->
<svg version="1.1" id="eds-icon--cocktail_svg"
	 xmlns="http://www.w3.org/2000/svg" xmlns:xlink="http://www.w3.org/1999/xlink" x="0px" y="0px" viewBox="0 0 24 24"
	 enable-background="new 0 0 24 24" xml:space="preserve">
<path id="eds-icon--cocktail_base" fill-rule="evenodd" clip-rule="evenodd" fill="#231F20" d="M19.5,7H21V6h-5
	l0.6-0.7c0.2,0.1,0.4,0.1,0.6,0.1c0.9,0,1.7-0.8,1.7-1.7c0-0.9-0.8-1.7-1.7-1.7c-0.9,0-1.7,0.8-1.7,1.7c0,0.4,0.1,0.7,0.3,1L14.6,6
	H3v1h1.1l7.4,8.6V21H9v1h6v-1h-2.5v-5.4L19.5,7z M17.1,3c0.4,0,0.7,0.3,0.7,0.7c0,0.4-0.3,0.7-0.7,0.7c-0.4,0-0.7-0.3-0.7-0.7
	C16.4,3.3,16.7,3,17.1,3z M11.3,11.4l1.2-1.4h3.2l-3.9,4.6L7.9,10h3.2l-0.6,0.7L11.3,11.4z M18.2,7l-1.7,2.1V9h-3.2l1.8-2H18.2z
	 M13.7,7L12,9H7.1L5.4,7H13.7z"/>
</svg>
