<?xml version="1.0" encoding="utf-8"?>
<!-- Generator: Adobe Illustrator 20.0.0, SVG Export Plug-In . SVG Version: 6.00 Build 0)  -->
<svg version="1.1" id="eds-icon--coffee_svg"
	 xmlns="http://www.w3.org/2000/svg" xmlns:xlink="http://www.w3.org/1999/xlink" x="0px" y="0px" viewBox="0 0 24 24"
	 enable-background="new 0 0 24 24" xml:space="preserve">
<rect id="eds-icon--coffee_base" x="5" y="21" fill-rule="evenodd" clip-rule="evenodd" fill="#231F20" width="12" height="1"/>
<path id="eds-icon--coffee_cup" fill-rule="evenodd" clip-rule="evenodd" fill="#231F20" d="M16,13.3
	c0,3.2-2.2,5.7-5,5.7s-5-2.6-5-5.7V11h10V13.3z M17,13h2v-2h-2V13z M20,10h-2.9h-1H5v3.3C5,17,7.7,20,11,20c3.1,0,5.7-2.6,6-6h3V10z
	"/>
<g id="eds-icon--coffee_steam">
	<path fill-rule="evenodd" clip-rule="evenodd" fill="#231F20" d="M12.5,3h-1v0.5C11.5,4.3,10.8,5,10,5C8.6,5,7.5,6.1,7.5,7.5V8h1
		V7.5C8.5,6.7,9.2,6,10,6c1.4,0,2.5-1.1,2.5-2.5V3z"/>
	<path fill-rule="evenodd" clip-rule="evenodd" fill="#231F20" d="M16,3v0.5C16,4.3,15.3,5,14.5,5C13.1,5,12,6.1,12,7.5V8h1V7.5
		C13,6.7,13.7,6,14.5,6C15.9,6,17,4.9,17,3.5V3H16z"/>
</g>
</svg>
