<?xml version="1.0" encoding="utf-8"?>
<!-- Generator: Adobe Illustrator 19.1.0, SVG Export Plug-In . SVG Version: 6.00 Build 0)  -->
<svg version="1.1" id="eds-icon--compass_svg"
	 xmlns="http://www.w3.org/2000/svg" xmlns:xlink="http://www.w3.org/1999/xlink" x="0px" y="0px" viewBox="0 0 24 24"
	 enable-background="new 0 0 24 24" xml:space="preserve">
<path id="eds-icon--compass_base" fill-rule="evenodd" clip-rule="evenodd" d="M12,3c5,0,9,4,9,9s-4,9-9,9s-9-4-9-9
	S7,3,12,3 M12,2C6.5,2,2,6.5,2,12s4.5,10,10,10s10-4.5,10-10S17.5,2,12,2"/>
<path id="eds-icon--compass_needle" fill-rule="evenodd" clip-rule="evenodd" d="M10.5,10.5L8,16l5.5-2.5L16,8
	L10.5,10.5z M12.7,12.7L10,14l1.2-2.7L14,10L12.7,12.7z"/>
</svg>
