<?xml version="1.0" encoding="utf-8"?>
<!-- Generator: Adobe Illustrator 20.1.0, SVG Export Plug-In . SVG Version: 6.00 Build 0)  -->
<svg version="1.1" id="eds-icon--conference_svg"
	 xmlns="http://www.w3.org/2000/svg" xmlns:xlink="http://www.w3.org/1999/xlink" x="0px" y="0px" viewBox="0 0 24 24"
	 enable-background="new 0 0 24 24" xml:space="preserve">
<path id="eds-icon--conference_base" fill-rule="evenodd" clip-rule="evenodd" d="M18.9,3.3c-0.9-0.9-2-1.3-3.2-1.3
	s-2.3,0.4-3.2,1.3l-0.7-0.7l-0.7,0.7L12,4.1c-0.7,1.1-0.9,2.5-0.5,3.8l-7.1,7.1l-0.7,0.7l0.7,0.7l1.4,1.4l0.7,0.7l1.7-1.7V21h-3v1h7
	v-1h-3v-5.2l5.1-5.1c0.5,0.2,0.9,0.2,1.4,0.2c0.8,0,1.7-0.2,2.4-0.7l0.8,0.8l0.7-0.7l-0.7-0.7C20.7,7.9,20.7,5.1,18.9,3.3z
	 M6.6,17.1l-1.4-1.4L12,8.9c0.2,0.3,0.4,0.5,0.6,0.8c0.2,0.2,0.5,0.4,0.8,0.6L6.6,17.1z M15.8,10c-0.9,0-1.8-0.4-2.5-1
	c-1.1-1.1-1.3-2.8-0.6-4.1l4.7,4.7C16.9,9.8,16.3,10,15.8,10z M13.3,4c0.7-0.7,1.5-1,2.5-1s1.8,0.4,2.5,1c1.4,1.4,1.4,3.6,0,4.9
	L13.3,4z"/>
</svg>
