<?xml version="1.0" encoding="UTF-8" standalone="no"?>
<svg width="144px" height="144px" viewBox="0 0 144 144" version="1.1" xmlns="http://www.w3.org/2000/svg" xmlns:xlink="http://www.w3.org/1999/xlink">
    <!-- Generator: Sketch 46.2 (44496) - http://www.bohemiancoding.com/sketch -->
    <title>img_changes</title>
    <desc>Created with Sketch.</desc>
    <defs></defs>
    <g id="assets" stroke="none" stroke-width="1" fill="none" fill-rule="evenodd">
        <g id="img_changes">
            <g id="gra_copy" transform="translate(26.000000, 26.000000)">
                <polygon id="Fill-3" fill="#F6682F" points="51 69 0 69 0 0 39 0 51 12"></polygon>
                <polygon id="Fill-4" fill="#FFFFFF" points="52.5 12 39 12 39 0"></polygon>
                <polyline id="Stroke-5" stroke="#3A3A3A" stroke-width="3" points="39 1.5 39 13.5 51 13.5"></polyline>
                <polygon id="Stroke-7" stroke="#3A3A3A" stroke-width="3" points="38.4008864 0 51.1281591 12.5454545 51.1281591 69 0.219068182 69 0.219068182 0"></polygon>
                <polygon id="Fill-10" fill="#FFFFFF" points="90 91.5 39 91.5 39 22.5 77.25 22.5 90 35.0454545"></polygon>
                <polygon id="Fill-11" fill="#FFFFFF" points="91.5 34.5 78 34.5 78 22.5"></polygon>
                <polyline id="Stroke-12" stroke="#3A3A3A" stroke-width="3" points="76.5 24 76.5 36 90 36"></polyline>
                <polygon id="Stroke-13" stroke="#3A3A3A" stroke-width="3" points="77.25 22.5 90 35.0454545 90 91.5 39 91.5 39 22.5"></polygon>
                <path d="M56.5649872,6 L64.6241977,6 C66.4036714,6 67.8478819,7.42432037 67.8478819,9.18283881 L67.8478819,17.1399358" id="Stroke-14" stroke="#3A3A3A" stroke-width="3"></path>
                <path d="M34.0078856,85.5709703 L25.9486751,85.5709703 C24.1675895,85.5709703 22.7249908,84.1450585 22.7249908,82.3881315 L22.7249908,74.4310345" id="Stroke-16" stroke="#3A3A3A" stroke-width="3"></path>
                <path d="M46.8995822,33 L69.4653717,33" id="Stroke-18" stroke="#D2D6DF" stroke-width="3"></path>
                <path d="M46.8995822,39 L69.4653717,39" id="Stroke-20" stroke="#D2D6DF" stroke-width="3"></path>
                <path d="M46.8995822,45 L82.3601086,45" id="Stroke-22" stroke="#D2D6DF" stroke-width="3"></path>
                <path d="M46.8995822,51 L82.3601086,51" id="Stroke-24" stroke="#D2D6DF" stroke-width="3"></path>
                <path d="M46.8995822,57 L82.3601086,57" id="Stroke-26" stroke="#D2D6DF" stroke-width="3"></path>
                <path d="M46.8995822,63 L82.3601086,63" id="Stroke-28" stroke="#D2D6DF" stroke-width="3"></path>
                <path d="M46.8995822,69 L82.3601086,69" id="Stroke-30" stroke="#D2D6DF" stroke-width="3"></path>
                <path d="M46.8995822,75 L82.3601086,75" id="Stroke-32" stroke="#D2D6DF" stroke-width="3"></path>
                <path d="M46.8995822,81 L82.3601086,81" id="Stroke-34" stroke="#D2D6DF" stroke-width="3"></path>
            </g>
        </g>
    </g>
</svg>