<?xml version="1.0" encoding="UTF-8" standalone="no"?>
<svg width="144px" height="144px" viewBox="0 0 144 144" version="1.1" xmlns="http://www.w3.org/2000/svg" xmlns:xlink="http://www.w3.org/1999/xlink">
    <!-- Generator: Sketch 43.2 (39069) - http://www.bohemiancoding.com/sketch -->
    <title>graphic_create_beta</title>
    <desc>Created with Sketch.</desc>
    <defs></defs>
    <g id="Page-1" stroke="none" stroke-width="1" fill="none" fill-rule="evenodd">
        <g id="graphic_create_beta">
            <polygon id="Fill-2" fill="#FEFEFE" points="28.8333333 110.788792 115.166667 110.788792 115.166667 27.5387917 28.8333333 27.5387917"></polygon>
            <path d="M29.6041667,110.017958 L114.395833,110.017958 L114.395833,28.309625 L29.6041667,28.309625 L29.6041667,110.017958 Z M28.0625,111.559625 L115.9375,111.559625 L115.9375,26.7679583 L28.0625,26.7679583 L28.0625,111.559625 Z" id="Fill-3" fill="#6A6B6E"></path>
            <polygon id="Fill-4" fill="#F26932" points="38.0833333 72.247125 105.916667 72.247125 105.916667 49.122125 38.0833333 49.122125"></polygon>
            <path d="M38.8541667,71.4762917 L105.145833,71.4762917 L105.145833,49.8929583 L38.8541667,49.8929583 L38.8541667,71.4762917 Z M37.3125,73.0179583 L106.6875,73.0179583 L106.6875,48.3512917 L37.3125,48.3512917 L37.3125,73.0179583 Z" id="Fill-5" fill="#6A6B6E"></path>
            <path d="M30.375,109.247125 L113.625,109.247125 L113.625,29.0804583 L30.375,29.0804583 L30.375,109.247125 Z M27.2916667,112.330458 L116.708333,112.330458 L116.708333,25.997125 L27.2916667,25.997125 L27.2916667,112.330458 Z" id="Fill-6" fill="#363A43"></path>
            <polygon id="Fill-7" fill="#363A43" points="28.8333333 41.4137917 115.166667 41.4137917 115.166667 38.3304583 28.8333333 38.3304583"></polygon>
            <polygon id="Fill-8" fill="#363A43" points="33.4583333 35.247125 36.5416667 35.247125 36.5416667 32.1637917 33.4583333 32.1637917"></polygon>
            <polygon id="Fill-9" fill="#363A43" points="39.625 35.247125 42.7083333 35.247125 42.7083333 32.1637917 39.625 32.1637917"></polygon>
            <polygon id="Fill-10" fill="#363A43" points="45.7916667 35.247125 48.875 35.247125 48.875 32.1637917 45.7916667 32.1637917"></polygon>
            <polygon id="Fill-11" fill="#363A43" points="51.9583333 39.872125 55.0416667 39.872125 55.0416667 27.5387917 51.9583333 27.5387917"></polygon>
            <polygon id="Fill-12" fill="#363A43" points="58.125 35.247125 110.541667 35.247125 110.541667 32.1637917 58.125 32.1637917"></polygon>
            <path d="M39.625,70.7054583 L104.375,70.7054583 L104.375,50.6637917 L39.625,50.6637917 L39.625,70.7054583 Z M36.5416667,73.7887917 L107.458333,73.7887917 L107.458333,47.5804583 L36.5416667,47.5804583 L36.5416667,73.7887917 Z" id="Fill-13" fill="#363A43"></path>
            <polygon id="Fill-15" fill="#363A43" points="69 94.0833333 84.3333333 94.0833333 84.3333333 91 69 91"></polygon>
            <polygon id="Fill-16" fill="#363A43" points="69 100.083333 106.187283 100.083333 106.187283 97 69 97"></polygon>
            <polygon id="Fill-16-Copy" fill="#363A43" points="69 88.0833333 106.187283 88.0833333 106.187283 85 69 85"></polygon>
            <path d="M80.7383208,66.3379167 L75.3548208,66.3379167 L63.2619875,66.3379167 L71.0890292,57.807875 L75.3548208,62.456 L76.2659458,61.4631667 L80.7383208,66.3379167 Z M78.1344458,59.0042083 C76.7531125,59.0042083 75.6338625,57.8849583 75.6338625,56.5051667 C75.6338625,55.1238333 76.7531125,54.0045833 78.1344458,54.0045833 C79.5142375,54.0045833 80.6334875,55.1238333 80.6334875,56.5051667 C80.6334875,57.8849583 79.5142375,59.0042083 78.1344458,59.0042083 L78.1344458,59.0042083 Z" id="Fill-18" fill="#FEFEFE"></path>
            <g id="Group" transform="translate(11.000000, 75.000000)">
                <polygon id="Fill-18" fill="#363A43" points="23.7867125 31.478525 21.6067958 29.2986083 32.5865458 18.3188583 34.7664625 20.498775"></polygon>
                <path d="M27.3939042,17.2241208 L33.9089875,17.7683292 C34.6582375,17.8299958 35.2548625,18.4250792 35.3165292,19.1758708 L35.8252792,25.2716208 L38.3736542,19.6645792 C38.6650292,19.0217042 39.3541542,18.6470792 40.0525292,18.7873708 L45.5547375,19.7863708 L41.7591542,16.4671625 C41.2334458,16.0062042 41.0823625,15.2477042 41.3937792,14.6217875 L44.2782375,8.80662083 L38.4630708,11.6895375 C37.8340708,11.9994125 37.0786542,11.8498708 36.6176958,11.3241625 L32.7481125,6.90112083 L33.3169875,13.1664542 C33.3740292,13.7985375 33.0394875,14.4013292 32.4706125,14.6865375 L27.3939042,17.2241208 Z M34.7815708,32.8381208 C34.6936958,32.8381208 34.6042792,32.8304125 34.5164042,32.8149958 C33.8257375,32.6947458 33.3031125,32.1243292 33.2429875,31.4244125 L32.3519042,20.7314125 L21.6589042,19.8403292 C20.9697792,19.7832875 20.4039875,19.2760792 20.2729458,18.5977458 C20.1419042,17.9178708 20.4795292,17.2349125 21.0977375,16.9265792 L30.1519458,12.3987042 L29.2469875,2.4534125 C29.1868625,1.7874125 29.5614875,1.1584125 30.1750708,0.896329167 C30.7886542,0.632704167 31.5039875,0.794579167 31.9418208,1.29870417 L38.1562792,8.39962083 L47.0069875,4.0120375 C47.5989875,3.71449583 48.3143208,3.83320417 48.7829875,4.30187083 C49.2501125,4.7705375 49.3672792,5.48432917 49.0743625,6.07787083 L44.6836958,14.9285792 L51.7861542,21.1414958 C52.3087792,21.5993708 52.4614042,22.3470792 52.1592375,22.9729958 C51.8586125,23.5973708 51.1694875,23.9488708 50.4957792,23.8178292 L40.6830708,22.0341208 L36.1829458,31.9347042 C35.9301125,32.4912458 35.3766542,32.8381208 34.7815708,32.8381208 L34.7815708,32.8381208 Z" id="Fill-19" fill="#363A43"></path>
                <polygon id="Fill-21" fill="#D2D6DF" points="2.79861667 46.2882375 21.787325 27.2995292 25.7848667 31.2970708 6.79615833 50.2857792"></polygon>
                <path d="M4.9786875,46.2885458 L6.7963125,48.1061708 L23.6051042,31.2958375 L21.7874792,29.4797542 L4.9786875,46.2885458 Z M6.7963125,52.4660042 L0.618854167,46.2885458 L21.7874792,25.1199208 L27.9649375,31.2958375 L6.7963125,52.4660042 Z" id="Fill-23" fill="#363A43"></path>
                <path d="M49.7631792,15.8526542 C49.5627625,15.8526542 49.3623458,15.8064042 49.1773458,15.7293208 C48.9923458,15.6522375 48.8227625,15.5443208 48.6840125,15.3901542 C48.3910958,15.1126542 48.2369292,14.7272375 48.2369292,14.3109875 C48.2369292,14.0936125 48.2677625,13.9086125 48.3448458,13.7081958 C48.4219292,13.5231958 48.5452625,13.3551542 48.6840125,13.2164042 C49.2544292,12.6459875 50.2873458,12.6459875 50.8577625,13.2164042 C51.1506792,13.5077792 51.3202625,13.8931958 51.3202625,14.3109875 C51.3202625,14.7118208 51.1506792,15.1126542 50.8577625,15.3901542 C50.5648458,15.6830708 50.1794292,15.8526542 49.7631792,15.8526542" id="Fill-25" fill="#363A43"></path>
                <path d="M27.77855,11.8433958 C27.3777167,11.8433958 26.9768833,11.6892292 26.6993833,11.3963125 C26.4064667,11.1049375 26.2368833,10.7195208 26.2368833,10.3017292 C26.2368833,9.90089583 26.4064667,9.5000625 26.6993833,9.22410417 C27.2698,8.63672917 28.3027167,8.63672917 28.8731333,9.22410417 C29.16605,9.5000625 29.3202167,9.90089583 29.3202167,10.3017292 C29.3202167,10.7195208 29.16605,11.1049375 28.8731333,11.3963125 C28.7343833,11.5366042 28.5648,11.6583958 28.3643833,11.7370208 C28.1793833,11.8125625 27.9943833,11.8433958 27.77855,11.8433958" id="Fill-27" fill="#363A43"></path>
                <path d="M39.7731792,5.86188333 C39.3723458,5.86188333 38.9715125,5.69384167 38.6785958,5.39938333 C38.4010958,5.10646667 38.2315125,4.72105 38.2315125,4.3048 C38.2315125,3.90396667 38.4010958,3.50313333 38.6785958,3.22563333 C39.2644292,2.65521667 40.2973458,2.65521667 40.8677625,3.22563333 C41.1606792,3.50313333 41.3148458,3.90396667 41.3148458,4.3048 C41.3148458,4.72105 41.1606792,5.10646667 40.8677625,5.39938333 C40.5748458,5.69384167 40.1894292,5.86188333 39.7731792,5.86188333" id="Fill-29" fill="#363A43"></path>
                <path d="M43.7816667,26.8445833 C43.5658333,26.8445833 43.3654167,26.7983333 43.1804167,26.72125 C42.9954167,26.6441667 42.8258333,26.53625 42.6870833,26.3820833 C42.5329167,26.2417917 42.425,26.07375 42.3479167,25.88875 C42.2708333,25.70375 42.24,25.5033333 42.24,25.3029167 C42.24,24.885125 42.3941667,24.4997083 42.6870833,24.2083333 C43.2575,23.6379167 44.2904167,23.6379167 44.8608333,24.2083333 C45.15375,24.4997083 45.3233333,24.885125 45.3233333,25.3029167 C45.3233333,25.5033333 45.2770833,25.70375 45.2,25.88875 C45.1229167,26.07375 45.015,26.2417917 44.8608333,26.3820833 C44.7220833,26.53625 44.5525,26.6441667 44.3675,26.72125 C44.1825,26.7983333 43.9820833,26.8445833 43.7816667,26.8445833" id="Fill-31" fill="#363A43"></path>
            </g>
            <path d="M38.3939042,92.2241208 L44.9089875,92.7683292 C45.6582375,92.8299958 46.2548625,93.4250792 46.3165292,94.1758708 L46.8252792,100.271621 L49.3736542,94.6645792 C49.6650292,94.0217042 50.3541542,93.6470792 51.0525292,93.7873708 L56.5547375,94.7863708 L52.7591542,91.4671625 C52.2334458,91.0062042 52.0823625,90.2477042 52.3937792,89.6217875 L55.2782375,83.8066208 L49.4630708,86.6895375 C48.8340708,86.9994125 48.0786542,86.8498708 47.6176958,86.3241625 L43.7481125,81.9011208 L44.3169875,88.1664542 C44.3740292,88.7985375 44.0394875,89.4013292 43.4706125,89.6865375 L38.3939042,92.2241208 Z" id="Path" fill="#FFFFFF"></path>
            <rect id="Rectangle-path" x="0" y="0" width="144" height="144"></rect>
        </g>
    </g>
</svg>