<svg id="Layer_1" xmlns="http://www.w3.org/2000/svg" xmlns:xlink="http://www.w3.org/1999/xlink" viewBox="0 0 120 120"><defs><linearGradient id="linear-gradient" x1="35.96" y1="102.11" x2="84.79" y2="17.53" gradientUnits="userSpaceOnUse"><stop offset="0" stop-color="#206953" stop-opacity="0.3"/><stop offset="1" stop-color="#206953" stop-opacity="0"/></linearGradient></defs><title>circle-icon</title><circle cx="60.29" cy="59.89" r="48.73" style="fill:#59c3a3"/><circle cx="60.38" cy="59.82" r="48.82" style="fill:url(#linear-gradient)"/><path d="M80.59,78H11.83c-1.58,0-3.26-1.78-3.75-4L8,73.58h76.4l-.08.36C83.84,76.18,82.17,78,80.59,78Z" style="fill:#00acaf"/><path d="M18.42,20.18h55.8a1.47,1.47,0,0,1,1.47,1.47V60.42a0,0,0,0,1,0,0H16.95a0,0,0,0,1,0,0V21.65A1.47,1.47,0,0,1,18.42,20.18Z" style="fill:#ccf7f6"/><path d="M83.11,74.64H9.43a1.43,1.43,0,0,1-1.16-2.26l8.63-12H75.64l8.63,12A1.43,1.43,0,0,1,83.11,74.64Z" style="fill:#70e4e0"/><path d="M74.7,69.1H17.85c-.9,0-1.83-.53-1.6-.93l3-5A2.06,2.06,0,0,1,21,62.43H71.53a2.06,2.06,0,0,1,1.82.79l3,5C76.53,68.57,75.59,69.1,74.7,69.1Z" style="fill:#00acaf"/><rect x="20.01" y="23.6" width="52.61" height="33.39" rx="0.91" ry="0.91" style="fill:#70e4e0"/><path d="M36.63,23.6H70.92a1.71,1.71,0,0,1,1.71,1.71v30A1.71,1.71,0,0,1,70.92,57h-.86Z" style="fill:#70e4e0"/><polygon points="57.09 74.64 35.55 74.64 39.01 69.12 53.63 69.12 57.09 74.64" style="fill:#ccf7f6"/><rect x="23" y="27.09" width="46.67" height="29.94" style="fill:#ccf7f6;opacity:0.8"/><rect x="22.96" y="26.97" width="46.72" height="15.28" style="fill:#00d8d2"/><rect x="25.67" y="44.54" width="21.2" height="1.67" style="fill:#00d8d2"/><rect x="25.67" y="48.03" width="14.45" height="1.67" style="fill:#00d8d2"/><path d="M74.09,106.57l4.21-12s1.93,5.12,3.26,9.08c0,0,9.66-5.56,12.93-8.94l-3-8.49h0A22,22,0,0,0,98.67,79a1.28,1.28,0,0,1,1.71-.43l0,0,.15.07a1.28,1.28,0,0,0,1.77-.52,26.52,26.52,0,0,0,2.91-10.79,1.55,1.55,0,0,0-1.45-1.46h0a1.28,1.28,0,0,1-1.28-1.22A22.81,22.81,0,0,0,99.91,55,1.28,1.28,0,0,1,100,53.7l.58-.35a1.28,1.28,0,0,0,.43-1.8,26.47,26.47,0,0,0-4.11-4.86A26.76,26.76,0,0,0,93,43.59a1.28,1.28,0,0,0-1.81.42l0,0a1.28,1.28,0,0,1-1.71.48,21.87,21.87,0,0,0-9.76-2.61c-.51,0-10.11-1.37-13.38.32A1.28,1.28,0,0,0,65.79,44l0,.05a1.28,1.28,0,0,1-.42,1.71,22.34,22.34,0,0,0-7.12,7.12,1.28,1.28,0,0,1-1.72.43l0,0a1.28,1.28,0,0,0-1.78.52,26.52,26.52,0,0,0-2.88,10.8,1.26,1.26,0,0,0,.45,1,1.28,1.28,0,0,0,.94.41h.42a1.27,1.27,0,0,1,.77,1.11,21.54,21.54,0,0,0,2.61,9.74,1.28,1.28,0,0,1-.49,1.71h0a1.28,1.28,0,0,0-.43,1.81,27.92,27.92,0,0,0,8,8l.16.09-6.93,19.85S69.79,108.4,74.09,106.57Z" style="fill:#282c35;opacity:0.1"/><path d="M64,81.45l13.24,4.62a.61.61,0,0,1,.38.78L66.21,119.59a.61.61,0,0,1-1.1.11L61,112.56a.61.61,0,0,0-.75-.26l-7.58,3a.61.61,0,0,1-.8-.77L63.26,81.82A.61.61,0,0,1,64,81.45Z" style="fill:#f16932"/><path d="M86.75,81.45,73.52,86.07a.61.61,0,0,0-.38.78l11.44,32.74a.61.61,0,0,0,1.1.11l4.14-7.14a.61.61,0,0,1,.75-.26l7.58,3a.61.61,0,0,0,.8-.77L87.53,81.82A.61.61,0,0,0,86.75,81.45Z" style="fill:#f16932"/><path d="M49,63.38a26.52,26.52,0,0,1,2.88-10.8,1.28,1.28,0,0,1,1.78-.52l0,0a1.28,1.28,0,0,0,1.72-.43,22.34,22.34,0,0,1,7.12-7.12,1.28,1.28,0,0,0,.42-1.71l0-.05A1.28,1.28,0,0,1,63.4,41a26.47,26.47,0,0,1,10.83-2.9,1.28,1.28,0,0,1,1.33,1.27v0a1.28,1.28,0,0,0,1.22,1.27,21.87,21.87,0,0,1,9.76,2.61,1.28,1.28,0,0,0,1.71-.48l0,0a1.28,1.28,0,0,1,1.81-.42A26.79,26.79,0,0,1,98,50.25a1.28,1.28,0,0,1-.43,1.81h0a1.28,1.28,0,0,0-.5,1.7,22.81,22.81,0,0,1,2.6,9.72,1.28,1.28,0,0,0,1.28,1.22h0A1.28,1.28,0,0,1,102.19,66a26.49,26.49,0,0,1-2.9,10.83,1.28,1.28,0,0,1-1.76.53l0,0a1.28,1.28,0,0,0-1.71.43,22,22,0,0,1-7.13,7.11,1.28,1.28,0,0,0-.43,1.72l0,0a1.28,1.28,0,0,1-.52,1.77,26.49,26.49,0,0,1-10.79,2.88A1.28,1.28,0,0,1,75.58,90v0a1.28,1.28,0,0,0-1.22-1.28,22.19,22.19,0,0,1-9.72-2.6,1.28,1.28,0,0,0-1.69.49l0,0a1.28,1.28,0,0,1-1.81.43,26.79,26.79,0,0,1-7.9-7.89,1.28,1.28,0,0,1,.43-1.81h0a1.28,1.28,0,0,0,.49-1.71,21.54,21.54,0,0,1-2.61-9.74,1.28,1.28,0,0,0-1.28-1.22h0A1.28,1.28,0,0,1,49,63.38Z" style="fill:#f58729"/><path d="M50.38,64.82h0a1.28,1.28,0,0,1-1.28-1.33A26.52,26.52,0,0,1,52,52.69a1.28,1.28,0,0,1,1.78-.52L76.38,64.83Z" style="fill:#f9a51f"/><path d="M62.91,42.79v0A1.28,1.28,0,0,1,63.41,41a26.52,26.52,0,0,1,10.78-2.94,1.28,1.28,0,0,1,1.34,1.27L76,65.27Z" style="fill:#f9a51f"/><path d="M88.33,42.95v0a1.28,1.28,0,0,1,1.79-.45,26.52,26.52,0,0,1,8,7.84,1.28,1.28,0,0,1-.43,1.8L75.46,65.54Z" style="fill:#f9a51f"/><path d="M101.07,64.84h0a1.28,1.28,0,0,1,1.27,1.34A26.52,26.52,0,0,1,99.45,77a1.28,1.28,0,0,1-1.78.51L75.07,64.75Z" style="fill:#f9a51f"/><path d="M88.36,86.78v0a1.28,1.28,0,0,1-.52,1.77,26.52,26.52,0,0,1-10.79,2.89,1.28,1.28,0,0,1-1.34-1.28L75.4,64.24Z" style="fill:#f9a51f"/><path d="M63,86.73v0a1.28,1.28,0,0,1-1.8.43,26.52,26.52,0,0,1-7.87-7.93,1.28,1.28,0,0,1,.45-1.8L76.13,64.29Z" style="fill:#f9a51f"/><circle cx="75.7" cy="64.72" r="17.58" style="fill:#fdcd08"/><circle cx="75.58" cy="64.72" r="13.66" style="fill:#f9a51f"/></svg>
