<?xml version="1.0" encoding="UTF-8" standalone="no"?>
<svg width="144px" height="144px" viewBox="0 0 144 144" version="1.1" xmlns="http://www.w3.org/2000/svg" xmlns:xlink="http://www.w3.org/1999/xlink">
    <!-- Generator: Sketch 43.2 (39069) - http://www.bohemiancoding.com/sketch -->
    <title>graphic_create_classic</title>
    <desc>Created with Sketch.</desc>
    <defs></defs>
    <g id="Page-1" stroke="none" stroke-width="1" fill="none" fill-rule="evenodd">
        <g id="graphic_create_classic">
            <polygon id="Fill-2" fill="#FEFEFE" points="28.8333333 110.788792 115.166667 110.788792 115.166667 27.5387917 28.8333333 27.5387917"></polygon>
            <path d="M29.6041667,110.017958 L114.395833,110.017958 L114.395833,28.309625 L29.6041667,28.309625 L29.6041667,110.017958 Z M28.0625,111.559625 L115.9375,111.559625 L115.9375,26.7679583 L28.0625,26.7679583 L28.0625,111.559625 Z" id="Fill-3" fill="#6A6B6E"></path>
            <polygon id="Fill-4" fill="#F26932" points="38.0833333 72.247125 105.916667 72.247125 105.916667 49.122125 38.0833333 49.122125"></polygon>
            <path d="M38.8541667,71.4762917 L105.145833,71.4762917 L105.145833,49.8929583 L38.8541667,49.8929583 L38.8541667,71.4762917 Z M37.3125,73.0179583 L106.6875,73.0179583 L106.6875,48.3512917 L37.3125,48.3512917 L37.3125,73.0179583 Z" id="Fill-5" fill="#6A6B6E"></path>
            <path d="M30.375,109.247125 L113.625,109.247125 L113.625,29.0804583 L30.375,29.0804583 L30.375,109.247125 Z M27.2916667,112.330458 L116.708333,112.330458 L116.708333,25.997125 L27.2916667,25.997125 L27.2916667,112.330458 Z" id="Fill-6" fill="#363A43"></path>
            <polygon id="Fill-7" fill="#363A43" points="28.8333333 41.4137917 115.166667 41.4137917 115.166667 38.3304583 28.8333333 38.3304583"></polygon>
            <polygon id="Fill-8" fill="#363A43" points="33.4583333 35.247125 36.5416667 35.247125 36.5416667 32.1637917 33.4583333 32.1637917"></polygon>
            <polygon id="Fill-9" fill="#363A43" points="39.625 35.247125 42.7083333 35.247125 42.7083333 32.1637917 39.625 32.1637917"></polygon>
            <polygon id="Fill-10" fill="#363A43" points="45.7916667 35.247125 48.875 35.247125 48.875 32.1637917 45.7916667 32.1637917"></polygon>
            <polygon id="Fill-11" fill="#363A43" points="51.9583333 39.872125 55.0416667 39.872125 55.0416667 27.5387917 51.9583333 27.5387917"></polygon>
            <polygon id="Fill-12" fill="#363A43" points="58.125 35.247125 110.541667 35.247125 110.541667 32.1637917 58.125 32.1637917"></polygon>
            <path d="M39.625,70.7054583 L104.375,70.7054583 L104.375,50.6637917 L39.625,50.6637917 L39.625,70.7054583 Z M36.5416667,73.7887917 L107.458333,73.7887917 L107.458333,47.5804583 L36.5416667,47.5804583 L36.5416667,73.7887917 Z" id="Fill-13" fill="#363A43"></path>
            <polygon id="Fill-14" fill="#363A43" points="38.0833333 93.8304583 79.7083333 93.8304583 79.7083333 90.747125 38.0833333 90.747125"></polygon>
            <polygon id="Fill-15" fill="#363A43" points="82.7916667 93.8304583 107.458333 93.8304583 107.458333 90.747125 82.7916667 90.747125"></polygon>
            <polygon id="Fill-16" fill="#363A43" points="38.0833333 99.997125 98.2083333 99.997125 98.2083333 96.9137917 38.0833333 96.9137917"></polygon>
            <polygon id="Fill-17" fill="#363A43" points="38.0833333 87.579 98.2083333 87.579 98.2083333 84.4956667 38.0833333 84.4956667"></polygon>
            <path d="M80.7383208,66.3379167 L75.3548208,66.3379167 L63.2619875,66.3379167 L71.0890292,57.807875 L75.3548208,62.456 L76.2659458,61.4631667 L80.7383208,66.3379167 Z M78.1344458,59.0042083 C76.7531125,59.0042083 75.6338625,57.8849583 75.6338625,56.5051667 C75.6338625,55.1238333 76.7531125,54.0045833 78.1344458,54.0045833 C79.5142375,54.0045833 80.6334875,55.1238333 80.6334875,56.5051667 C80.6334875,57.8849583 79.5142375,59.0042083 78.1344458,59.0042083 L78.1344458,59.0042083 Z" id="Fill-18" fill="#FEFEFE"></path>
            <rect id="Rectangle-path" x="0" y="0" width="144" height="144"></rect>
        </g>
    </g>
</svg>