<?xml version="1.0" encoding="utf-8"?>
<!-- Generator: Adobe Illustrator 20.1.0, SVG Export Plug-In . SVG Version: 6.00 Build 0)  -->
<svg version="1.1" id="eds-icon--curtain_svg"
	 xmlns="http://www.w3.org/2000/svg" xmlns:xlink="http://www.w3.org/1999/xlink" x="0px" y="0px" viewBox="0 0 24 24"
	 enable-background="new 0 0 24 24" xml:space="preserve">
<path fill-rule="evenodd" clip-rule="evenodd" d="M20,21V2H4v19H2v1h20v-1H20z M5,7.7C5.3,7.9,5.6,8,6,8c0.6,0,1.1-0.3,1.5-0.7
	C7.8,7.7,8.3,8,8.9,8c-0.1,3.1-1.5,6.1-3.8,8.2V7.7z M19,21H5v-3.5c3-2.3,4.8-5.9,4.9-9.7c0.2-0.1,0.5-0.3,0.6-0.5
	C10.9,7.7,11.4,8,12,8c0.6,0,1.1-0.3,1.5-0.7c0.2,0.2,0.5,0.4,0.8,0.6c0.1,3.7,1.8,7.2,4.7,9.5V21z M19,16.1c-2.3-2.1-3.6-5-3.7-8.1
	c0.5-0.1,0.9-0.3,1.2-0.7C16.9,7.7,17.4,8,18,8c0.4,0,0.7-0.1,1-0.3V16.1z M19,6.1C19,6.6,18.5,7,18,7c-0.5,0-1-0.4-1-1h-1
	c0,0.5-0.4,1-1,1c-0.5,0-1-0.4-1-1h-1c0,0.5-0.4,1-1,1c-0.5,0-1-0.4-1-1h-1c0,0.5-0.4,1-1,1C8.5,7,8,6.6,8,6H7c0,0.5-0.4,1-1,1
	C5.5,7,5.1,6.6,5,6.2V3h14V6.1z"/>
</svg>
