<?xml version="1.0" encoding="utf-8"?>
<!-- Generator: Adobe Illustrator 20.1.0, SVG Export Plug-In . SVG Version: 6.00 Build 0)  -->
<svg version="1.1" id="eds-icon--double-decker-bus_svg"
	 xmlns="http://www.w3.org/2000/svg" xmlns:xlink="http://www.w3.org/1999/xlink" x="0px" y="0px" viewBox="0 0 24 24"
	 enable-background="new 0 0 24 24" xml:space="preserve">
<path id="eds-icon--double-decker-bus_base" fill-rule="evenodd" clip-rule="evenodd" d="M22,5H10V3H5.5
	C3.6,3,2,4.6,2,6.5V19h4c0,1.1,0.9,2,2,2s2-0.9,2-2h5.6c0,1.1,0.9,2,2,2s2-0.9,2-2H22v-1L22,5L22,5z M16,8h2V6h-2V8z M13,8h2V6h-2V8
	z M10,8h2V6h-2V8z M3,6.5C3,5.1,4.1,4,5.5,4H7v0h2v1v1v2v1v0h9h1V8V6h2v5H3V6.5z M10,14h2v-2h-2V14z M13,14h2v-2h-2V14z M16,14h2.3
	v-2H16V14z M19.3,14H21v-2h-1.7V14z M3,14h6v-2H3V14z M8,20c-0.6,0-1-0.4-1-1c0-0.6,0.4-1,1-1s1,0.4,1,1C9,19.5,8.6,20,8,20z
	 M17.6,20c-0.6,0-1-0.4-1-1c0-0.6,0.4-1,1-1s1,0.4,1,1C18.6,19.5,18.1,20,17.6,20z M19.3,18c-0.3-0.6-1-1-1.7-1
	c-0.7,0-1.4,0.4-1.7,1H9.7c-0.3-0.6-1-1-1.7-1s-1.4,0.4-1.7,1H3v-3h18v3H19.3z"/>
</svg>
