<?xml version="1.0" encoding="utf-8"?>
<!-- Generator: Adobe Illustrator 20.0.0, SVG Export Plug-In . SVG Version: 6.00 Build 0)  -->
<svg version="1.1" id="eds-icon--eye-off_svg"
	 xmlns="http://www.w3.org/2000/svg" xmlns:xlink="http://www.w3.org/1999/xlink" x="0px" y="0px" viewBox="0 0 24 24"
	 enable-background="new 0 0 24 24" xml:space="preserve">
<path id="eds-icon--eye-off_base" fill-rule="evenodd" clip-rule="evenodd" fill="#231F20" d="M17,16.7L16.2,16
	c0,0,0,0,0,0l-1.6-1.6c0,0,0,0,0,0L14,13.6c0,0,0,0,0,0l-3.4-3.5c0,0,0,0,0,0L9.9,9.4c0,0,0,0,0,0L8.5,8c0,0,0,0,0,0L7.8,7.3
	c0,0,0,0,0,0L4.6,4L3.9,4.7l3,3.1C4,9.6,2,12.3,2,12.3s4.4,6.1,9.9,6.1c1.5,0,2.9-0.4,4.1-1.1l3.2,3.3l0.7-0.7L17,16.7
	C17,16.7,17,16.7,17,16.7z M9.9,10.9l3.4,3.5c-0.4,0.3-0.8,0.4-1.3,0.4c-1.4,0-2.5-1.1-2.5-2.5C9.5,11.8,9.6,11.3,9.9,10.9
	 M11.9,17.3c-3.9,0-7.4-3.6-8.6-5.1c0.8-0.9,2.3-2.6,4.3-3.7l1.6,1.6c-0.4,0.6-0.7,1.3-0.7,2.1c0,2,1.5,3.6,3.5,3.6
	c0.8,0,1.5-0.3,2.1-0.7l1.3,1.4C14.3,17,13.1,17.3,11.9,17.3"/>
<path id="eds-icon--eye-off_eye" fill-rule="evenodd" clip-rule="evenodd" fill="#231F20" d="M11.9,6.2
	c-1.1,0-2.2,0.3-3.2,0.6l0.8,0.8c0.8-0.3,1.6-0.4,2.4-0.4c3.9,0,7.4,3.6,8.6,5.1c-0.6,0.8-1.9,2.1-3.4,3.2l0.7,0.7
	c2.4-1.7,4-3.9,4-3.9S17.4,6.2,11.9,6.2z"/>
<path id="eds-icon--eye-off_pupil" fill-rule="evenodd" clip-rule="evenodd" fill="#231F20" d="M15.2,13.4
	c0.1-0.4,0.2-0.8,0.2-1.2c0-2-1.5-3.6-3.5-3.6c-0.4,0-0.8,0.1-1.1,0.2l0.8,0.9c0.1,0,0.2,0,0.3,0c1.4,0,2.5,1.1,2.5,2.5
	c0,0.1,0,0.2,0,0.3L15.2,13.4z"/>
</svg>
