<?xml version="1.0" encoding="utf-8"?>
<!-- Generator: Adobe Illustrator 21.0.2, SVG Export Plug-In . SVG Version: 6.00 Build 0)  -->
<svg version="1.1" id="eds-icon--eye-off-chunky_svg"
	 xmlns="http://www.w3.org/2000/svg" xmlns:xlink="http://www.w3.org/1999/xlink" x="0px" y="0px" viewBox="0 0 24 24"
	 enable-background="new 0 0 24 24" xml:space="preserve">
<path id="eds-icon--eye-off-chunky_base" fill-rule="evenodd" clip-rule="evenodd" d="M8.5,9.7L9.8,11c0,0.2-0.1,0.4-0.1,0.5
	c0,1.4,1.1,2.5,2.5,2.5c0.2,0,0.4,0,0.5-0.1l1.3,1.3c-0.6,0.3-1.2,0.4-1.9,0.4c-2.3,0-4.2-1.9-4.2-4.2C8.1,10.9,8.2,10.3,8.5,9.7z
	 M3.8,5.1L5.8,7l0.4,0.4C4.8,8.5,3.7,9.9,3,11.6c1.5,3.7,5.1,6.3,9.3,6.3c1.3,0,2.6-0.3,3.7-0.7l0.4,0.4l2.5,2.5l1.1-1.1L4.9,4
	L3.8,5.1z"/>
<path id="eds-icon--eye-off-chunky_dot" fill-rule="evenodd" clip-rule="evenodd" d="M12.1,9.1l2.7,2.7l0-0.1
	c0-1.4-1.1-2.5-2.5-2.5L12.1,9.1z"/>
<path id="eds-icon--eye-off-chunky_top" fill-rule="evenodd" clip-rule="evenodd" d="M12.3,7.4c2.3,0,4.2,1.9,4.2,4.2
	c0,0.5-0.1,1.1-0.3,1.5l2.5,2.5c1.3-1.1,2.3-2.4,2.9-4c-1.5-3.7-5.1-6.3-9.3-6.3c-1.2,0-2.3,0.2-3.4,0.6l1.8,1.8
	C11.2,7.5,11.7,7.4,12.3,7.4z"/>
</svg>
