<?xml version="1.0" encoding="utf-8"?>
<!-- Generator: Adobe Illustrator 20.0.0, SVG Export Plug-In . SVG Version: 6.00 Build 0)  -->
<svg version="1.1" id="eds-icon--eye_svg"
	 xmlns="http://www.w3.org/2000/svg" xmlns:xlink="http://www.w3.org/1999/xlink" x="0px" y="0px" viewBox="0 0 24 24"
	 enable-background="new 0 0 24 24" xml:space="preserve">
<path id="eds-icon--eye_base" fill-rule="evenodd" clip-rule="evenodd" fill="#231F20" d="M11.9,6.5
	C6.4,6.5,2,12.7,2,12.7s4.4,6.2,9.9,6.2c5.5,0,9.9-6.2,9.9-6.2S17.4,6.5,11.9,6.5z M11.9,17.8c-3.9,0-7.4-3.6-8.6-5.1
	c1.2-1.5,4.7-5.1,8.6-5.1c3.9,0,7.4,3.6,8.6,5.1C19.3,14.2,15.8,17.8,11.9,17.8"/>
<path id="eds-icon--eye_circle" fill-rule="evenodd" clip-rule="evenodd" fill="#231F20" d="M11.9,9.1
	c-1.9,0-3.5,1.6-3.5,3.6c0,2,1.5,3.6,3.5,3.6s3.5-1.6,3.5-3.6C15.4,10.7,13.8,9.1,11.9,9.1z M11.9,15.2c-1.4,0-2.5-1.1-2.5-2.6
	c0-1.4,1.1-2.6,2.5-2.6c1.4,0,2.5,1.1,2.5,2.6C14.4,14.1,13.3,15.2,11.9,15.2z"/>
</svg>
