<?xml version="1.0" encoding="utf-8"?>
<!-- Generator: Adobe Illustrator 20.0.0, SVG Export Plug-In . SVG Version: 6.00 Build 0)  -->
<svg version="1.1" id="eds-icon--fashion_svg"
	 xmlns="http://www.w3.org/2000/svg" xmlns:xlink="http://www.w3.org/1999/xlink" x="0px" y="0px" viewBox="0 0 24 24"
	 enable-background="new 0 0 24 24" xml:space="preserve">
<path id="eds-icon--fashion_base" fill-rule="evenodd" clip-rule="evenodd" fill="#231F20" d="M24,15.1l-11.5-4.3
	V9.9c1.1-0.2,2-1.2,2-2.4C14.5,6.1,13.4,5,12,5S9.5,6.1,9.5,7.5h1C10.5,6.7,11.2,6,12,6s1.5,0.7,1.5,1.5S12.8,9,12,9h-0.5v1.8
	L0,15.1L0.3,16L2,15.4V18h5v1h1v-1h8v1h1v-1h5v-2.6l1.7,0.6L24,15.1z M21,17h-4v-1h-1v1H8v-1H7v1H3v-1.9l9-3.3l9,3.3V17z"/>
</svg>
