<?xml version="1.0" encoding="utf-8"?>
<!-- Generator: Adobe Illustrator 20.1.0, SVG Export Plug-In . SVG Version: 6.00 Build 0)  -->
<svg version="1.1" id="eds-icon--film-camera_svg"
	 xmlns="http://www.w3.org/2000/svg" xmlns:xlink="http://www.w3.org/1999/xlink" x="0px" y="0px" viewBox="0 0 24 24"
	 enable-background="new 0 0 24 24" xml:space="preserve">
<path id="eds-icon--film-camera_base" fill-rule="evenodd" clip-rule="evenodd" d="M22,12.5l-5,1.7v-2.3
	c1.7-0.4,3-2,3-3.9c0-2.2-1.7-3.9-3.9-4v0H5.8v0C3.7,4.1,2,5.9,2,8c0,1.9,1.3,3.4,3,3.9V20h12v-3.2l5,1.7V12.5z M19,8
	c0,1.7-1.3,3-3,3h0c-1.7,0-3-1.3-3-3c0-1.7,1.3-3,3-3C17.6,5,19,6.3,19,8z M13.4,5C12.5,5.7,12,6.8,12,8c0,1.2,0.5,2.3,1.4,3H8.6
	C9.5,10.3,10,9.2,10,8c0-1.2-0.5-2.3-1.4-3H13.4z M3,8c0-1.7,1.3-3,3-3c1.7,0,3,1.3,3,3c0,1.7-1.3,3-3,3h0C4.3,11,3,9.7,3,8z M16,19
	H6v-7h10h0v2.5v2V19z M21,17.1l-4-1.3v-0.6l4-1.3V17.1z"/>
</svg>
