<?xml version="1.0" encoding="utf-8"?>
<!-- Generator: Adobe Illustrator 20.1.0, SVG Export Plug-In . SVG Version: 6.00 Build 0)  -->
<svg version="1.1" id="eds-icon--filter-chunky_svg"
	 xmlns="http://www.w3.org/2000/svg" xmlns:xlink="http://www.w3.org/1999/xlink" x="0px" y="0px" viewBox="0 0 24 24"
	 enable-background="new 0 0 24 24" xml:space="preserve">
<path id="eds-icon--filter-chunky_bottom" fill-rule="evenodd" clip-rule="evenodd" d="M8,19v2H6v-2H4v-2h2v-2h2v2h12v2H8z"/>
<polygon id="eds-icon--filter-chunky_middle" fill-rule="evenodd" clip-rule="evenodd" points="18,13 18,15 16,15 16,13 4,13 
	4,11 16,11 16,9 18,9 18,11 20,11 20,13 "/>
<polygon id="eds-icon--filter-chunky_top" fill-rule="evenodd" clip-rule="evenodd" points="8,7 8,9 6,9 6,7 4,7 4,5 6,5 6,3 
	8,3 8,5 20,5 20,7 "/>
</svg>
