<?xml version="1.0" encoding="utf-8"?>
<!-- Generator: Adobe Illustrator 21.0.2, SVG Export Plug-In . SVG Version: 6.00 Build 0)  -->
<svg version="1.1" id="eds-icon--flatware_svg" xmlns="http://www.w3.org/2000/svg" xmlns:xlink="http://www.w3.org/1999/xlink"
	 x="0px" y="0px" viewBox="0 0 24 24" enable-background="new 0 0 24 24" xml:space="preserve">
<path id="eds-icon--flatware_knife" d="M17,14h-2v-4V3.2c0.9,0.3,2,1.3,2,3.8V14z M16,21h-1v-6h1V21z M14,2v8v4v1v7h3v-7h1V7
	C18,4.2,16.8,2,14,2z"/>
<path id="eds-icon--flatware_fork" d="M11,10V2h-1v4H9V2H8v4H7V2H6v8h2v4H7v8h3v-8H9v-4H11z M9,21H8v-6h1V21z M7,9V7h3v2H7z"/>
</svg>
