<?xml version="1.0" encoding="utf-8"?>
<!-- Generator: Adobe Illustrator 20.1.0, SVG Export Plug-In . SVG Version: 6.00 Build 0)  -->
<svg version="1.1" id="eds-icon--flower_svg"
	 xmlns="http://www.w3.org/2000/svg" xmlns:xlink="http://www.w3.org/1999/xlink" x="0px" y="0px" viewBox="0 0 24 24"
	 enable-background="new 0 0 24 24" xml:space="preserve">
<path id="eds-icon--flower_base" fill-rule="evenodd" clip-rule="evenodd" d="M17.6,13.9c0,0-0.1,0-0.2,0
	c-0.7,0-3,0.1-4.4,1.5c-0.2,0.2-0.4,0.4-0.5,0.7v-3c2-0.2,3.5-1.9,3.5-4V2l-2.3,2L12,2.3L10.3,4L8,2v7.3l0,0c0.1,2,1.6,3.6,3.5,3.8
	v3c-0.2-0.2-0.3-0.5-0.5-0.7c-1.4-1.4-3.7-1.5-4.4-1.5c-0.1,0-0.2,0-0.2,0s-0.2,2.9,1.5,4.6c1.1,1.1,2.6,1.4,3.6,1.5v2h1v-2
	c1-0.1,2.5-0.4,3.6-1.5C17.8,16.8,17.6,13.9,17.6,13.9z M8.6,17.8c-0.8-0.8-1.1-2-1.2-2.8c0.8,0.1,2,0.4,2.8,1.2
	c0.8,0.8,1.1,2,1.2,2.8C10.6,18.8,9.4,18.6,8.6,17.8z M11.1,4.7L12,3.8l0.9,0.9l0,0h0l-1,0.9L11.1,4.7L11.1,4.7L11.1,4.7z M9,4.2
	l2.2,2l-1,0.9L9,8.2V4.2z M9,9.5l1.9-1.7L15,4.2v4.9c0,1.7-1.3,3-3,3C10.5,12.1,9.2,11,9,9.5z M12.6,18.9c0.1-0.8,0.4-2,1.2-2.8
	c0.8-0.8,2-1.1,2.8-1.2c-0.1,0.8-0.4,2-1.2,2.8C14.6,18.6,13.4,18.8,12.6,18.9z"/>
</svg>
