<?xml version="1.0" encoding="utf-8"?>
<!-- Generator: Adobe Illustrator 20.0.0, SVG Export Plug-In . SVG Version: 6.00 Build 0)  -->
<svg version="1.1" id="eds-icon--footsteps_svg"
	 xmlns="http://www.w3.org/2000/svg" xmlns:xlink="http://www.w3.org/1999/xlink" x="0px" y="0px" viewBox="0 0 24 24"
	 enable-background="new 0 0 24 24" xml:space="preserve">
<g id="eds-icon--footsteps_right">
	<path fill="#010101" d="M19.6,2.1C19.4,2,19.2,2,19,2c-1.9,0-4,2.4-4.8,5.7c-0.6,2.2-0.4,4.3,0.2,5.8l4.4,1.2
		c1.3-1,2.3-2.7,2.9-4.9C22.6,6.1,21.7,2.7,19.6,2.1z M20.7,9.6c-0.4,1.7-1.2,3.1-2.2,4l-3.4-1c-0.4-1.3-0.4-3,0-4.7
		C15.9,4.9,17.7,3,19,3c0.1,0,0.2,0,0.4,0c0.6,0.2,1.2,0.9,1.5,2C21.1,6.4,21.1,7.9,20.7,9.6z"/>
	<path fill="#010101" d="M12.9,18.1c-0.2,0.4-0.3,0.9-0.3,1.4c0.1,1.1,0.8,2.1,1.9,2.5C14.8,22,15,22,15.2,22c0.6,0,1.1-0.2,1.6-0.5
		c0.6-0.5,1-1.3,1-2.1l0.1-3.4l-3.6-1L12.9,18.1z M16.9,16.7l-0.1,2.5c0,0.6-0.2,1.1-0.6,1.3c-0.3,0.2-0.6,0.3-1,0.3
		c-0.1,0-0.3,0-0.4-0.1c-0.7-0.2-1.2-0.8-1.2-1.5c0-0.2,0-0.5,0.2-0.8l1-2.4L16.9,16.7z"/>
</g>
<g id="eds-icon--footsteps_left">
	<path fill-rule="evenodd" clip-rule="evenodd" fill="#010101" d="M9.9,7.7C9,4.4,7,2,5,2C4.8,2,4.6,2,4.4,2.1c-2.1,0.6-3,4-2.1,7.7
		c0.6,2.2,1.7,4,2.9,4.9l4.4-1.2C10.3,12,10.4,9.9,9.9,7.7z M8.9,12.6l-3.4,1c-1-0.9-1.8-2.4-2.2-4.1C2.9,7.9,2.9,6.3,3.2,5.1
		C3.5,4,4,3.3,4.7,3.1c0.1,0,0.2,0,0.4,0C6.3,3,8.1,4.9,8.9,8C9.3,9.7,9.3,11.3,8.9,12.6z"/>
	<path fill-rule="evenodd" clip-rule="evenodd" fill="#010101" d="M11,17.9l-1.5-3l-3.6,1l0.3,3.5c0,0.5,0.2,0.9,0.4,1.3
		C7.1,21.5,7.9,22,8.8,22c0.2,0,0.5,0,0.7-0.1c0.8-0.2,1.4-0.8,1.7-1.6C11.5,19.6,11.4,18.7,11,17.9z M10.3,19.9
		c-0.2,0.5-0.6,0.8-1.1,1c-0.1,0-0.3,0.1-0.4,0.1c-0.5,0-1-0.3-1.3-0.7c-0.1-0.2-0.2-0.5-0.2-0.8L7,16.8l2-0.6l1.1,2.2
		C10.4,18.9,10.5,19.5,10.3,19.9z"/>
</g>
</svg>
