<?xml version="1.0" encoding="utf-8"?>
<!-- Generator: Adobe Illustrator 20.0.0, SVG Export Plug-In . SVG Version: 6.00 Build 0)  -->
<svg version="1.1" id="eds-icon--footsteps-fill_svg"
	 xmlns="http://www.w3.org/2000/svg" xmlns:xlink="http://www.w3.org/1999/xlink" x="0px" y="0px" viewBox="0 0 24 24"
	 enable-background="new 0 0 24 24" xml:space="preserve">
<g id="eds-icon--footsteps-fill_left">
	<path fill-rule="evenodd" clip-rule="evenodd" fill="#010101" d="M9.9,7.7C9,4.4,7,2,5,2C4.8,2,4.6,2,4.4,2.1c-2.1,0.6-3,4-2.1,7.7
		c0.6,2.2,1.7,4,2.9,4.9l4.4-1.2C10.3,12,10.4,9.9,9.9,7.7z"/>
	<path fill-rule="evenodd" clip-rule="evenodd" fill="#010101" d="M11,17.9l-1.5-3l-3.6,1l0.3,3.5c0,0.5,0.2,0.9,0.4,1.3
		C7.1,21.5,7.9,22,8.8,22c0.2,0,0.5,0,0.7-0.1c0.8-0.2,1.4-0.8,1.7-1.6C11.5,19.6,11.4,18.7,11,17.9z"/>
</g>
<g id="eds-icon--footsteps-fill_right">
	<path fill="#010101" d="M12.9,18.1c-0.2,0.4-0.3,0.9-0.3,1.4c0.1,1.1,0.8,2.1,1.9,2.5C14.8,22,15,22,15.2,22c0.6,0,1.1-0.2,1.6-0.5
		c0.6-0.5,1-1.3,1-2.1l0.1-3.4l-3.6-1L12.9,18.1z"/>
	<path fill="#010101" d="M19.6,2.1C19.4,2,19.2,2,19,2c-1.9,0-4,2.4-4.8,5.7c-0.6,2.2-0.4,4.3,0.2,5.8l4.4,1.2
		c1.3-1,2.3-2.7,2.9-4.9C22.6,6.1,21.7,2.7,19.6,2.1z"/>
</g>
</svg>
