<?xml version="1.0" encoding="utf-8"?>
<!-- Generator: Adobe Illustrator 20.0.0, SVG Export Plug-In . SVG Version: 6.00 Build 0)  -->
<svg version="1.1" id="eds-icon--friends_svg"
	 xmlns="http://www.w3.org/2000/svg" xmlns:xlink="http://www.w3.org/1999/xlink" x="0px" y="0px" viewBox="0 0 24 24"
	 enable-background="new 0 0 24 24" xml:space="preserve">
<path id="eds-icon--friends_base" fill-rule="evenodd" clip-rule="evenodd" fill="#231F20" d="M5.8,19.4
	c3.9,2.1,8.7,2.1,12.7,0.1c-0.9-2.7-3.4-4.7-6.3-4.7C9.3,14.8,6.7,16.6,5.8,19.4z M7.3,15.5c-0.3-0.1-0.5-0.1-0.8-0.1
	c-1.4,0-2.7,0.8-3.3,2.1c0.6,0.5,1.1,0.9,1.7,1.3C5.4,17.5,6.2,16.4,7.3,15.5z M16,14.8c0.6-0.3,1.3-0.4,1.9-0.4
	c2.1,0,3.9,1.4,4.5,3.4l0,0c-2.8,2.8-6.5,4.2-10.2,4.2C8.5,22,4.8,20.6,2,17.8l0,0c0.6-2,2.4-3.4,4.5-3.4c0.6,0,1.3,0.1,1.9,0.4
	c1.1-0.6,2.4-1,3.8-1C13.6,13.7,14.9,14.1,16,14.8z M17.1,15.5c0.3-0.1,0.6-0.1,0.9-0.1c1.4,0,2.7,0.8,3.3,2.1
	c-0.6,0.5-1.2,1-1.9,1.4C19,17.6,18.1,16.4,17.1,15.5z"/>
<g id="eds-icon--friends_circles">
	<path fill-rule="evenodd" clip-rule="evenodd" fill="#231F20" d="M18.5,6.7c0,0.4,0,0.7-0.1,1c1,0.3,1.7,1.3,1.7,2.4
		c0,1.4-1.1,2.5-2.5,2.5c-0.7,0-1.4-0.3-1.9-0.8c-0.3,0.2-0.6,0.4-0.9,0.5c0.6,0.8,1.7,1.4,2.8,1.4c2,0,3.5-1.6,3.5-3.5
		C21.1,8.4,20,7.1,18.5,6.7z"/>
	<path fill-rule="evenodd" clip-rule="evenodd" fill="#231F20" d="M6.8,12.6c-1.4,0-2.5-1.1-2.5-2.5C4.3,9,5,8,6,7.7
		C5.9,7.4,5.9,7,5.9,6.7c-1.5,0.4-2.7,1.8-2.7,3.4c0,2,1.6,3.5,3.5,3.5c1.1,0,2.1-0.5,2.8-1.4C9.3,12.1,9,12,8.7,11.8
		C8.2,12.3,7.5,12.6,6.8,12.6z"/>
	<path fill-rule="evenodd" clip-rule="evenodd" fill="#231F20" d="M17.4,6.6c0-2.8-2.3-5.1-5.1-5.1S7.1,3.8,7.1,6.6s2.3,5.1,5.1,5.1
		S17.4,9.5,17.4,6.6z M12.2,10.7c-2.3,0-4.1-1.8-4.1-4.1s1.8-4.1,4.1-4.1s4.1,1.8,4.1,4.1S14.5,10.7,12.2,10.7z"/>
</g>
</svg>
