<?xml version="1.0" encoding="utf-8"?>
<!-- Generator: Adobe Illustrator 20.1.0, SVG Export Plug-In . SVG Version: 6.00 Build 0)  -->
<svg version="1.1" id="eds-icon--game_svg"
	 xmlns="http://www.w3.org/2000/svg" xmlns:xlink="http://www.w3.org/1999/xlink" x="0px" y="0px" viewBox="0 0 24 24"
	 enable-background="new 0 0 24 24" xml:space="preserve">
<path id="eds-icon--game_base" fill-rule="evenodd" clip-rule="evenodd" d="M11,8h2V7h-2V8z M21,19H3V9h7h4h7V19z
	 M14,8V6h-1.5V4h-1v2H10v2H2v12h20V8H14z"/>
<path id="eds-icon--game_button" fill-rule="evenodd" clip-rule="evenodd" d="M16,12c-1.1,0-2,0.9-2,2s0.9,2,2,2
	s2-0.9,2-2S17.1,12,16,12z M16,15c-0.6,0-1-0.4-1-1c0-0.6,0.4-1,1-1s1,0.4,1,1C17,14.6,16.6,15,16,15z"/>
<polygon id="eds-icon--game_pad" fill-rule="evenodd" clip-rule="evenodd" points="8,12 7,12 7,13.5 5.5,13.5 
	5.5,14.5 7,14.5 7,16 8,16 8,14.5 9.5,14.5 9.5,13.5 8,13.5 "/>
</svg>
