<?xml version="1.0" encoding="utf-8"?>
<!-- Generator: Adobe Illustrator 21.0.2, SVG Export Plug-In . SVG Version: 6.00 Build 0)  -->
<svg version="1.1" id="eds-icon--gear-chunky_svg"
	 xmlns="http://www.w3.org/2000/svg" xmlns:xlink="http://www.w3.org/1999/xlink" x="0px" y="0px" viewBox="0 0 24 24"
	 enable-background="new 0 0 24 24" xml:space="preserve">
<path id="eds-icon--gear-chunky_base" fill-rule="evenodd" clip-rule="evenodd" d="M12,14.8c-1.5,0-2.8-1.3-2.8-2.8
	s1.3-2.8,2.8-2.8s2.8,1.3,2.8,2.8S13.5,14.8,12,14.8z M17.9,12.8c0-0.3,0.1-0.5,0.1-0.8c0-0.3,0-0.5-0.1-0.8l1.7-1.3
	c0.2-0.1,0.2-0.3,0.1-0.5l-1.6-2.8c-0.1-0.2-0.3-0.2-0.5-0.2l-2,0.8c-0.4-0.3-0.9-0.6-1.4-0.8L14,4.3C14,4.1,13.8,4,13.6,4h-3.2
	C10.2,4,10,4.1,10,4.3L9.7,6.5C9.2,6.7,8.8,6.9,8.4,7.2l-2-0.8C6.2,6.4,6,6.4,5.9,6.6L4.3,9.4C4.2,9.6,4.2,9.8,4.4,9.9l1.7,1.3
	C6,11.5,6,11.7,6,12s0,0.5,0.1,0.8l-1.7,1.3c-0.2,0.1-0.2,0.3-0.1,0.5l1.6,2.8c0.1,0.2,0.3,0.2,0.5,0.2l2-0.8
	c0.4,0.3,0.9,0.6,1.4,0.8l0.3,2.1c0,0.2,0.2,0.3,0.4,0.3h3.2c0.2,0,0.4-0.1,0.4-0.3l0.3-2.1c0.5-0.2,0.9-0.5,1.4-0.8l2,0.8
	c0.2,0.1,0.4,0,0.5-0.2l1.6-2.8c0.1-0.2,0.1-0.4-0.1-0.5L17.9,12.8z"/>
</svg>
