<?xml version="1.0" encoding="utf-8"?>
<!-- Generator: Adobe Illustrator 19.1.0, SVG Export Plug-In . SVG Version: 6.00 Build 0)  -->
<svg version="1.1" id="eds-icon--gear_svg"
	 xmlns="http://www.w3.org/2000/svg" xmlns:xlink="http://www.w3.org/1999/xlink" x="0px" y="0px" viewBox="0 0 24 24"
	 enable-background="new 0 0 24 24" xml:space="preserve">
<path id="eds-icon--gear_base" fill-rule="evenodd" clip-rule="evenodd" d="M13,3v1.3V5l0.8,0.2
	C14.4,5.4,15,5.6,15.5,6l0.7,0.4l0.5-0.5l0.9-0.9l1.4,1.4l-0.9,0.9l-0.5,0.5L18,8.5c0.3,0.6,0.6,1.2,0.7,1.8L19,11h0.8H21v2h-1.3H19
	l-0.2,0.8c-0.2,0.6-0.4,1.2-0.7,1.8l-0.4,0.7l0.5,0.5l0.9,0.9l-1.4,1.4l-0.9-0.9l-0.5-0.5L15.5,18c-0.6,0.3-1.2,0.6-1.8,0.7L13,19
	v0.8V21h-2v-1.3V19l-0.8-0.2C9.6,18.6,9,18.4,8.5,18l-0.7-0.4l-0.5,0.5l-0.9,0.9l-1.4-1.4l0.9-0.9l0.5-0.5L6,15.5
	c-0.3-0.6-0.6-1.2-0.7-1.8L5,13H4.3H3v-2h1.3H5l0.2-0.8C5.4,9.6,5.6,9,6,8.5l0.4-0.7L5.8,7.2L4.9,6.3l1.4-1.4l0.9,0.9l0.5,0.5L8.5,6
	C9,5.6,9.6,5.4,10.2,5.2L11,5V4.3V3H13z M14,2h-4v2.3C9.3,4.5,8.6,4.7,7.9,5.1L6.3,3.5L3.5,6.3l1.6,1.6C4.7,8.6,4.5,9.3,4.3,10H2v4
	h2.3c0.2,0.7,0.5,1.4,0.9,2.1l-1.6,1.6l2.8,2.8l1.6-1.6c0.6,0.4,1.3,0.7,2.1,0.9V22h4v-2.3c0.7-0.2,1.4-0.5,2.1-0.9l1.6,1.6l2.8-2.8
	l-1.6-1.6c0.4-0.6,0.7-1.3,0.9-2.1H22v-4h-2.3c-0.2-0.7-0.5-1.4-0.9-2.1l1.6-1.6l-2.8-2.8l-1.6,1.6c-0.6-0.4-1.3-0.7-2.1-0.9V2z"/>
<path id="eds-icon--gear_circle" fill-rule="evenodd" clip-rule="evenodd" d="M12,8c-2.2,0-4,1.8-4,4s1.8,4,4,4
	s4-1.8,4-4S14.2,8,12,8z M12,15c-1.7,0-3-1.3-3-3c0-1.7,1.3-3,3-3s3,1.3,3,3C15,13.7,13.7,15,12,15z"/>
</svg>
