<?xml version="1.0" encoding="utf-8"?>
<!-- Generator: Adobe Illustrator 19.1.0, SVG Export Plug-In . SVG Version: 6.00 Build 0)  -->
<svg version="1.1" id="eds-icon--gear-fill_svg"
	 xmlns="http://www.w3.org/2000/svg" xmlns:xlink="http://www.w3.org/1999/xlink" x="0px" y="0px" viewBox="0 0 24 24"
	 enable-background="new 0 0 24 24" xml:space="preserve">
<path id="eds-icon--gear-fill_base" fill-rule="evenodd" clip-rule="evenodd" d="M12,15.5c1.9,0,3.5-1.6,3.5-3.5
	S13.9,8.5,12,8.5S8.5,10.1,8.5,12S10.1,15.5,12,15.5z M14,2h-4v2.3C9.3,4.5,8.6,4.7,7.9,5.1L6.3,3.5L3.5,6.3l1.6,1.6
	C4.7,8.6,4.5,9.3,4.3,10H2v4h2.3c0.2,0.7,0.5,1.4,0.9,2.1l-1.6,1.6l2.8,2.8l1.6-1.6c0.6,0.4,1.3,0.7,2.1,0.9V22h4v-2.3
	c0.7-0.2,1.4-0.5,2.1-0.9l1.6,1.6l2.8-2.8l-1.6-1.6c0.4-0.6,0.7-1.3,0.9-2.1H22v-4h-2.3c-0.2-0.7-0.5-1.4-0.9-2.1l1.6-1.6l-2.8-2.8
	l-1.6,1.6c-0.6-0.4-1.3-0.7-2.1-0.9V2z"/>
</svg>
