<?xml version="1.0" encoding="UTF-8" standalone="no"?>
<svg width="144px" height="144px" viewBox="0 0 144 144" version="1.1" xmlns="http://www.w3.org/2000/svg" xmlns:xlink="http://www.w3.org/1999/xlink">
    <!-- Generator: Sketch 43.2 (39069) - http://www.bohemiancoding.com/sketch -->
    <title>ghost-graphic </title>
    <desc>Created with Sketch.</desc>
    <defs></defs>
    <g id="Page-1" stroke="none" stroke-width="1" fill="none" fill-rule="evenodd">
        <g id="ghost-graphic-">
            <rect id="Rectangle-path" x="0" y="0" width="144" height="144"></rect>
            <path d="M108,110.3523 L108,53.3523 C108,33.4698 91.8825,17.3523 72,17.3523 C52.1175,17.3523 36,33.4698 36,53.3523 L36,110.3523 L45,101.3523 L54,110.3523 L63,101.3523 L72,110.3523 L81,101.3523 L90,110.3523 L99,101.3523 L108,110.3523 Z" id="Fill-1" fill="#F9F9FA"></path>
            <path d="M81,18.48615 C78.123,17.74665 75.108,17.35215 72,17.35215 C52.1175,17.35215 36,33.46965 36,53.35215 L36,110.35215 L45,101.35215 L54,110.35215 L54,53.35215 C54,36.57765 65.472,22.48215 81,18.48615" id="Fill-3" fill="#D2D6DF"></path>
            <path d="M81,99.23145 L90,108.23145 L99,99.23145 L106.5,106.73145 L106.5,53.35245 C106.5,34.32945 91.0245,18.85245 72,18.85245 C52.977,18.85245 37.5,34.32945 37.5,53.35245 L37.5,106.73145 L45,99.23145 L54,108.23145 L63,99.23145 L72,108.23145 L81,99.23145 Z M109.5,113.97345 L99,103.47345 L90,112.47345 L81,103.47345 L72,112.47345 L63,103.47345 L54,112.47345 L45,103.47345 L34.5,113.97345 L34.5,53.35245 C34.5,32.67495 51.3225,15.85245 72,15.85245 C92.6775,15.85245 109.5,32.67495 109.5,53.35245 L109.5,113.97345 Z" id="Fill-5" fill="#363A43"></path>
            <polygon id="Fill-7" fill="#363A43" points="61.5 84.852 82.5 84.852 82.5 81.852 61.5 81.852"></polygon>
            <path d="M56.8125,57.8523 C56.8125,59.4063 55.554,60.6648 54,60.6648 C52.446,60.6648 51.1875,59.4063 51.1875,57.8523 C51.1875,56.2983 52.446,55.0398 54,55.0398 C55.554,55.0398 56.8125,56.2983 56.8125,57.8523" id="Fill-9" fill="#363A43"></path>
            <path d="M92.4375,57.8523 C92.4375,59.4063 91.179,60.6648 89.625,60.6648 C88.071,60.6648 86.8125,59.4063 86.8125,57.8523 C86.8125,56.2983 88.071,55.0398 89.625,55.0398 C91.179,55.0398 92.4375,56.2983 92.4375,57.8523" id="Fill-10" fill="#363A43"></path>
            <polygon id="Fill-11" fill="#363A43" points="61.3755 115.6245 64.3755 115.6245 64.3755 112.6245 61.3755 112.6245"></polygon>
            <polygon id="Fill-12" fill="#363A43" points="61.3755 121.6245 64.3755 121.6245 64.3755 118.6245 61.3755 118.6245"></polygon>
            <polygon id="Fill-13" fill="#363A43" points="79.3125 115.6245 82.3125 115.6245 82.3125 112.6245 79.3125 112.6245"></polygon>
            <polygon id="Fill-14" fill="#363A43" points="79.3125 121.6245 82.3125 121.6245 82.3125 118.6245 79.3125 118.6245"></polygon>
            <polygon id="Fill-15" fill="#363A43" points="43.7505 117 46.7505 117 46.7505 114 43.7505 114"></polygon>
            <polygon id="Fill-16" fill="#363A43" points="43.7505 123 46.7505 123 46.7505 120 43.7505 120"></polygon>
            <polygon id="Fill-17" fill="#363A43" points="43.7505 129 46.7505 129 46.7505 126 43.7505 126"></polygon>
            <polygon id="Fill-18" fill="#363A43" points="97.2495 115.5 100.2495 115.5 100.2495 112.5 97.2495 112.5"></polygon>
            <polygon id="Fill-19" fill="#363A43" points="97.2495 121.5 100.2495 121.5 100.2495 118.5 97.2495 118.5"></polygon>
            <polygon id="Fill-20" fill="#363A43" points="97.2495 127.5 100.2495 127.5 100.2495 124.5 97.2495 124.5"></polygon>
        </g>
    </g>
</svg>