<?xml version="1.0" encoding="utf-8"?>
<!-- Generator: Adobe Illustrator 20.1.0, SVG Export Plug-In . SVG Version: 6.00 Build 0)  -->
<svg version="1.1" id="eds-icon--gift_svg"
	 xmlns="http://www.w3.org/2000/svg" xmlns:xlink="http://www.w3.org/1999/xlink" x="0px" y="0px" viewBox="0 0 24 24"
	 enable-background="new 0 0 24 24" xml:space="preserve">
<path id="eds-icon--gift_base" fill-rule="evenodd" clip-rule="evenodd" d="M16.1,7c0.3-0.1,0.5-0.3,0.7-0.4
	c1-1,1-2.7,0-3.8C16.3,2.3,15.6,2,14.9,2S13.6,2.3,13,2.8c-0.5,0.5-0.8,1.5-0.9,2.5c-0.2-1-0.5-2.1-0.9-2.5C10.6,2.3,9.9,2,9.3,2
	C8.6,2,7.9,2.3,7.4,2.8c-1,1-1,2.7,0,3.8C7.5,6.7,7.8,6.9,8.1,7H3v4h2v11h14V11h2V7H16.1z M10.7,10l1.3-1.3l1.3,1.3H10.7z M13.8,3.5
	C14.1,3.2,14.5,3,14.9,3c0.4,0,0.9,0.2,1.2,0.5c0.3,0.3,0.5,0.7,0.5,1.2c0,0.4-0.2,0.9-0.5,1.2c-0.4,0.4-1.8,0.7-3.2,0.9
	C13.1,5.3,13.4,3.9,13.8,3.5z M8.1,3.5C8.4,3.2,8.8,3,9.3,3c0.4,0,0.9,0.2,1.2,0.5c0.4,0.4,0.7,1.8,0.9,3.2C9.9,6.5,8.4,6.2,8.1,5.9
	C7.8,5.5,7.6,5.1,7.6,4.7C7.6,4.2,7.8,3.8,8.1,3.5z M4,8h7.3l-2,2H4V8z M6,11h2.3l-1.1,1.1l0.7,0.7L9.7,11h1.8v10H6V11z M18,21h-5.5
	V11h2l1.8,1.8l0.7-0.7L15.9,11H18V21z M20,10h-5.2l-2-2H20V10z"/>
</svg>
