<?xml version="1.0" encoding="utf-8"?>
<!-- Generator: Adobe Illustrator 20.1.0, SVG Export Plug-In . SVG Version: 6.00 Build 0)  -->
<svg version="1.1" id="eds-icon--globe-chunky_svg"
	 xmlns="http://www.w3.org/2000/svg" xmlns:xlink="http://www.w3.org/1999/xlink" x="0px" y="0px" viewBox="0 0 24 24"
	 enable-background="new 0 0 24 24" xml:space="preserve">
<path id="eds-icon--globe-chunky_base" fill-rule="evenodd" clip-rule="evenodd" d="M12,4c-4.4,0-8,3.6-8,8
	s3.6,8,8,8s8-3.6,8-8S16.4,4,12,4 M17.9,11h-2c-0.2-1.9-1.1-3.6-2.5-4.8C15.8,6.8,17.5,8.7,17.9,11 M13.9,11h-3.8
	C10.3,9.7,11,8.4,12,7.5C13,8.4,13.7,9.7,13.9,11 M10.5,6.2C9.2,7.4,8.3,9.1,8.1,11h-2C6.5,8.7,8.2,6.8,10.5,6.2 M6.1,13h2
	c0.2,1.9,1.1,3.6,2.5,4.8C8.2,17.2,6.5,15.3,6.1,13 M10.1,13h3.8c-0.2,1.3-0.9,2.6-1.9,3.5C11,15.6,10.3,14.3,10.1,13 M13.5,17.8
	c1.3-1.2,2.2-2.9,2.5-4.8h2C17.5,15.3,15.8,17.2,13.5,17.8"/>
</svg>
