<?xml version="1.0" encoding="utf-8"?>
<!-- Generator: Adobe Illustrator 20.0.0, SVG Export Plug-In . SVG Version: 6.00 Build 0)  -->
<svg version="1.1" id="eds-icon--globe_svg"
	 xmlns="http://www.w3.org/2000/svg" xmlns:xlink="http://www.w3.org/1999/xlink" x="0px" y="0px" viewBox="0 0 24 24"
	 enable-background="new 0 0 24 24" xml:space="preserve">
<path id="eds-icon--globe_base" fill-rule="evenodd" clip-rule="evenodd" fill="#231F20" d="M17.4,16.1
	c3.8-3.8,3.8-10,0-13.8L16.7,3c3.4,3.4,3.4,9,0,12.4c-3.4,3.4-9,3.4-12.4,0l-0.7,0.7c1.8,1.8,3.9,2.7,6.4,2.8v2H8.5v1H10h1h1.5v-1
	H11v-2C13.5,18.9,15.6,17.9,17.4,16.1z"/>
<path id="eds-icon--globe_globe" fill-rule="evenodd" clip-rule="evenodd" fill="#231F20" d="M10.5,17
	c1.9,0,3.8-0.7,5.3-2.2c2.9-2.9,2.9-7.7,0-10.6C14.3,2.7,12.4,2,10.5,2C8.6,2,6.7,2.7,5.2,4.2c-2.9,2.9-2.9,7.7,0,10.6
	C6.7,16.2,8.6,17,10.5,17z M6.2,10.2l3.6,3.6c-0.7,0.2-1.5,0.3-2.2,0.3c-0.5,0-1-0.1-1.5-0.2C5.8,12.7,5.8,11.4,6.2,10.2z M14.3,9.8
	l-4.2-4.2c1-0.5,2.1-0.8,3.3-0.8c0.5,0,1,0.1,1.5,0.2C15.3,6.7,15.1,8.4,14.3,9.8z M13.8,10.8c-0.3,0.4-0.6,0.8-0.9,1.1
	c-0.6,0.6-1.3,1.1-2.1,1.5L6.6,9.2C7,8.4,7.5,7.7,8.1,7.1c0.4-0.4,0.7-0.7,1.1-0.9L13.8,10.8z M7.2,15.1c0.1,0,0.2,0,0.4,0
	c1,0,2-0.2,3-0.5l1.3,1.3C11.4,15.9,11,16,10.5,16C9.3,16,8.2,15.7,7.2,15.1z M15.1,14.1c-0.6,0.6-1.4,1.1-2.1,1.4l-1.4-1.4
	c0.7-0.4,1.4-0.9,2.1-1.5c0.4-0.4,0.7-0.7,0.9-1.1l1.4,1.4C15.7,13.3,15.4,13.7,15.1,14.1z M16.5,12l-1.4-1.4c0.7-1.4,1.1-2.9,1-4.4
	c0.6,1,0.9,2.1,0.9,3.3C17,10.4,16.8,11.2,16.5,12z M13.8,3.9c-0.1,0-0.2,0-0.4,0c-1.4,0-2.8,0.3-4,1L8,3.5C8.8,3.2,9.6,3,10.5,3
	C11.7,3,12.8,3.3,13.8,3.9z M5.9,4.9C6.3,4.5,6.6,4.2,7.1,4l1.4,1.4C8.1,5.7,7.7,6,7.4,6.4C6.8,7,6.3,7.7,5.9,8.4L4.5,7
	C4.8,6.3,5.3,5.5,5.9,4.9z M4.1,8.1l1.3,1.3c-0.4,1.1-0.6,2.2-0.5,3.4C4.3,11.8,4,10.7,4,9.5C4,9,4.1,8.6,4.1,8.1z"/>
</svg>
