<?xml version="1.0" encoding="utf-8"?>
<!-- Generator: Adobe Illustrator 20.1.0, SVG Export Plug-In . SVG Version: 6.00 Build 0)  -->
<svg version="1.1" id="eds-icon--h2-chunky_svg"
	 xmlns="http://www.w3.org/2000/svg" xmlns:xlink="http://www.w3.org/1999/xlink" x="0px" y="0px" viewBox="0 0 24 24"
	 enable-background="new 0 0 24 24" xml:space="preserve">
<polygon id="eds-icon--h2-chunky_base" fill-rule="evenodd" clip-rule="evenodd" points="12,12 5,12 5,6 3,6 3,20 5,20 5,14 
	12,14 12,20 14,20 14,6 12,6 "/>
<path id="eds-icon--h2-chunky_number" fill-rule="evenodd" clip-rule="evenodd" d="M17.7,10c0-1,0.7-1.1,1.6-1.7
	c1.3-0.8,1.5-1.6,1.5-2.3c0-1.2-0.8-2-2.2-2c-1.2,0-2,0.5-2.5,1.4l1,0.7c0.4-0.6,0.9-1,1.5-1c0.6,0,0.9,0.3,0.9,0.8
	C19.4,6.7,19,7,18,7.6c-1.8,1.1-2,2.1-2,3V11h5v-1H17.7z"/>
</svg>
