<?xml version="1.0" encoding="utf-8"?>
<!-- Generator: Adobe Illustrator 20.1.0, SVG Export Plug-In . SVG Version: 6.00 Build 0)  -->
<svg version="1.1" id="eds-icon--h4-chunky_svg"
	 xmlns="http://www.w3.org/2000/svg" xmlns:xlink="http://www.w3.org/1999/xlink" x="0px" y="0px" viewBox="0 0 24 24"
	 enable-background="new 0 0 24 24" xml:space="preserve">
<path id="eds-icon--h3-chunky_base" fill-rule="evenodd" clip-rule="evenodd" d="M5,20v-6h7v6h2V6h-2v6H5V6H3v14H5z"/>
<path id="eds-icon--h3-chunky_number" fill-rule="evenodd" clip-rule="evenodd" d="M18.4,11.1c1.6,0,2.6-0.7,2.6-2
	c0-0.8-0.5-1.5-1.5-1.7c0.8-0.2,1.3-0.8,1.3-1.5c0-1.1-0.8-1.7-2.2-1.7c-0.9,0-1.9,0.3-2.5,0.9L16.9,6c0.5-0.5,1-0.6,1.5-0.6
	c0.7,0,1,0.3,1,0.7c0,0.4-0.2,0.8-1.4,0.8h-0.4v1.1h0.3c1.1,0,1.6,0.2,1.6,1c0,0.6-0.4,0.9-1.1,0.9c-0.5,0-1.2-0.3-1.6-0.8L15.8,10
	C16.4,10.7,17.3,11.1,18.4,11.1z"/>
</svg>
