<?xml version="1.0" encoding="utf-8"?>
<!-- Generator: Adobe Illustrator 20.1.0, SVG Export Plug-In . SVG Version: 6.00 Build 0)  -->
<svg version="1.1" id="eds-icon--h5-chunky_svg"
	 xmlns="http://www.w3.org/2000/svg" xmlns:xlink="http://www.w3.org/1999/xlink" x="0px" y="0px" viewBox="0 0 24 24"
	 enable-background="new 0 0 24 24" xml:space="preserve">
<path id="eds-icon--h5-chunky_base" fill-rule="evenodd" clip-rule="evenodd" d="M5,20v-6h7v6h2V6h-2v6H5V6H3v14H5z"/>
<path id="eds-icon--h5-chunky_number" fill-rule="evenodd" clip-rule="evenodd" d="M18.4,11.1c1.6,0,2.6-1,2.6-2.4
	c0-1.3-0.7-2.2-2.2-2.2c-0.7,0-1.1,0.2-1.3,0.4l0.1-1.5h2.8l0.1-1.1h-4l-0.3,3.6l0.9,0.3c0.3-0.4,0.8-0.6,1.2-0.6
	c0.8,0,1.2,0.4,1.2,1.2c0,0.7-0.4,1.2-1.3,1.2c-0.6,0-1.2-0.3-1.7-0.7l-0.7,1C16.5,10.8,17.3,11.1,18.4,11.1z"/>
</svg>
