<?xml version="1.0" encoding="utf-8"?>
<!-- Generator: Adobe Illustrator 20.1.0, SVG Export Plug-In . SVG Version: 6.00 Build 0)  -->
<svg version="1.1" id="eds-icon--h6-chunky_svg"
	 xmlns="http://www.w3.org/2000/svg" xmlns:xlink="http://www.w3.org/1999/xlink" x="0px" y="0px" viewBox="0 0 24 24"
	 enable-background="new 0 0 24 24" xml:space="preserve">
<path id="eds-icon--h6-chunky_base" fill-rule="evenodd" clip-rule="evenodd" d="M5,20v-6h7v6h2V6h-2v6H5V6H3v14H5z"/>
<path id="eds-icon--h6-chunky_number" fill-rule="evenodd" clip-rule="evenodd" d="M19,6.7c-0.7,0-1.2,0.2-1.7,0.6
	c0.1-1.2,0.7-1.9,1.6-1.9c0.5,0,0.9,0.1,1.3,0.4l0.6-1c-0.4-0.3-0.9-0.6-1.9-0.6c-1.4,0-2.9,1-2.9,3.6c0,2.2,1.1,3.3,2.7,3.3
	c1.5,0,2.5-0.9,2.5-2.3C21.2,7.3,20.2,6.7,19,6.7z M18.7,10c-0.8,0-1.3-0.6-1.3-1.7c0.3-0.3,0.8-0.6,1.4-0.6c0.8,0,1.1,0.5,1.1,1.1
	C19.8,9.5,19.4,10,18.7,10z"/>
</svg>
