<?xml version="1.0" encoding="utf-8"?>
<!-- Generator: Adobe Illustrator 20.0.0, SVG Export Plug-In . SVG Version: 6.00 Build 0)  -->
<svg version="1.1" id="eds-icon--headline_svg"
	 xmlns="http://www.w3.org/2000/svg" xmlns:xlink="http://www.w3.org/1999/xlink" x="0px" y="0px" viewBox="0 0 24 24"
	 enable-background="new 0 0 24 24" xml:space="preserve">
<path id="eds-icon--headline_base" fill="#010101" d="M3,22h1.3V12h11.5v10h1.3V2h-1.3v8.8H4.3V2H3V22z"/>
<path id="eds-icon--headline_number" fill="#010101" d="M22.5,8V7.1h-3c0.1-0.4,0.6-0.9,1.5-1.5
	c1.1-0.7,1.4-1.3,1.4-2c0-1-0.7-1.7-1.9-1.7c-1,0-1.7,0.5-2.2,1.3L19,3.7c0.4-0.6,0.9-0.9,1.4-0.9c0.6,0,0.9,0.3,0.9,0.9
	S20.9,4.6,20,5.2c-1.6,1-1.9,1.8-1.9,2.7V8H22.5z"/>
</svg>
