<?xml version="1.0" encoding="utf-8"?>
<!-- Generator: Adobe Illustrator 20.0.0, SVG Export Plug-In . SVG Version: 6.00 Build 0)  -->
<svg version="1.1" id="eds-icon--headphone_svg"
	 xmlns="http://www.w3.org/2000/svg" xmlns:xlink="http://www.w3.org/1999/xlink" x="0px" y="0px" viewBox="0 0 24 24"
	 enable-background="new 0 0 24 24" xml:space="preserve">
<path id="eds-icon--headphone_base" fill-rule="evenodd" clip-rule="evenodd" d="M22,12.5h-1V11h-2V9h-1
	c0-3.3-2.7-6-6-6S6,5.7,6,9H5v2H3v1.5H2v1h1V15h2v2h3V9H7c0-2.7,2.2-5,5-5s5,2.2,5,5h-1v8h2v1c0,0.8-0.7,1.5-1.5,1.5h-1.6
	c-0.2-0.9-1-1.5-1.9-1.5c-1.1,0-2,0.9-2,2s0.9,2,2,2c0.9,0,1.7-0.6,1.9-1.5h1.6c1.4,0,2.5-1.1,2.5-2.5v-2.5V15h2v-1.5h1V12.5z M4,14
	h1v-2H4V14z M6,16h1v-6H6V16z M13,21c-0.6,0-1-0.4-1-1c0-0.6,0.4-1,1-1s1,0.4,1,1C14,20.5,13.6,21,13,21z M17,16h1v-6h-1V16z M19,14
	h1v-2h-1V14z"/>
</svg>
