<?xml version="1.0" encoding="utf-8"?>
<!-- Generator: Adobe Illustrator 19.1.0, SVG Export Plug-In . SVG Version: 6.00 Build 0)  -->
<svg version="1.1" id="eds-icon--heart_svg"
	 xmlns="http://www.w3.org/2000/svg" xmlns:xlink="http://www.w3.org/1999/xlink" x="0px" y="0px" viewBox="0 0 24 24"
	 enable-background="new 0 0 24 24" xml:space="preserve">
<path id="eds-icon--heart_base" fill-rule="evenodd" clip-rule="evenodd" d="M21,8c0,1.7-0.4,2.4-1.7,3.8L12,19.1
	l-7.3-7.3C3.3,10.4,3,9.7,3,8c0-2.3,1.9-4,4.5-4c3,0,4.5,3.5,4.5,3.5S13.5,4,16.5,4C19,4,21,5.7,21,8 M16.5,3C13.2,3,12,5.5,12,5.5
	S10.2,3,7.5,3C4.5,3,2,5,2,8c0,2,0.5,3,2,4.5l8,8l8-8C21.5,11,22,10,22,8C22,5,19.5,3,16.5,3"/>
</svg>
