<?xml version="1.0" encoding="utf-8"?>
<!-- Generator: Adobe Illustrator 20.1.0, SVG Export Plug-In . SVG Version: 6.00 Build 0)  -->
<svg version="1.1" id="eds-icon--user-chunky_svg"
	 xmlns="http://www.w3.org/2000/svg" xmlns:xlink="http://www.w3.org/1999/xlink" x="0px" y="0px" viewBox="0 0 24 24"
	 enable-background="new 0 0 24 24" xml:space="preserve">
<path id="eds-icon--heart-chunky_base" fill-rule="evenodd" clip-rule="evenodd" d="M18.8,6.2
	C18.1,5.4,17,5,16,5c-1,0-2,0.4-2.8,1.2L12,7.4l-1.2-1.2C10,5.4,9,5,8,5c-1,0-2,0.4-2.8,1.2c-1.5,1.6-1.5,4.2,0,5.8l6.8,7l6.8-7
	C20.4,10.4,20.4,7.8,18.8,6.2z M17.4,10.6L12,16.1l-5.4-5.5c-0.8-0.8-0.8-2.2,0-3C7,7.2,7.5,7,8,7c0.5,0,1,0.2,1.4,0.6l2.6,2.7
	l2.7-2.7C15,7.2,15.5,7,16,7c0.5,0,1,0.2,1.4,0.6C18.2,8.4,18.2,9.8,17.4,10.6z"/>
</svg>
