<?xml version="1.0" encoding="utf-8"?>
<!-- Generator: Adobe Illustrator 20.0.0, SVG Export Plug-In . SVG Version: 6.00 Build 0)  -->
<svg version="1.1" id="eds-icon--holiday_svg"
	 xmlns="http://www.w3.org/2000/svg" xmlns:xlink="http://www.w3.org/1999/xlink" x="0px" y="0px" viewBox="0 0 24 24"
	 enable-background="new 0 0 24 24" xml:space="preserve">
<path id="eds-icon--holiday_base" fill-rule="evenodd" clip-rule="evenodd" fill="#231F20" d="M7,2v16.4h14V2H7z
	 M20,17.4H8v-1.1l4.4-4.9l2.8,3.2l1.4-1.5l3.3,3.4V17.4z M20,15l-3.3-3.4L15.3,13l-2.8-3.2L8,14.8V3h12V15z"/>
<path id="eds-icon--holiday_corner" fill-rule="evenodd" clip-rule="evenodd" fill="#231F20" d="M5.8,4.1L4.8,4
	L3,20.3l0,0l1,0.1l12.9,1.5l0.1-1L4.1,19.4L5.8,4.1z"/>
<path id="eds-icon--holiday_circle" fill-rule="evenodd" clip-rule="evenodd" fill="#231F20" d="M16.6,9.3
	c1.1,0,2-0.9,2-2c0-1.1-0.9-2-2-2c-1.1,0-2,0.9-2,2C14.6,8.4,15.5,9.3,16.6,9.3z M16.6,6.2c0.6,0,1.1,0.5,1.1,1.1
	c0,0.6-0.5,1.1-1.1,1.1s-1.1-0.5-1.1-1.1C15.5,6.7,16,6.2,16.6,6.2z"/>
</svg>
