<?xml version="1.0" encoding="UTF-8" standalone="no"?>
<svg width="387px" height="422px" viewBox="0 0 387 422" version="1.1" xmlns="http://www.w3.org/2000/svg" xmlns:xlink="http://www.w3.org/1999/xlink">
    <!-- Generator: Sketch 46.2 (44496) - http://www.bohemiancoding.com/sketch -->
    <title>illustration_horseback</title>
    <desc>Created with Sketch.</desc>
    <defs></defs>
    <g id="assets" stroke="none" stroke-width="1" fill="none" fill-rule="evenodd">
        <g id="illustration_horseback">
            <g id="ill_onhorseback" transform="translate(1.000000, 42.000000)">
                <path d="M261.5193,12.2836 C261.7773,13.0196 262.1643,13.7176 262.6603,14.3376 L315.0153,79.8706 L317.7303,79.2866 L319.0243,76.8286 L269.9963,8.7696 C269.5323,8.1256 268.9643,7.5646 268.3253,7.1186 L258.2593,0.0966 C257.8423,-0.1944 257.2963,0.2196 257.4643,0.6986 L261.5193,12.2836 Z" id="Fill-1" fill="#F6682F"></path>
                <path d="M286.8144,209.5022 C286.8144,209.5022 340.9804,228.1222 340.9804,239.1872 C340.9804,251.7152 322.8464,298.1832 322.8464,298.1832 L317.0404,285.9452 L323.5864,248.6752 L275.9634,231.1302 L286.8144,209.5022 Z" id="Fill-4" fill="#282C35"></path>
                <path d="M317.0401,285.9451 L304.2831,287.2881 C303.6201,287.3581 303.2091,288.0471 303.4641,288.6641 L309.2491,302.7041 C309.4591,303.2151 310.0441,303.4581 310.5541,303.2481 L322.8461,298.1831 L317.0401,285.9451 Z" id="Fill-6" fill="#282C35"></path>
                <path d="M270.298,92.5134 C262.028,86.0754 249.019,90.4174 256.686,104.4784 C263.547,117.0614 283.988,125.6654 284.075,125.7804 C291.551,128.4244 304.064,121.4544 310.579,107.4724 L322.103,86.1534 L318.481,81.5904 L320.642,76.9534 C321.64,75.0684 320.165,75.1034 318.758,76.4884 L313.908,81.0214 C311.938,83.0674 315.153,85.6974 311.602,90.3654 C308.052,95.0334 291.22,112.2714 291.22,112.2714 L270.298,92.5134 Z" id="Fill-8" fill="#45494E"></path>
                <path d="M316.606,76.3968 L305.645,85.2528 C310.983,88.7848 319.286,79.7138 319.286,79.7138 C319.286,79.7138 330.019,71.4408 327.567,67.5408 L316.606,76.3968 Z" id="Fill-10" fill="#9B9EA7"></path>
                <path d="M327.0839,101.7941 C327.0839,101.7941 314.8679,91.8721 302.4489,101.1861 C292.7169,108.4851 295.9109,119.1291 288.1819,123.8431 C278.7419,129.6021 271.8289,125.6441 264.4329,131.1431 C257.0369,136.6411 252.5719,155.2731 252.5719,155.2731 C252.5719,155.2731 282.9849,149.5421 327.0839,101.7941" id="Fill-12" fill="#282C35"></path>
                <path d="M163.6645,212.4976 L150.1655,264.3786 C150.1095,264.5916 150.1265,264.8166 150.2115,265.0186 L181.5065,339.3196 L190.8335,339.3196 L169.5445,271.6066 L206.8515,220.3036 C206.8515,220.3036 192.7105,214.3226 163.6645,212.4976" id="Fill-14" fill="#282C35"></path>
                <path d="M111.1796,324.1022 L122.7086,316.5102 L118.2146,303.2122 L101.9246,305.0932 C101.2356,305.1732 100.8346,305.9132 101.1456,306.5342 L109.7356,323.7142 C110.0036,324.2502 110.6796,324.4322 111.1796,324.1022" id="Fill-16" fill="#282C35"></path>
                <path d="M122.7083,316.5102 C128.7913,311.9482 131.5283,300.0872 121.1873,263.2872 C121.1873,263.2872 156.9733,235.1042 170.7613,221.6212 C170.7613,221.6212 211.5143,236.2202 265.0413,236.2202 L284.2903,272.7392 L251.0553,289.2162 L251.1583,301.1832 L296.0403,284.9372 C303.0353,278.2462 296.9753,241.0862 302.1453,221.6212 C307.3153,202.1572 317.0473,167.4862 329.2133,152.5842 L359.9303,165.0532 C369.9663,168.0942 377.5693,163.2282 379.0903,159.5792 C379.0903,159.5792 383.6523,153.1922 375.7443,145.2852 C367.8373,137.3772 337.7283,106.0522 337.7283,106.0522 C337.7283,106.0522 335.8023,90.3382 332.1523,90.3382 C328.5033,90.3382 327.0843,101.7942 327.0843,101.7942 C321.6093,101.7942 271.1243,155.0172 249.2263,155.0172 C214.2513,155.0172 183.5343,143.7642 154.9463,143.7642 C126.3583,143.7642 107.1973,167.7902 107.1973,185.4302 C107.1973,203.0692 118.7543,235.0032 118.7543,235.0032 L101.1773,250.2372 C100.7713,250.5882 100.6193,251.1502 100.7903,251.6582 L122.7083,316.5102 Z" id="Fill-18" fill="#FFA71A"></path>
                <path d="M251.0556,289.2159 L237.9216,289.1499 C237.3876,289.1469 236.9456,289.5639 236.9176,290.0969 L236.0436,306.6349 C236.0036,307.3889 236.7826,307.9129 237.4666,307.5929 L251.1576,301.1839 L251.0556,289.2159 Z" id="Fill-20" fill="#282C35"></path>
                <path d="M118.4211,159.9891 C118.4211,159.9891 107.9071,150.3541 98.5811,150.3541 C59.6351,150.3541 53.3661,231.8541 24.3801,231.8541 C14.3531,231.8541 5.2111,225.2581 1.8311,222.5041 C1.2101,221.9981 0.2841,222.3821 0.1981,223.1781 C-0.6689,231.1821 -0.0939,262.2741 32.5401,262.2741 C79.8731,262.2741 70.1041,160.0351 98.0741,160.0351 C107.5021,160.0351 113.6071,166.1911 113.6071,166.1911 L118.4211,159.9891 Z" id="Fill-22" fill="#FFA71A"></path>
                <path d="M249.2265,155.0169 C214.2515,155.0169 183.5345,143.7639 154.9465,143.7639 C126.3575,143.7639 102.9105,167.7899 102.9105,185.4299 C102.9105,191.5509 104.3025,199.3919 106.1195,207.0229 C111.7595,207.0229 117.1155,199.4199 120.8835,199.4199 C129.5005,199.4199 128.0245,210.6729 134.6185,210.6729 C143.7425,210.6729 149.1675,199.4199 155.5545,199.4199 C161.9415,199.4199 159.5085,210.6729 168.6315,210.6729 C177.7555,210.6729 182.7235,199.4199 188.4005,199.4199 C195.2945,199.4199 192.2525,210.6729 198.2305,210.6729 C206.4425,210.6729 211.7885,200.4339 219.4935,200.4339 C228.9215,200.4339 220.9275,212.4979 230.5735,212.4979 C242.9265,212.4979 260.1755,199.4199 267.7785,199.4199 L308.4375,199.4199 L308.4385,199.4199 C311.5255,189.3759 315.2085,178.7159 319.3605,169.5449 C299.4635,165.7419 282.6385,155.3889 270.8515,146.0649 C262.5715,151.4039 254.9285,155.0169 249.2265,155.0169" id="Fill-24" fill="#6D717A"></path>
                <path d="M337.7284,106.052 C341.4164,109.886 326.0704,133.931 331.9504,133.931 C337.8294,133.931 344.5204,125.618 348.3734,125.618 C352.2254,125.618 350.1974,142.852 350.1974,142.852 L380.3994,164.344 C380.3994,164.344 386.6544,155.796 381.9904,151.234 L337.7284,106.052 Z" id="Fill-26" fill="#45494E"></path>
                <path d="M143.089,204.6372 C142.021,203.5642 140.809,202.3462 138.465,202.3432 L138.455,202.3432 C136.116,202.3432 134.903,203.5552 133.832,204.6242 C132.809,205.6482 131.841,206.6142 129.916,206.6142 L129.908,206.6142 C129.707,206.6132 129.523,206.5972 129.342,206.5762 C129.54,206.9322 129.741,207.2792 129.951,207.6112 C132.266,207.5992 133.474,206.3962 134.539,205.3322 C135.563,204.3092 136.53,203.3432 138.455,203.3432 L138.463,203.3432 C140.393,203.3462 141.359,204.3162 142.38,205.3432 C142.865,205.8312 143.386,206.3422 144.022,206.7622 C144.303,206.5442 144.581,206.3232 144.855,206.0992 C144.179,205.7212 143.639,205.1902 143.089,204.6372" id="Fill-29" fill="#45494E"></path>
                <path d="M108.8956,204.5894 C107.9566,203.6454 106.9066,202.5924 105.0756,202.3484 C105.1506,202.7024 105.2246,203.0574 105.3016,203.4124 C106.5756,203.6924 107.3676,204.4704 108.1866,205.2944 C108.5246,205.6334 108.8816,205.9844 109.2796,206.3094 C109.6206,206.1644 109.9596,206.0014 110.2966,205.8234 C109.7846,205.4724 109.3436,205.0384 108.8956,204.5894" id="Fill-31" fill="#45494E"></path>
                <path d="M253.6812,204.6407 C255.2182,203.8947 256.7102,203.1727 258.1332,202.5157 C255.9152,202.5197 254.7132,203.6147 253.6812,204.6407" id="Fill-33" fill="#45494E"></path>
                <path d="M177.2862,204.687 C176.2172,203.613 175.0062,202.396 172.6612,202.392 L172.6512,202.392 C170.3132,202.392 169.0992,203.604 168.0292,204.673 C167.0052,205.697 166.0382,206.663 164.1132,206.663 L164.1052,206.663 C162.9342,206.661 162.1202,206.301 161.4312,205.79 C161.7082,206.339 162.0092,206.876 162.3502,207.384 C162.8592,207.553 163.4312,207.662 164.1032,207.663 L164.1132,207.663 C166.4512,207.663 167.6652,206.451 168.7352,205.381 C169.7602,204.358 170.7262,203.392 172.6512,203.392 L172.6592,203.392 C174.5892,203.395 175.5552,204.366 176.5772,205.393 C176.9992,205.817 177.4472,206.261 177.9752,206.646 C178.2422,206.426 178.5052,206.202 178.7652,205.976 C178.2192,205.616 177.7562,205.16 177.2862,204.687" id="Fill-35" fill="#45494E"></path>
                <path d="M309.463,193.645 L309.453,193.645 C307.114,193.645 305.901,194.857 304.83,195.926 C303.807,196.95 302.839,197.916 300.914,197.916 L300.906,197.916 C298.977,197.913 298.011,196.943 296.988,195.916 C295.919,194.841 294.708,193.624 292.363,193.621 L292.354,193.621 C290.016,193.621 288.802,194.832 287.732,195.902 C286.707,196.925 285.74,197.891 283.816,197.891 L283.808,197.891 C281.878,197.888 280.912,196.918 279.89,195.891 C278.821,194.817 277.61,193.599 275.266,193.596 L275.256,193.596 C272.918,193.596 271.704,194.808 270.634,195.877 C269.609,196.901 268.643,197.867 266.718,197.867 L266.71,197.867 C264.78,197.864 263.815,196.893 262.792,195.866 C261.724,194.792 260.512,193.575 258.168,193.572 L258.158,193.572 C255.82,193.572 254.607,194.784 253.536,195.853 C252.513,196.876 251.546,197.842 249.622,197.842 L249.614,197.842 C247.685,197.839 246.719,196.869 245.697,195.842 C244.628,194.768 243.417,193.55 241.073,193.547 L241.064,193.547 C238.726,193.547 237.512,194.759 236.442,195.829 C235.418,196.851 234.451,197.817 232.527,197.817 L232.519,197.817 C230.589,197.814 229.623,196.844 228.601,195.817 C227.531,194.744 226.32,193.526 223.976,193.523 L223.965,193.523 C221.627,193.523 220.414,194.735 219.344,195.804 C218.319,196.827 217.353,197.792 215.429,197.792 L215.42,197.792 C213.49,197.79 212.525,196.82 211.502,195.792 C210.434,194.719 209.223,193.501 206.878,193.499 L206.867,193.499 C204.528,193.499 203.315,194.71 202.244,195.78 C201.22,196.802 200.253,197.768 198.328,197.768 L198.319,197.768 C196.388,197.765 195.422,196.795 194.4,195.768 C193.33,194.694 192.118,193.477 189.774,193.473 L189.764,193.473 C187.425,193.473 186.212,194.685 185.141,195.754 C184.117,196.778 183.15,197.744 181.225,197.744 L181.217,197.744 C179.286,197.741 178.321,196.771 177.299,195.744 C176.23,194.669 175.019,193.453 172.675,193.449 L172.665,193.449 C170.326,193.449 169.113,194.661 168.042,195.73 C167.019,196.753 166.051,197.719 164.126,197.719 L164.118,197.719 C162.188,197.716 161.222,196.747 160.199,195.719 C159.131,194.645 157.919,193.428 155.574,193.424 L155.565,193.424 C153.227,193.424 152.013,194.636 150.942,195.706 C149.919,196.729 148.952,197.695 147.027,197.695 L147.02,197.695 C145.089,197.692 144.124,196.722 143.102,195.695 C142.032,194.621 140.821,193.403 138.478,193.4 L138.468,193.4 C136.129,193.4 134.916,194.612 133.845,195.681 C132.821,196.705 131.854,197.67 129.929,197.67 L129.921,197.67 C127.991,197.667 127.026,196.697 126.004,195.67 C124.936,194.596 123.724,193.378 121.379,193.375 L121.369,193.375 C119.031,193.375 117.818,194.587 116.748,195.657 C115.725,196.68 114.758,197.646 112.833,197.646 L112.825,197.646 C110.896,197.643 109.931,196.672 108.908,195.646 C107.84,194.572 106.628,193.354 104.284,193.351 L104.275,193.351 C104.005,193.351 103.754,193.371 103.512,193.401 C103.556,193.728 103.606,194.061 103.653,194.391 C103.85,194.367 104.054,194.351 104.275,194.351 L104.282,194.351 C106.212,194.354 107.178,195.324 108.199,196.351 C109.269,197.425 110.48,198.642 112.823,198.646 L112.833,198.646 C115.171,198.646 116.385,197.434 117.455,196.365 C118.479,195.341 119.445,194.375 121.369,194.375 L121.377,194.375 C123.308,194.378 124.273,195.348 125.295,196.375 C126.364,197.45 127.575,198.666 129.919,198.67 L129.929,198.67 C132.268,198.67 133.481,197.458 134.552,196.389 C135.575,195.366 136.543,194.4 138.468,194.4 L138.476,194.4 C140.405,194.403 141.37,195.373 142.393,196.4 C143.462,197.474 144.673,198.692 147.018,198.695 L147.027,198.695 C149.365,198.695 150.579,197.483 151.65,196.414 C152.673,195.39 153.64,194.424 155.565,194.424 L155.572,194.424 C157.503,194.427 158.469,195.398 159.49,196.424 C160.56,197.499 161.772,198.716 164.116,198.719 L164.126,198.719 C166.465,198.719 167.678,197.507 168.749,196.438 C169.773,195.415 170.74,194.449 172.665,194.449 L172.673,194.449 C174.603,194.452 175.567,195.421 176.59,196.449 C177.658,197.523 178.87,198.741 181.215,198.744 L181.225,198.744 C183.564,198.744 184.776,197.532 185.848,196.462 C186.871,195.439 187.839,194.473 189.764,194.473 L189.772,194.473 C191.702,194.476 192.668,195.447 193.691,196.473 C194.76,197.547 195.972,198.765 198.317,198.768 L198.328,198.768 C200.666,198.768 201.88,197.556 202.95,196.487 C203.976,195.462 204.929,194.478 206.876,194.499 C208.806,194.501 209.772,195.471 210.794,196.499 C211.862,197.572 213.073,198.79 215.418,198.792 L215.429,198.792 C217.767,198.792 218.98,197.581 220.05,196.511 C221.074,195.489 222.041,194.523 223.965,194.523 L223.974,194.523 C225.903,194.526 226.869,195.496 227.892,196.523 C228.961,197.596 230.172,198.814 232.517,198.817 L232.527,198.817 C234.864,198.817 236.077,197.605 237.148,196.537 C238.172,195.513 239.139,194.547 241.064,194.547 L241.071,194.547 C243.001,194.55 243.966,195.52 244.988,196.547 C246.057,197.622 247.268,198.838 249.612,198.842 L249.622,198.842 C251.96,198.842 253.173,197.63 254.243,196.561 C255.267,195.538 256.234,194.572 258.158,194.572 L258.166,194.572 C260.096,194.575 261.062,195.544 262.083,196.572 C263.152,197.646 264.363,198.863 266.708,198.867 L266.718,198.867 C269.056,198.867 270.27,197.655 271.34,196.585 C272.364,195.562 273.331,194.596 275.256,194.596 L275.264,194.596 C277.193,194.599 278.159,195.569 279.182,196.596 C280.25,197.67 281.461,198.888 283.806,198.891 L283.816,198.891 C286.153,198.891 287.367,197.679 288.438,196.61 C289.462,195.586 290.429,194.621 292.354,194.621 L292.361,194.621 C294.291,194.624 295.257,195.593 296.279,196.621 C297.349,197.695 298.56,198.913 300.904,198.916 L300.914,198.916 C303.253,198.916 304.466,197.704 305.537,196.634 C306.561,195.611 307.528,194.645 309.453,194.645 L309.461,194.645 C309.628,194.645 309.779,194.662 309.933,194.676 C310.037,194.35 310.144,194.024 310.25,193.698 C310.002,193.665 309.741,193.645 309.463,193.645" id="Fill-37" fill="#45494E"></path>
                <path d="M102.9152,185.608 C103.3172,185.484 103.7642,185.408 104.2872,185.408 L104.2952,185.408 C106.2252,185.411 107.1902,186.38 108.2132,187.408 C109.2812,188.482 110.4922,189.699 112.8362,189.703 L112.8462,189.703 C115.1832,189.703 116.3972,188.491 117.4682,187.421 C118.4912,186.398 119.4582,185.432 121.3822,185.432 L121.3902,185.432 C123.3192,185.435 124.2852,186.405 125.3082,187.432 C126.3772,188.506 127.5882,189.724 129.9332,189.727 L129.9422,189.727 C132.2802,189.727 133.4942,188.515 134.5642,187.446 C135.5882,186.422 136.5562,185.457 138.4802,185.457 L138.4882,185.457 C140.4182,185.46 141.3842,186.429 142.4062,187.457 C143.4752,188.531 144.6852,189.749 147.0302,189.751 L147.0402,189.751 C149.3782,189.751 150.5922,188.54 151.6622,187.47 C152.6852,186.447 153.6532,185.481 155.5782,185.481 L155.5862,185.481 C157.5162,185.484 158.4812,186.455 159.5042,187.481 C160.5732,188.555 161.7842,189.773 164.1292,189.776 L164.1392,189.776 C166.4772,189.776 167.6902,188.564 168.7622,187.495 C169.7852,186.471 170.7532,185.505 172.6782,185.505 L172.6852,185.505 C174.6152,185.508 175.5802,186.478 176.6022,187.505 C177.6712,188.58 178.8832,189.797 181.2272,189.8 L181.2372,189.8 C183.5762,189.8 184.7892,188.588 185.8602,187.519 C186.8842,186.497 187.8502,185.531 189.7752,185.531 L189.7842,185.531 C191.7152,185.534 192.6822,186.503 193.7042,187.531 C194.7732,188.604 195.9842,189.822 198.3302,189.825 L198.3412,189.825 C200.6802,189.825 201.8922,188.613 202.9642,187.543 C203.9872,186.521 204.9552,185.555 206.8802,185.555 L206.8892,185.555 C208.8182,185.558 209.7842,186.528 210.8072,187.555 C211.8752,188.628 213.0862,189.846 215.4312,189.849 L215.4412,189.849 C217.7792,189.849 218.9932,188.637 220.0632,187.568 C221.0872,186.545 222.0552,185.58 223.9782,185.58 L223.9862,185.58 C225.9172,185.583 226.8822,186.552 227.9042,187.58 C228.9742,188.654 230.1842,189.871 232.5292,189.875 L232.5392,189.875 C234.8772,189.875 236.0912,188.663 237.1612,187.593 C238.1842,186.57 239.1512,185.604 241.0762,185.604 L241.0842,185.604 C243.0142,185.607 243.9792,186.577 245.0012,187.604 C246.0702,188.678 247.2812,189.895 249.6252,189.899 L249.6352,189.899 C251.9732,189.899 253.1852,188.687 254.2562,187.618 C255.2792,186.594 256.2462,185.628 258.1712,185.628 L258.1792,185.628 C260.1082,185.631 261.0742,186.601 262.0962,187.628 C263.1652,188.703 264.3762,189.919 266.7212,189.923 L266.7302,189.923 C269.0682,189.923 270.2822,188.711 271.3522,187.642 C272.3772,186.619 273.3442,185.653 275.2682,185.653 L275.2762,185.653 C277.2072,185.656 278.1722,186.626 279.1942,187.653 C280.2642,188.727 281.4752,189.945 283.8182,189.948 L283.8282,189.948 C286.1662,189.948 287.3802,188.736 288.4502,187.667 C289.4752,186.643 290.4412,185.677 292.3662,185.677 L292.3742,185.677 C294.3042,185.68 295.2692,186.651 296.2922,187.677 C297.3612,188.751 298.5722,189.969 300.9172,189.972 L300.9272,189.972 C303.2662,189.972 304.4782,188.76 305.5502,187.691 C306.5732,186.668 307.5412,185.702 309.4662,185.702 L309.4742,185.702 C310.8722,185.704 311.7632,186.217 312.5372,186.889 C312.6542,186.554 312.7732,186.22 312.8912,185.886 C312.0502,185.226 311.0062,184.704 309.4752,184.702 L309.4662,184.702 C307.1272,184.702 305.9142,185.914 304.8432,186.983 C303.8192,188.006 302.8512,188.972 300.9272,188.972 L300.9192,188.972 C298.9882,188.969 298.0232,188 297.0012,186.972 C295.9322,185.898 294.7202,184.681 292.3762,184.677 L292.3662,184.677 C290.0282,184.677 288.8142,185.889 287.7442,186.959 C286.7202,187.982 285.7532,188.948 283.8282,188.948 L283.8202,188.948 C281.8912,188.945 280.9262,187.975 279.9032,186.948 C278.8342,185.874 277.6232,184.656 275.2782,184.653 L275.2682,184.653 C272.9312,184.653 271.7172,185.865 270.6462,186.934 C269.6222,187.958 268.6552,188.923 266.7302,188.923 L266.7232,188.923 C264.7932,188.92 263.8272,187.95 262.8052,186.922 C261.7362,185.849 260.5242,184.631 258.1812,184.628 L258.1712,184.628 C255.8332,184.628 254.6192,185.84 253.5492,186.91 C252.5252,187.933 251.5582,188.899 249.6352,188.899 L249.6272,188.899 C247.6972,188.896 246.7322,187.925 245.7102,186.899 C244.6422,185.825 243.4302,184.607 241.0862,184.604 L241.0762,184.604 C238.7382,184.604 237.5242,185.816 236.4542,186.885 C235.4312,187.909 234.4642,188.875 232.5392,188.875 L232.5312,188.875 C230.6012,188.872 229.6362,187.901 228.6132,186.875 C227.5442,185.8 226.3332,184.583 223.9882,184.58 L223.9782,184.58 C221.6412,184.58 220.4282,185.792 219.3562,186.861 C218.3332,187.883 217.3662,188.849 215.4412,188.849 L215.4332,188.849 C213.5032,188.846 212.5372,187.876 211.5152,186.849 C210.4462,185.776 209.2352,184.558 206.8912,184.555 L206.8802,184.555 C204.5412,184.555 203.3282,185.767 202.2572,186.836 C201.2332,187.859 200.2662,188.825 198.3412,188.825 L198.3322,188.825 C196.4012,188.822 195.4342,187.852 194.4122,186.825 C193.3432,185.751 192.1322,184.534 189.7862,184.531 L189.7752,184.531 C187.4372,184.531 186.2242,185.743 185.1532,186.812 C184.1292,187.835 183.1622,188.8 181.2372,188.8 L181.2292,188.8 C179.2992,188.797 178.3342,187.828 177.3112,186.8 C176.2422,185.726 175.0312,184.509 172.6872,184.505 L172.6782,184.505 C170.3392,184.505 169.1262,185.717 168.0552,186.787 C167.0312,187.81 166.0632,188.776 164.1392,188.776 L164.1312,188.776 C162.2002,188.773 161.2352,187.803 160.2132,186.776 C159.1432,185.702 157.9332,184.485 155.5882,184.481 L155.5782,184.481 C153.2392,184.481 152.0252,185.693 150.9552,186.762 C149.9322,187.786 148.9652,188.751 147.0402,188.751 L147.0322,188.751 C145.1022,188.749 144.1372,187.779 143.1142,186.751 C142.0462,185.677 140.8352,184.46 138.4902,184.457 L138.4802,184.457 C136.1422,184.457 134.9282,185.668 133.8572,186.738 C132.8342,187.761 131.8672,188.727 129.9422,188.727 L129.9342,188.727 C128.0052,188.724 127.0392,187.754 126.0172,186.727 C124.9472,185.653 123.7362,184.435 121.3922,184.432 L121.3822,184.432 C119.0442,184.432 117.8312,185.644 116.7612,186.713 C115.7372,187.737 114.7702,188.703 112.8462,188.703 L112.8382,188.703 C110.9082,188.7 109.9432,187.73 108.9222,186.703 C107.8522,185.628 106.6422,184.411 104.2972,184.408 L104.2872,184.408 C103.7892,184.408 103.3512,184.472 102.9452,184.569 C102.9332,184.856 102.9102,185.146 102.9102,185.43 C102.9102,185.487 102.9152,185.55 102.9152,185.608" id="Fill-39" fill="#45494E"></path>
                <path d="M245.6837,204.7847 C244.6157,203.7117 243.4047,202.4937 241.0597,202.4907 L241.0487,202.4907 C238.7117,202.4907 237.4987,203.7027 236.4287,204.7717 C235.4047,205.7947 234.4377,206.7607 232.5137,206.7607 L232.5047,206.7607 C230.5757,206.7577 229.6107,205.7877 228.5877,204.7607 C227.5187,203.6867 226.3077,202.4697 223.9627,202.4667 L223.9527,202.4667 C223.9437,202.4667 223.9377,202.4677 223.9297,202.4677 C224.1157,202.7857 224.2647,203.1297 224.3857,203.4937 C226.0327,203.6307 226.9367,204.5187 227.8787,205.4667 C228.9487,206.5397 230.1597,207.7577 232.5027,207.7607 L232.5137,207.7607 C234.8517,207.7607 236.0647,206.5487 237.1347,205.4787 C238.1587,204.4567 239.1247,203.4907 241.0487,203.4907 L241.0577,203.4907 C242.9877,203.4937 243.9537,204.4637 244.9757,205.4907 C245.7167,206.2357 246.5357,207.0397 247.7447,207.4697 C248.2537,207.2357 248.7607,207.0007 249.2657,206.7627 C247.5627,206.6517 246.6427,205.7487 245.6837,204.7847" id="Fill-41" fill="#45494E"></path>
                <path d="M206.8653,202.4409 L206.8553,202.4409 C204.5163,202.4409 203.3023,203.6529 202.2313,204.7219 C201.2073,205.7459 200.2393,206.7119 198.3133,206.7119 L198.3053,206.7119 C196.3753,206.7089 195.4093,205.7389 194.3863,204.7119 C194.0223,204.3459 193.6373,203.9659 193.2013,203.6209 C193.4213,204.2489 193.6153,204.9019 193.8093,205.5469 C194.8483,206.5869 196.0533,207.7089 198.3033,207.7119 L198.3133,207.7119 C200.6523,207.7119 201.8663,206.4999 202.9373,205.4299 C203.9623,204.4069 204.9293,203.4409 206.8553,203.4409 L206.8633,203.4409 C208.3553,203.4429 209.2703,204.0249 210.0813,204.7639 C210.3503,204.5579 210.6203,204.3539 210.8903,204.1529 C209.9453,203.2649 208.7883,202.4439 206.8653,202.4409" id="Fill-43" fill="#45494E"></path>
                <path d="M318.0509,171.1104 L318.0429,171.1104 C316.1139,171.1074 315.1489,170.1374 314.1259,169.1104 C313.7809,168.7634 313.4149,168.4044 313.0069,168.0734 C311.5949,167.6964 310.1959,167.2954 308.8199,166.8594 C306.9159,167.0684 305.8309,168.1364 304.8689,169.0964 C303.8449,170.1194 302.8779,171.0854 300.9529,171.0854 L300.9449,171.0854 C299.0149,171.0834 298.0489,170.1124 297.0269,169.0854 C295.9569,168.0114 294.7459,166.7944 292.4019,166.7914 L292.3919,166.7914 C290.0539,166.7914 288.8399,168.0034 287.7699,169.0724 C286.7459,170.0954 285.7799,171.0614 283.8549,171.0614 L283.8469,171.0614 C281.9169,171.0584 280.9509,170.0884 279.9289,169.0614 C278.8599,167.9874 277.6489,166.7704 275.3039,166.7664 L275.2929,166.7664 C272.9559,166.7664 271.7419,167.9784 270.6719,169.0474 C269.6489,170.0704 268.6809,171.0364 266.7559,171.0364 L266.7479,171.0364 C264.8189,171.0334 263.8529,170.0634 262.8299,169.0364 C261.7619,167.9624 260.5509,166.7454 258.2059,166.7414 L258.1969,166.7414 C255.8589,166.7414 254.6459,167.9534 253.5749,169.0234 C252.5509,170.0464 251.5839,171.0124 249.6599,171.0124 L249.6529,171.0124 C247.7229,171.0094 246.7579,170.0394 245.7359,169.0124 C244.6669,167.9384 243.4549,166.7204 241.1119,166.7174 L241.1019,166.7174 C238.7639,166.7174 237.5499,167.9294 236.4799,168.9984 C235.4559,170.0214 234.4889,170.9874 232.5649,170.9874 L232.5569,170.9874 C230.6259,170.9854 229.6609,170.0144 228.6389,168.9874 C227.5699,167.9134 226.3589,166.6964 224.0139,166.6934 L224.0039,166.6934 C221.6659,166.6934 220.4519,167.9044 219.3819,168.9744 C218.3589,169.9974 217.3919,170.9634 215.4669,170.9634 L215.4589,170.9634 C213.5299,170.9604 212.5639,169.9904 211.5409,168.9634 C210.4719,167.8894 209.2609,166.6724 206.9159,166.6684 L206.9049,166.6684 C204.5679,166.6684 203.3539,167.8804 202.2819,168.9494 C201.2589,169.9724 200.2909,170.9384 198.3659,170.9384 L198.3579,170.9384 C196.4269,170.9354 195.4609,169.9654 194.4389,168.9384 C193.3689,167.8644 192.1569,166.6474 189.8129,166.6434 L189.8029,166.6434 C187.4639,166.6434 186.2499,167.8554 185.1789,168.9254 C184.1549,169.9474 183.1879,170.9144 181.2629,170.9144 L181.2549,170.9144 C179.3249,170.9114 178.3599,169.9414 177.3369,168.9144 C176.2689,167.8394 175.0579,166.6224 172.7129,166.6194 L172.7029,166.6194 C170.3639,166.6194 169.1519,167.8314 168.0799,168.9014 C167.0569,169.9234 166.0889,170.8894 164.1639,170.8894 L164.1559,170.8894 C162.2269,170.8864 161.2609,169.9164 160.2389,168.8894 C159.1689,167.8154 157.9579,166.5984 155.6139,166.5944 L155.6039,166.5944 C153.2659,166.5944 152.0519,167.8064 150.9819,168.8764 C149.9569,169.8994 148.9899,170.8644 147.0659,170.8644 L147.0579,170.8644 C145.1279,170.8624 144.1629,169.8924 143.1409,168.8654 C142.0719,167.7914 140.8609,166.5734 138.5159,166.5704 L138.5049,166.5704 C136.1679,166.5704 134.9539,167.7824 133.8839,168.8514 C132.8599,169.8744 131.8929,170.8404 129.9679,170.8404 L129.9599,170.8404 C128.0299,170.8384 127.0649,169.8674 126.0419,168.8404 C124.9729,167.7664 123.7619,166.5494 121.4179,166.5464 L121.4069,166.5464 C119.0699,166.5464 117.8569,167.7574 116.7859,168.8274 C115.7629,169.8504 114.7959,170.8164 112.8719,170.8164 L112.8639,170.8164 C110.9349,170.8134 109.9699,169.8424 108.9469,168.8164 C108.8889,168.7574 108.8279,168.6974 108.7689,168.6384 C108.5809,168.9224 108.3889,169.2064 108.2089,169.4914 C108.2189,169.5014 108.2289,169.5114 108.2389,169.5214 C109.3069,170.5954 110.5189,171.8124 112.8629,171.8164 L112.8719,171.8164 C115.2099,171.8164 116.4229,170.6044 117.4929,169.5344 C118.5169,168.5124 119.4839,167.5464 121.4079,167.5464 L121.4159,167.5464 C123.3459,167.5484 124.3109,168.5184 125.3329,169.5454 C126.4029,170.6194 127.6139,171.8374 129.9579,171.8404 L129.9679,171.8404 C132.3059,171.8404 133.5199,170.6284 134.5899,169.5594 C135.6139,168.5364 136.5809,167.5704 138.5059,167.5704 L138.5139,167.5704 C140.4449,167.5724 141.4089,168.5434 142.4319,169.5704 C143.5009,170.6444 144.7119,171.8614 147.0559,171.8644 L147.0669,171.8644 C149.4039,171.8644 150.6169,170.6524 151.6879,169.5834 C152.7119,168.5604 153.6789,167.5944 155.6039,167.5944 L155.6119,167.5944 C157.5409,167.5974 158.5069,168.5684 159.5299,169.5944 C160.5989,170.6694 161.8099,171.8864 164.1549,171.8894 L164.1639,171.8894 C166.5029,171.8894 167.7159,170.6774 168.7869,169.6084 C169.8109,168.5854 170.7789,167.6194 172.7029,167.6194 L172.7109,167.6194 C174.6409,167.6224 175.6069,168.5924 176.6289,169.6194 C177.6969,170.6934 178.9079,171.9104 181.2529,171.9144 L181.2629,171.9144 C183.6019,171.9144 184.8149,170.7024 185.8859,169.6324 C186.9099,168.6104 187.8769,167.6434 189.8029,167.6434 L189.8109,167.6434 C191.7409,167.6464 192.7069,168.6164 193.7299,169.6434 C194.7989,170.7174 196.0109,171.9354 198.3559,171.9384 L198.3649,171.9384 C200.7039,171.9384 201.9179,170.7264 202.9889,169.6574 C204.0139,168.6344 204.9809,167.6684 206.9059,167.6684 L206.9139,167.6684 C208.8439,167.6714 209.8099,168.6414 210.8319,169.6684 C211.9019,170.7424 213.1129,171.9594 215.4569,171.9634 L215.4669,171.9634 C217.8049,171.9634 219.0189,170.7514 220.0889,169.6814 C221.1129,168.6584 222.0789,167.6934 224.0039,167.6934 L224.0119,167.6934 C225.9419,167.6954 226.9069,168.6664 227.9299,169.6934 C228.9989,170.7674 230.2099,171.9844 232.5549,171.9874 L232.5659,171.9874 C234.9039,171.9874 236.1159,170.7754 237.1869,169.7064 C238.2099,168.6834 239.1769,167.7174 241.1019,167.7174 L241.1099,167.7174 C243.0389,167.7204 244.0039,168.6904 245.0269,169.7174 C246.0949,170.7914 247.3069,172.0084 249.6509,172.0124 L249.6599,172.0124 C251.9979,172.0124 253.2109,170.8004 254.2809,169.7304 C255.3059,168.7084 256.2729,167.7414 258.1969,167.7414 L258.2039,167.7414 C260.1339,167.7444 261.0999,168.7144 262.1219,169.7414 C263.1909,170.8164 264.4019,172.0334 266.7459,172.0364 L266.7559,172.0364 C269.0949,172.0364 270.3079,170.8244 271.3789,169.7554 C272.4029,168.7324 273.3689,167.7664 275.2929,167.7664 L275.3019,167.7664 C277.2319,167.7694 278.1969,168.7394 279.2199,169.7664 C280.2889,170.8404 281.4999,172.0574 283.8449,172.0614 L283.8549,172.0614 C286.1929,172.0614 287.4059,170.8494 288.4769,169.7794 C289.4999,168.7564 290.4669,167.7914 292.3919,167.7914 L292.3999,167.7914 C294.3289,167.7934 295.2949,168.7634 296.3179,169.7914 C297.3869,170.8644 298.5979,172.0824 300.9429,172.0854 C303.3229,172.1244 304.5029,170.8754 305.5749,169.8044 C306.5999,168.7814 307.5669,167.8154 309.4909,167.8154 L309.4989,167.8154 C311.4299,167.8184 312.3949,168.7884 313.4169,169.8164 C314.4869,170.8894 315.6969,172.1074 318.0409,172.1104 L318.0509,172.1104 C318.1189,172.1104 318.1769,172.0994 318.2429,172.0974 C318.3919,171.7524 318.5429,171.4114 318.6929,171.0694 C318.4909,171.0944 318.2789,171.1104 318.0509,171.1104" id="Fill-45" fill="#45494E"></path>
                <path d="M309.4884,175.7583 L309.4784,175.7583 C307.1394,175.7583 305.9264,176.9703 304.8554,178.0393 C303.8324,179.0633 302.8644,180.0293 300.9394,180.0293 L300.9314,180.0293 C299.0014,180.0263 298.0364,179.0563 297.0134,178.0293 C295.9444,176.9543 294.7334,175.7373 292.3884,175.7343 L292.3794,175.7343 C290.0414,175.7343 288.8274,176.9453 287.7574,178.0153 C286.7334,179.0383 285.7654,180.0043 283.8414,180.0043 L283.8334,180.0043 C281.9034,180.0013 280.9374,179.0313 279.9164,178.0043 C278.8464,176.9303 277.6354,175.7133 275.2914,175.7093 L275.2814,175.7093 C272.9434,175.7093 271.7294,176.9213 270.6594,177.9903 C269.6354,179.0143 268.6684,179.9803 266.7434,179.9803 L266.7354,179.9803 C264.8054,179.9773 263.8404,179.0073 262.8174,177.9803 C261.7494,176.9053 260.5384,175.6883 258.1934,175.6853 L258.1834,175.6853 C255.8454,175.6853 254.6334,176.8973 253.5624,177.9663 C252.5384,178.9893 251.5714,179.9553 249.6474,179.9553 L249.6394,179.9553 C247.7104,179.9523 246.7454,178.9823 245.7224,177.9553 C244.6544,176.8813 243.4424,175.6633 241.0984,175.6603 L241.0894,175.6603 C238.7514,175.6603 237.5374,176.8723 236.4674,177.9423 C235.4434,178.9653 234.4764,179.9313 232.5514,179.9313 L232.5444,179.9313 C230.6144,179.9283 229.6484,178.9573 228.6264,177.9313 C227.5564,176.8573 226.3454,175.6393 224.0014,175.6363 L223.9914,175.6363 C221.6534,175.6363 220.4394,176.8483 219.3694,177.9173 C218.3454,178.9413 217.3784,179.9063 215.4534,179.9063 L215.4454,179.9063 C213.5154,179.9043 212.5504,178.9333 211.5284,177.9063 C210.4604,176.8323 209.2484,175.6143 206.9034,175.6123 L206.8924,175.6123 C204.5534,175.6123 203.3414,176.8233 202.2694,177.8933 C201.2464,178.9153 200.2784,179.8813 198.3534,179.8813 L198.3444,179.8813 C196.4144,179.8783 195.4474,178.9083 194.4254,177.8813 C193.3554,176.8083 192.1444,175.5903 189.7994,175.5873 L189.7884,175.5873 C187.4504,175.5873 186.2364,176.7993 185.1664,177.8683 C184.1424,178.8913 183.1754,179.8573 181.2514,179.8573 L181.2424,179.8573 C179.3124,179.8543 178.3464,178.8843 177.3244,177.8573 C176.2564,176.7833 175.0454,175.5663 172.7004,175.5633 L172.6894,175.5633 C170.3514,175.5633 169.1374,176.7753 168.0674,177.8443 C167.0434,178.8663 166.0764,179.8323 164.1514,179.8323 L164.1434,179.8323 C162.2134,179.8293 161.2484,178.8603 160.2254,177.8323 C159.1564,176.7583 157.9444,175.5413 155.6004,175.5373 L155.5914,175.5373 C153.2534,175.5373 152.0394,176.7493 150.9684,177.8193 C149.9444,178.8423 148.9774,179.8083 147.0524,179.8083 L147.0454,179.8083 C145.1144,179.8053 144.1494,178.8353 143.1274,177.8083 C142.0584,176.7343 140.8474,175.5173 138.5034,175.5133 L138.4934,175.5133 C136.1544,175.5133 134.9404,176.7253 133.8704,177.7943 C132.8464,178.8183 131.8804,179.7833 129.9554,179.7833 L129.9474,179.7833 C128.0174,179.7803 127.0514,178.8113 126.0294,177.7833 C124.9604,176.7093 123.7494,175.4913 121.4044,175.4883 L121.3944,175.4883 C119.0564,175.4883 117.8434,176.7003 116.7734,177.7703 C115.7504,178.7933 114.7834,179.7593 112.8594,179.7593 L112.8514,179.7593 C110.9224,179.7563 109.9564,178.7863 108.9334,177.7593 C107.9884,176.8083 106.9274,175.7493 105.0714,175.5153 C104.9384,175.8403 104.8074,176.1653 104.6854,176.4893 C106.3614,176.6123 107.2744,177.5083 108.2244,178.4643 C109.2944,179.5383 110.5054,180.7563 112.8494,180.7593 L112.8594,180.7593 C115.1974,180.7593 116.4104,179.5473 117.4804,178.4783 C118.5044,177.4543 119.4704,176.4883 121.3944,176.4883 L121.4024,176.4883 C123.3324,176.4913 124.2984,177.4613 125.3204,178.4883 C126.3894,179.5633 127.6004,180.7803 129.9454,180.7833 L129.9554,180.7833 C132.2934,180.7833 133.5074,179.5713 134.5774,178.5023 C135.6004,177.4793 136.5684,176.5133 138.4934,176.5133 L138.5014,176.5133 C140.4304,176.5163 141.3964,177.4873 142.4184,178.5133 C143.4874,179.5873 144.6984,180.8053 147.0434,180.8083 L147.0524,180.8083 C149.3904,180.8083 150.6044,179.5963 151.6754,178.5273 C152.6994,177.5033 153.6664,176.5373 155.5914,176.5373 L155.5984,176.5373 C157.5284,176.5403 158.4944,177.5113 159.5164,178.5373 C160.5864,179.6123 161.7974,180.8293 164.1414,180.8323 L164.1514,180.8323 C166.4904,180.8323 167.7034,179.6203 168.7744,178.5513 C169.7984,177.5293 170.7644,176.5633 172.6894,176.5633 L172.6984,176.5633 C174.6284,176.5663 175.5934,177.5353 176.6164,178.5633 C177.6844,179.6363 178.8954,180.8543 181.2404,180.8573 L181.2514,180.8573 C183.5894,180.8573 184.8024,179.6453 185.8734,178.5753 C186.8964,177.5533 187.8634,176.5873 189.7884,176.5873 L189.7974,176.5873 C191.7274,176.5903 192.6944,177.5603 193.7174,178.5873 C194.7864,179.6603 195.9974,180.8783 198.3424,180.8813 L198.3534,180.8813 C200.6924,180.8813 201.9054,179.6693 202.9764,178.6003 C204.0004,177.5773 204.9674,176.6123 206.8924,176.6123 L206.9014,176.6123 C208.8324,176.6143 209.7974,177.5843 210.8194,178.6123 C211.8884,179.6863 213.0994,180.9033 215.4434,180.9063 L215.4534,180.9063 C217.7924,180.9063 219.0064,179.6953 220.0764,178.6253 C221.0994,177.6023 222.0664,176.6363 223.9914,176.6363 L223.9994,176.6363 C225.9294,176.6393 226.8944,177.6093 227.9174,178.6363 C228.9864,179.7103 230.1984,180.9273 232.5424,180.9313 L232.5514,180.9313 C234.8894,180.9313 236.1034,179.7193 237.1744,178.6503 C238.1974,177.6263 239.1644,176.6603 241.0894,176.6603 L241.0964,176.6603 C243.0264,176.6633 243.9924,177.6333 245.0134,178.6603 C246.0834,179.7353 247.2944,180.9513 249.6374,180.9553 L249.6474,180.9553 C251.9854,180.9553 253.1984,179.7433 254.2684,178.6743 C255.2934,177.6513 256.2594,176.6853 258.1834,176.6853 L258.1914,176.6853 C260.1214,176.6883 261.0874,177.6573 262.1094,178.6853 C263.1774,179.7593 264.3884,180.9773 266.7334,180.9803 L266.7434,180.9803 C269.0824,180.9803 270.2964,179.7683 271.3664,178.6983 C272.3894,177.6753 273.3564,176.7093 275.2814,176.7093 L275.2894,176.7093 C277.2184,176.7123 278.1844,177.6833 279.2074,178.7103 C280.2754,179.7833 281.4874,181.0013 283.8314,181.0043 L283.8414,181.0043 C286.1794,181.0043 287.3934,179.7923 288.4644,178.7233 C289.4874,177.6993 290.4544,176.7343 292.3794,176.7343 L292.3864,176.7343 C294.3164,176.7373 295.2824,177.7073 296.3044,178.7343 C297.3744,179.8083 298.5854,181.0263 300.9294,181.0293 L300.9394,181.0293 C303.2784,181.0293 304.4914,179.8173 305.5624,178.7473 C306.5864,177.7243 307.5534,176.7583 309.4784,176.7583 L309.4864,176.7583 C311.4164,176.7613 312.3824,177.7323 313.4044,178.7593 C313.8744,179.2313 314.3784,179.7263 314.9884,180.1383 C315.1104,179.8163 315.2364,179.5023 315.3594,179.1823 C314.9124,178.8513 314.5154,178.4583 314.1134,178.0533 C313.0444,176.9793 311.8334,175.7623 309.4884,175.7583" id="Fill-47" fill="#45494E"></path>
                <path d="M121.421,158.6026 L121.429,158.6026 C123.358,158.6046 124.324,159.5756 125.347,160.6026 C126.415,161.6766 127.626,162.8936 129.971,162.8966 C132.288,162.9016 133.53,161.6866 134.603,160.6156 C135.627,159.5926 136.594,158.6266 138.519,158.6266 L138.526,158.6266 C140.456,158.6296 141.422,159.6006 142.444,160.6266 C143.514,161.7016 144.725,162.9176 147.068,162.9216 L147.079,162.9216 C149.417,162.9216 150.631,161.7096 151.701,160.6406 C152.725,159.6176 153.692,158.6516 155.616,158.6516 L155.624,158.6516 C157.554,158.6546 158.52,159.6246 159.542,160.6516 C160.611,161.7256 161.822,162.9426 164.167,162.9466 L164.177,162.9466 C166.516,162.9466 167.729,161.7346 168.8,160.6656 C169.823,159.6426 170.791,158.6756 172.716,158.6756 L172.724,158.6756 C174.653,158.6786 175.619,159.6486 176.642,160.6756 C177.71,161.7496 178.921,162.9676 181.266,162.9706 L181.276,162.9706 C183.614,162.9706 184.828,161.7586 185.899,160.6896 C186.923,159.6666 187.891,158.7006 189.816,158.7006 L189.823,158.7006 C191.754,158.7036 192.72,159.6736 193.742,160.7006 C194.812,161.7746 196.024,162.9916 198.368,162.9956 L198.379,162.9956 C200.717,162.9956 201.931,161.7836 203.002,160.7136 C204.025,159.6906 204.993,158.7256 206.919,158.7256 L206.927,158.7256 C208.857,158.7276 209.822,159.6976 210.845,160.7256 C211.914,161.7986 213.125,163.0166 215.47,163.0196 L215.48,163.0196 C217.817,163.0196 219.031,161.8076 220.102,160.7386 C221.125,159.7156 222.093,158.7496 224.018,158.7496 L224.025,158.7496 C225.955,158.7526 226.921,159.7226 227.943,160.7496 C229.012,161.8236 230.223,163.0406 232.567,163.0446 L232.577,163.0446 C234.915,163.0446 236.129,161.8326 237.199,160.7626 C238.223,159.7406 239.19,158.7736 241.114,158.7736 L241.122,158.7736 C243.052,158.7766 244.017,159.7476 245.039,160.7736 C246.108,161.8486 247.319,163.0656 249.663,163.0686 L249.673,163.0686 C252.011,163.0686 253.225,161.8566 254.295,160.7876 C255.318,159.7646 256.285,158.7986 258.209,158.7986 L258.217,158.7986 C260.148,158.8016 261.112,159.7716 262.135,160.7986 C263.204,161.8736 264.415,163.0896 266.759,163.0936 L266.769,163.0936 C269.108,163.0936 270.321,161.8816 271.392,160.8116 C272.415,159.7896 273.383,158.8236 275.308,158.8236 L275.316,158.8236 C277.245,158.8256 278.21,159.7956 279.233,160.8226 C280.302,161.8966 281.513,163.1146 283.858,163.1176 L283.867,163.1176 C286.205,163.1176 287.419,161.9056 288.489,160.8366 C289.162,160.1646 289.815,159.5226 290.727,159.1576 C290.364,158.9646 289.999,158.7716 289.641,158.5756 C288.901,159.0136 288.323,159.5896 287.782,160.1286 C286.759,161.1516 285.792,162.1176 283.867,162.1176 L283.859,162.1176 C281.929,162.1156 280.964,161.1446 279.942,160.1176 C278.872,159.0436 277.661,157.8266 275.317,157.8236 L275.308,157.8236 C272.969,157.8236 271.755,159.0356 270.685,160.1046 C269.661,161.1276 268.693,162.0936 266.769,162.0936 L266.761,162.0936 C264.831,162.0906 263.866,161.1206 262.844,160.0936 C261.775,159.0196 260.564,157.8026 258.219,157.7986 L258.208,157.7986 C255.871,157.7986 254.658,159.0106 253.588,160.0806 C252.565,161.1026 251.598,162.0686 249.673,162.0686 L249.665,162.0686 C247.735,162.0656 246.771,161.0956 245.748,160.0686 C244.68,158.9946 243.468,157.7776 241.124,157.7736 L241.114,157.7736 C238.776,157.7736 237.563,158.9856 236.492,160.0556 C235.469,161.0786 234.502,162.0446 232.577,162.0446 L232.569,162.0446 C230.64,162.0416 229.674,161.0716 228.651,160.0446 C227.583,158.9706 226.372,157.7526 224.027,157.7496 L224.018,157.7496 C221.679,157.7496 220.466,158.9616 219.395,160.0316 C218.371,161.0536 217.404,162.0196 215.48,162.0196 L215.472,162.0196 C213.542,162.0176 212.576,161.0466 211.554,160.0196 C210.484,158.9456 209.274,157.7286 206.929,157.7256 L206.919,157.7256 C204.58,157.7256 203.366,158.9366 202.295,160.0066 C201.271,161.0286 200.304,161.9956 198.378,161.9956 L198.37,161.9956 C196.44,161.9926 195.474,161.0226 194.451,159.9956 C193.382,158.9216 192.17,157.7046 189.825,157.7006 L189.815,157.7006 C187.477,157.7006 186.263,158.9126 185.192,159.9816 C184.168,161.0046 183.201,161.9706 181.276,161.9706 L181.268,161.9706 C179.338,161.9676 178.372,160.9976 177.35,159.9706 C176.281,158.8966 175.07,157.6796 172.726,157.6756 L172.716,157.6756 C170.377,157.6756 169.164,158.8876 168.093,159.9576 C167.069,160.9796 166.102,161.9466 164.177,161.9466 L164.169,161.9466 C162.239,161.9436 161.274,160.9736 160.251,159.9466 C159.182,158.8726 157.971,157.6546 155.626,157.6516 L155.616,157.6516 C153.278,157.6516 152.065,158.8636 150.994,159.9326 C149.971,160.9556 149.004,161.9216 147.078,161.9216 L147.07,161.9216 C145.141,161.9186 144.176,160.9486 143.153,159.9216 C142.084,158.8476 140.873,157.6306 138.528,157.6266 L138.519,157.6266 C136.181,157.6266 134.967,158.8386 133.897,159.9086 C132.872,160.9316 131.905,161.8966 129.981,161.8966 L129.973,161.8966 C128.043,161.8946 127.077,160.9246 126.055,159.8966 C124.986,158.8236 123.775,157.6056 121.431,157.6026 L121.42,157.6026 C119.082,157.6026 117.869,158.8146 116.799,159.8846 C116.09,160.5926 115.401,161.2656 114.41,161.6176 C114.02,162.0256 113.631,162.4336 113.258,162.8486 C115.347,162.7236 116.496,161.6006 117.506,160.5916 C118.529,159.5686 119.496,158.6026 121.421,158.6026" id="Fill-49" fill="#45494E"></path>
                <path d="M266.7716,154.1499 L266.7816,154.1499 C269.1206,154.1499 270.3346,152.9379 271.4046,151.8689 C272.4276,150.8459 273.3956,149.8799 275.3196,149.8799 L275.3286,149.8799 C275.5536,149.8799 275.7636,149.8959 275.9636,149.9219 C275.5036,149.5899 275.0536,149.2589 274.6046,148.9269 C272.7266,149.1469 271.6516,150.2079 270.6976,151.1609 C269.6736,152.1839 268.7066,153.1499 266.7816,153.1499 L266.7736,153.1499 C264.8436,153.1479 263.8786,152.1769 262.8566,151.1499 C262.7676,151.0609 262.6756,150.9709 262.5846,150.8799 C262.2676,151.0419 261.9516,151.2029 261.6386,151.3569 C261.8096,151.5189 261.9786,151.6859 262.1476,151.8559 C263.2166,152.9299 264.4276,154.1469 266.7716,154.1499" id="Fill-51" fill="#45494E"></path>
                <path d="M215.4825,154.0767 L215.4925,154.0767 C217.2185,154.0767 218.3305,153.4147 219.2265,152.6377 C218.7605,152.5717 218.2935,152.5057 217.8295,152.4377 C217.2105,152.8217 216.4775,153.0767 215.4925,153.0767 L215.4845,153.0767 C213.8445,153.0737 212.9025,152.3717 212.0285,151.5317 C211.4535,151.4377 210.8815,151.3417 210.3095,151.2467 C210.4935,151.4207 210.6755,151.5987 210.8575,151.7817 C211.9265,152.8557 213.1375,154.0737 215.4825,154.0767" id="Fill-53" fill="#45494E"></path>
                <path d="M147.1046,145.0352 C148.5346,145.0352 149.5406,144.5802 150.3546,143.9832 C148.6106,144.1402 146.8916,144.3822 145.2006,144.7052 C145.7436,144.9042 146.3586,145.0342 147.0946,145.0352 L147.1046,145.0352 Z" id="Fill-55" fill="#45494E"></path>
                <path d="M129.9933,153.9536 C132.3323,153.9536 133.5463,152.7416 134.6163,151.6726 C135.6393,150.6496 136.6073,149.6836 138.5313,149.6836 L138.5393,149.6836 C140.4693,149.6866 141.4343,150.6566 142.4573,151.6836 C143.5263,152.7576 144.7373,153.9746 147.0823,153.9786 L147.0923,153.9786 C149.4303,153.9786 150.6433,152.7666 151.7143,151.6966 C152.7373,150.6746 153.7043,149.7076 155.6293,149.7076 L155.6373,149.7076 C157.5663,149.7106 158.5323,150.6816 159.5553,151.7076 C160.6243,152.7826 161.8353,153.9996 164.1803,154.0026 L164.1893,154.0026 C166.5283,154.0026 167.7423,152.7906 168.8123,151.7216 C169.8373,150.6986 170.8043,149.7326 172.7283,149.7326 L172.7363,149.7326 C174.6673,149.7356 175.6323,150.7056 176.6543,151.7326 C177.7233,152.8076 178.9343,154.0236 181.2783,154.0276 L181.2893,154.0276 C183.6273,154.0276 184.8413,152.8156 185.9113,151.7456 C186.9353,150.7236 187.9023,149.7576 189.8273,149.7576 L189.8363,149.7576 C191.7663,149.7596 192.7323,150.7296 193.7553,151.7576 C194.8243,152.8306 196.0363,154.0486 198.3813,154.0516 L198.3903,154.0516 C200.7293,154.0516 201.9433,152.8396 203.0143,151.7706 C203.5733,151.2136 204.1203,150.6786 204.8083,150.3026 C204.3383,150.2196 203.8693,150.1366 203.4013,150.0536 C203.0033,150.3766 202.6463,150.7256 202.3073,151.0626 C201.2843,152.0856 200.3163,153.0516 198.3903,153.0516 L198.3833,153.0516 C196.4523,153.0496 195.4863,152.0786 194.4643,151.0516 C193.3943,149.9776 192.1823,148.7606 189.8383,148.7576 L189.8273,148.7576 C187.4893,148.7576 186.2753,149.9696 185.2053,151.0386 C184.1813,152.0606 183.2133,153.0276 181.2893,153.0276 L181.2803,153.0276 C179.3503,153.0246 178.3863,152.0546 177.3633,151.0276 C176.2943,149.9536 175.0833,148.7366 172.7383,148.7326 L172.7283,148.7326 C170.3903,148.7326 169.1773,149.9446 168.1063,151.0136 C167.0823,152.0366 166.1143,153.0026 164.1893,153.0026 L164.1813,153.0026 C162.2523,152.9996 161.2863,152.0296 160.2643,151.0026 C159.1943,149.9286 157.9833,148.7116 155.6393,148.7076 L155.6293,148.7076 C153.2913,148.7076 152.0773,149.9196 151.0073,150.9896 C149.9833,152.0126 149.0163,152.9786 147.0923,152.9786 L147.0843,152.9786 C145.1543,152.9756 144.1883,152.0056 143.1663,150.9786 C142.0973,149.9046 140.8863,148.6866 138.5413,148.6836 L138.5313,148.6836 C136.1933,148.6836 134.9793,149.8956 133.9093,150.9646 C132.8863,151.9876 131.9193,152.9536 129.9933,152.9536 L129.9853,152.9536 C128.5593,152.9516 127.6613,152.4206 126.8763,151.7296 C126.5773,151.9076 126.2723,152.0786 125.9783,152.2616 C126.9193,153.1416 128.0733,153.9506 129.9833,153.9536 L129.9933,153.9536 Z" id="Fill-57" fill="#45494E"></path>
                <path d="M164.2032,145.0596 C165.3382,145.0596 166.2052,144.7706 166.9222,144.3546 C164.8802,144.1676 162.8492,144.0186 160.8292,143.9186 C161.6612,144.5576 162.6952,145.0576 164.1932,145.0596 L164.2032,145.0596 Z" id="Fill-59" fill="#45494E"></path>
                <path d="M322.0743,180.9185 L321.9603,180.9185 C276.7293,180.8535 235.6303,136.7685 235.2203,136.3225 C234.8463,135.9165 234.8723,135.2835 235.2783,134.9095 C235.6853,134.5375 236.3173,134.5615 236.6913,134.9685 C236.7933,135.0785 246.9983,146.0915 262.5743,156.9625 C276.8973,166.9605 298.8273,178.8855 321.9623,178.9185 L322.0743,178.9185 C338.9313,178.9185 351.4823,173.4105 359.0503,168.7825 C367.2833,163.7485 371.5673,158.6385 371.6093,158.5875 C371.9623,158.1635 372.5933,158.1035 373.0173,158.4555 C373.4423,158.8075 373.5023,159.4375 373.1503,159.8625 C372.9763,160.0735 355.3563,180.9185 322.0743,180.9185" id="Fill-61" fill="#282C35"></path>
                <path d="M213.9608,231.9808 C213.9608,231.9808 223.0708,197.5948 235.8448,184.8218 C235.8448,184.8218 194.6858,169.8178 200.1598,144.4738 L233.6148,150.3538 C233.6148,150.3538 264.0278,175.9008 261.9998,181.1718 C259.9728,186.4438 238.8858,213.2068 234.6278,222.3308 C234.6278,222.3308 236.3518,230.4408 246.1778,235.6268 C246.1778,235.6268 222.6158,233.5188 213.9608,231.9808" id="Fill-63" fill="#D2D6DF"></path>
                <path d="M200.1601,144.4738 C207.0541,124.1988 227.9371,97.2318 255.5121,88.9198 L273.1511,94.5968 C273.1511,94.5968 267.2711,132.3088 233.6141,150.3538 L200.1601,144.4738 Z" id="Fill-65" fill="#D2D6DF"></path>
                <path d="M260.4589,184.0107 L247.5819,184.0107 C247.2199,184.0107 246.8849,184.1997 246.7069,184.5137 C238.8739,198.3417 234.6279,222.3307 234.6279,222.3307 C234.6279,222.3307 258.9179,186.8497 260.4589,184.0107" id="Fill-67" fill="#282C35"></path>
                <path d="M250.5202,90.6522 L255.5122,88.9192 L273.2732,94.2492 C273.2732,94.2492 270.2452,117.3142 262.8492,125.8372 C262.4182,126.3332 261.6052,126.1482 261.4102,125.5212 L250.5202,90.6522 Z" id="Fill-69" fill="#6D717A"></path>
                <path d="M228.0178,64.4389 C228.3218,65.0319 229.1588,65.0629 229.5058,64.4939 C230.9628,62.1099 234.4118,57.2299 238.2448,57.2299 C243.3168,57.2299 245.1758,67.5409 250.1628,67.5409 C255.1498,67.5409 262.2058,50.6369 267.0448,50.6369 C271.8848,50.6369 271.8818,56.7379 271.8818,56.7379 L275.2868,57.4709 C275.2868,57.4709 274.8188,42.6919 266.3058,42.6919 C259.2068,42.6919 255.1498,51.6509 250.1628,51.6509 C245.1758,51.6509 246.6968,37.7899 237.2308,37.7899 C228.1348,37.7899 222.3118,53.3249 228.0178,64.4389" id="Fill-71" fill="#F6682F"></path>
                <path d="M176.0591,326.3859 L189.7471,326.3859 C190.0491,326.3859 190.3361,326.5229 190.5251,326.7589 L200.7681,339.4719 L181.5071,339.4719 L176.0591,326.3859 Z" id="Fill-73" fill="#282C35"></path>
                <path d="M225.7471,107.4449 L252.0341,116.4969 C252.0341,116.4969 258.7401,94.8249 251.7121,93.8419 C242.2841,92.5239 225.7471,107.4449 225.7471,107.4449" id="Fill-75" fill="#282C35"></path>
                <path d="M247.5436,114.6459 C247.5436,114.6459 219.4216,140.4529 202.5936,146.7209 C191.2386,152.3809 183.1286,143.3079 191.6446,135.1979 C200.1606,127.0879 223.7476,108.4449 223.7476,108.4449 L247.5436,114.6459 Z" id="Fill-77" fill="#9B9EA7"></path>
                <path d="M217.5549,220.3161 C217.5549,220.3161 223.3759,228.4641 223.6039,228.3881 C223.8319,228.3121 235.1329,218.4751 234.6279,222.3311 C236.5979,230.1041 246.1779,233.1041 246.1779,235.6271 C246.1779,235.6271 235.0349,235.6491 213.9609,231.9811 C213.9609,231.9811 216.6249,223.0001 217.5549,220.3161" id="Fill-79" fill="#9B9EA7"></path>
                <path d="M329.2563,89.7746 L327.1843,91.4486 C326.7553,91.7956 326.1253,91.7286 325.7783,91.2986 L316.2113,79.4576 L319.8393,76.5266 L329.4053,88.3686 C329.7533,88.7976 329.6863,89.4276 329.2563,89.7746" id="Fill-81" fill="#9B9EA7"></path>
                <path d="M321.1126,78.1693 C321.1126,78.1693 329.6546,80.5653 326.0216,84.7483 L324.1476,87.0533 C324.1476,87.0533 319.3026,83.7263 321.8716,78.9783 L321.1126,78.1693 Z" id="Fill-83" fill="#45494E"></path>
                <path d="M279.3384,59.0072 C279.2564,58.6522 278.9884,58.3692 278.6374,58.2692 L274.8404,57.1912 L274.0564,56.9682 L270.2604,55.8902 C269.9094,55.7902 269.5324,55.8892 269.2754,56.1482 L258.6144,66.9312 C258.4614,67.0862 258.3624,67.2872 258.3344,67.5032 L255.5114,88.9192 L273.2734,94.2492 L282.8144,74.1122 L279.3384,59.0072 Z" id="Fill-85" fill="#9B9EA7"></path>
                <path d="M280.6303,64.6214 L276.3733,63.2704" id="Fill-87" fill="#6D717A"></path>
                <polygon id="Fill-89" fill="#6D717A" points="278.5019 71.799 280.3199 63.27 282.8139 74.112 273.2729 94.249"></polygon>
                <path d="M273.8453,73.0766 L282.1053,75.6086 L282.8143,74.1116 L282.5533,72.9786 L274.6133,70.5406 C274.0803,70.3766 273.5153,70.6816 273.3593,71.2176 L273.1783,71.8406 C273.0253,72.3656 273.3223,72.9166 273.8453,73.0766" id="Fill-91" fill="#282C35"></path>
                <path d="M211.4961,75.9668 C205.6131,80.3818 147.8271,124.8678 147.0451,169.4178 C186.9051,189.3438 253.0971,158.6938 259.7161,155.5298 C260.0481,155.3708 260.2701,155.0458 260.2901,154.6778 C262.0161,123.1818 234.4811,86.1078 212.5161,75.8548 C212.1811,75.6988 211.7921,75.7448 211.4961,75.9668" id="Fill-93" fill="#F6682F"></path>
                <path d="M198.2157,123.0441 C200.3207,114.4621 208.9847,109.2111 217.5667,111.3171 C226.1487,113.4221 231.3997,122.0861 229.2947,130.6681 C227.1887,139.2501 218.5247,144.5011 209.9427,142.3951 C201.3607,140.2901 196.1107,131.6261 198.2157,123.0441" id="Fill-95" fill="#FFA71A"></path>
            </g>
        </g>
    </g>
</svg>