<?xml version="1.0" encoding="UTF-8" standalone="no"?>
<svg width="144px" height="144px" viewBox="0 0 144 144" version="1.1" xmlns="http://www.w3.org/2000/svg" xmlns:xlink="http://www.w3.org/1999/xlink">
    <!-- Generator: Sketch 43.2 (39069) - http://www.bohemiancoding.com/sketch -->
    <title>graphic_invite</title>
    <desc>Created with Sketch.</desc>
    <defs></defs>
    <g id="Page-1" stroke="none" stroke-width="1" fill="none" fill-rule="evenodd">
        <g id="graphic_invite">
            <rect id="Rectangle-path" fill="#D65129" fill-rule="nonzero" x="25.5" y="61.5" width="93" height="51"></rect>
            <polygon id="Shape" fill="#D65129" fill-rule="nonzero" points="72 87 25.5 112.5 25.5 61.5"></polygon>
            <polygon id="Shape" fill="#F16932" fill-rule="nonzero" points="103.5 69.75 103.5 112.5 118.5 112.5 118.5 61.5"></polygon>
            <polygon id="Shape" fill="#F16932" fill-rule="nonzero" points="25.5 112.5 103.5 112.5 103.5 69.75"></polygon>
            <polygon id="Shape" fill="#3A3A3A" fill-rule="nonzero" points="120 114 24 114 24 60 39 60 39 63 27 63 27 111 117 111 117 63 105 63 105 60 120 60"></polygon>
            <polygon id="Shape" fill="#FFFFFF" fill-rule="nonzero" points="103.5 70.5 72 87 40.5 70.5 40.5 31.5 91.5 31.5 103.5 43.5"></polygon>
            <path d="M72,87.9 L39.75,70.95 L39.75,30.75 L91.8,30.75 L104.25,43.2 L104.25,70.95 L72,87.9 Z M41.25,70.05 L72,86.1 L102.75,70.05 L102.75,43.8 L91.2,32.25 L41.25,32.25 L41.25,70.05 Z" id="Shape" fill="#3A3A3A" fill-rule="nonzero"></path>
            <rect id="Rectangle-path" fill="#3A3A3A" fill-rule="nonzero" transform="translate(71.920290, 86.996167) rotate(-28.743523) translate(-71.920290, -86.996167) " x="18.8941486" y="85.4961352" width="106.052283" height="3.00006457"></rect>
            <rect id="Rectangle-path" fill="#3A3A3A" fill-rule="nonzero" transform="translate(48.749250, 74.246850) rotate(-61.261501) translate(-48.749250, -74.246850) " x="47.2492898" y="47.6975552" width="2.99992032" height="53.0985896"></rect>
            <polygon id="Shape" fill="#3A3A3A" fill-rule="nonzero" points="103.5 45 90 45 90 31.5 93 31.5 93 42 103.5 42"></polygon>
            <polygon id="Shape" fill="#3A3A3A" fill-rule="nonzero" points="105 70.5 102 70.5 102 44.1 90.9 33 42 33 42 70.5 39 70.5 39 30 92.1 30 105 42.9"></polygon>
            <rect id="Rectangle-path" fill="#3A3A3A" fill-rule="nonzero" x="68.1" y="55.05" width="24.9" height="3"></rect>
            <rect id="Rectangle-path" fill="#3A3A3A" fill-rule="nonzero" x="68.1" y="61.35" width="16.05" height="3"></rect>
            <rect id="Rectangle-path" fill="#3A3A3A" fill-rule="nonzero" x="68.1" y="48.45" width="16.05" height="3"></rect>
            <rect id="Rectangle-path" fill="#3A3A3A" fill-rule="nonzero" x="42.75" y="17.25" width="3" height="6"></rect>
            <rect id="Rectangle-path" fill="#3A3A3A" fill-rule="nonzero" x="26.25" y="33.75" width="6" height="3"></rect>
            <rect id="Rectangle-path" fill="#3A3A3A" fill-rule="nonzero" transform="translate(32.249475, 23.999775) rotate(-45.000000) translate(-32.249475, -23.999775) " x="30.7494894" y="21.4497995" width="2.99997123" height="5.09995109"></rect>
            <polygon id="Shape" fill="#D65129" fill-rule="nonzero" points="61.5 65.7 55.5 59.7 49.5 65.7 49.5 43.2 61.5 43.2"></polygon>
            <circle id="Oval" fill="#F16932" fill-rule="nonzero" cx="55.5" cy="45.45" r="9"></circle>
            <rect id="Rectangle-path" x="0" y="0" width="144" height="144"></rect>
        </g>
    </g>
</svg>