<?xml version="1.0" encoding="utf-8"?>
<!-- Generator: Adobe Illustrator 20.0.0, SVG Export Plug-In . SVG Version: 6.00 Build 0)  -->
<svg version="1.1" id="eds-icon--key_svg"
	 xmlns="http://www.w3.org/2000/svg" xmlns:xlink="http://www.w3.org/1999/xlink" x="0px" y="0px" viewBox="0 0 24 24"
	 enable-background="new 0 0 24 24" xml:space="preserve">
<path id="eds-icon--key_base" fill-rule="evenodd" clip-rule="evenodd" d="M21.5,21.3l-9.6-9.6
	c2.1-2.2,2.1-5.8-0.1-8C10.7,2.6,9.2,2,7.7,2S4.8,2.6,3.7,3.7c-2.2,2.2-2.2,5.9,0,8.1c1.1,1.1,2.6,1.7,4.1,1.7
	c1.2,0,2.4-0.4,3.4-1.1l5.1,5.1l-1.8,1.8l0.7,0.7l1.8-1.8l1.4,1.4l-1.8,1.8l0.7,0.7l1.8-1.8l1.8,1.8L21.5,21.3z M4.4,11.1
	c-1.8-1.8-1.8-4.9,0-6.7C5.3,3.5,6.5,3,7.7,3c1.3,0,2.5,0.5,3.3,1.4c1.8,1.8,1.8,4.9,0,6.7C10.2,12,9,12.5,7.7,12.5
	C6.5,12.5,5.3,12,4.4,11.1z"/>
</svg>
