<?xml version="1.0" encoding="utf-8"?>
<!-- Generator: Adobe Illustrator 19.1.0, SVG Export Plug-In . SVG Version: 6.00 Build 0)  -->
<svg version="1.1" id="eds-icon--life-preserver_svg"
	 xmlns="http://www.w3.org/2000/svg" xmlns:xlink="http://www.w3.org/1999/xlink" x="0px" y="0px" viewBox="0 0 24 24"
	 enable-background="new 0 0 24 24" xml:space="preserve">
<path id="eds-icon--life-preserver_base" fill-rule="evenodd" clip-rule="evenodd" d="M22,12c0-2.6-1-4.9-2.6-6.7
	L20,4.7L19.3,4l-0.6,0.6C16.9,3,14.6,2,12,2S7.1,3,5.3,4.6L4.7,4L4,4.7l0.6,0.6C3,7.1,2,9.4,2,12s1,4.9,2.6,6.7l-0.5,0.5l0.7,0.7
	l0.5-0.5C7.1,21,9.4,22,12,22s4.9-1,6.7-2.6l0.5,0.5l0.7-0.7l-0.5-0.5C21,16.9,22,14.6,22,12z M21,12c0,2.3-0.9,4.4-2.3,6l-3.3-3.3
	C16,14,16.3,13,16.3,12s-0.3-2-0.9-2.7L18.7,6C20.1,7.6,21,9.7,21,12z M14.3,13.6l-0.7,0.7l0.4,0.4c-0.6,0.4-1.3,0.7-2.1,0.7
	c-0.7,0-1.4-0.2-2-0.6l0.5-0.5l-0.7-0.7l-0.5,0.5c-0.4-0.6-0.7-1.3-0.7-2.1s0.3-1.5,0.7-2.1l0.5,0.5l0.7-0.7L9.9,9.2
	c0.6-0.4,1.2-0.6,2-0.6c0.8,0,1.5,0.3,2.1,0.7l-0.4,0.4l0.7,0.7l0.4-0.4c0.4,0.6,0.6,1.2,0.6,2s-0.2,1.4-0.6,2L14.3,13.6z M12,3
	c2.3,0,4.4,0.9,6,2.3l-3.3,3.3c-0.8-0.6-1.7-1-2.8-1c-1,0-2,0.3-2.7,0.9L6,5.3C7.6,3.9,9.7,3,12,3z M3,12c0-2.3,0.9-4.4,2.3-6
	l3.2,3.2c-0.6,0.8-1,1.7-1,2.8s0.4,2,1,2.8L5.3,18C3.9,16.4,3,14.3,3,12z M12,21c-2.3,0-4.4-0.9-6-2.3l3.2-3.2
	c0.7,0.6,1.7,0.9,2.7,0.9c1.1,0,2-0.4,2.8-1l3.3,3.3C16.4,20.1,14.3,21,12,21z"/>
</svg>
