<?xml version="1.0" encoding="utf-8"?>
<!-- Generator: Adobe Illustrator 19.1.0, SVG Export Plug-In . SVG Version: 6.00 Build 0)  -->
<svg version="1.1" id="eds-icon--life-preserver-fill_svg"
	 xmlns="http://www.w3.org/2000/svg" xmlns:xlink="http://www.w3.org/1999/xlink" x="0px" y="0px" viewBox="0 0 24 24"
	 enable-background="new 0 0 24 24" xml:space="preserve">
<g id="eds-icon--life-preserver-fill_base">
	<path fill-rule="evenodd" clip-rule="evenodd" d="M11.9,7.6c0.7,0,1.3,0.2,1.9,0.4l4.1-4.1C16.3,2.7,14.2,2,12,2
		C9.8,2,7.7,2.7,6.1,3.9l4,4C10.7,7.7,11.3,7.6,11.9,7.6z"/>
	<path fill-rule="evenodd" clip-rule="evenodd" d="M11.9,16.4c-0.7,0-1.3-0.1-1.8-0.4l-4,4c1.7,1.2,3.7,2,5.9,2c2.2,0,4.3-0.7,5.9-2
		L13.9,16C13.3,16.3,12.6,16.4,11.9,16.4z"/>
	<path fill-rule="evenodd" clip-rule="evenodd" d="M7.5,12c0-0.7,0.2-1.4,0.5-2l-4-4C2.7,7.7,2,9.8,2,12c0,2.2,0.7,4.3,1.9,5.9l4-4
		C7.6,13.3,7.5,12.7,7.5,12z"/>
	<path fill-rule="evenodd" clip-rule="evenodd" d="M20,6.1l-4.1,4.1c0.3,0.6,0.4,1.2,0.4,1.8c0,0.6-0.1,1.3-0.4,1.8l4.1,4.1
		c1.2-1.7,1.9-3.7,1.9-5.9C22,9.8,21.3,7.7,20,6.1z"/>
</g>
<g id="eds-icon--life-preserver-fill_lines">
	
		<rect x="6.7" y="12.7" transform="matrix(-0.7071 -0.7071 0.7071 -0.7071 0.4515 33.59)" fill-rule="evenodd" clip-rule="evenodd" width="1" height="8"/>
	
		<rect x="3.2" y="6.7" transform="matrix(-0.7071 -0.7071 0.7071 -0.7071 7.2154 17.3527)" fill-rule="evenodd" clip-rule="evenodd" width="8" height="1"/>
	
		<rect x="16.2" y="3.2" transform="matrix(0.7071 0.7071 -0.7071 0.7071 9.989 -9.7141)" fill-rule="evenodd" clip-rule="evenodd" width="1" height="8"/>
	
		<rect x="12.7" y="16.2" transform="matrix(-0.7071 -0.7071 0.7071 -0.7071 16.6875 40.3543)" fill-rule="evenodd" clip-rule="evenodd" width="8" height="1"/>
</g>
</svg>
