<?xml version="1.0" encoding="utf-8"?>
<!-- Generator: Adobe Illustrator 20.0.0, SVG Export Plug-In . SVG Version: 6.00 Build 0)  -->
<svg version="1.1" id="eds-icon--line_svg"
	 xmlns="http://www.w3.org/2000/svg" xmlns:xlink="http://www.w3.org/1999/xlink" x="0px" y="0px" viewBox="0 0 24 24"
	 enable-background="new 0 0 24 24" xml:space="preserve">
<path id="eds-icon--line_base" fill-rule="evenodd" clip-rule="evenodd" d="M21.4,2.6c-0.8-0.8-2-0.8-2.8,0
	c-0.7,0.7-0.8,1.7-0.3,2.4L5,18.3c-0.8-0.5-1.8-0.4-2.4,0.3c-0.8,0.8-0.8,2,0,2.8s2,0.8,2.8,0c0.7-0.7,0.8-1.7,0.3-2.4L19,5.7
	c0.8,0.5,1.8,0.4,2.4-0.3C22.2,4.6,22.2,3.4,21.4,2.6 M4.7,20.7c-0.4,0.4-1,0.4-1.4,0c-0.4-0.4-0.4-1,0-1.4c0.4-0.4,1-0.4,1.4,0l0,0
	C5.1,19.7,5.1,20.3,4.7,20.7 M20.7,4.7c-0.4,0.4-1,0.4-1.4,0c-0.4-0.4-0.4-1,0-1.4c0.4-0.4,1-0.4,1.4,0C21.1,3.7,21.1,4.3,20.7,4.7"
	/>
</svg>
