<svg class="eds-icon--lock-fill__svg" xmlns="http://www.w3.org/2000/svg" viewBox="0 0 24 24">
  <path class="eds-icon--lock-fill__keyhole" fill-rule="evenodd" clip-rule="evenodd" d="M7 10H4v12h16V10H8V7c0-2.3 1.9-4.1 4.3-4 2.1.2 3.7 2 3.7 4.1v.4c0 .3.2.5.5.5s.5-.2.5-.5v-.3c0-2.6-1.9-4.9-4.5-5.1C9.5 1.7 7 4.1 7 7v3z"/>
  <path class="eds-icon--lock-fill__base" fill-rule="evenodd" clip-rule="evenodd" fill="#FFF" d="M11.5 16.1v-2.6h1v2.6c.6.2 1 .8 1 1.4 0 .8-.7 1.5-1.5 1.5s-1.5-.7-1.5-1.5c0-.7.4-1.2 1-1.4z"/>
</svg>
