<?xml version="1.0" encoding="utf-8"?>
<!-- Generator: Adobe Illustrator 20.1.0, SVG Export Plug-In . SVG Version: 6.00 Build 0)  -->
<svg version="1.1" id="eds-icon--logo-wordmark-brand_svg"
	 xmlns="http://www.w3.org/2000/svg" xmlns:xlink="http://www.w3.org/1999/xlink" x="0px" y="0px" viewBox="0 0 148 24"
	 enable-background="new 0 0 24 24" xml:space="preserve">
     <path d="M137.287619,16.8 C137.710476,18.9176471 139.824762,20.0470588 141.939048,20.0470588 C144.335238,20.0470588 146.026667,19.3411765 146.731429,18.9176471 C146.872381,18.9176471 147.013333,18.9176471 147.013333,19.0588235 C147.577143,19.7647059 148.422857,22.4470588 144.617143,23.4352941 C144.335238,23.4352941 143.207619,23.8588235 141.375238,23.8588235 C136.16,23.8588235 132.918095,20.6117647 132.918095,15.6705882 C132.918095,10.4470588 136.300952,7.05882353 140.670476,7.05882353 C146.026667,7.05882353 147.577143,10.7294118 147.577143,15.3882353 C147.577143,16.0941176 147.013333,16.6588235 146.308571,16.6588235 L146.308571,16.6588235 L137.287619,16.6588235 C137.287619,16.6588235 137.287619,16.8 137.287619,16.8 L137.287619,16.8 Z M137.569524,14.1176471 L143.489524,14.1176471 C143.630476,14.1176471 143.771429,13.9764706 143.771429,13.8352941 C143.630476,12 142.784762,10.5882353 140.811429,10.5882353 C138.979048,10.5882353 137.851429,11.8588235 137.428571,13.8352941 C137.287619,13.9764706 137.428571,14.1176471 137.569524,14.1176471 L137.569524,14.1176471 Z" id="eds-icon--logo-wordmark-brand_e_1_"></path>
     <path d="M78.2285714,19.3411765 C78.2285714,19.3411765 78.087619,19.2 77.9466667,19.2 C77.5238095,19.3411765 76.6780952,19.7647059 75.4095238,19.7647059 C74.1409524,19.7647059 73.2952381,19.2 73.2952381,17.3647059 L73.2952381,11.1529412 C73.2952381,11.0117647 73.4361905,10.8705882 73.5771429,10.8705882 L77.6647619,10.8705882 C77.8057143,10.8705882 77.9466667,10.7294118 77.9466667,10.5882353 L77.9466667,7.62352941 C77.9466667,7.48235294 77.8057143,7.34117647 77.6647619,7.34117647 L73.5771429,7.34117647 C73.4361905,7.34117647 73.2952381,7.2 73.2952381,7.05882353 L73.2952381,3.38823529 C73.2952381,3.24705882 73.1542857,3.10588235 73.0133333,3.10588235 L69.207619,3.10588235 C69.0666667,3.10588235 68.9257143,3.24705882 68.9257143,3.38823529 L68.9257143,7.05882353 C68.9257143,7.2 68.7847619,7.34117647 68.6438095,7.34117647 L66.6704762,7.34117647 C66.5295238,7.34117647 66.3885714,7.48235294 66.3885714,7.62352941 L66.3885714,10.7294118 C66.3885714,10.8705882 66.5295238,11.0117647 66.6704762,11.0117647 L67.6571429,11.0117647 C68.3619048,11.0117647 68.9257143,11.5764706 68.9257143,12.2823529 L68.9257143,18.6352941 C68.9257143,22.4470588 71.4628571,23.8588235 74.1409524,23.8588235 C76.96,23.8588235 77.9466667,22.7294118 78.2285714,22.1647059 C79.0742857,20.8941176 78.6514286,19.7647059 78.2285714,19.3411765 L78.2285714,19.3411765 Z" id="eds-icon--logo-wordmark-brand_t_1_"></path>
     <path d="M114.735238,0 C113.325714,0 112.198095,1.12941176 112.198095,2.68235294 C112.198095,4.09411765 113.325714,5.22352941 114.735238,5.22352941 C116.144762,5.22352941 117.272381,4.09411765 117.272381,2.68235294 C117.413333,1.12941176 116.144762,0 114.735238,0 L114.735238,0 Z" id="eds-icon--logo-wordmark-brand_i-dot"></path>
     <path d="M116.990476,23.4352941 C116.990476,23.5764706 116.990476,23.5764706 116.849524,23.7176471 C116.00381,24 112.761905,24.2823529 112.761905,20.1882353 L112.761905,7.62352941 C112.761905,7.48235294 112.902857,7.34117647 113.04381,7.34117647 L116.849524,7.34117647 C116.990476,7.34117647 117.131429,7.48235294 117.131429,7.62352941 L116.990476,23.4352941 L116.990476,23.4352941 Z" id="eds-icon--logo-wordmark-brand_i-stem"></path>
     <path d="M109.942857,11.4352941 C110.224762,10.5882353 111.211429,7.05882353 106.419048,7.05882353 C103.177143,7.05882353 100.780952,8.18823529 100.499048,8.32941176 C100.358095,8.47058824 100.07619,8.47058824 100.07619,8.75294118 L100.07619,23.1529412 C100.07619,23.2941176 100.217143,23.4352941 100.358095,23.4352941 L104.16381,23.4352941 C104.304762,23.4352941 104.445714,23.2941176 104.445714,23.1529412 L104.445714,11.5764706 C104.445714,11.4352941 104.586667,11.4352941 104.586667,11.4352941 C105.291429,11.2941176 105.855238,11.1529412 106.56,11.1529412 C108.392381,11.1529412 109.379048,11.5764706 109.660952,11.5764706 C109.801905,11.7176471 109.801905,11.5764706 109.942857,11.4352941 L109.942857,11.4352941 Z" id="eds-icon--logo-wordmark-brand_r"></path>
     <path d="M97.5390476,15.1058824 C97.5390476,20.3294118 94.2971429,23.8588235 88.0952381,23.8588235 C85.1352381,23.8588235 82.88,23.1529412 82.3161905,22.8705882 C82.0342857,22.7294118 81.752381,22.7294118 81.752381,22.0235294 L81.752381,0.705882353 C81.752381,0.564705882 81.8933333,0.564705882 81.8933333,0.423529412 C82.7390476,0.282352941 85.9809524,-3.88578059e-16 85.9809524,4.09411765 L85.9809524,7.76470588 C85.9809524,7.90588235 86.1219048,7.90588235 86.1219048,7.90588235 C86.967619,7.34117647 88.2361905,7.05882353 89.6457143,7.05882353 C94.1561905,7.05882353 97.5390476,10.1647059 97.5390476,15.1058824 L97.5390476,15.1058824 Z M93.0285714,15.2470588 C93.0285714,12.7058824 91.1961905,11.0117647 88.8,11.0117647 C87.5314286,11.0117647 86.6857143,11.4352941 85.9809524,11.7176471 L85.84,11.8588235 L85.84,19.2 C85.84,19.6235294 85.9809524,19.7647059 86.2628571,19.7647059 C86.4038095,19.7647059 87.1085714,20.0470588 88.0952381,20.0470588 C90.9142857,20.1882353 93.0285714,18.6352941 93.0285714,15.2470588 L93.0285714,15.2470588 Z" id="eds-icon--logo-wordmark-brand_b"></path>
     <path d="M131.085714,19.3411765 C131.085714,19.3411765 130.944762,19.2 130.80381,19.2 C130.380952,19.3411765 129.535238,19.7647059 128.266667,19.7647059 C126.998095,19.7647059 126.152381,19.2 126.152381,17.3647059 L126.152381,11.1529412 C126.152381,11.0117647 126.293333,10.8705882 126.434286,10.8705882 L130.521905,10.8705882 C130.662857,10.8705882 130.80381,10.7294118 130.80381,10.5882353 L130.80381,7.62352941 C130.80381,7.48235294 130.662857,7.34117647 130.521905,7.34117647 L126.434286,7.34117647 C126.293333,7.34117647 126.152381,7.2 126.152381,7.05882353 L126.152381,3.38823529 C126.152381,3.24705882 126.011429,3.10588235 125.870476,3.10588235 L122.064762,3.10588235 C121.92381,3.10588235 121.782857,3.24705882 121.782857,3.38823529 L121.782857,7.05882353 C121.782857,7.2 121.641905,7.34117647 121.500952,7.34117647 L119.527619,7.34117647 C119.386667,7.34117647 119.245714,7.48235294 119.245714,7.62352941 L119.245714,10.7294118 C119.245714,10.8705882 119.386667,11.0117647 119.527619,11.0117647 L120.514286,11.0117647 C121.219048,11.0117647 121.782857,11.5764706 121.782857,12.2823529 L121.782857,18.6352941 C121.782857,22.4470588 124.32,23.8588235 126.998095,23.8588235 C129.817143,23.8588235 130.80381,22.7294118 131.085714,22.1647059 C131.790476,20.8941176 131.367619,19.7647059 131.085714,19.3411765 L131.085714,19.3411765 Z" id="eds-icon--logo-wordmark-brand_t"></path>
     <path d="M64.4152381,13.4117647 L64.4152381,23.4352941 C64.4152381,23.5764706 64.4152381,23.5764706 64.2742857,23.7176471 C63.4285714,24 60.0457143,24.2823529 60.0457143,20.1882353 L60.0457143,13.6941176 C60.0457143,11.8588235 59.0590476,11.0117647 57.2266667,11.0117647 C56.24,11.0117647 55.2533333,11.1529412 54.5485714,11.4352941 C54.407619,11.4352941 54.2666667,11.5764706 54.2666667,11.7176471 L54.2666667,23.2941176 C54.2666667,23.4352941 54.1257143,23.5764706 53.9847619,23.5764706 L50.1790476,23.5764706 C50.0380952,23.5764706 49.8971429,23.4352941 49.8971429,23.2941176 L49.8971429,8.75294118 C49.8971429,8.61176471 50.0380952,8.47058824 50.1790476,8.47058824 C52.4342857,7.62352941 55.2533333,7.05882353 57.6495238,7.05882353 C61.7371429,7.05882353 64.4152381,8.61176471 64.4152381,13.4117647 L64.4152381,13.4117647 Z" id="eds-icon--logo-wordmark-brand_n"></path>
     <path d="M36.7885714,16.8 C37.2114286,18.9176471 39.3257143,20.0470588 41.44,20.0470588 C43.8361905,20.0470588 45.527619,19.3411765 46.232381,18.9176471 C46.3733333,18.9176471 46.5142857,18.9176471 46.5142857,19.0588235 C47.0780952,19.7647059 47.9238095,22.4470588 44.1180952,23.4352941 C43.8361905,23.4352941 42.7085714,23.8588235 40.8761905,23.8588235 C35.6609524,23.8588235 32.4190476,20.6117647 32.4190476,15.6705882 C32.4190476,10.4470588 35.8019048,7.05882353 40.1714286,7.05882353 C45.527619,7.05882353 47.0780952,10.7294118 47.0780952,15.3882353 C47.0780952,16.0941176 46.5142857,16.6588235 45.8095238,16.6588235 L45.8095238,16.6588235 L36.7885714,16.6588235 C36.7885714,16.6588235 36.7885714,16.8 36.7885714,16.8 L36.7885714,16.8 Z M37.0704762,14.1176471 L42.9904762,14.1176471 C43.1314286,14.1176471 43.272381,13.9764706 43.272381,13.8352941 C43.1314286,12 42.2857143,10.5882353 40.312381,10.5882353 C38.48,10.5882353 37.352381,11.8588235 36.9295238,13.8352941 C36.7885714,13.9764706 36.7885714,14.1176471 37.0704762,14.1176471 L37.0704762,14.1176471 Z" id="eds-icon--logo-wordmark-brand_e"></path>
     <path d="M31.9961905,7.48235294 L28.0495238,7.48235294 C27.9085714,7.48235294 27.767619,7.62352941 27.767619,7.76470588 L23.9619048,18.9176471 L23.9619048,18.9176471 C23.9619048,19.0588235 23.8209524,19.0588235 23.68,18.9176471 L23.68,18.9176471 L20.4380952,9.6 C19.0285714,5.92941176 16.0685714,7.2 15.3638095,7.76470588 C15.2228571,7.90588235 15.2228571,7.90588235 15.2228571,8.04705882 L21.0019048,23.1529412 C21.0019048,23.2941176 21.1428571,23.4352941 21.2838095,23.4352941 L25.9352381,23.4352941 C26.2171429,23.4352941 26.2171429,23.2941176 26.2171429,23.1529412 C26.2171429,23.1529412 31.7142857,8.61176471 31.9961905,7.90588235 C32.2780952,7.48235294 31.9961905,7.48235294 31.9961905,7.48235294 L31.9961905,7.48235294 Z" id="eds-icon--logo-wordmark-brand_v"></path>
     <path d="M13.8133333,19.4823529 L13.8133333,19.4823529 C13.8133333,19.3411765 13.672381,19.3411765 13.5314286,19.3411765 L4.65142857,19.3411765 C4.51047619,19.3411765 4.36952381,19.2 4.36952381,19.0588235 L4.36952381,14.9647059 C4.36952381,14.8235294 4.51047619,14.6823529 4.65142857,14.6823529 L12.2628571,14.6823529 C12.4038095,14.6823529 12.5447619,14.5411765 12.5447619,14.4 L12.5447619,10.8705882 C12.5447619,10.7294118 12.4038095,10.5882353 12.2628571,10.5882353 L4.65142857,10.5882353 C4.51047619,10.5882353 4.36952381,10.4470588 4.36952381,10.3058824 L4.36952381,6.49411765 C4.36952381,6.35294118 4.51047619,6.21176471 4.65142857,6.21176471 L13.2495238,6.21176471 C13.3904762,6.21176471 13.5314286,6.07058824 13.5314286,5.92941176 L13.5314286,2.4 C13.5314286,2.25882353 13.3904762,2.11764706 13.2495238,2.11764706 L3.52380952,2.11764706 C1.55047619,2.11764706 8.8817842e-16,3.81176471 8.8817842e-16,5.64705882 L8.8817842e-16,23.1529412 C8.8817842e-16,23.2941176 0.140952381,23.4352941 0.281904762,23.4352941 L10.4304762,23.4352941 C14.2361905,23.4352941 14.0952381,20.3294118 13.8133333,19.4823529 L13.8133333,19.4823529 Z" id="eds-icon--logo-wordmark-brand_E"></path>
</svg>
