<?xml version="1.0" encoding="utf-8"?>
<!-- Generator: Adobe Illustrator 20.1.0, SVG Export Plug-In . SVG Version: 6.00 Build 0)  -->
<svg version="1.1" id="eds-icon--logo-e-brand_svg"
	 xmlns="http://www.w3.org/2000/svg" xmlns:xlink="http://www.w3.org/1999/xlink" x="0px" y="0px" viewBox="0 0 16 24"
	 enable-background="new 0 0 24 24" xml:space="preserve">
            <path d="M15.6,19.5 L15.6,19.5 C15.6,19.35 15.45,19.35 15.3,19.35 L5.25,19.35 C5.1,19.35 4.95,19.2 4.95,19.05 L4.95,14.55 C4.95,14.4 5.1,14.25 5.25,14.25 L13.95,14.25 C14.1,14.25 14.25,14.1 14.25,13.95 L14.25,9.9 C14.25,9.75 14.1,9.6 13.95,9.6 L5.25,9.6 C5.1,9.6 4.95,9.45 4.95,9.3 L4.95,4.8 C4.95,4.65 5.1,4.5 5.25,4.5 L15,4.5 C15.15,4.5 15.3,4.35 15.3,4.2 L15.3,0.3 C15.3,0.15 15.15,0 15,0 L4.05,0 C1.8,0 -1.77635684e-15,1.8 -1.77635684e-15,4.05 L-1.77635684e-15,23.85 C-1.77635684e-15,23.85 0.15,24 0.3,24 L11.85,24 C16.2,24 15.9,20.4 15.6,19.5" id="eds-icon--logo-e-brand_base"></path>
</svg>
