<svg id="eds-icon--logo-eventful-color_svg" xmlns="http://www.w3.org/2000/svg" xmlns:xlink="http://www.w3.org/1999/xlink" viewBox="0 0 72 72">
    <defs>
        <clipPath>
            <path d="M169.19,76.4h0a.58.58,0,0,0-.56-.42H147.28a.56.56,0,0,1-.56-.56V65.74a.56.56,0,0,1,.56-.55h18.33a.56.56,0,0,0,.56-.56q0-4.25,0-8.49a.56.56,0,0,0-.56-.56H147.27a.56.56,0,0,1-.56-.54v-9.6a.56.56,0,0,1,.56-.56h20.66a.56.56,0,0,0,.56-.56V35.56a.56.56,0,0,0-.56-.56H144.51A8.51,8.51,0,0,0,136,43.51V85.38a.56.56,0,0,0,.56.56H161c9.24,0,8.82-7.56,8.2-9.54" style="fill:#fff;clip-rule:evenodd"/>
        </clipPath>
    </defs>
    <path d="M71.36,27.6a2.44,2.44,0,0,0-1.93-.92,2.4,2.4,0,0,0-1.93.94,3.36,3.36,0,0,0-.61,2.1v2.38c0-.07-.08-.14-.13-.2a2.48,2.48,0,0,0-3.83,0,3.22,3.22,0,0,0-.64,2.1v3.52a9.09,9.09,0,0,1-.14,2.27,1.17,1.17,0,0,1-.4.54.69.69,0,0,1-.44.17.45.45,0,0,1-.15,0A1,1,0,0,1,61,40a6.86,6.86,0,0,1-.12-1.42V34a3.23,3.23,0,0,0-.64-2.1,2.44,2.44,0,0,0-1.93-.9,2.41,2.41,0,0,0-1.91.9v0a2.3,2.3,0,0,0-.84-.49l.37,0a2,2,0,0,0,1.54-.75A2.34,2.34,0,0,0,58,29.2c0-.76-.34-2.51-3.51-2.51a5.6,5.6,0,0,0-2.57.51A3.37,3.37,0,0,0,50.23,29a6.91,6.91,0,0,0-.38,2.26,2.44,2.44,0,0,0-1,.41,2.33,2.33,0,0,0-1.16-.44v-.71a8.12,8.12,0,0,0-.09-1.35A2.54,2.54,0,0,0,47,27.87a2.45,2.45,0,0,0-1.81-.81,2.39,2.39,0,0,0-1.33.39,2.5,2.5,0,0,0-.87,1,3,3,0,0,0-.31,1.15c0,.31,0,.7,0,1.2v.63a2.12,2.12,0,0,0-1.19,1.05,4.29,4.29,0,0,0-.91-.78A4.59,4.59,0,0,0,38,31a4.8,4.8,0,0,0-2.48.65l-.25.16a2.29,2.29,0,0,0-.47-.41,2.4,2.4,0,0,0-3.19.51,3,3,0,0,0-.57,1.69A5.69,5.69,0,0,0,26.11,31a6.39,6.39,0,0,0-2.61.53,5.53,5.53,0,0,0-1.66,1.13,2.56,2.56,0,0,0-.52-.85A2.36,2.36,0,0,0,19.55,31a2.16,2.16,0,0,0-1.8.87,5.35,5.35,0,0,0-.7,1.54l-1,3-.86-2.75A8,8,0,0,0,14.57,32a2.16,2.16,0,0,0-2-1.05,2.37,2.37,0,0,0-1.31.4,2.59,2.59,0,0,0-.85.93c0,.07-.05.14-.08.21a6,6,0,0,0-.77-.63A5.78,5.78,0,0,0,6.28,31a6.38,6.38,0,0,0-2.61.53,5.54,5.54,0,0,0-2.06,1.56A6.76,6.76,0,0,0,.39,35.37,9.4,9.4,0,0,0,0,38.13a7.65,7.65,0,0,0,1.68,5.15,6,6,0,0,0,4.79,2,6.58,6.58,0,0,0,2.36-.4,5.78,5.78,0,0,0,1.76-1,4.77,4.77,0,0,0,1.11-1.38,3.26,3.26,0,0,0,.41-1.5,2.17,2.17,0,0,0-.62-1.59l0,0a2.29,2.29,0,0,0,.35-.43L13,42.25c.28.74.45,1.18.57,1.43a3.07,3.07,0,0,0,.79,1,2.52,2.52,0,0,0,1.7.6,2.61,2.61,0,0,0,1.38-.37,2.79,2.79,0,0,0,.92-.92,5.39,5.39,0,0,0,.48-1l.27-.76L20,39.79a6.94,6.94,0,0,0,1.54,3.48,6,6,0,0,0,4.79,2,6.58,6.58,0,0,0,2.36-.4,5.79,5.79,0,0,0,1.76-1,5.21,5.21,0,0,0,.7-.76,2.93,2.93,0,0,0,.54,1.25,2.39,2.39,0,0,0,1.91.95,2.42,2.42,0,0,0,1.92-.9,3.28,3.28,0,0,0,.65-2.13V38.65a8.85,8.85,0,0,1,.14-2.06,1.36,1.36,0,0,1,.4-.64.73.73,0,0,1,.69-.13,4.78,4.78,0,0,1,.21,1.63v4.82a3.31,3.31,0,0,0,.63,2.09,2.44,2.44,0,0,0,3.85,0,3.34,3.34,0,0,0,.62-2.11v-.55a7.88,7.88,0,0,0,.15.89,3.42,3.42,0,0,0,1.29,2,4.21,4.21,0,0,0,2.58.71,5.23,5.23,0,0,0,2.55-.53,2.61,2.61,0,0,0,.94-.86,2.59,2.59,0,0,0,.29.46,2.4,2.4,0,0,0,1.9.93,2.43,2.43,0,0,0,1.93-.93A3.3,3.3,0,0,0,55,42.27V35.84a3.25,3.25,0,0,0,.79-.21v4.1A7.06,7.06,0,0,0,56.36,43,4.27,4.27,0,0,0,58,44.68a4.44,4.44,0,0,0,2.31.61,5.25,5.25,0,0,0,1.8-.29,4.63,4.63,0,0,0,1-.53,2.37,2.37,0,0,0,3.66,0,2.54,2.54,0,0,0,.38-.7,2.75,2.75,0,0,0,.35.63,2.39,2.39,0,0,0,1.93,1,2.41,2.41,0,0,0,1.92-.91A3.28,3.28,0,0,0,72,42.27V29.72A3.3,3.3,0,0,0,71.36,27.6ZM49.84,40.89a2,2,0,0,0-1.34-.55,3.64,3.64,0,0,0-.78.1c0-.14,0-.3,0-.51V35.82a3,3,0,0,0,1-.34l.12-.09a2.34,2.34,0,0,0,1,.44Z" style="fill:#fff"/><path d="M8.88,38.86h-5a4.32,4.32,0,0,0,.35,1.74,2.64,2.64,0,0,0,.91,1.13,2.18,2.18,0,0,0,1.25.38A2.75,2.75,0,0,0,7.23,42,2.62,2.62,0,0,0,8,41.61a5.52,5.52,0,0,0,.65-.56q.3-.3.78-.81a.77.77,0,0,1,.56-.19.86.86,0,0,1,.64.24.93.93,0,0,1,.24.69,2,2,0,0,1-.27.92,3.53,3.53,0,0,1-.82,1,4.49,4.49,0,0,1-1.37.8,5.29,5.29,0,0,1-1.9.32,4.77,4.77,0,0,1-3.83-1.59,6.4,6.4,0,0,1-1.37-4.31,8.1,8.1,0,0,1,.34-2.38,5.44,5.44,0,0,1,1-1.88,4.28,4.28,0,0,1,1.59-1.2,5.11,5.11,0,0,1,2.09-.42,4.43,4.43,0,0,1,4.17,2.57A5.36,5.36,0,0,1,11,37.12q0,1.09-.55,1.42A3.07,3.07,0,0,1,8.88,38.86Zm-5-1.65H8.52A3.8,3.8,0,0,0,7.81,35a2,2,0,0,0-1.61-.73A1.93,1.93,0,0,0,4.63,35,4,4,0,0,0,3.89,37.21Z" style="fill:#06c"/>
    <path d="M14,34.07,16,40.64l2.22-6.85a4.29,4.29,0,0,1,.51-1.17.89.89,0,0,1,.77-.34,1.09,1.09,0,0,1,.83.37,1.23,1.23,0,0,1,.34.86,1.92,1.92,0,0,1-.06.44,4.26,4.26,0,0,1-.14.48l-.18.51-2.45,6.89-.27.75a4,4,0,0,1-.36.78,1.5,1.5,0,0,1-.5.5A1.34,1.34,0,0,1,16,44a1.27,1.27,0,0,1-.86-.28,1.81,1.81,0,0,1-.47-.61c-.1-.22-.28-.66-.52-1.32L11.76,35l-.17-.51a4.69,4.69,0,0,1-.15-.52,2.08,2.08,0,0,1-.06-.46,1.23,1.23,0,0,1,.16-.59,1.33,1.33,0,0,1,.44-.48,1.08,1.08,0,0,1,.61-.18.92.92,0,0,1,.87.41A7,7,0,0,1,14,34.07Z" style="fill:#06c"/>
    <path d="M28.71,38.86h-5a4.25,4.25,0,0,0,.35,1.74A2.62,2.62,0,0,0,25,41.74a2.18,2.18,0,0,0,1.25.38,2.75,2.75,0,0,0,.84-.12,2.61,2.61,0,0,0,.73-.38,5.59,5.59,0,0,0,.66-.56l.78-.81a.76.76,0,0,1,.56-.19.85.85,0,0,1,.63.24.93.93,0,0,1,.24.69,2,2,0,0,1-.27.92,3.55,3.55,0,0,1-.82,1,4.51,4.51,0,0,1-1.37.8,5.3,5.3,0,0,1-1.9.32,4.77,4.77,0,0,1-3.82-1.59,6.39,6.39,0,0,1-1.37-4.31,8.08,8.08,0,0,1,.34-2.38,5.44,5.44,0,0,1,1-1.88A4.27,4.27,0,0,1,24,32.67a5.1,5.1,0,0,1,2.09-.42,4.42,4.42,0,0,1,4.17,2.57,5.38,5.38,0,0,1,.53,2.31q0,1.09-.55,1.42A3.08,3.08,0,0,1,28.71,38.86Zm-5-1.65h4.62A3.79,3.79,0,0,0,27.64,35,2,2,0,0,0,26,34.26a1.93,1.93,0,0,0-1.56.75A4,4,0,0,0,23.72,37.21Z" style="fill:#06c"/>
    <path d="M34.71,33.87v.35a4.72,4.72,0,0,1,1.47-1.48A3.54,3.54,0,0,1,38,32.27a3.31,3.31,0,0,1,1.8.5A3,3,0,0,1,41,34.18a3.62,3.62,0,0,1,.33,1.14,13,13,0,0,1,.08,1.57v5.38a2.09,2.09,0,0,1-.35,1.31,1.11,1.11,0,0,1-.91.44,1.12,1.12,0,0,1-.93-.46,2.08,2.08,0,0,1-.36-1.3V37.45a5.37,5.37,0,0,0-.35-2.19,1.38,1.38,0,0,0-1.39-.76,1.9,1.9,0,0,0-1.24.46,2.65,2.65,0,0,0-.82,1.27,10.22,10.22,0,0,0-.19,2.42v3.62a2.05,2.05,0,0,1-.36,1.32,1.15,1.15,0,0,1-.93.44,1.1,1.1,0,0,1-.91-.46,2.08,2.08,0,0,1-.36-1.3V33.91a2,2,0,0,1,.32-1.23,1,1,0,0,1,.87-.41,1.07,1.07,0,0,1,.61.18,1.24,1.24,0,0,1,.44.54A2.13,2.13,0,0,1,34.71,33.87Z" style="fill:#06c"/>
    <path d="M43.6,32.52h.28V30.78c0-.47,0-.83,0-1.1A1.75,1.75,0,0,1,44.1,29a1.23,1.23,0,0,1,.43-.48,1.12,1.12,0,0,1,.63-.18,1.19,1.19,0,0,1,.88.41,1.27,1.27,0,0,1,.33.67,6.84,6.84,0,0,1,.07,1.13v2h.93a1.11,1.11,0,0,1,.83.29,1,1,0,0,1,.29.75.86.86,0,0,1-.41.81,2.37,2.37,0,0,1-1.16.23h-.48v5.33a9.74,9.74,0,0,0,0,1,1.13,1.13,0,0,0,.23.59.71.71,0,0,0,.59.23,2.81,2.81,0,0,0,.61-.09,2.81,2.81,0,0,1,.6-.09.73.73,0,0,1,.56.28,1,1,0,0,1,.25.69,1.17,1.17,0,0,1-.67,1.07A4.07,4.07,0,0,1,46.7,44a3,3,0,0,1-1.82-.46,2.12,2.12,0,0,1-.81-1.26,9.52,9.52,0,0,1-.19-2.15V34.6h-.34a1.13,1.13,0,0,1-.84-.3,1,1,0,0,1-.29-.75,1,1,0,0,1,.3-.75A1.23,1.23,0,0,1,43.6,32.52Z" style="fill:#06c"/>
    <path d="M50.51,32.52h.61v-.87a6.2,6.2,0,0,1,.3-2.16,2.08,2.08,0,0,1,1-1.16,4.46,4.46,0,0,1,2-.37q2.23,0,2.23,1.24a1.06,1.06,0,0,1-.23.69.7.7,0,0,1-.55.29,3.48,3.48,0,0,1-.52-.07,3.73,3.73,0,0,0-.62-.06.85.85,0,0,0-.89.46,3.5,3.5,0,0,0-.2,1.32v.69h.63q1.46,0,1.46,1c0,.47-.13.77-.39.9a2.46,2.46,0,0,1-1.07.19h-.63v7.67a2.06,2.06,0,0,1-.36,1.31,1.14,1.14,0,0,1-.93.45,1.11,1.11,0,0,1-.9-.45,2.06,2.06,0,0,1-.36-1.31V34.6h-.7a1.23,1.23,0,0,1-.88-.29,1,1,0,0,1-.31-.76Q49.23,32.52,50.51,32.52Z" style="fill:#47ab15"/>
    <path d="M63.71,42.41V42a6,6,0,0,1-1,1.1,3.46,3.46,0,0,1-1.1.66,4,4,0,0,1-1.36.22,3.18,3.18,0,0,1-1.66-.44,3,3,0,0,1-1.14-1.2A5.89,5.89,0,0,1,57,39.73V34a2,2,0,0,1,.35-1.3,1.12,1.12,0,0,1,.92-.43,1.15,1.15,0,0,1,.94.43A2,2,0,0,1,59.57,34v4.63a8.08,8.08,0,0,0,.15,1.69,2.12,2.12,0,0,0,.54,1.07,1.41,1.41,0,0,0,1,.39,2,2,0,0,0,1.21-.43,2.49,2.49,0,0,0,.83-1.13,10.38,10.38,0,0,0,.21-2.69V34a2,2,0,0,1,.36-1.29,1.14,1.14,0,0,1,.93-.43,1.12,1.12,0,0,1,.92.43,2.05,2.05,0,0,1,.34,1.3v8.39a2,2,0,0,1-.33,1.24,1.09,1.09,0,0,1-1.72,0A1.89,1.89,0,0,1,63.71,42.41Z" style="fill:#47ab15"/>
    <path d="M68.17,42.27V29.72a2.14,2.14,0,0,1,.34-1.31,1.11,1.11,0,0,1,.92-.44,1.15,1.15,0,0,1,.94.44,2.07,2.07,0,0,1,.36,1.32V42.27a2.05,2.05,0,0,1-.36,1.32,1.15,1.15,0,0,1-.93.44,1.1,1.1,0,0,1-.91-.46A2.1,2.1,0,0,1,68.17,42.27Z" style="fill:#47ab15"/>
    <path d="M169.19,76.4h0a.58.58,0,0,0-.56-.42H147.28a.56.56,0,0,1-.56-.56V65.74a.56.56,0,0,1,.56-.55h18.33a.56.56,0,0,0,.56-.56q0-4.25,0-8.49a.56.56,0,0,0-.56-.56H147.27a.56.56,0,0,1-.56-.54v-9.6a.56.56,0,0,1,.56-.56h20.66a.56.56,0,0,0,.56-.56V35.56a.56.56,0,0,0-.56-.56H144.51A8.51,8.51,0,0,0,136,43.51V85.38a.56.56,0,0,0,.56.56H161c9.24,0,8.82-7.56,8.2-9.54" style="fill:#fff;fill-rule:evenodd"/>
</svg>
