<svg xmlns="http://www.w3.org/2000/svg" viewBox="0 0 48 32"><path fill="#6983D7" d="M0 3c0-1.6 1.3-3 3-3h42c1.7 0 3 1.4 3 3v26c0 1.6-1.3 3-3 3H3c-1.7 0-3-1.4-3-3V3z"/><ellipse fill-rule="evenodd" clip-rule="evenodd" fill="#4BBDF1" cx="17.3" cy="16.1" rx="9.6" ry="9.5"/><ellipse fill-rule="evenodd" clip-rule="evenodd" fill="#F6635F" cx="30.8" cy="16.1" rx="9.6" ry="9.5"/><path fill-rule="evenodd" clip-rule="evenodd" fill="#168CE3" d="M24 22.9c1.8-1.7 2.9-4.1 2.9-6.8s-1.1-5-2.9-6.8c-1.8 1.7-2.9 4.1-2.9 6.8.1 2.7 1.2 5.1 2.9 6.8z"/></svg>
