<?xml version="1.0" encoding="utf-8"?>
<!-- Generator: Adobe Illustrator 19.1.0, SVG Export Plug-In . SVG Version: 6.00 Build 0)  -->
<svg version="1.1" id="eds-icon--magnifying-glass-fill_svg"
	 xmlns="http://www.w3.org/2000/svg" xmlns:xlink="http://www.w3.org/1999/xlink" x="0px" y="0px" viewBox="0 0 24 24"
	 enable-background="new 0 0 24 24" xml:space="preserve">
<path id="eds-icon--magnifying-glass-fill_base" fill-rule="evenodd" clip-rule="evenodd" d="M17,14.9l-0.7,0.7l-1.2-1.2
	c1.2-1.3,1.9-3,1.9-4.9C17,5.4,13.6,2,9.5,2S2,5.4,2,9.5S5.4,17,9.5,17c1.9,0,3.6-0.7,4.9-1.9l1.2,1.2L14.9,17l5,5l2.1-2.1L17,14.9z
	 M3,9.5C3,5.9,5.9,3,9.5,3S16,5.9,16,9.5S13.1,16,9.5,16S3,13.1,3,9.5z"/>
</svg>
