<?xml version="1.0" encoding="utf-8"?>
<!-- Generator: Adobe Illustrator 20.1.0, SVG Export Plug-In . SVG Version: 6.00 Build 0)  -->
<svg version="1.1" id="eds-icon--mailbox-chunky_svg"
	 xmlns="http://www.w3.org/2000/svg" xmlns:xlink="http://www.w3.org/1999/xlink" x="0px" y="0px" viewBox="0 0 24 24"
	 enable-background="new 0 0 24 24" xml:space="preserve">
<path id="eds-icon--mailbox-chunky_base" fill-rule="evenodd" clip-rule="evenodd" d="M20,9.5
	C20,7.6,18.4,6,16.5,6H16V4h-2v2H8l0.1,0.1C7.9,6,7.7,6,7.5,6C5.6,6,4,7.6,4,9.5V16h5h2h1v4h2v-4h6V9.5z M9,14H6V9.5
	C6,8.7,6.7,8,7.5,8S9,8.7,9,9.5V14z M18,14h-7V9.5V8h3v2h2V8h0.5C17.3,8,18,8.7,18,9.5V14z"/>
</svg>
