<?xml version="1.0" encoding="utf-8"?>
<!-- Generator: Adobe Illustrator 19.1.0, SVG Export Plug-In . SVG Version: 6.00 Build 0)  -->
<svg version="1.1" id="eds-icon--map-pin_svg"
	 xmlns="http://www.w3.org/2000/svg" xmlns:xlink="http://www.w3.org/1999/xlink" x="0px" y="0px" viewBox="0 0 24 24"
	 enable-background="new 0 0 24 24" xml:space="preserve">
<path id="eds-icon--map-pin_base" fill-rule="evenodd" clip-rule="evenodd" d="M12,3c3.3,0,6,2.7,6,6
	c0,1.5-0.6,3.1-1.8,4.9c-0.7,1.1-2.9,4.4-4.2,6.3C10.8,18.4,8.5,15,7.8,14C6.6,12.1,6,10.4,6,9C6,5.7,8.7,3,12,3 M12,2
	C8.1,2,5,5.1,5,9c0,2,1,4,2,5.5s5,7.5,5,7.5s4-6,5-7.5S19,11,19,9C19,5.1,15.9,2,12,2"/>
<path id="eds-icon--map-pin_circle" fill-rule="evenodd" clip-rule="evenodd" d="M12,6c-1.7,0-3,1.3-3,3s1.3,3,3,3
	s3-1.3,3-3S13.7,6,12,6z M12,11c-1.1,0-2-0.9-2-2s0.9-2,2-2s2,0.9,2,2S13.1,11,12,11z"/>
</svg>
