<?xml version="1.0" encoding="utf-8"?>
<!-- Generator: Adobe Illustrator 20.1.0, SVG Export Plug-In . SVG Version: 6.00 Build 0)  -->
<svg version="1.1" id="eds-icon--map_svg"
	 xmlns="http://www.w3.org/2000/svg" xmlns:xlink="http://www.w3.org/1999/xlink" x="0px" y="0px" viewBox="0 0 24 24"
	 enable-background="new 0 0 24 24" xml:space="preserve">
<path fill-rule="evenodd" clip-rule="evenodd" d="M20,3c-1.1,0-2,0.9-2,2H2v16h17.8c1.1,0,2.1-0.9,2.1-2h0V5C22,3.9,21.1,3,20,3z
	 M19.8,20H3V6h15v13h1c0-0.6,0.4-1,1-1c0.5,0,0.9,0.4,1,0.9C20.9,19.5,20.4,20,19.8,20z M21,17.3c-0.3-0.2-0.6-0.3-1-0.3
	c-0.4,0-0.7,0.1-1,0.3V6V5c0-0.6,0.4-1,1-1c0.6,0,1,0.4,1,1V17.3z"/>
<polygon id="eds-icon--map_cross" fill-rule="evenodd" clip-rule="evenodd" points="8.8,12.7 9.5,12 8.4,11 9.5,10 
	8.8,9.3 7.7,10.3 6.7,9.3 6,10 7,11 6,12 6.7,12.7 7.7,11.7 "/>
<rect id="eds-icon--map_dash_3_" x="12" y="10" fill-rule="evenodd" clip-rule="evenodd" width="2" height="1"/>
<rect id="eds-icon--map_dash_2_" x="15" y="12" fill-rule="evenodd" clip-rule="evenodd" width="1" height="2"/>
<rect id="eds-icon--map_dash_1_" x="12" y="15" fill-rule="evenodd" clip-rule="evenodd" width="2" height="1"/>
<rect id="eds-icon--map_dash" x="8" y="15" fill-rule="evenodd" clip-rule="evenodd" width="2" height="1"/>
</svg>
