<?xml version="1.0" encoding="utf-8"?>
<!-- Generator: Adobe Illustrator 20.1.0, SVG Export Plug-In . SVG Version: 6.00 Build 0)  -->
<svg version="1.1" id="eds-icon--mask_svg"
	 xmlns="http://www.w3.org/2000/svg" xmlns:xlink="http://www.w3.org/1999/xlink" x="0px" y="0px" viewBox="0 0 24 24"
	 enable-background="new 0 0 24 24" xml:space="preserve">
<path id="eds-icon--mask_base" fill-rule="evenodd" clip-rule="evenodd" d="M17.1,8.6v1l3.2,0.7L16.9,18
	c-0.8,1.8-2.6,3-4.6,3c-0.4,0-0.8,0-1.1-0.1c-0.5,0.1-1.1,0.2-1.7,0.2l-0.1,0c-0.1,0-0.2,0-0.2,0c0.2,0.1,0.4,0.2,0.6,0.3
	c0.8,0.4,1.6,0.5,2.5,0.5c2.3,0,4.5-1.3,5.5-3.6l4-8.8L17.1,8.6z"/>
<path id="eds-icon--mask_mask" fill-rule="evenodd" clip-rule="evenodd" d="M16.1,13.2V2l-7,1.5L2.2,2v11.2
	c0,3.4,2.4,6.2,5.6,6.8c0.4,0.1,0.9,0.1,1.4,0.1c0.1,0,0.2,0,0.3,0C13.2,20,16.1,16.9,16.1,13.2z M9.2,19.1c-1.3,0-1.8-0.3-2.3-0.4
	c-2.2-0.9-3.7-3-3.7-5.5V3.2l6,1.3l6-1.3v9.9C15.1,16.5,12.5,19.1,9.2,19.1"/>
<path id="eds-icon--mask_mouth" fill-rule="evenodd" clip-rule="evenodd" d="M11.9,13.2c-1.5,1.5-3.9,1.5-5.4,0
	l-0.4-0.4l-0.7,0.7l0.4,0.4c0.9,0.9,2.2,1.4,3.4,1.4c1.2,0,2.5-0.5,3.4-1.4l0.4-0.4l-0.7-0.7L11.9,13.2z"/>
<path id="eds-icon--mask_eye_1_" fill-rule="evenodd" clip-rule="evenodd" d="M12.2,8.3c-0.3,0.3-0.8,0.3-1.1,0
	L10.8,8l-0.7,0.7l0.4,0.4c0.3,0.3,0.8,0.5,1.2,0.5c0.4,0,0.9-0.2,1.2-0.5l0.4-0.4L12.6,8L12.2,8.3z"/>
<path id="eds-icon--mask_eye" fill-rule="evenodd" clip-rule="evenodd" d="M7.5,9.2l0.4-0.4L7.1,8.2L6.8,8.5
	C6.5,8.8,6,8.8,5.7,8.5L5.4,8.2L4.7,8.9L5,9.2c0.3,0.3,0.8,0.5,1.2,0.5S7.1,9.6,7.5,9.2z"/>
</svg>
