<?xml version="1.0" encoding="utf-8"?>
<!-- Generator: Adobe Illustrator 20.0.0, SVG Export Plug-In . SVG Version: 6.00 Build 0)  -->
<svg version="1.1" id="eds-icon--media_svg"
	 xmlns="http://www.w3.org/2000/svg" xmlns:xlink="http://www.w3.org/1999/xlink" x="0px" y="0px" viewBox="0 0 24 24"
	 enable-background="new 0 0 24 24" xml:space="preserve">
<path id="eds-icon--media_base" fill-rule="evenodd" clip-rule="evenodd" d="M3,5h18v3h-2v1h2v2.5h-2v1h2V15h-2v1h2
	v3H3v-3h2v-1H3v-2.5h2v-1H3V9h2V8H3V5z M21,3v1H3V3H2v1v1v3v1v2.5v1V15v1v3v1v1h1v-1h18v1h1V3H21z"/>
<path id="eds-icon--media_play" fill-rule="evenodd" clip-rule="evenodd" d="M10,8.3v7.2l5.7-3.9L10,8.3z M11,10
	L11,10l2.8,1.6l-2.8,2V10z"/>
</svg>
