<?xml version="1.0" encoding="utf-8"?>
<!-- Generator: Adobe Illustrator 20.0.0, SVG Export Plug-In . SVG Version: 6.00 Build 0)  -->
<svg version="1.1" id="eds-icon--megaphone_svg"
	 xmlns="http://www.w3.org/2000/svg" xmlns:xlink="http://www.w3.org/1999/xlink" x="0px" y="0px" viewBox="0 0 24 24"
	 enable-background="new 0 0 24 24" xml:space="preserve">
<path id="eds-icon--megaphone_base" fill-rule="evenodd" clip-rule="evenodd" fill="#231F20" d="M21,12
	c0-1.7-1.5-3.1-3-3.1V3h-1v1.1L7,9H3v6h2v3h1v-3h1.2l9.8,4.8V21h1v-5.9C19.5,15.1,21,13.7,21,12z M4,14h3v-4H4V14z M17,18.7l-9-4.4
	V9.6l9-4.4V18.7z M18,14.1V9.9c1,0,2,1,2,2.1C20,13.2,19,14.1,18,14.1z"/>
</svg>
