<?xml version="1.0" encoding="utf-8"?>
<!-- Generator: Adobe Illustrator 20.1.0, SVG Export Plug-In . SVG Version: 6.00 Build 0)  -->
<svg version="1.1" id="eds-icon--microphone_svg"
	 xmlns="http://www.w3.org/2000/svg" xmlns:xlink="http://www.w3.org/1999/xlink" x="0px" y="0px" viewBox="0 0 24 24"
	 enable-background="new 0 0 24 24" xml:space="preserve">
<path id="eds-icon--microphone_base" fill-rule="evenodd" clip-rule="evenodd" d="M17,12c0,2.6-2,4.7-4.5,5v-1
	c2-0.2,3.5-1.9,3.5-4V6c0-2.2-1.8-4-4-4S8,3.8,8,6v6c0,2,1.5,3.7,3.5,4v1C9,16.7,7,14.6,7,12H6c0,3.1,2.4,5.7,5.5,6v3H10v1h4v-1
	h-1.5v-3c3.1-0.3,5.5-2.8,5.5-6H17z M9,12h2v-1H9v-1h2V9H9V8h2V7H9V6c0-1.7,1.3-3,3-3s3,1.3,3,3v6c0,1.7-1.3,3-3,3S9,13.7,9,12"/>
</svg>
