<svg xmlns="http://www.w3.org/2000/svg" viewBox="0 0 48 32"><path fill="#76B747" d="M0 3c0-1.6 1.4-3 3-3h42c1.7 0 3 1.4 3 3v26c0 1.6-1.3 3-3 3H3c-1.6 0-3-1.4-3-3V3z"/><path fill-rule="evenodd" clip-rule="evenodd" fill="#FFF" d="M28.5 10l-.1-.1-.2-.2-.3-.1-.2-.2-.3-.1-.3-.1-.2-.1-.3-.1h-.3l-.3-.1h-.2l-.3-.1h-1l-.3.1H24l-.3.1-.3.1-.2.1h-.3l-.3.1-.2.2-.2.1-.3.1-.2.2-.3.1-.2.2-.3.2-.2.1-.8.8-.1.2-.4.5-.1.1-.4.7-.1.2-.1.2-.1.3-.1.2-.1.3-.2.5v.3l-.1.2-.1.2v1.1l-.1.2v.7l.1.3v.8l.1.2.1.3v.2l.5 1.4.2.2.1.2.2.4.4.5.2.2.4.5.3.4.3.3.2.1.2.1.2.2.1.1.2.1.2.2.2.1.1.1.3.1.5.3.2.1.2.1.2.1h.3l.2.1.4.1.2.1h.5l.2.1h2.2l.2-.1.4-.1h.3l.2-.1.2-.1h.3l.1-.1.3-.1.2-.1.2-.1.2-.1.2-.1.2-.1.2-.1.2-.1.1-.2.4-.2.2-.2.1-.1.2-.2.2-.2.1-.1.2-.2.3-.4.4-.5.1-.2.1-.2.1-.2.1-.2.2-.3v-.6l-.1-.1v-.2h-.2v-.1l-.1-.1h-.3v.1l-.1.1-.2.2v.2l-.2.2-.2.2-.2.4-.7.7-.1.1-.2.1-.2.2-.2.1-.2.2-.2.1-.2.1-.3.1-.2.1-.2.1-.2.1h-.2l-.2.1h-.3l-.2.1h-.3l-.2.1h-1.5l-.3-.1h-.4l-.2-.1-.2-.1H25l-.2-.1-.2-.1-.4-.2H24l-.2-.1-.2-.1-.2-.2-.2-.1-.2-.1-.1-.1-.2-.1-.4-.3-.1-.2-.2-.1-.2-.2-.1-.2-.2-.2-.1-.1-.3-.4-.1-.2-.2-.2-.1-.3-.2-.2-.1-.2-.1-.3-.1-.3-.1-.2v-.3l-.1-.2-.1-.3-.1-.5v-1.3l.1-.6.1-.3.1-.2V14l.1-.3.1-.3.3-.6.2-.2.1-.3.7-.9.2-.2.4-.3.1-.1.1-.1h.1l.1-.1.1-.1.2-.1.2-.1.1-.1h.1l.1-.1.1-.1H23.8l.2-.1h.1l.1-.1H24.5l.1-.1h.5-.1l-.1.1h-.1l-.1.1h-.1l-.1.1h-.2v.1l-.1.1-.2.1-.2.1-.1.1-.1.1v.1h-.1v.1l-.2.1-.1.3h-.1l-.4.7-.1.3-.1.2v.3l-.1.2v.3l-.1.2v1l.1.4v.5l.1.2v.3l.1.2.1.2.3.6.1.2.1.2.1.2.2.2.1.2.3.4.2.1.1.2.2.2.2.1.2.2.2.1.2.1.2.1.2.2.2.1h.2l.2.1.2.1.3.1.3.1h.2l.3.1h1.7l.3-.1h.2l.3-.1.3-.1.2-.1.2-.1.3-.1.2-.2.2-.1.2-.1.2-.2.3-.2.1-.2.2-.2.2-.3.2-.2.1-.2.3-.6.1-.2.2-.5V16l.1-.4v-2l-.1-.4-.1-.5-.1-.3-.1-.2-.1-.2v-.3l-.1-.2-.1-.3-.3-.4-.1-.2-.1-.2-.1-.2-.2-.2-.1-.3-.2-.1-.1-.2-.2-.2-.1-.2-.6-.6-.2-.1-.3-.3-.3-.2-.4-.3-.2-.1-.2-.2h-.4l-.1.1v.1l.1.1v.1h.1v.1h.1l.2.2.2.1.2.1.3.2.2.1.2.2.2.2.7.7.1.2.2.2.1.2.1.2.2.2.1.3.1.2.3.4v.3l.1.2.1.2.1.3.1.2v.5l.1.2v1.6l-.1.3-.1.6-.1.2-.3.6-.3.5-.3.2-.5.5-.2.2-.7.3-.2.1h-.3l-.2.1-.3.1h-1.5l-.3-.1-.3-.1-.3-.1h-.2l-.1-.1-.2-.1-.1-.1h-.2l-.1-.1-.2-.1-.1-.2h-.2l-.2-.3-.1-.1.2.1.3.1.2.1.3.1h.3l.3.1h.7l.3-.1h.5l.3-.1.3-.1.2-.1.2-.1.3-.2.3-.2.3-.2.4-.5.5-.8.2-.2.1-.3v-.3l.1-.3.1-.2v-1.2l-.1-.3-.1-.5v-.3l-.1-.2-.1-.3-.2-.2v-.2l-.4-.7-.2-.1-.1-.3-.4-.3-.1-.2-.3-.4-.3-.1-.1-.2-.2-.1-.2-.2-.2-.1-.3-.1-.1-.2-.3-.1-.2-.1-.2-.1-.3-.1-.2-.1-.4-.2h-.3L26 7l-.3-.1h-.2l-.2-.1H22.5l-.2.1h-.2l-.3.1h-.2l-.2.1h-.3l-.2.1h-.2l-.2.1-.3.1-.2.1-.2.1-.2.1-.2.1-.3.1-.1.1-.3.1-.1.1-.2.2-.2.1-.2.1-.2.2-.2.1-.2.1-.1.2-.2.1-.2.2-.3.3-.2.2-.2.1-.1.2-.2.2-.1.2-.1.1-.2.2-.3.6-.1.2-.1.2-.2.1v.3l-.1.1-.2.3-.2.6-.1.2-.1.3v.2l-.1.2v.6l.1.1.1.1.1.1h.9l.2-.1h.1l.1-.1.2-.1.1-.1.1-.1.1-.2.1-.1v-.5l.1-.3.1-.4.4-.9.1-.2.1-.2.1-.2.1-.2.1-.2.3-.3.1-.2.1-.2.3-.3.2-.2.2-.2.2-.2.1-.1.2-.2.2-.1.5-.4.2-.1.2-.1.4-.3.3-.1.2-.1.2-.1.2-.1h.2l.2-.1.3-.1.2-.1h.2l.3-.1h.7l.2-.1h1.4l.3.1h.5l.3.1.2.1.3.1.3.1.4.1.3.2.2.1.2.1.2.2.2.1.2.1.2.2.2.2.1.2.2.1.2.2.1.2.2.2.4.6v.3l.2.2.1.2v.3l.2.9V13.6l-.1.2-.1.2-.1.4-.3.5-.1.2-.5.5-.3.2-.2.1-.2.1-.3.1-.3.1-.2.1h-.3l-.2.1h-.5l-.2-.1h-.3l-.2-.1-.3-.1-.2-.1-.2-.1-.2-.1-.2-.2-.3-.1-.5-.6-.2-.2-.1-.3-.2-.4-.1-.3v-.2l-.1-.3v-.5l.1-.2v-.1l.1-.2v-.1l.1-.1v-.1l.1-.2.1-.2.2-.2.4-.4.1-.1.3-.2.3-.1.2-.1h.3l.3-.1h.9l.3.1h.3l.3.2h.1v.1h.3v-.1h.1v-.1h.1v-.2l-.1-.1v-.1h-.1V10h-.1"/></svg>