<?xml version="1.0" encoding="utf-8"?>
<!-- Generator: Adobe Illustrator 20.0.0, SVG Export Plug-In . SVG Version: 6.00 Build 0)  -->
<svg version="1.1" id="eds-icon--money_svg"
	 xmlns="http://www.w3.org/2000/svg" xmlns:xlink="http://www.w3.org/1999/xlink" x="0px" y="0px" viewBox="0 0 24 24"
	 enable-background="new 0 0 24 24" xml:space="preserve">
<path id="eds-icon--money_base" fill-rule="evenodd" clip-rule="evenodd" fill="#231F20" d="M3,18h18V6H3V18z M2,19
	h20V5H2V19z"/>
<g id="eds-icon--money_lines">
	<polygon fill-rule="evenodd" clip-rule="evenodd" fill="#231F20" points="17,8 17,9 18,9 18,15 17,15 17,16 19,16 19,15 19,9 19,8 
			"/>
	<polygon fill-rule="evenodd" clip-rule="evenodd" fill="#231F20" points="5,9 5,15 5,16 7,16 7,15 6,15 6,9 7,9 7,8 5,8 	"/>
</g>
<path id="eds-icon--money_circle" fill-rule="evenodd" clip-rule="evenodd" fill="#231F20" d="M12,8
	c-2.2,0-4,1.8-4,4s1.8,4,4,4s4-1.8,4-4S14.2,8,12,8z M12,15c-1.7,0-3-1.3-3-3s1.3-3,3-3s3,1.3,3,3S13.7,15,12,15z"/>
</svg>
