<?xml version="1.0" encoding="utf-8"?>
<!-- Generator: Adobe Illustrator 20.0.0, SVG Export Plug-In . SVG Version: 6.00 Build 0)  -->
<svg version="1.1" id="eds-icon--move_svg"
	 xmlns="http://www.w3.org/2000/svg" xmlns:xlink="http://www.w3.org/1999/xlink" x="0px" y="0px" viewBox="0 0 24 24"
	 enable-background="new 0 0 24 24" xml:space="preserve">
<polygon id="eds-icon--move_base" fill-rule="evenodd" clip-rule="evenodd" fill="#010101" points="12.5,11.5 
	12.5,2.8 15.5,5.8 16.2,5.1 12,0.9 7.8,5.1 8.5,5.8 11.5,2.8 11.5,11.5 2.8,11.5 5.8,8.5 5.1,7.8 0.9,12 5.1,16.2 5.8,15.5 
	2.8,12.5 11.5,12.5 11.5,21.2 8.5,18.2 7.8,18.9 12,23.1 16.2,18.9 15.5,18.2 12.5,21.2 12.5,12.5 21.2,12.5 18.2,15.5 18.9,16.2 
	23.1,12 18.9,7.8 18.2,8.5 21.2,11.5 "/>
</svg>
