<?xml version="1.0" encoding="UTF-8" standalone="no"?>
<svg viewBox="0 0 264 110" version="1.1" xmlns="http://www.w3.org/2000/svg" xmlns:xlink="http://www.w3.org/1999/xlink">
    <!-- Generator: Sketch 44.1 (41455) - http://www.bohemiancoding.com/sketch -->
    <title>illustration_orange_search</title>
    <desc>Created with Sketch.</desc>
    <defs></defs>
    <g id="Page-1" stroke="none" stroke-width="1" fill="none" fill-rule="evenodd">
        <g id="illustration_orange_search">
            <path d="M63.9688423,102.973832 C63.9688423,106.37859 49.6489281,109.139261 31.9844212,109.139261 C14.3199142,109.139261 0,106.37859 0,102.973832 C0,99.5690746 14.3199142,96.808403 31.9844212,96.808403 C49.6489281,96.808403 63.9688423,99.5690746 63.9688423,102.973832" id="Fill-1" fill="#0D2223"></path>
            <path d="M150.849796,76.3262257 C150.849796,76.3262257 176.424192,65.935069 183.836139,58.5271959 C189.434966,52.9317668 202.839619,32.7985019 202.839619,32.7985019 L216.351887,37.6796586 C216.351887,37.6796586 213.558867,54.3110392 204.589874,68.8839683 C195.620527,83.4568974 181.320857,99.8493601 181.320857,99.8493601 L150.849796,76.3262257 Z" id="Fill-4" fill="#FB8825"></path>
            <path d="M213.64645,35.6746623 C213.64645,35.6746623 218.592839,26.7840093 218.671686,18.6608004 C218.750888,10.5375914 218.425201,4.86382276 216.158891,4.86382276 C213.892935,4.86382276 213.64645,8.80242351 213.64645,8.80242351 C213.64645,8.80242351 213.963613,14.2592519 212.307832,16.8012108 C210.652406,19.3435243 208.614822,19.3435243 208.360168,21.1226474 C208.105515,22.902125 211.416722,24.4274422 211.416722,24.4274422 C211.416722,24.4274422 210.068869,30.5460802 206.285292,33.0157257 C202.50207,35.4853713 213.64645,35.6746623 213.64645,35.6746623" id="Fill-6" fill="#DB5A2C"></path>
            <path d="M216.480138,7.91810821 C217.732096,5.61861194 218.260227,8.49094403 218.260227,8.49094403 C218.260227,8.49094403 219.110848,-0.212190299 216.153741,0.00404104478 C213.196633,0.21991791 211.587734,4.10286567 211.587734,6.11842537 C211.587734,8.13398507 211.159049,12.9126978 209.909578,14.6404216 C208.65975,16.3681455 206.815376,18.0409254 206.599081,19.962194 C206.382785,21.8831082 211.321715,24.8089664 211.321715,24.8089664 L211.942899,22.6821007 C211.942899,22.6821007 210.685259,21.0192463 211.599099,19.076 C212.513295,17.1323993 214.433319,14.8577164 214.893259,13.3625299 C215.341477,11.9063358 215.451934,9.80641045 216.480138,7.91810821" id="Fill-8" fill="#363A43"></path>
            <path d="M206.617017,42.8926418 C206.556638,42.8926418 206.495905,42.8820075 206.436237,42.8586119 C206.179808,42.7590037 206.052304,42.470459 206.152105,42.2141716 C207.029719,39.9635933 207.533698,38.4985373 207.538671,38.4836493 C207.628172,38.2241716 207.911594,38.0873433 208.172641,38.1738358 C208.432977,38.2631642 208.572202,38.5467463 208.4827,38.8069328 C208.477373,38.8214664 207.968066,40.3038918 207.082283,42.5750299 C207.005568,42.7721194 206.81662,42.8926418 206.617017,42.8926418 M203.088448,51.1498433 C203.01777,51.1498433 202.946382,51.1349552 202.87819,51.1034067 C202.628154,50.9871381 202.520539,50.6904403 202.637033,50.4412425 C203.223411,49.1881642 203.76788,47.9669888 204.264756,46.8142276 C204.374147,46.5614851 204.668934,46.4469888 204.920747,46.5536866 C205.173624,46.6625112 205.290474,46.9549552 205.181793,47.2080522 C204.68101,48.3700299 204.131924,49.5997127 203.541284,50.8627164 C203.456755,51.044209 203.276686,51.1498433 203.088448,51.1498433 M198.92662,59.1014851 C198.840315,59.1014851 198.752589,59.079153 198.672677,59.0320075 C198.435426,58.8919888 198.35729,58.5860746 198.497935,58.3496381 C199.139009,57.2702537 199.789317,56.1057948 200.431456,54.8881642 C200.560026,54.6446381 200.861916,54.551056 201.105205,54.6793769 C201.349203,54.8073433 201.443322,55.1090037 201.314397,55.3521754 C200.664444,56.5843396 200.005968,57.7636866 199.35637,58.85725 C199.263317,59.0142836 199.097099,59.1014851 198.92662,59.1014851 M193.662713,66.3555149 C193.543378,66.3555149 193.424042,66.3133321 193.328503,66.227194 C193.123927,66.0428657 193.107945,65.7280896 193.292276,65.5239104 L193.802293,64.9571007 C194.453312,64.2293582 195.122088,63.3963358 195.79193,62.4807201 C195.953885,62.2591716 196.26501,62.2095448 196.488765,62.37225 C196.710743,62.5342463 196.760111,62.8461866 196.597445,63.068444 C195.909135,64.0095821 195.219048,64.8684813 194.54672,65.6203284 L194.033151,66.1913918 C193.93477,66.3002164 193.798742,66.3555149 193.662713,66.3555149 M187.476797,72.8594701 C187.349648,72.8594701 187.222499,72.8112612 187.124828,72.7148433 C186.929487,72.520944 186.928422,72.2058134 187.122342,72.0104963 C188.024462,71.1044515 188.957482,70.1516157 189.903998,69.1629776 C190.094722,68.9655336 190.410108,68.9573806 190.610067,69.1473806 C190.808604,69.3377351 190.816063,69.6528657 190.625339,69.8517276 C189.674916,70.8442649 188.736569,71.801709 187.830897,72.7127164 C187.733227,72.8101978 187.605012,72.8594701 187.476797,72.8594701 M181.014563,79.0947313 C180.88102,79.0947313 180.747478,79.0412052 180.649097,78.9355709 C180.461215,78.7342276 180.473291,78.4194515 180.675025,78.2319328 C181.502205,77.4641343 182.483527,76.5421381 183.571043,75.4971381 C183.770291,75.3064291 184.085323,75.3124552 184.276757,75.5106082 C184.467836,75.7087612 184.461798,76.0242463 184.263261,76.2149552 C183.170417,77.2638545 182.185188,78.18975 181.354101,78.9614478 C181.258206,79.0504216 181.136384,79.0947313 181.014563,79.0947313" id="Fill-10" fill="#DB5A2C"></path>
            <polygon id="Fill-12" fill="#F7682F" points="202.902342 31.4058657 217.67154 36.4273955 216.351745 41.6109216 199.65613 35.6744851"></polygon>
            <path d="M216.153421,0.00397014925 C219.110528,-0.211906716 218.260617,8.49087313 218.260617,8.49087313 C218.260617,8.49087313 218.252804,8.45400746 218.240728,8.39977239 C218.640289,10.8467313 218.713098,14.4134851 218.672254,18.6608358 C218.603707,25.6362463 214.954738,33.161097 213.922982,35.1525522 L217.671043,36.4272537 L216.351958,41.6107799 L215.583736,41.3374776 C214.244052,47.0417313 210.990381,58.4846231 204.58959,68.8839328 C195.620243,83.4565075 181.320928,99.8493246 181.320928,99.8493246 L165.615514,87.7247724 C165.615514,87.7247724 185.770441,84.7170299 203.148329,55.0500896 C216.998359,31.4057239 216.153421,0.00397014925 216.153421,0.00397014925" id="Fill-14" fill="#F9E9C5"></path>
            <path d="M69.8649788,22.2560896 C69.8649788,22.2560896 42.0331517,40.2022276 35.7552478,54.3994104 C29.477344,68.5965933 29.2766756,105.961724 29.2766756,105.961724 L39.057931,105.961724 C39.057931,105.961724 43.910556,78.5946343 51.7415982,64.7225075 C59.5726404,50.8503806 83.9852901,41.6109216 83.9852901,41.6109216 L69.8649788,22.2560896 Z" id="Fill-16" fill="#363A43"></path>
            <path d="M50.8814941,66.3240019 C50.8814941,66.3240019 54.3571428,57.4769496 68.9778822,49.0347108 C74.409782,45.8982929 58.7764661,30.1626772 58.7764661,30.1626772 C58.7764661,30.1626772 48.5956495,37.6286847 41.9568977,45.1655877 L50.8814941,66.3240019 Z" id="Fill-18" fill="#282C35"></path>
            <path d="M230.159227,102.995632 L230.012544,90.1266772 L150.849725,76.3261549 C150.849725,76.3261549 200.639299,32.5531325 153.132373,32.798431 L129.221927,102.995632 L230.159227,102.995632" id="Fill-20" fill="#FFA71A"></path>
            <path d="M230.14431,97.2178955 L234.235816,99.0026903 C234.235816,99.0026903 233.588704,93.1899664 236.176794,93.7755634 C238.76524,94.360806 243.29502,97.7701716 247.824799,98.2955075 C252.354934,98.8204888 259.828325,97.7283433 260.15117,100.327373 C260.271571,101.295806 259.715737,102.905489 259.715737,102.905489 L230.14431,102.995526 L230.14431,97.2178955 Z" id="Fill-22" fill="#F7682F"></path>
            <path d="M38.4871447,47.9060541 C34.8939362,42.8288713 27.8573991,41.6204571 22.77072,45.2067071 C17.6836859,48.7929571 16.472927,55.8158675 20.0661354,60.8926959 C23.6589887,65.9698787 30.695881,67.1782929 35.7825601,63.5920429 C40.8695943,60.0057929 42.0803531,52.9828825 38.4871447,47.9060541" id="Fill-24" fill="#FFA71A"></path>
            <path d="M35.5939672,49.9456828 C33.1294744,46.4632948 28.3031317,45.6345261 24.8139867,48.0942463 C21.3251968,50.5539664 20.4948201,55.3709627 22.9593129,58.8529963 C25.4238057,62.3353843 30.2501484,63.1645075 33.7389383,60.7044328 C37.2280833,58.2447127 38.05846,53.4280709 35.5939672,49.9456828" id="Fill-26" fill="#FFFFFF"></path>
            <polygon id="Fill-28" fill="#FFA71A" points="48.9463043 77.3148993 44.550422 80.414097 32.7212828 63.7001231 37.1171651 60.6009254"></polygon>
            <path d="M69.8649788,22.2560896 C69.8649788,22.2560896 98.9768221,3.87004478 136.754701,7.08267537 C161.03523,9.14786194 180.496518,19.8296903 183.296998,39.7945784 C186.097477,59.7591119 159.277161,93.3306231 159.277161,93.3306231 L200.620546,93.3306231 L204.437864,102.140101 L126.160472,103.313067 C126.160472,103.313067 116.286519,101.180175 121.089776,90.1364254 C129.221998,71.4380858 137.922841,55.0498769 137.922841,55.0498769 L77.7013485,49.1137948 L69.8649788,22.2560896 Z" id="Fill-30" fill="#FFA71A"></path>
            <path d="M158.832352,11.9819813 C152.285233,9.39075 144.783429,7.76547015 136.754915,7.08274627 C98.9770352,3.87011567 69.8648368,22.2561604 69.8648368,22.2561604 L77.7012064,49.1135112 L137.922698,55.0499478 L158.832352,11.9819813 Z" id="Fill-32" fill="#363A43"></path>
            <path d="M84.1791394,35.6746623 C98.5274668,33.7197183 104.357152,47.4982631 103.055471,58.2796996 C101.753789,69.0604272 95.3110889,105.621957 92.2790418,106.86511 C85.9602939,109.454924 80.4150963,101.980409 80.4150963,101.980409 C80.4150963,101.980409 79.2107304,74.1645504 80.3049951,58.9911362 C81.3996149,43.8180765 75.3873748,36.8724422 84.1791394,35.6746623" id="Fill-34" fill="#363A43"></path>
            <path d="M79.9910288,74.5952052 C79.9910288,74.5952052 85.8633338,72.8107649 86.2582777,67.3199067 C86.5711784,62.9690485 86.4568152,58.0336567 89.0793566,55.3952799 C91.7015428,52.756903 94.4039964,47.5028358 94.4079032,44.1395522 C94.4157169,38.0226866 90.3132012,33.2067537 86.8840792,31.0235261 C86.8840792,31.0235261 86.3857821,27.7105784 83.9852191,25.6404291 C81.2213218,23.2576306 74.8347374,21.6670896 74.8347374,21.6670896 L79.3055596,57.1403731 L79.9910288,74.5952052 Z" id="Fill-36" fill="#282C35"></path>
            <path d="M87.1012628,87.073597 C87.1012628,87.073597 54.1163407,70.5907425 47.8586813,69.4879627 L40.8363508,71.699903 L84.8431211,105.961582 L87.1012628,87.073597 Z" id="Fill-38" fill="#363A43"></path>
            <path d="M47.8586103,69.4879981 C47.8586103,69.4879981 42.9363728,66.2204235 40.5542784,65.4572332 C38.4673264,64.788334 34.5782652,66.323931 34.5782652,66.323931 C34.5782652,66.323931 33.3852646,67.6822892 34.1897142,69.2632593 C34.9945191,70.844584 40.8362797,71.6999384 40.8362797,71.6999384" id="Fill-40" fill="#F7682F"></path>
            <path d="M152.840676,31.3828601 C152.82789,31.3828601 152.815814,31.3825056 152.803383,31.3814422 C152.148458,31.3328787 151.493888,31.3144459 150.854591,31.3201175 C150.536718,31.3013302 150.352742,31.1031772 150.34919,30.8284571 C150.345994,30.5537369 150.566196,30.3275802 150.841805,30.3243899 C151.509161,30.315528 152.194275,30.3375056 152.877258,30.3885504 C153.152156,30.4087556 153.358152,30.6476735 153.337552,30.9220392 C153.318373,31.1836437 153.099591,31.3828601 152.840676,31.3828601" id="Fill-42" fill="#FB8825"></path>
            <path d="M160.916533,33.8041549 C160.826677,33.8041549 160.734689,33.7800504 160.652646,33.7282966 C159.669903,33.1150504 158.551842,32.6088563 157.329008,32.2242481 C157.06654,32.1409459 156.920212,31.8616175 157.002966,31.5993041 C157.08643,31.3373451 157.367721,31.1937817 157.629122,31.2738937 C158.932224,31.6843787 160.127356,32.2260205 161.181842,32.8842854 C161.415186,33.0299757 161.486219,33.3369534 161.339891,33.5701996 C161.245772,33.7215616 161.083106,33.8041549 160.916533,33.8041549 M165.957751,40.4148078 C165.743942,40.4148078 165.546115,40.276916 165.480409,40.0617481 C165.115299,38.8646772 164.591075,37.7704049 163.922653,36.8090616 C163.765315,36.5829049 163.821786,36.2727369 164.047672,36.1160578 C164.274622,35.9586698 164.585037,36.0157407 164.74202,36.2411884 C165.469754,37.2876063 166.039794,38.4754608 166.435094,39.7721399 C166.515361,40.0351623 166.366547,40.3134272 166.103014,40.3935392 C166.054711,40.4080728 166.005343,40.4148078 165.957751,40.4148078 M166.033046,48.8091922 C165.99824,48.8091922 165.963079,48.8056474 165.927207,48.7978489 C165.658347,48.740069 165.487157,48.4749198 165.545049,48.2058713 C165.850136,46.7943414 166.031626,45.5628862 166.084545,44.5469534 C166.098752,44.2722332 166.329254,44.062028 166.608414,44.0754981 C166.884023,44.0900317 167.095346,44.3239869 167.081139,44.5987071 C167.025023,45.6678116 166.836786,46.9524384 166.520333,48.4160765 C166.4699,48.6493228 166.263194,48.8091922 166.033046,48.8091922 M163.642073,56.9728116 C163.587732,56.9728116 163.532682,56.9643041 163.478697,56.9458713 C163.21765,56.855834 163.080201,56.5718974 163.170413,56.3120653 C163.607622,55.0518974 164.0015,53.8488004 164.341749,52.7350317 C164.422016,52.4723638 164.699045,52.3245466 164.964709,52.4035951 C165.228597,52.4840616 165.376701,52.762681 165.296433,53.0257034 C164.952278,54.1508153 164.554493,55.3666735 164.113377,56.6378302 C164.041989,56.8441362 163.848424,56.9728116 163.642073,56.9728116 M160.624587,64.9322519 C160.562078,64.9322519 160.498504,64.9205541 160.43706,64.8957407 C160.181696,64.7925877 160.058809,64.5022705 160.161807,64.2474011 C160.636663,63.077625 161.101575,61.9032407 161.548728,60.7370093 C161.647109,60.4800131 161.937634,60.3527556 162.192998,60.4498825 C162.449782,60.5480728 162.578708,60.8362631 162.479972,61.0929049 C162.031042,62.2648078 161.564,63.4452183 161.086658,64.6210205 C161.008521,64.8149198 160.820994,64.9322519 160.624587,64.9322519 M157.295622,72.7662071 C157.228141,72.7662071 157.159949,72.7523825 157.094598,72.7236698 C156.842431,72.6127183 156.728423,72.3185019 156.83959,72.0671772 C157.336466,70.9424198 157.841866,69.7836325 158.346201,68.603222 C158.454527,68.3504795 158.748959,68.2331474 159.000771,68.3409086 C159.254004,68.4486698 159.371919,68.7414683 159.263949,68.9942108 C158.757838,70.1785205 158.251372,71.3412071 157.75272,72.4688004 C157.669966,72.6552556 157.487411,72.7662071 157.295622,72.7662071 M153.758885,80.5118974 C153.687497,80.5118974 153.615398,80.4966549 153.547206,80.4647519 C153.29788,80.3474198 153.19062,80.050722 153.30747,79.8022332 C153.800084,78.7558153 154.335673,77.605181 154.900386,76.3737257 C155.01546,76.124528 155.310958,76.0135765 155.561349,76.1284272 C155.811741,76.242569 155.921842,76.5382034 155.807479,76.7881101 C155.2417,78.0224011 154.704335,79.1769347 154.210655,80.2254795 C154.125416,80.4062631 153.946057,80.5118974 153.758885,80.5118974" id="Fill-44" fill="#FB8825"></path>
            <path d="M152.826469,86.8200037 C152.803739,86.8200037 152.779587,86.8185858 152.756502,86.815041 L150.780006,86.5364216 C150.621247,86.5140896 150.482733,86.4169627 150.407793,86.2748172 C150.333208,86.1330261 150.332142,85.9642948 150.403531,85.8207313 C150.403886,85.8193134 150.726376,85.1748731 151.279724,84.0398358 C151.39977,83.7927649 151.699529,83.6903209 151.946369,83.8097799 C152.194275,83.9299478 152.297628,84.2280634 152.177227,84.4754888 C151.942107,84.9579328 151.748187,85.3524664 151.603279,85.6466828 L152.895726,85.8288843 C153.168493,85.8671679 153.358507,86.1192015 153.320149,86.3917948 C153.284988,86.6406381 153.070823,86.8200037 152.826469,86.8200037" id="Fill-46" fill="#FB8825"></path>
            <path d="M161.204075,88.0008041 C161.181345,88.0008041 161.157193,87.9993862 161.134108,87.9958414 L157.410554,87.4712146 C157.137787,87.432931 156.947773,87.1808974 156.986131,86.9086586 C157.024134,86.6360653 157.278432,86.4467743 157.549778,86.4850578 L161.273333,87.0096847 C161.5461,87.0479683 161.736113,87.3000019 161.697755,87.5725951 C161.662594,87.8214384 161.448784,88.0008041 161.204075,88.0008041 M169.581362,89.1812146 C169.558276,89.1812146 169.53448,89.1797966 169.511394,89.1762519 L165.788195,88.6519795 C165.515428,88.6136959 165.325415,88.3616623 165.363773,88.0894235 C165.401775,87.8168302 165.656429,87.6278937 165.92742,87.6658228 L169.650619,88.1900951 C169.923386,88.2283787 170.1134,88.4804123 170.075042,88.7526511 C170.03988,89.0014944 169.825716,89.1812146 169.581362,89.1812146 M177.959004,90.3619795 C177.935918,90.3619795 177.912122,90.3602071 177.889036,90.3570168 L174.165127,89.8323899 C173.892715,89.7937519 173.702346,89.5420728 173.741059,89.2694795 C173.779417,88.9972407 174.034426,88.8036959 174.304707,88.8458787 L178.028261,89.3708601 C178.301028,89.4091437 178.491041,89.6611772 178.452328,89.933416 C178.417522,90.1822593 178.203357,90.3619795 177.959004,90.3619795 M186.336645,91.5427444 C186.31356,91.5427444 186.290119,91.540972 186.266323,91.5377817 L182.543124,91.0131549 C182.270001,90.9745168 182.079988,90.7228377 182.118701,90.4502444 C182.157059,90.1780056 182.412068,89.9855243 182.682348,90.0266437 L186.405903,90.551625 C186.679025,90.5899086 186.868683,90.8419422 186.82997,91.114181 C186.795164,91.3630243 186.581354,91.5427444 186.336645,91.5427444 M194.713932,92.7228004 C194.690846,92.7228004 194.66705,92.7213825 194.643609,92.7178377 L190.920765,92.1932108 C190.647643,92.1549272 190.45763,91.9028937 190.496343,91.6306549 C190.534701,91.358416 190.789709,91.1666437 191.060345,91.2070541 L194.783189,91.731681 C195.055956,91.7699646 195.24597,92.0219981 195.207257,92.2942369 C195.17245,92.5434347 194.958286,92.7228004 194.713932,92.7228004 M203.091574,93.9035653 C203.068488,93.9035653 203.044692,93.9021474 203.021251,93.8986026 L199.298407,93.3739757 C199.025285,93.3356922 198.835271,93.0836586 198.873984,92.8114198 C198.912342,92.5395354 199.162024,92.348472 199.437632,92.387819 L203.160831,92.9124459 C203.433243,92.9507295 203.623611,93.2027631 203.584898,93.4750019 C203.550092,93.7241996 203.336283,93.9035653 203.091574,93.9035653 M211.46886,95.0836213 C211.44613,95.0836213 211.422689,95.0825578 211.398893,95.0790131 L207.675694,94.5540317 C207.402571,94.5157481 207.212558,94.2637146 207.250916,93.9914757 C207.289629,93.7192369 207.539665,93.5299459 207.814563,93.5682295 L211.538473,94.0928563 C211.81124,94.1311399 212.001253,94.382819 211.962895,94.6554123 C211.927379,94.9042556 211.713924,95.0836213 211.46886,95.0836213 M219.846857,96.2643862 C219.824127,96.2643862 219.799975,96.2629683 219.776534,96.259778 L216.053335,95.7347966 C215.780213,95.6965131 215.5902,95.444834 215.628558,95.1722407 C215.667271,94.9000019 215.917307,94.7114198 216.19256,94.7486399 L219.916114,95.2736213 C220.188881,95.3119049 220.378895,95.563584 220.340537,95.8361772 C220.305376,96.0850205 220.091566,96.2643862 219.846857,96.2643862" id="Fill-48" fill="#FB8825"></path>
            <path d="M226.476801,97.1992146 C226.45407,97.1992146 226.429919,97.1977966 226.406478,97.1942519 L224.430338,96.9156325 C224.157571,96.8773489 223.967557,96.6253153 224.005915,96.3530765 C224.044273,96.0808377 224.294665,95.8872929 224.569563,95.9294757 L226.545703,96.2080951 C226.818825,96.2463787 227.008839,96.4984123 226.970481,96.7710056 C226.935319,97.0198489 226.721155,97.1992146 226.476801,97.1992146" id="Fill-50" fill="#FB8825"></path>
            <polygon id="Fill-52" fill="#FCC870" points="230.159227 88.8930597 223.898371 87.7977239 223.898371 103.312854 230.14431 102.995597"></polygon>
            <path d="M234.235638,99.002584 C234.235638,99.002584 235.648841,96.5708675 237.207307,97.2177892 C239.412884,98.1334049 242.440314,98.7948601 245.811899,98.9816698 C251.565579,99.3006996 254.335869,99.1943563 255.294816,100.364132 C256.253762,101.533909 255.294816,102.995774 255.294816,102.995774 L262.995512,102.995774 C262.995512,102.995774 263.421711,99.2368937 260.544516,98.3648787 C257.668031,97.4928638 252.941845,95.8920429 246.586515,96.1185541 C241.790361,96.2894123 238.909615,92.5592444 237.098626,92.5592444 C233.04832,92.5592444 232.880327,96.1079198 234.235638,99.002584" id="Fill-54" fill="#363A43"></path>
            <path d="M79.3056661,32.7974739 L76.037434,35.1568769 C76.037434,35.1568769 55.9293891,0.949078358 38.3788903,28.7819515 C38.3788903,28.7819515 35.8266716,33.3384067 37.6944865,35.5648806 C39.5623014,37.791 47.4800039,46.3232761 47.6820931,46.8358507 C47.8845373,47.3484254 48.4066305,48.6702724 48.4066305,48.6702724 L50.3000173,47.9258694 C50.3000173,47.9258694 54.8564344,51.3267276 56.526067,50.5174552 C58.1960547,49.7081828 62.1948621,44.2105896 64.1003245,42.9564478 C68.5292372,40.0419328 82.5806464,45.3778843 82.5806464,45.3778843 L79.3056661,32.7974739 Z" id="Fill-57" fill="#F7682F"></path>
            <path d="M83.9852546,30.3559384 C81.9185471,19.3270765 63.7649774,20.3047257 63.7649774,20.3047257 C63.7649774,20.3047257 40.3560251,5.50705784 35.7552123,36.5819832 C35.7552123,36.5819832 41.4367934,41.0937743 46.6314427,37.9977668 C51.8257369,34.9017593 53.8810791,35.2094459 56.7003822,36.5851735 C59.5196852,37.9609011 65.0226181,41.8867407 69.9636793,41.6698004 L83.9852546,30.3559384 Z" id="Fill-59" fill="#FCC870"></path>
            <path d="M54.7269411,36.0146063 C54.7269411,36.0146063 54.3927304,33.803375 56.2864724,34.3418265 C58.1802144,34.880278 57.0106547,37.0922183 57.0106547,37.0922183 L54.7269411,36.0146063 Z" id="Fill-61" fill="#F7682F"></path>
            <path d="M67.6934265,23.2577369 C66.3068607,26.0673265 62.3574213,31.5486138 62.5605759,36.4804608 C62.7637305,41.4126623 66.8072888,44.8085578 66.0937614,49.0832034 C65.379879,53.3578489 61.6446043,56.5860765 67.0441841,61.5859832 C72.444119,66.5858899 68.0585365,68.4692295 71.5682811,70.8534459 C75.0776705,73.2376623 80.7404279,67.7397146 80.1995109,64.9311884 C79.6582389,62.1223078 79.1190978,59.4137444 81.2770828,57.1808899 C83.4350678,54.9480354 89.4451769,45.0173451 88.9415524,39.5920653 C88.4375727,34.166431 83.9852191,30.3557966 83.9852191,30.3557966 L67.6934265,23.2577369 Z" id="Fill-63" fill="#FCC870"></path>
        </g>
    </g>
</svg>
