<?xml version="1.0" encoding="UTF-8" standalone="no"?>
<svg width="292px" height="370px" viewBox="0 0 292 370" version="1.1" xmlns="http://www.w3.org/2000/svg" xmlns:xlink="http://www.w3.org/1999/xlink">
    <!-- Generator: Sketch 44.1 (41455) - http://www.bohemiancoding.com/sketch -->
    <title>illustration_orange_flag</title>
    <desc>Created with Sketch.</desc>
    <defs></defs>
    <g id="Page-1" stroke="none" stroke-width="1" fill="none" fill-rule="evenodd">
        <g id="illustration_orange_flag" fill-rule="nonzero">
            <polygon id="Fill-1" fill="#FFFFFF" points="0 280.901076 0 369.991279 291.708 369.991279 223.172744 345.145804 110.848774 263.609862 61.6597534 263.365134 37.9701769 263.333796"></polygon>
            <path d="M144.513123,63.8454219 C144.612057,65.3315554 144.225028,66.0504219 142.705408,66.5598174 C133.421474,69.6717317 125.846322,70.661165 116.026564,70.6064169 C112.379474,70.5865806 108.725261,70.2985579 105.308488,68.8243262 C103.850602,68.1951196 102.202763,67.2850315 102.202763,65.5791121 C102.202763,63.8739861 102.201972,65.5759383 102.201972,65.5735579 C101.796739,63.1130668 101.891716,55.5554471 101.964531,51.9198552 C101.984318,50.9486713 101.043261,50.251228 100.125156,50.5606738 C93.673891,52.7386965 72.4553934,59.9432305 64.5541564,63.1186209 C62.9672607,63.7565554 62.7559384,63.3272985 62.664128,61.8284698 C62.4456825,58.2666688 62.0800237,50.3694521 61.7072417,42.0096537 C62.5976445,42.4658879 63.6036019,42.7293136 64.6720853,42.7293136 C68.276436,42.7293136 71.1977488,39.7998929 71.1977488,36.1873111 C71.1977488,32.5747292 68.276436,29.646102 64.6720853,29.646102 C63.3978199,29.646102 62.2114076,30.0182305 61.2070332,30.6521977 C60.9181469,24.057034 60.6688341,18.3497418 60.5398246,15.7313539 C60.493128,14.7903212 60.5010427,14.0063917 61.648673,13.5517443 C71.2602749,9.7431801 92.2769479,0.76925063 96.7685355,0.793847607 C100.338062,0.812890428 101.089957,1.60792821 101.218175,5.18004408 C101.395464,10.1129282 101.664564,15.0418451 101.792782,19.9755227 C101.82919,21.3918325 102.267664,21.8187091 103.706555,21.8266436 C113.909384,21.8829786 130.891147,20.0025 140.486919,16.6485831 C141.917104,16.1487091 142.311256,16.2217065 142.364284,17.8831927 C142.445014,20.4166814 142.718071,26.7277897 143.045739,33.9037594 C142.750521,33.8632935 142.450555,33.8347292 142.144256,33.8347292 C138.539905,33.8347292 135.618592,36.7633564 135.618592,40.3759383 C135.618592,43.9885202 138.539905,46.9171474 142.144256,46.9171474 C142.661877,46.9171474 143.162877,46.8504975 143.645673,46.7362406 C144.035076,54.9032305 144.391237,62.018898 144.513123,63.8454219 Z" id="Fill-1" fill="#FFA71A"></path>
            <path d="M101.725824,17.9000932 C101.585734,13.6590982 101.371245,9.42127708 101.218492,5.18028212 C101.090274,1.6073728 100.338378,0.813128463 96.7688521,0.793292191 C92.276473,0.768695214 71.2605915,9.74262469 61.6489896,13.5511889 C60.5013592,14.0066297 60.4934445,14.7897657 60.5393498,15.7307985 C60.6691507,18.3491864 60.9184635,24.057272 61.2065583,30.6524358 C62.2117242,30.0184685 63.397345,29.6463401 64.6724019,29.6463401 C68.2759611,29.6463401 71.1972739,32.5749673 71.1972739,36.1875491 C71.1972739,39.800131 68.2759611,42.7287582 64.6724019,42.7287582 C63.603127,42.7287582 62.5971697,42.4661259 61.7067668,42.0090982 C62.0795488,50.3688967 62.4459991,58.2669068 62.6636531,61.8279144 C62.7554635,63.3275365 62.9667858,63.7567935 64.554473,63.1188589 C72.45571,59.9426751 93.6742076,52.7389345 100.124682,50.5609118 C101.042786,50.2506725 101.984634,50.9489093 101.964847,51.9200932 C101.891241,55.5556851 101.797056,63.1125113 102.202288,65.573796 C102.202288,65.5753829 102.202288,63.8742242 102.202288,65.5793501 C102.202288,65.9102191 102.279852,66.2030025 102.390658,66.4775365 L101.725824,17.9000932 Z" id="Fill-3" fill="#F8B359"></path>
            <path d="M134.792694,167.12932 C134.792694,167.12932 103.964178,188.473942 100.046405,197.309811 C96.1294242,206.146474 90.2939218,250.506725 90.2939218,250.506725 L104.137509,247.370214 C104.137509,247.370214 113.627225,216.334383 119.853713,212.406801 C126.080201,208.479219 152.819197,198.47301 152.819197,198.47301 C152.819197,198.47301 163.363149,219.786688 164.261467,228.497191 C165.439964,239.929232 161.915552,280.629295 161.915552,280.629295 L173.641168,288.706625 C173.641168,288.706625 188.377533,238.841411 188.867453,233.441184 C189.357372,228.041751 188.377533,167.12932 188.377533,167.12932 L134.792694,167.12932 Z" id="Fill-6" fill="#F8B359"></path>
            <path d="M154.557184,100.00155 C154.557184,100.00155 130.574876,110.305304 113.445108,108.833452 C96.3153403,107.361601 66.6273308,94.5180113 66.6273308,94.5180113 L66.300454,103.608578 C66.300454,103.608578 82.808127,120.042533 100.55999,125.691903 C116.398871,130.731903 141.124369,126.454409 141.124369,126.454409 C141.124369,126.454409 168.261473,119.137205 154.557184,100.00155" id="Fill-8" fill="#F7682F"></path>
            <path d="M142.128506,128.148268 L134.792378,167.128923 L188.378008,167.128923 L188.546591,112.869578 L172.634894,103.672689 L169.772447,99.295512 C163.591073,97.4166203 144.565439,105.45478 144.565439,105.45478 L142.128506,128.148268 Z" id="Fill-10" fill="#F7682F"></path>
            <polygon id="Fill-12" fill="#FFA71A" points="134.792694 162.665841 134.792694 167.129003 188.620514 168.488977 189.004377 162.665841"></polygon>
            <path d="M194.573945,165.554558 C200.571699,160.913664 222.296737,146.08248 224.216841,142.039848 C226.449576,137.340238 214.234832,127.909281 206.273443,123.007341 C200.449813,119.42253 183.213988,103.645553 176.013993,105.625213 C168.769675,107.617568 188.025329,134.970994 188.025329,134.970994 L203.326012,139.852304 C203.326012,139.852304 194.310386,152.213475 188.546116,160.68277 L194.573945,165.554558 Z" id="Fill-14" fill="#F7682F"></path>
            <path d="M188.540418,135.135476 C188.540418,135.135476 185.103858,133.234368 183.982346,132.115602 C182.928109,131.063486 179.844545,126.809003 179.844545,126.809003 C179.844545,126.809003 182.290185,138.455275 182.595692,141.825854 C182.9012,145.197227 185.714081,162.665841 185.714081,162.665841 L189.00501,162.665841 L188.540418,135.135476 Z" id="Fill-17" fill="#DB5A2C"></path>
            <path d="M171.94877,96.9101864 C171.94877,96.9101864 188.720793,71.1095441 162.040367,64.1224156 C162.040367,64.1224156 157.75377,63.2353375 156.44468,65.2935491 C155.136381,67.3525542 150.311585,75.8480327 149.953049,76.1400227 C149.594514,76.4312191 148.669286,77.184204 148.669286,77.184204 L149.741727,78.5100605 C149.741727,78.5100605 148.172244,83.0168615 149.240727,84.147529 C150.30921,85.2781965 155.713362,87.0840907 157.196575,88.2909295 C158.718571,89.5287128 157.595476,93.0516348 155.866907,96.6007406 L171.94877,96.9101864 Z" id="Fill-19" fill="#FCC870"></path>
            <path d="M156.808201,90.8217997 C156.808201,90.8217997 160.214685,92.2698476 165.88477,91.7271272 C171.713941,91.1693312 175.216983,88.7746965 175.216983,88.7746965 C175.216983,88.7746965 172.902727,96.633034 173.159164,98.7475806 C173.4156,100.862921 173.159164,103.975628 173.159164,103.975628 L157.792789,112.869419 C157.792789,112.869419 154.058637,114.356346 153.032893,107.031208 C152.007941,99.7060693 156.808201,90.8217997 156.808201,90.8217997" id="Fill-21" fill="#F7682F"></path>
            <polygon id="Fill-23" fill="#FFA71A" points="71.1975905 94.515631 70.3934578 107.351286 66.3007706 104.659107 66.6268559 94.5188048"></polygon>
            <path d="M188.659375,160.676739 C188.659375,160.676739 184.749518,167.385366 185.939096,169.430883 C187.129465,171.476399 199.200162,173.01014 199.200162,173.01014 C199.200162,173.01014 199.880034,171.476399 199.200162,171.305807 C198.519499,171.135215 191.039323,168.067734 191.039323,168.067734 L194.574025,165.554875 L188.659375,160.676739 Z" id="Fill-25" fill="#FCC870"></path>
            <polygon id="Fill-27" fill="#FFA71A" points="188.914782 157.338929 197.648645 165.55432 194.792233 166.843678 185.714081 160.676977"></polygon>
            <path d="M67.8948687,260.920689 L67.6012336,264.296822 L103.503859,263.685865 C103.503859,263.685865 104.203518,259.832868 103.954205,255.455399 C103.954205,255.455399 99.03839,254.139064 92.3267313,252.056256 L88.8988782,251.967389 C88.8988782,251.967389 68.7836886,254.056545 67.8948687,260.920689" id="Fill-29" fill="#45494E"></path>
            <polygon id="Fill-31" fill="#45494E" points="88.9726431 257.508533 91.1151502 233.032953 107.552382 237.10653 104.333477 255.559024"></polygon>
            <path d="M184.954983,312.039079 L182.74995,314.94311 L155.258267,296.439835 C155.258267,296.439835 155.591476,291.137203 158.952054,287.828513 C158.952054,287.828513 162.559571,289.199596 169.413694,292.412278 L174.217912,294.02219 C174.217912,294.02219 189.205173,305.92316 184.954983,312.039079" id="Fill-33" fill="#45494E"></path>
            <polygon id="Fill-36" fill="#45494E" points="158.951896 287.828433 161.284355 261.762778 180.621531 267.48594 174.044422 295.441594"></polygon>
            <polygon id="Fill-38" fill="#45494E" points="70.1917915 185.281492 73.5507867 185.048218 61.3589953 8.86641688 58 9.10048489"></polygon>
            <path d="M64.5025526,94.5184081 C64.5025526,94.5184081 60.8554626,94.3414685 60.5665763,96.8035466 C60.27769,99.2648312 62.5349602,101.581708 62.5349602,101.581708 C62.5349602,101.581708 67.5204246,103.114655 68.0981972,102.970247 C68.6759697,102.825045 69.5386711,98.5665945 68.8208085,97.0328539 C68.1021545,95.4999068 64.5025526,94.5184081 64.5025526,94.5184081" id="Fill-40" fill="#FCC870"></path>
            <path d="M142.351304,126.073632 L144.565835,118.929401 L121.119352,128.148506 C121.119352,128.148506 133.501887,128.148506 142.351304,126.073632" id="Fill-42" fill="#DB5A2C"></path>
            <polygon id="Fill-44" fill="#FFA71A" points="152.819118 197.679639 149.371478 193.36882 123.547421 206.842409 120.543795 211.991906"></polygon>
            <polygon id="Fill-46" fill="#DB5A2C" points="155.731408 165.187746 157.884995 165.187746 157.884995 90.2939169 155.731408 90.2939169"></polygon>
            <polygon id="Fill-48" fill="#DB5A2C" points="164.809559 154.939534 178.618322 154.939534 178.618322 143.499559 164.809559 143.499559"></polygon>
            <polygon id="Fill-49" fill="#FFA71A" points="128.828895 188.173224 120.622151 177.039521 133.894298 167.207872 142.101042 178.340781"></polygon>
            <polygon id="Fill-50" fill="#FFA71A" points="175.625777 193.368741 189.43454 193.368741 189.43454 174.179131 175.625777 174.179131"></polygon>
            <path d="M178.013244,87.8070831 C177.217026,89.5502947 196.707746,98.3274484 192.869121,105.716063 C189.030495,113.105471 192.910277,119.989451 192.57786,125.319854 C192.246235,130.649463 187.319339,131.212814 184.202533,129.65527 C181.086519,128.097725 180.6615,119.636365 179.397524,116.694249 C178.133547,113.752134 172.059813,112.934879 168.251263,108.131327 C164.443505,103.327776 173.322206,90.5508363 175.217775,88.7742997 L178.013244,87.8070831 Z" id="Fill-51" fill="#DB5A2C"></path>
            <path d="M160.268267,60.6142519 C155.019244,61.0768338 147.85249,67.2919345 150.985917,70.0483829 C156.115428,74.5591511 162.220822,72.477136 161.736443,75.3867204 C161.252855,78.2970982 159.317713,82.9038741 161.252855,85.0866574 C163.187997,87.2694408 176.739533,86.8489118 175.04658,88.8190504 C173.352836,90.7891889 165.896405,104.450033 170.19804,108.814806 C174.499675,113.179579 180.625646,113.337476 182.198296,116.126456 C183.770154,118.914642 185.100613,127.280788 188.366215,128.493975 C191.631817,129.706368 196.469277,128.614579 196.227879,123.280209 C195.985689,117.945045 191.389627,111.518887 194.41304,103.758937 C197.437244,95.9989874 177.117855,89.374466 177.722537,87.5558766 C178.32722,85.7372872 184.230789,72.4961788 180.871002,67.5029924 C178.240158,63.5928665 168.183751,59.9168086 160.268267,60.6142519" id="Fill-52" fill="#363A43"></path>
            <path d="M175.046501,88.818971 C176.603321,88.5587191 179.201714,89.2030013 179.201714,89.2030013 L178.059624,86.6584043 C178.059624,86.6584043 175.789691,86.0323715 173.485724,86.9599156 L175.046501,88.818971 Z" id="Fill-53" fill="#FFA71A"></path>
            <path d="M175.486162,75.2976952 C171.409304,74.0630856 158.775873,70.1926322 157.417712,61.926461 C157.058385,59.7381234 164.170527,58.4011587 168.090674,58.1448741 C173.698233,57.7782997 179.308167,61.8550504 180.636252,65.270063 C181.293963,66.9617003 182.550025,72.4960202 181.700778,76.448199 C181.700778,76.448199 178.075849,76.0816247 175.486162,75.2976952" id="Fill-54" fill="#FB8825"></path>
            <path d="M182.020453,74.3161171 C181.974547,74.8096436 181.799633,75.9887116 181.700699,76.4481196 C181.700699,76.4481196 178.07577,76.0815453 175.486083,75.2976159 C171.409225,74.0630063 158.775794,70.1925529 157.417633,61.9263816 C157.307618,61.2567091 157.896472,60.6671751 158.879476,60.1641272 C158.879476,60.1641272 159.504737,62.727767 161.608462,65.1977796 C167.251637,71.822301 182.020453,74.3161171 182.020453,74.3161171" id="Fill-55" fill="#FFA71A"></path>
        </g>
    </g>
</svg>