<?xml version="1.0" encoding="utf-8"?>
<svg version="1.1" id="eds-icon--ordered-list-chunky_svg"
	 xmlns="http://www.w3.org/2000/svg" xmlns:xlink="http://www.w3.org/1999/xlink" viewBox="0 0 24 24">
	<path id="eds-icon--ordered-list-chunky_svg" d="M7.9,9v1.8l-2.2,0.9h2.2V13h-4v-1.8l2.2-0.9H3.9V9H7.9z M7.9,15v1.3L7,17l0.9,0.7V19h-4v-1.3h2.2L5.2,17
		l0.9-0.7l-2.2,0V15H7.9z M10.1,5h10v2h-10V5z M10.1,11h10v2h-10V11z M10.1,17h10v2h-10V17z M6.6,3v2.7h1.3V7h-4V5.7h1.3V4.3H3.9
		V3.8L5.2,3H6.6z"/>
</svg>
