<?xml version="1.0" encoding="UTF-8" standalone="no"?>
<svg xmlns="http://www.w3.org/2000/svg" width="50" height="55" viewBox="0 0 50 55">
    <g fill="none" fill-rule="evenodd">
        <circle cx="25" cy="30" r="25" fill="#F8F8FA"/>
        <path fill="#FFF" d="M37.9599609 2.38110352l-3.6555175 2.01269531L29.53125 2l-4.590332 2.39379883-4.92333988-2.7175293-5.02880859 2.42333984-3.27856445-1.71850585.26178476 34.38360988c.01550396 2.0363376 1.6706602 3.67894 3.70705679 3.67894H39.7502192c2.7734378 0 5.0217535-2.2483156 5.0217535-5.0217534 0-2.7734379-2.2483157-5.0217535-5.0217535-5.0217535h-1.3267573l-.463501-28.01904298z"/>
        <path fill="#D2D6DF" d="M20.902 39.004l21.541.023-.697 1.21-22.707.177z"/>
        <path fill="#000" d="M16.585 40h22.84v1.011h-22.84z"/>
        <path fill="#D2D6DF" d="M17.02000427 30l-5.37764316 5.4201389c.21202551 2.822777 2.5565788 4.9978299 5.378146 4.9978299h.20504576c2.49164989 0 4.58682823-1.8693085 4.86982473-4.3448351l-.1234699-1.5096884C21.7610369 31.9850916 19.60696664 30 17.02000427 30z"/>
        <path fill="#000" fill-rule="nonzero" d="M16.99942017 30.0231018c3.08429791 0 5.58461543 2.4901017 5.58461543 5.5617978C22.5840356 38.6565956 20.08371808 41 16.99942017 41v-1c2.5701819 0 4.58461543-1.933101 4.58461543-4.4151004 0-2.5184928-2.05168784-4.5617978-4.58461543-4.5617978v-1zm0 1v-1c3.08429791 0 5.58461543 2.4901017 5.58461543 5.5617978C22.5840356 38.6565956 20.08371808 41 16.99942017 41v-1c2.5701819 0 4.58461543-1.933101 4.58461543-4.4151004 0-2.5184928-2.05168784-4.5617978-4.58461543-4.5617978zM39.4153846 30C42.4996825 30 45 32.4901017 45 35.5617978 45 38.6334938 42.4996825 41 39.4153846 41v-1C41.9795583 40 44 38.049587 44 35.5617978 44 33.043305 41.9483122 31 39.4153846 31v-1zm0 1v-1C42.4996825 30 45 32.4901017 45 35.5617978 45 38.6334938 42.4996825 41 39.4153846 41v-1C41.9795583 40 44 38.049587 44 35.5617978 44 33.043305 41.9483122 31 39.4153846 31z"/>
        <path fill="#000" d="M17 30h22.414v1.011H17z"/>
        <path fill="#000" fill-rule="nonzero" d="M11.99974519 2.91045879l3.18118766 1.81827511 4.79576097-2.67901157 4.82816428 2.67827023 4.698854-2.67581624 4.7306332 2.66774651L38 2.85444853V30.0447998h1V1.24307605l-4.735382 2.34586919L29.5013059.90277013 24.7984321 3.5808755 19.97498887.90522412l-4.78841872 2.67491004-4.18682496-2.39306838V35.097965c.00021394.0615526.00021394.0615526.0012836.1230964.06798429 3.2594428 2.76539688 5.8466311 6.02483966 5.7786468l-.02085311-.9997826c-2.70727812.0564674-4.94773656-2.0924392-5.00420399-4.7997173-.00059231-.0340787-.0009477-10.7973285-.00106616-32.28974951z"/>
        <path fill="#000" d="M18 12h14v1H18zM18 17h14v1H18zM18 22h14v1H18z"/>
    </g>
</svg>
