<?xml version="1.0" encoding="utf-8"?>
<!-- Generator: Adobe Illustrator 20.0.0, SVG Export Plug-In . SVG Version: 6.00 Build 0)  -->
<svg version="1.1" id="eds-icon--ordered-list_svg"
	 xmlns="http://www.w3.org/2000/svg" xmlns:xlink="http://www.w3.org/1999/xlink" x="0px" y="0px" viewBox="0 0 24 24"
	 enable-background="new 0 0 24 24" xml:space="preserve">
<g id="eds-icon--ordered-list_numbers">
	<polygon fill-rule="evenodd" clip-rule="evenodd" fill="#231F20" points="4,15.8 5.5,15.8 4.8,16.5 5.5,17.2 4,17.2 4,18 7,18 
		7,17.2 6.2,16.5 7,15.8 7,15 4,15 	"/>
	<polygon fill-rule="evenodd" clip-rule="evenodd" fill="#231F20" points="4,10.9 5.3,10.9 4,11.7 4,13 7,13 7,12.1 5,12.1 7,10.9 
		7,10 4,10 	"/>
	<polygon fill-rule="evenodd" clip-rule="evenodd" fill="#231F20" points="6,7 6,4 5,4 4,5.5 5,5.5 5,7 4,7 4,8 7,8 7,7 	"/>
</g>
<g id="eds-icon--ordered-list_lines">
	<rect x="10" y="17" fill-rule="evenodd" clip-rule="evenodd" fill="#231F20" width="10" height="1"/>
	<rect x="10" y="12" fill-rule="evenodd" clip-rule="evenodd" fill="#231F20" width="10" height="1"/>
	<rect x="10" y="7" fill-rule="evenodd" clip-rule="evenodd" fill="#231F20" width="10" height="1"/>
</g>
</svg>
