<?xml version="1.0" encoding="UTF-8" standalone="no"?>
<svg width="35px" height="28px" viewBox="0 0 35 28" version="1.1" xmlns="http://www.w3.org/2000/svg" xmlns:xlink="http://www.w3.org/1999/xlink" xmlns:sketch="http://www.bohemiancoding.com/sketch/ns">
    <!-- Generator: Sketch 3.5.1 (25234) - http://www.bohemiancoding.com/sketch -->
    <title>pagofacil</title>
    <desc>Created with Sketch.</desc>
    <defs></defs>
    <g id="Iconography" stroke="none" stroke-width="1" fill="none" fill-rule="evenodd" sketch:type="MSPage">
        <g id="Credit-Cards-Smaller-Copy" sketch:type="MSArtboardGroup" transform="translate(-40.000000, -944.000000)">
            <g id="pagofacil" sketch:type="MSLayerGroup" transform="translate(41.000000, 945.000000)">
                <g id="default-card-copy" sketch:type="MSShapeGroup">
                    <rect id="Rectangle-108" stroke="#B8B8B8" stroke-width="0.5" fill="#FFFFFF" x="0" y="0" width="33.125" height="26.5" rx="4"></rect>
                    <g id="Group" transform="translate(2.555358, 0.946429)">
                        <path d="M4.44821429,4.92142857 L19.9696429,0.851785714 L22.7142857,10.9785714 L28.6767857,9.46428571 L22.9982143,16.9410714 L22.9035714,16.9410714 C22.9035714,16.9410714 22.4303571,17.0357143 22.2410714,17.0357143 C22.0517857,16.9410714 22.4303571,16.2785714 22.6196429,15.9 C22.8089286,15.4267857 23.1875,14.3857143 23.4714286,13.7232143 C23.7553571,13.0607143 24.2285714,12.5875 24.3232143,12.5875 C24.4178571,12.4928571 24.5125,12.1142857 24.4178571,11.925 C24.3232143,11.7357143 24.4178571,11.5464286 24.2285714,11.5464286 C24.0392857,11.5464286 23.9446429,12.1142857 23.6607143,12.3982143 C23.3767857,12.6821429 22.8089286,13.8178571 22.3357143,14.8589286 C21.8625,15.9 20.8214286,17.0357143 20.4428571,17.5089286 C19.9696429,17.9821429 20.3482143,17.1303571 20.3482143,16.8464286 C20.4428571,16.5625 20.7267857,15.9946429 20.7267857,15.9946429 C20.7267857,15.9946429 21.2,15.5214286 20.6321429,15.7107143 C20.0642857,15.9 19.5910714,16.7517857 19.5910714,16.7517857 C19.5910714,16.7517857 18.2660714,18.4553571 17.7928571,18.7392857 C17.3196429,19.0232143 17.4142857,18.55 17.5089286,18.0767857 C17.6035714,17.6035714 18.1714286,16.9410714 18.1714286,16.9410714 L18.4553571,16.8464286 C18.4553571,16.8464286 18.3607143,17.3196429 18.4553571,17.3196429 C18.55,17.3196429 18.7392857,17.0357143 18.7392857,16.8464286 C18.7392857,16.6571429 18.7392857,15.8053571 18.6446429,15.9946429 C18.55,16.1839286 17.7928571,16.8464286 17.5089286,17.0357143 C17.225,17.3196429 16.4678571,18.3607143 16.1839286,18.9285714 C15.9,19.4017857 16.0892857,18.6446429 16.0892857,18.6446429 C16.0892857,18.6446429 16.1839286,18.1714286 16.1839286,17.9821429 C16.1839286,17.7928571 15.9,17.8875 15.9,17.8875 L15.5214286,18.2660714 C15.5214286,18.2660714 15.4267857,18.3607143 15.4267857,18.6446429 C15.4267857,18.9285714 15.0482143,19.3071429 14.7642857,19.4964286 C14.3857143,19.6857143 14.575,19.3071429 14.575,19.3071429 C14.575,19.3071429 14.6696429,18.8339286 15.0482143,18.2660714 C15.4267857,17.6982143 15.8053571,17.6035714 15.9946429,17.5089286 C16.1839286,17.4142857 16.0892857,17.225 16.0892857,17.1303571 C15.9946429,17.0357143 15.8053571,17.0357143 15.7107143,17.1303571 C15.5214286,17.225 12.8714286,19.4017857 12.7767857,19.875 C12.6821429,20.2535714 13.0607143,19.9696429 13.0607143,19.9696429 L14.1017857,18.8339286 L14.1964286,18.7392857 L14.1964286,19.0232143 C14.1964286,19.0232143 13.9125,19.5910714 13.9125,19.9696429 C14.0071429,20.2535714 14.1964286,20.2535714 14.3857143,20.2535714 C14.575,20.2535714 14.8589286,19.7803571 15.0482143,19.5910714 C15.2375,19.4017857 15.3321429,19.5910714 15.3321429,19.7803571 C15.4267857,19.875 15.7107143,19.6857143 15.7107143,19.6857143 C15.7107143,19.6857143 16.3732143,18.6446429 16.5625,18.55 C16.7517857,18.3607143 16.9410714,18.3607143 16.9410714,18.3607143 C16.9410714,18.3607143 16.8464286,18.6446429 17.0357143,19.0232143 C17.225,19.4017857 17.6982143,19.1178571 17.9821429,18.9285714 C18.2660714,18.7392857 19.0232143,17.7928571 19.2125,17.4142857 C19.4017857,17.1303571 19.6857143,17.1303571 19.6857143,17.1303571 C19.6857143,17.1303571 19.5910714,17.9821429 19.5910714,18.1714286 C19.6857143,18.3607143 19.9696429,18.4553571 20.4428571,18.0767857 C20.9160714,17.6982143 21.7678571,16.3732143 21.7678571,16.3732143 C21.7678571,16.3732143 21.4839286,17.0357143 21.5785714,17.5089286 C21.6732143,17.9821429 22.0517857,17.8875 22.2410714,17.7928571 C22.3357143,17.6982143 22.525,17.6035714 22.7142857,17.5089286 L17.8875,23.85 L11.2625,21.0107143 C11.4517857,20.3482143 12.2089286,18.1714286 12.3035714,18.1714286 C13.0607143,17.8875 13.7232143,17.6982143 13.7232143,17.6982143 C13.8178571,17.5089286 13.8178571,17.225 14.0071429,17.0357143 C14.1964286,16.7517857 13.7232143,16.7517857 13.7232143,16.7517857 C13.7232143,16.7517857 13.0607143,17.225 12.7767857,17.3196429 C12.3982143,17.5089286 12.4928571,17.0357143 12.4928571,17.0357143 C12.4928571,17.0357143 13.0607143,15.9 13.25,15.4267857 C13.4392857,14.9535714 14.0071429,14.9535714 14.3857143,14.7642857 C14.8589286,14.575 17.7928571,13.6285714 18.2660714,13.4392857 C18.7392857,13.25 18.7392857,12.4928571 18.7392857,12.4928571 C18.7392857,12.4928571 18.1714286,12.7767857 17.7928571,12.9660714 C17.3196429,13.0607143 14.575,14.1017857 14.2910714,14.2910714 C14.0071429,14.4803571 14.1017857,14.1964286 14.1017857,13.9125 C14.1017857,13.6285714 13.9125,13.8178571 13.9125,13.8178571 C13.9125,13.8178571 13.5339286,14.0071429 13.25,14.1017857 C12.9660714,14.1964286 12.7767857,14.575 12.7767857,14.575 C12.7767857,14.575 10.3160714,15.5214286 9.74821429,16.0892857 C9.18035714,16.7517857 10.0321429,16.4678571 10.0321429,16.4678571 C10.0321429,16.4678571 12.3982143,15.0482143 12.2089286,15.4267857 C12.0196429,15.8053571 11.1678571,17.6982143 11.1678571,17.6982143 C11.1678571,17.6982143 10.3160714,18.2660714 10.1267857,18.4553571 C9.84285714,18.7392857 9.9375,19.1178571 9.9375,19.1178571 C9.9375,19.1178571 11.0732143,18.1714286 10.9785714,18.4553571 C10.8839286,18.7392857 10.5053571,20.0642857 10.4107143,20.5375 L1.04107143,16.4678571 L6.71964286,14.9535714 L4.44821429,4.92142857 L4.44821429,4.92142857 L4.44821429,4.92142857 Z M16.2785714,16.2785714 C16.2785714,16.2785714 16.9410714,15.5214286 17.0357143,15.2375 C17.1303571,14.9535714 17.5089286,14.9535714 17.5089286,15.2375 C17.5089286,15.5214286 16.8464286,16.0892857 16.8464286,16.0892857 C16.8464286,16.0892857 16.5625,16.4678571 16.3732143,16.4678571 C16.2785714,16.4678571 16.2785714,16.2785714 16.2785714,16.2785714 L16.2785714,16.2785714 L16.2785714,16.2785714 Z M20.8214286,15.0482143 C20.8214286,15.0482143 20.6321429,15.1428571 20.6321429,14.7642857 C20.7267857,14.4803571 20.7267857,14.4803571 20.9160714,14.2910714 C21.1053571,14.1964286 21.2,14.0071429 21.2,14.1964286 C21.2,14.3857143 21.1053571,14.6696429 21.0107143,14.8589286 C20.9160714,15.0482143 20.8214286,15.0482143 20.8214286,15.0482143 L20.8214286,15.0482143 L20.8214286,15.0482143 Z" id="Shape" fill="#E03160"></path>
                        <path d="M0,10.2214286 L3.50178571,9.36964286 C4.16428571,9.18035714 4.6375,9.08571429 5.11071429,9.08571429 C5.58392857,9.08571429 5.9625,9.18035714 6.24642857,9.275 C6.53035714,9.36964286 6.71964286,9.65357143 6.90892857,9.9375 C7.00357143,10.0321429 7.00357143,10.2214286 7.00357143,10.4107143 C7.2875,11.5464286 6.34107143,12.4928571 4.44821429,12.9660714 L3.3125,13.25 L3.69107143,14.9535714 L1.23035714,15.5214286 L0,10.2214286 L0,10.2214286 L0,10.2214286 Z M13.8178571,6.81428571 L13.8178571,6.81428571 C13.9125,6.71964286 14.0071429,6.71964286 14.1017857,6.625 C14.575,6.34107143 15.0482143,6.15178571 15.6160714,5.9625 C15.9,5.86785714 16.2785714,5.86785714 16.4678571,5.77321429 C16.7517857,5.67857143 16.9410714,5.67857143 17.3196429,5.77321429 C17.7928571,5.77321429 18.2660714,5.86785714 18.6446429,6.15178571 C19.0232143,6.34107143 19.3071429,6.625 19.4964286,7.00357143 L19.4964286,7.09821429 L18.1714286,7.38214286 L18.1714286,8.04464286 L19.6857143,7.66607143 L20.3482143,10.6 L18.8339286,10.9785714 L18.55,10.5053571 C18.4553571,10.6946429 18.2660714,10.7892857 18.0767857,10.9785714 L18.0767857,10.9785714 L18.0767857,10.9785714 C17.6982143,11.2625 17.1303571,11.5464286 16.5625,11.7357143 C15.6160714,12.0196429 14.8589286,12.0196429 14.1017857,11.7357143 C13.3446429,11.4517857 12.9660714,11.0732143 12.5875,10.6 L12.4928571,10.3160714 L12.3982143,10.0321429 C12.2089286,9.18035714 12.3035714,8.42321429 12.8714286,7.76071429 C13.1553571,7.2875 13.4392857,7.09821429 13.8178571,6.81428571 L13.8178571,6.81428571 L13.8178571,6.81428571 L13.8178571,6.81428571 Z M2.65,10.8839286 L2.93392857,12.0196429 L3.975,11.7357143 C4.25892857,11.6410714 4.44821429,11.5464286 4.6375,11.3571429 C4.73214286,11.1678571 4.82678571,10.9785714 4.73214286,10.7892857 C4.6375,10.5053571 4.16428571,10.5053571 3.40714286,10.6946429 L2.65,10.8839286 L2.65,10.8839286 L2.65,10.8839286 Z M7.57142857,8.23392857 L10.0321429,7.57142857 L13.8178571,12.2089286 L11.4517857,12.8714286 L10.9785714,12.2089286 L8.6125,12.8714286 L8.51785714,13.7232143 L6.24642857,14.3857143 L7.57142857,8.23392857 L7.57142857,8.23392857 L7.57142857,8.23392857 Z M8.89642857,11.6410714 L10.4107143,11.2625 L9.275,9.55892857 L8.89642857,11.6410714 L8.89642857,11.6410714 L8.89642857,11.6410714 Z M23.3767857,3.975 C24.4178571,3.69107143 25.2696429,3.69107143 26.0267857,3.88035714 C26.3107143,3.975 26.6892857,4.16428571 26.9732143,4.35357143 C27.0678571,4.44821429 27.2571429,4.6375 27.3517857,4.73214286 C27.4464286,4.82678571 27.5410714,5.01607143 27.6357143,5.20535714 L27.7303571,5.48928571 L27.825,5.77321429 C27.9196429,6.24642857 27.9196429,6.81428571 27.7303571,7.2875 C27.5410714,7.76071429 27.1625,8.32857143 26.6892857,8.70714286 C26.2160714,9.08571429 25.5535714,9.46428571 24.7017857,9.65357143 C23.6607143,9.9375 22.7142857,9.9375 21.9571429,9.74821429 C21.2,9.55892857 20.7267857,9.08571429 20.4428571,8.51785714 L20.3482143,8.32857143 L20.2535714,8.04464286 L20.1589286,7.85535714 C20.0642857,7.38214286 20.0642857,6.81428571 20.2535714,6.34107143 C20.4428571,5.86785714 20.7267857,5.39464286 21.2946429,5.01607143 C21.8625,4.54285714 22.525,4.25892857 23.3767857,3.975 L23.3767857,3.975 L23.3767857,3.975 Z M23.5660714,5.3 C22.525,5.58392857 22.2410714,6.34107143 22.7142857,7.66607143 C22.9982143,8.32857143 23.5660714,8.51785714 24.3232143,8.32857143 C24.8910714,8.13928571 25.2696429,7.85535714 25.3642857,7.38214286 C25.4589286,6.90892857 25.4589286,6.43571429 25.175,6.05714286 C25.0803571,5.77321429 24.7964286,5.58392857 24.5125,5.39464286 C24.3232143,5.3 23.9446429,5.20535714 23.5660714,5.3 L23.5660714,5.3 L23.5660714,5.3 Z" id="Shape" stroke="#FFFFFF" stroke-width="1.288" fill="#FFFFFF"></path>
                        <path d="M0.0946428571,10.2214286 L3.59642857,9.36964286 C4.25892857,9.18035714 4.73214286,9.08571429 5.20535714,9.08571429 C5.67857143,9.08571429 6.05714286,9.18035714 6.34107143,9.275 C6.625,9.36964286 6.81428571,9.65357143 7.00357143,9.9375 C7.09821429,10.0321429 7.09821429,10.2214286 7.09821429,10.4107143 C7.38214286,11.5464286 6.43571429,12.4928571 4.54285714,12.9660714 L3.40714286,13.25 L3.78571429,14.8589286 L1.41964286,15.5214286 L0.0946428571,10.2214286 L0.0946428571,10.2214286 L0.0946428571,10.2214286 Z M2.65,10.8839286 L2.93392857,12.0196429 L3.975,11.7357143 C4.25892857,11.6410714 4.44821429,11.5464286 4.6375,11.3571429 C4.73214286,11.1678571 4.82678571,10.9785714 4.73214286,10.7892857 C4.6375,10.5053571 4.16428571,10.5053571 3.40714286,10.6946429 L2.65,10.8839286 L2.65,10.8839286 L2.65,10.8839286 Z M7.76071429,8.23392857 L10.2214286,7.57142857 L14.0071429,12.2089286 L11.6410714,12.8714286 L11.1678571,12.2089286 L8.80178571,12.8714286 L8.70714286,13.7232143 L6.43571429,14.3857143 L7.76071429,8.23392857 L7.76071429,8.23392857 L7.76071429,8.23392857 Z M8.99107143,11.6410714 L10.5053571,11.2625 L9.36964286,9.55892857 L8.99107143,11.6410714 L8.99107143,11.6410714 L8.99107143,11.6410714 Z M16.8464286,9.65357143 L16.5625,8.51785714 L19.7803571,7.66607143 L20.4428571,10.6 L18.9285714,10.9785714 L18.6446429,10.5053571 C18.1714286,11.0732143 17.5089286,11.5464286 16.6571429,11.6410714 C15.7107143,11.925 14.9535714,11.925 14.1964286,11.6410714 C13.5339286,11.3571429 13.0607143,10.9785714 12.6821429,10.5053571 L12.5875,10.2214286 L12.4928571,9.9375 C12.3035714,9.08571429 12.3982143,8.32857143 12.9660714,7.66607143 C13.25,7.2875 13.6285714,7.00357143 14.0071429,6.71964286 C14.3857143,6.43571429 14.9535714,6.24642857 15.5214286,6.05714286 C15.8053571,5.9625 16.1839286,5.9625 16.3732143,5.86785714 C16.6571429,5.77321429 16.8464286,5.77321429 17.225,5.86785714 C17.6982143,5.86785714 18.1714286,5.9625 18.55,6.24642857 C18.9285714,6.43571429 19.2125,6.71964286 19.4017857,7.09821429 L19.4017857,7.19285714 L17.1303571,7.76071429 C16.8464286,7.38214286 16.3732143,7.2875 15.8053571,7.38214286 C14.7642857,7.66607143 14.4803571,8.42321429 14.9535714,9.74821429 C15.2375,10.4107143 15.8053571,10.6 16.6571429,10.4107143 C16.9410714,10.3160714 17.1303571,10.2214286 17.4142857,10.0321429 C17.6982143,9.84285714 17.6982143,9.65357143 17.7928571,9.46428571 L16.8464286,9.65357143 L16.8464286,9.65357143 L16.8464286,9.65357143 Z M23.3767857,3.975 C24.4178571,3.69107143 25.2696429,3.69107143 26.0267857,3.88035714 C26.3107143,3.975 26.6892857,4.16428571 26.9732143,4.35357143 C27.0678571,4.44821429 27.2571429,4.6375 27.3517857,4.73214286 C27.4464286,4.82678571 27.5410714,5.01607143 27.6357143,5.20535714 L27.7303571,5.48928571 L27.825,5.77321429 C27.9196429,6.24642857 27.9196429,6.81428571 27.7303571,7.2875 C27.5410714,7.76071429 27.1625,8.32857143 26.6892857,8.70714286 C26.2160714,9.08571429 25.5535714,9.46428571 24.7017857,9.65357143 C23.6607143,9.9375 22.7142857,9.9375 21.9571429,9.74821429 C21.2,9.46428571 20.7267857,9.08571429 20.4428571,8.51785714 L20.3482143,8.32857143 L20.2535714,8.04464286 L20.1589286,7.85535714 C20.0642857,7.38214286 20.0642857,6.81428571 20.2535714,6.34107143 C20.4428571,5.86785714 20.7267857,5.39464286 21.2946429,5.01607143 C21.8625,4.54285714 22.525,4.25892857 23.3767857,3.975 L23.3767857,3.975 L23.3767857,3.975 Z M23.6607143,5.3 C22.6196429,5.58392857 22.3357143,6.34107143 22.8089286,7.66607143 C23.0928571,8.32857143 23.6607143,8.51785714 24.4178571,8.32857143 C24.9857143,8.13928571 25.3642857,7.85535714 25.4589286,7.38214286 C25.5535714,6.90892857 25.5535714,6.43571429 25.2696429,6.05714286 C25.175,5.77321429 24.8910714,5.58392857 24.6071429,5.39464286 C24.4178571,5.3 24.0392857,5.20535714 23.6607143,5.3 L23.6607143,5.3 L23.6607143,5.3 Z" id="Shape" stroke="#506185" stroke-width="0.2227" fill="#506185"></path>
                    </g>
                </g>
            </g>
        </g>
    </g>
</svg>