<?xml version="1.0" encoding="utf-8"?>
<!-- Generator: Adobe Illustrator 20.1.0, SVG Export Plug-In . SVG Version: 6.00 Build 0)  -->
<svg version="1.1" id="eds-icon--park_svg"
	 xmlns="http://www.w3.org/2000/svg" xmlns:xlink="http://www.w3.org/1999/xlink" x="0px" y="0px" viewBox="0 0 24 24"
	 enable-background="new 0 0 24 24" xml:space="preserve">
<path id="eds-icon--park_base" fill-rule="evenodd" clip-rule="evenodd" d="M22,18.5h-3V17h1h1v-1v-2v-0.7V13H10.7
	c0.5-1.1,0.5-2.3,0-3.6L6.5,2L2.4,9.5c-1.3,2.8,0.7,6,3.7,6.3V22h1v-6.3c0.7-0.1,1.4-0.3,2-0.7v1v1h1h1v1.5H8v1h1V22h1v-2.5h1h1h6h1
	h1V22h1v-2.5h1V18.5z M7,14.7V10H6v2l-1.4-1.4l-0.7,0.7L6,13.4v1.3c-1-0.1-1.9-0.7-2.5-1.6c-0.7-1-0.8-2.2-0.3-3.3l3.2-5.8l3.2,5.8
	c0.5,1.1,0.4,2.3-0.3,3.3C8.9,14,8,14.6,7,14.7z M10,14.1c0,0,0.1-0.1,0.1-0.1H20v2H10V14.1z M12,18.5h6V17h-6V18.5z"/>
</svg>
