<?xml version="1.0" encoding="UTF-8" standalone="no"?>
<svg width="34px" height="27px" viewBox="0 0 34 27" version="1.1" xmlns="http://www.w3.org/2000/svg" xmlns:xlink="http://www.w3.org/1999/xlink">
    <!-- Generator: Sketch 3.6.1 (26313) - http://www.bohemiancoding.com/sketch -->
    <title>bank</title>
    <desc>Created with Sketch.</desc>
    <defs>
        <linearGradient x1="109.91706%" y1="117.136998%" x2="12.9904454%" y2="4.20447493%" id="linearGradient-1">
            <stop stop-color="#4156A8" offset="0%"></stop>
            <stop stop-color="#23B7FE" offset="100%"></stop>
        </linearGradient>
    </defs>
    <g id="Iconography" stroke="none" stroke-width="1" fill="none" fill-rule="evenodd">
        <g id="Credit-Cards-Smaller-Copy" transform="translate(-40.000000, -571.000000)">
            <g id="bank" transform="translate(40.000000, 571.000000)">
                <rect id="Rectangle-201-Copy-3" fill="url(#linearGradient-1)" x="0" y="0" width="33.125" height="26.5" rx="4"></rect>
                <path d="M7.18313234,15 C8.54213234,15 9.54113234,14.397 9.54113234,13.173 C9.54113234,12.156 8.98313234,11.697 8.16413234,11.544 L8.16413234,11.526 C8.83913234,11.391 9.34313234,10.923 9.34313234,9.996 C9.34313234,8.772 8.35313234,8.34 7.02113234,8.34 L4.50113234,8.34 L4.50113234,15 L7.18313234,15 Z M5.60813234,9.33 L6.93113234,9.33 C7.85813234,9.33 8.26313234,9.573 8.26313234,10.212 C8.26313234,10.851 7.79513234,11.121 6.91313234,11.121 L5.60813234,11.121 L5.60813234,9.33 Z M5.60813234,12.075 L6.94913234,12.075 C7.89413234,12.075 8.43413234,12.345 8.43413234,13.056 C8.43413234,13.722 8.02013234,14.028 7.06613234,14.028 L5.60813234,14.028 L5.60813234,12.075 Z M13.0341323,9.726 L13.0521323,9.726 L13.9611323,12.426 L12.1071323,12.426 L13.0341323,9.726 Z M11.2161323,15 L11.7651323,13.416 L14.2941323,13.416 L14.8341323,15 L15.9861323,15 L13.6281323,8.313 L12.5211323,8.313 L10.1631323,15 L11.2161323,15 Z M18.1111323,15 L18.1111323,10.149 L18.1291323,10.149 L21.3961323,15 L22.4221323,15 L22.4221323,8.34 L21.3781323,8.34 L21.3781323,13.092 L21.3601323,13.092 L18.2101323,8.34 L17.0671323,8.34 L17.0671323,15 L18.1111323,15 Z M25.1591323,15 L25.1591323,12.813 L26.1041323,11.769 L28.1021323,15 L29.3891323,15 L26.8421323,10.905 L29.1101323,8.34 L27.7781323,8.34 L25.1591323,11.436 L25.1591323,8.34 L24.0341323,8.34 L24.0341323,15 L25.1591323,15 Z" id="BANK" fill="#FFFFFF"></path>
                <path d="M5.00424844,21.0999756 L5.63774844,20.0744756 L6.27824844,21.0999756 L6.76124844,21.0999756 L5.89674844,19.7244756 L6.65274844,18.5099756 L6.19774844,18.5099756 L5.67624844,19.3779756 L5.13724844,18.5099756 L4.63674844,18.5099756 L5.40674844,19.7244756 L4.54574844,21.0999756 L5.00424844,21.0999756 Z M7.90374844,21.0999756 L8.53724844,20.0744756 L9.17774844,21.0999756 L9.66074844,21.0999756 L8.79624844,19.7244756 L9.55224844,18.5099756 L9.09724844,18.5099756 L8.57574844,19.3779756 L8.03674844,18.5099756 L7.53624844,18.5099756 L8.30624844,19.7244756 L7.44524844,21.0999756 L7.90374844,21.0999756 Z M10.8032485,21.0999756 L11.4367485,20.0744756 L12.0772485,21.0999756 L12.5602485,21.0999756 L11.6957485,19.7244756 L12.4517485,18.5099756 L11.9967485,18.5099756 L11.4752485,19.3779756 L10.9362485,18.5099756 L10.4357485,18.5099756 L11.2057485,19.7244756 L10.3447485,21.0999756 L10.8032485,21.0999756 Z M13.7027485,21.0999756 L14.3362485,20.0744756 L14.9767485,21.0999756 L15.4597485,21.0999756 L14.5952485,19.7244756 L15.3512485,18.5099756 L14.8962485,18.5099756 L14.3747485,19.3779756 L13.8357485,18.5099756 L13.3352485,18.5099756 L14.1052485,19.7244756 L13.2442485,21.0999756 L13.7027485,21.0999756 Z M16.9487485,20.1549756 L16.9487485,19.8469756 L16.0842485,19.8469756 L16.0842485,20.1549756 L16.9487485,20.1549756 Z M18.9032485,21.0999756 L18.9032485,20.7149756 L18.4797485,20.7149756 L18.4797485,18.5099756 L18.0667485,18.5099756 C17.9512485,18.6184756 17.7832485,18.6709756 17.5837485,18.6779756 L17.5837485,19.0734756 C17.7342485,19.0734756 17.9267485,19.0209756 18.0527485,18.9544756 L18.0527485,20.7149756 L17.5767485,20.7149756 L17.5767485,21.0999756 L18.9032485,21.0999756 Z M21.3827485,21.0999756 L21.3827485,20.7149756 L20.0877485,20.7149756 C20.1332485,20.5294756 20.3432485,20.3264756 20.7562485,20.0639756 C21.2532485,19.7489756 21.3687485,19.5109756 21.3687485,19.1959756 C21.3687485,18.7549756 21.0642485,18.4609756 20.5567485,18.4609756 C20.1122485,18.4609756 19.8112485,18.6884756 19.6012485,19.0104756 L19.9267485,19.2344756 C20.0877485,18.9929756 20.3082485,18.8529756 20.5357485,18.8529756 C20.7807485,18.8529756 20.9417485,18.9859756 20.9417485,19.2274756 C20.9417485,19.4934756 20.7842485,19.6159756 20.3887485,19.8714756 C19.7062485,20.3089756 19.5767485,20.6694756 19.5767485,21.0439756 L19.5767485,21.0999756 L21.3827485,21.0999756 Z M23.9532485,21.0999756 L23.9532485,20.7149756 L22.6582485,20.7149756 C22.7037485,20.5294756 22.9137485,20.3264756 23.3267485,20.0639756 C23.8237485,19.7489756 23.9392485,19.5109756 23.9392485,19.1959756 C23.9392485,18.7549756 23.6347485,18.4609756 23.1272485,18.4609756 C22.6827485,18.4609756 22.3817485,18.6884756 22.1717485,19.0104756 L22.4972485,19.2344756 C22.6582485,18.9929756 22.8787485,18.8529756 23.1062485,18.8529756 C23.3512485,18.8529756 23.5122485,18.9859756 23.5122485,19.2274756 C23.5122485,19.4934756 23.3547485,19.6159756 22.9592485,19.8714756 C22.2767485,20.3089756 22.1472485,20.6694756 22.1472485,21.0439756 L22.1472485,21.0999756 L23.9532485,21.0999756 Z M25.7502485,21.1489756 C26.4012485,21.1489756 26.7722485,20.6134756 26.7722485,19.8049756 C26.7722485,18.9964756 26.4012485,18.4609756 25.7502485,18.4609756 C25.0992485,18.4609756 24.7212485,18.9964756 24.7212485,19.8049756 C24.7212485,20.6134756 25.0992485,21.1489756 25.7502485,21.1489756 L25.7502485,21.1489756 Z M25.7502485,20.7639756 C25.3827485,20.7639756 25.1587485,20.4524756 25.1587485,19.8049756 C25.1587485,19.1574756 25.3687485,18.8529756 25.7502485,18.8529756 C26.1142485,18.8529756 26.3347485,19.1574756 26.3347485,19.8049756 C26.3347485,20.4524756 26.1247485,20.7639756 25.7502485,20.7639756 L25.7502485,20.7639756 Z M28.5832485,21.1489756 C29.2342485,21.1489756 29.6052485,20.6134756 29.6052485,19.8049756 C29.6052485,18.9964756 29.2342485,18.4609756 28.5832485,18.4609756 C27.9322485,18.4609756 27.5542485,18.9964756 27.5542485,19.8049756 C27.5542485,20.6134756 27.9322485,21.1489756 28.5832485,21.1489756 L28.5832485,21.1489756 Z M28.5832485,20.7639756 C28.2157485,20.7639756 27.9917485,20.4524756 27.9917485,19.8049756 C27.9917485,19.1574756 28.2017485,18.8529756 28.5832485,18.8529756 C28.9472485,18.8529756 29.1677485,19.1574756 29.1677485,19.8049756 C29.1677485,20.4524756 28.9577485,20.7639756 28.5832485,20.7639756 L28.5832485,20.7639756 Z" id="XXXX-12200" fill="#FFFFFF"></path>
            </g>
        </g>
    </g>
</svg>