<?xml version="1.0" encoding="UTF-8" standalone="no"?>
<svg xmlns="http://www.w3.org/2000/svg" width="50" height="54" viewBox="0 0 50 54">
    <g fill="none" fill-rule="evenodd">
        <path d="M-23-22h96v96h-96z"/>
        <path fill="#F8FAFF" d="M49.242 28.2805c0 13.321-10.8 24.121-24.121 24.121C11.8 52.4015 1 41.6015 1 28.2805c0-13.321 10.8-24.121 24.121-24.121 13.321 0 24.121 10.8 24.121 24.121"/>
        <path fill="#F6682F" d="M38.4292 24.1217l-7.902 7.902-13.723-13.724-15.225 15.225c.056.258.113.516.177.771 2.674 10.41 12.121 18.106 23.365 18.106 6.955 0 13.219-2.949 17.621-7.658 2.737-2.928 4.753-6.535 5.765-10.544l-10.078-10.078z"/>
        <path stroke="#363A43" stroke-width="1.5" d="M35.9389 6.7158c7.889 3.965 13.303 12.133 13.303 21.565 0 13.321-10.8 24.12-24.121 24.12-13.321 0-24.12-10.799-24.12-24.12 0-7.277 3.222-13.801 8.317-18.223"/>
        <path stroke="#363A43" stroke-width="1.5" d="M1.832 33.271l14.971-14.972 25.785 25.785M30.944 31.607l7.485-7.486 9.981 9.981"/>
        <path fill="#D2D6DF" d="M16.804 8.318H29.28V0H16.804z"/>
        <path stroke="#363A43" stroke-width="1.5" d="M16.8037 18.2994V.0014m19.1302 44.0823c-3.076 2.112-6.8 3.327-10.813 3.327-8.534 0-15.835-5.59-18.298-13.308m9.9808-11.6444v1.663m0 1.6639v1.664m0 1.663v1.664"/>
    </g>
</svg>
