<?xml version="1.0" encoding="utf-8"?>
<!-- Generator: Adobe Illustrator 20.0.0, SVG Export Plug-In . SVG Version: 6.00 Build 0)  -->
<svg version="1.1" id="eds-icon--ordered-list_svg"
	 xmlns="http://www.w3.org/2000/svg" xmlns:xlink="http://www.w3.org/1999/xlink" x="0px" y="0px" viewBox="0 0 24 24"
	 enable-background="new 0 0 24 24" xml:space="preserve">
<path id="eds-icon--person-sad_base" fill-rule="evenodd" clip-rule="evenodd" fill="#231F20" d="M12,21
	c-5,0-9-4-9-9s4-9,9-9s9,4,9,9S17,21,12,21z M12,2C6.5,2,2,6.5,2,12s4.5,10,10,10s10-4.5,10-10S17.5,2,12,2z"/>
<path id="eds-icon--person-sad_mouth" fill-rule="evenodd" clip-rule="evenodd" fill="#231F20" d="M12,11.5
	c-2,0-3.8,1-4.6,3H6.5v1h0.6h1h0.4v-0.9c0.7-1.2,2-2.1,3.5-2.1s2.8,0.8,3.5,2.1v0.9h0.4h1h0.6v-1h-0.9C15.8,12.5,14,11.5,12,11.5z"
	/>
<g id="eds-icon--person-sad_eyes">
	<rect x="8" y="8" fill-rule="evenodd" clip-rule="evenodd" fill="#231F20" width="1" height="2"/>
	<rect x="15" y="8" fill-rule="evenodd" clip-rule="evenodd" fill="#231F20" width="1" height="2"/>
</g>
</svg>
