<?xml version="1.0" encoding="utf-8"?>
<!-- Generator: Adobe Illustrator 20.0.0, SVG Export Plug-In . SVG Version: 6.00 Build 0)  -->
<svg version="1.1" id="eds-icon--ordered-list_svg"
	 xmlns="http://www.w3.org/2000/svg" xmlns:xlink="http://www.w3.org/1999/xlink" x="0px" y="0px" viewBox="0 0 24 24"
	 enable-background="new 0 0 24 24" xml:space="preserve">
<path id="eds-icon--person_base" fill-rule="evenodd" clip-rule="evenodd" fill="#231F20" d="M12,21c-5,0-9-4-9-9
	s4-9,9-9s9,4,9,9S17,21,12,21z M12,2C6.5,2,2,6.5,2,12s4.5,10,10,10s10-4.5,10-10S17.5,2,12,2z"/>
<path id="eds-icon--person_mouth" fill-rule="evenodd" clip-rule="evenodd" fill="#231F20" d="M16.5,12v1h0.4
	c-0.5,2.5-2.5,4-4.9,4s-4.4-1.5-4.9-4h0.4v-1h-2v1h0.6c0.5,3,2.9,5,5.9,5s5.4-2,5.9-5h0.6v-1H16.5z"/>
<g id="eds-icon--person_eyes">
	<rect x="8" y="8" fill-rule="evenodd" clip-rule="evenodd" fill="#231F20" width="1" height="2"/>
	<rect x="15" y="8" fill-rule="evenodd" clip-rule="evenodd" fill="#231F20" width="1" height="2"/>
</g>
</svg>
