<?xml version="1.0" encoding="utf-8"?>
<!-- Generator: Adobe Illustrator 19.1.0, SVG Export Plug-In . SVG Version: 6.00 Build 0)  -->
<svg version="1.1" id="eds-icon--photo_svg"
	 xmlns="http://www.w3.org/2000/svg" xmlns:xlink="http://www.w3.org/1999/xlink" x="0px" y="0px" viewBox="0 0 24 24"
	 enable-background="new 0 0 24 24" xml:space="preserve">
<path id="eds-icon--photo_base" fill-rule="evenodd" clip-rule="evenodd" d="M2,20h20V4H2V20z M3,19h18V5H3V19z"/>
<path id="eds-icon--photo_sun" fill-rule="evenodd" clip-rule="evenodd" d="M16.5,7C15.1,7,14,8.1,14,9.5
	s1.1,2.5,2.5,2.5S19,10.9,19,9.5S17.9,7,16.5,7z M16.5,11c-0.8,0-1.5-0.7-1.5-1.5C15,8.7,15.7,8,16.5,8S18,8.7,18,9.5
	C18,10.3,17.3,11,16.5,11z"/>
<path id="eds-icon--photo_mountain" fill-rule="evenodd" clip-rule="evenodd" d="M15.5,13l-0.7,0.8l-3.5-3.8L4.9,17
	h9.8h4.4L15.5,13z M7.2,16l4.1-4.4l2.7,3l0.7,0.8l0.7-0.8l0,0l1.4,1.5h-2.1H7.2z"/>
</svg>
