<?xml version="1.0" encoding="UTF-8" standalone="no"?>
<svg width="144px" height="144px" viewBox="0 0 144 144" version="1.1" xmlns="http://www.w3.org/2000/svg" xmlns:xlink="http://www.w3.org/1999/xlink">
    <!-- Generator: Sketch 46.2 (44496) - http://www.bohemiancoding.com/sketch -->
    <title>img_platter</title>
    <desc>Created with Sketch.</desc>
    <defs></defs>
    <g id="assets" stroke="none" stroke-width="1" fill="none" fill-rule="evenodd">
        <g id="img_platter">
            <rect id="Rectangle" fill-opacity="0" fill="#D8D8D8" x="0" y="0" width="144" height="144"></rect>
            <g id="Page-1" transform="translate(29.000000, 37.000000)">
                <polygon id="Fill-1" fill="#FFFFFF" points="52.9114355 30.80028 44.4920806 39.20028 33.2662742 50.40028 19.2340161 36.40028 20.6372419 28.00028 24.8469194 19.60028 24.8469194 12.60028 23.4436935 8.40028 31.8630484 8.40028 33.2662742 12.60028 34.6695 21.00028 40.2824032 23.80028 47.2985323 16.80028 51.5082097 8.40028 65.5404677 8.40028 61.3307903 18.20028"></polygon>
                <polygon id="Fill-2" fill="#FFFFFF" points="26.2501452 63.00028 6.60498387 43.40028 16.4275645 33.60028 36.0727258 53.20028"></polygon>
                <polygon id="Fill-3" fill="#F6682F" points="0.992641935 51.80014 17.8313516 68.60014 24.8460774 61.60014 8.00736774 44.80154"></polygon>
                <polyline id="Fill-4" fill="#D2D6DF" points="80.9759516 2.80028 73.9598226 8.40028 15.0243387 8.40028 8.00820968 2.80028"></polyline>
                <polygon id="Fill-5" fill="#282C35" points="2.39530645 4.20028 86.5874516 4.20028 86.5874516 1.40028 2.39530645 1.40028"></polygon>
                <g id="Group-25" transform="translate(0.000000, 0.990080)" fill="#282C35">
                    <path d="M74.4517935,8.8102 L14.5326484,8.8102 L7.13203548,2.9036 C6.52584194,2.4206 6.42761613,1.54 6.91313226,0.9352 C7.39584194,0.3318 8.28127742,0.2352 8.88466452,0.7168 L15.5163097,6.0102 L73.4681323,6.0102 L80.0983742,0.7168 C80.705971,0.2338 81.5871968,0.3318 82.0727129,0.9352 C82.5554226,1.54 82.4571968,2.4206 81.8524065,2.9036 L74.4517935,8.8102 Z" id="Fill-6"></path>
                    <path d="M33.2662742,50.64752 C32.9491452,50.64752 32.6306129,50.52712 32.3892581,50.28492 C31.9051452,49.80192 31.9051452,49.01792 32.3892581,48.53492 L51.9474194,29.02172 L60.2362742,16.61772 L64.3996452,6.92272 C64.6704677,6.29412 65.3973387,6.00432 66.0301935,6.27312 C66.6588387,6.54192 66.9507097,7.26992 66.6798871,7.89712 L62.3621613,17.89592 L53.7884516,30.68492 L34.1432903,50.28492 C33.9019355,50.52712 33.5834032,50.64752 33.2662742,50.64752" id="Fill-9"></path>
                    <path d="M19.2354194,36.8102 C19.1596452,36.8102 19.0810645,36.8046 19.0024839,36.7906 C18.239129,36.6646 17.7227419,35.9422 17.8504355,35.1792 L19.3813548,26.3844 L23.4436935,18.2798 L23.4436935,11.837 L22.1120323,7.8526 C21.8664677,7.119 22.2649839,6.3266 23.0002742,6.0816 C23.7369677,5.8338 24.5297903,6.2342 24.7753548,6.9678 L26.2501452,11.3834 L26.2501452,18.9406 L21.9857419,27.4484 L20.6175968,35.6398 C20.5039355,36.3244 19.9089677,36.8102 19.2354194,36.8102" id="Fill-11"></path>
                    <path d="M40.1193484,24.2942 L33.4021065,20.9426 L31.9006548,11.949 L30.5311065,7.8526 C30.2869452,7.119 30.6840581,6.3266 31.4193484,6.0816 C32.1560419,5.8338 32.9502677,6.2342 33.194429,6.9678 L34.6509774,11.3792 L35.9363323,19.0764 L40.4448968,21.3262 L45.2579613,20.1264 L51.8643484,14.8526 L57.3565742,6.6332 C57.7859613,5.9906 58.6559613,5.8142 59.3028484,6.2454 C59.9483323,6.6738 60.1223323,7.5432 59.6915419,8.1872 L53.788171,16.9036 L46.5320903,22.694 L40.1193484,24.2942 Z" id="Fill-13"></path>
                    <polygon id="Fill-15" points="1.98430161 51.8 0.000140322581 49.8204 7.01626935 42.8204 9.00043065 44.8"></polygon>
                    <polygon id="Fill-17" points="18.8230113 68.6 16.83885 66.6204 23.854979 59.6204 25.8391403 61.6"></polygon>
                    <path d="M8.58928548,42.4102 L26.2502855,60.0306 L34.0887048,52.2102 L16.4277048,34.5898 L8.58928548,42.4102 Z M26.2502855,63.9898 L4.6209629,42.4102 L16.4277048,30.6306 L38.0570274,52.2102 L26.2502855,63.9898 Z" id="Fill-19"></path>
                    <path d="M27.653371,53.6102 C27.2941452,53.6102 26.9349194,53.473 26.6612903,53.2 L23.8548387,50.4 C23.3061774,49.8526 23.3061774,48.9678 23.8548387,48.4204 C24.4035,47.873 25.2903387,47.873 25.839,48.4204 L28.6454516,51.2204 C29.1941129,51.7678 29.1941129,52.6526 28.6454516,53.2 C28.3718226,53.473 28.0125968,53.6102 27.653371,53.6102" id="Fill-21"></path>
                    <path d="M40.2824032,24.2102 C39.9231774,24.2102 39.5639516,24.073 39.2903226,23.8 C38.7416613,23.2526 38.7416613,22.3678 39.2903226,21.8204 L46.1450806,14.9814 L50.2523226,6.7844 C50.6017258,6.0914 51.4436613,5.8114 52.1354516,6.1572 C52.8286452,6.5044 53.1106935,7.3444 52.7640968,8.036 L48.4519839,16.639 L41.2744839,23.8 C41.0008548,24.073 40.641629,24.2102 40.2824032,24.2102" id="Fill-23"></path>
                </g>
            </g>
        </g>
    </g>
</svg>