<?xml version="1.0" encoding="utf-8"?>
<!-- Generator: Adobe Illustrator 20.0.0, SVG Export Plug-In . SVG Version: 6.00 Build 0)  -->
<svg version="1.1" id="eds-icon--puzzle_svg"
	 xmlns="http://www.w3.org/2000/svg" xmlns:xlink="http://www.w3.org/1999/xlink" x="0px" y="0px" viewBox="0 0 24 24"
	 enable-background="new 0 0 24 24" xml:space="preserve">
<path id="eds-icon--puzzle_base" fill-rule="evenodd" clip-rule="evenodd" d="M19.2,9.2c-1,0-1.9,0.5-2.3,1.3H16V5
	H9.5v2.6v0.4l0.3,0.3C9.9,8.4,10,8.7,10,9c0,0.6-0.5,1-1,1c-0.6,0-1-0.5-1-1c0-0.3,0.1-0.5,0.3-0.7l0.3-0.3V7.6V5H2v14h6.5v-2.9
	l-0.3-0.3C8,15.6,7.9,15.3,7.9,15c0-0.6,0.5-1,1-1c0.6,0,1,0.5,1,1c0,0.3-0.1,0.5-0.3,0.7l-0.3,0.3V19H16v-5.5h0.9
	c0.5,0.8,1.4,1.3,2.3,1.3c1.5,0,2.8-1.2,2.8-2.8C22,10.5,20.8,9.2,19.2,9.2 M19.2,13.8c-0.6,0-1.2-0.3-1.5-0.8l-0.3-0.5H15V18h-4.5
	v-1.6c0.3-0.4,0.6-0.9,0.6-1.4c0-1.1-0.9-2-2-2s-2,0.9-2,2c0,0.5,0.2,1,0.6,1.4V18H3V6h4.5v1.6C7.2,7.9,6.9,8.4,6.9,9
	c0,1.1,0.9,2,2,2s2-0.9,2-2c0-0.5-0.2-1-0.6-1.4V6H15v5.5h2.4l0.3-0.5c0.3-0.5,0.9-0.8,1.5-0.8c1,0,1.8,0.8,1.8,1.8
	C21,13,20.2,13.8,19.2,13.8"/>
</svg>
