<?xml version="1.0" encoding="utf-8"?>
<!-- Generator: Adobe Illustrator 20.0.0, SVG Export Plug-In . SVG Version: 6.00 Build 0)  -->
<svg version="1.1" id="eds-icon--politics_svg"
	 xmlns="http://www.w3.org/2000/svg" xmlns:xlink="http://www.w3.org/1999/xlink" x="0px" y="0px" viewBox="0 0 24 24"
	 enable-background="new 0 0 24 24" xml:space="preserve">
<path id="eds-icon--religion_base" fill-rule="evenodd" clip-rule="evenodd" fill="#231F20" d="M10.8,13.9l-0.2-0.6
	l-0.6-0.2L5.8,12l4.3-1.2l0.6-0.1l0.2-0.6L12,5.8l1.2,4.3l0.1,0.6l0.6,0.1l4.3,1.2l-4.3,1.2l-0.6,0.2l-0.1,0.6L12,18.2L10.8,13.9z
	 M12,2L9.9,9.9L2,12l7.9,2.1L12,22l2.1-7.9L22,12l-7.9-2.1L12,2z"/>
<g id="eds-icon--religion_dashes">
	
		<rect x="5.8" y="16.9" transform="matrix(0.7071 -0.7071 0.7071 0.7071 -10.2964 9.7662)" fill-rule="evenodd" clip-rule="evenodd" fill="#231F20" width="1.7" height="0.8"/>
	
		<rect x="16.9" y="16.5" transform="matrix(0.7073 -0.707 0.707 0.7073 -7.2054 17.3207)" fill-rule="evenodd" clip-rule="evenodd" fill="#231F20" width="0.8" height="1.7"/>
	
		<rect x="16.5" y="6.2" transform="matrix(0.7071 -0.7071 0.7071 0.7071 0.3653 14.2104)" fill-rule="evenodd" clip-rule="evenodd" fill="#231F20" width="1.7" height="0.8"/>
	
		<rect x="6.2" y="5.9" transform="matrix(0.7073 -0.707 0.707 0.7073 -2.785 6.6522)" fill-rule="evenodd" clip-rule="evenodd" fill="#231F20" width="0.8" height="1.7"/>
</g>
</svg>
