<?xml version="1.0" encoding="UTF-8" standalone="no"?>
<svg width="144px" height="144px" viewBox="0 0 144 144" version="1.1" xmlns="http://www.w3.org/2000/svg" xmlns:xlink="http://www.w3.org/1999/xlink">
    <!-- Generator: Sketch 46.2 (44496) - http://www.bohemiancoding.com/sketch -->
    <title>img_representative</title>
    <desc>Created with Sketch.</desc>
    <defs></defs>
    <g id="assets" stroke="none" stroke-width="1" fill="none" fill-rule="evenodd">
        <g id="img_representative">
            <g id="Group" transform="translate(22.000000, 20.000000)">
                <polygon id="Fill-303" fill="#F8FAFF" points="61 62.3333333 49.9990211 66 39 62.3333333 39 55 49.9990211 56.8343122 61 55"></polygon>
                <path d="M69.2041845,71 C82.2968141,78.5301212 101,76.6465858 101,95.4718889 L101,103 L0,103 L0,95.4718889 C0,76.6465858 18.7031859,78.5301212 31.7958155,71" id="Fill-304" fill="#F6682F"></path>
                <polygon id="Fill-305" fill="#D2D6DF" points="57.8994073 81 50.4990122 73.3991884 43.1005927 81 32 71.5 35.7001976 62 50.4990122 65.8004058 65.2998024 62 69 71.5"></polygon>
                <path d="M30,25.1816329 C30,13.5838268 39.1783322,8 50.5,8 C61.8216678,8 71,13.5838268 71,25.1816329 L61.6803708,29 L50.5,25.1816329 L39.3176391,21.3632657 L30,25.1816329 Z" id="Fill-306" fill="#F6682F"></path>
                <path d="M71,24.7897932 L71,36.1591727 C69.1372682,49.4224371 61.6823609,55.1061151 61.6823609,55.1061151 C57.9549073,57 50.5,57 50.5,57 C50.5,57 43.0450927,57 39.3196292,55.1061151 C39.3196292,55.1061151 31.8647219,49.4224371 30,36.1591727 L30,24.7897932 L39.3196292,21 L50.5,24.7897932 L61.6823609,28.5795863 L71,24.7897932 Z" id="Fill-307" fill="#F8FAFF"></path>
                <path d="M29,44 C24.0290474,44 20,39.7471166 20,34.5 C20,29.2528834 24.0290474,25 29,25" id="Fill-308" fill="#D2D6DF"></path>
                <path d="M71,25 C75.9709526,25 80,29.2528834 80,34.5 C80,39.7471166 75.9709526,44 71,44" id="Fill-309" fill="#D2D6DF"></path>
                <path d="M0,103 L0,95.4698788 C0,76.6465858 18.8232929,78.5281111 32,71" id="Stroke-310" stroke="#3A3A3A" stroke-width="3"></path>
                <path d="M69,71 C82.1767071,78.5301212 101,76.6465858 101,95.4718889 L101,103" id="Stroke-311" stroke="#3A3A3A" stroke-width="3"></path>
                <polygon id="Stroke-312" stroke="#3A3A3A" stroke-width="3" points="57.8994073 81 50.4990122 73.3991884 43.1005927 81 32 71.5 35.7001976 62 50.4990122 65.8004058 65.2998024 62 69 71.5"></polygon>
                <path d="M62,55 L62,62" id="Stroke-313" stroke="#363A43" stroke-width="3"></path>
                <path d="M39,62 L39,55" id="Stroke-314" stroke="#363A43" stroke-width="3"></path>
                <path d="M71,25 L71,36.2951819 C69.1372682,49.4718889 61.6823609,55.1184748 61.6823609,55.1184748 C57.9549073,57 50.5,57 50.5,57 C50.5,57 43.0450927,57 39.3196292,55.1184748 C39.3196292,55.1184748 31.8647219,49.4718889 30,36.2951819 L30,25" id="Stroke-315" stroke="#3A3A3A" stroke-width="3"></path>
                <path d="M30,25 C30,13.5247983 39.1783322,8 50.5,8 C61.8216678,8 71,13.5247983 71,25" id="Stroke-316" stroke="#3A3A3A" stroke-width="2.734"></path>
                <path d="M70.6253754,25 C75.8032437,25 80,29.1035864 80,34.1665035 C80,39.2294207 75.8032437,43.333007 70.6253754,43.333007 L69.960622,43.4524339 C69.960622,43.4524339 66.8751251,47 50,47" id="Stroke-317" stroke="#3A3A3A" stroke-width="3"></path>
                <path d="M22,28 C22,9.33466221 34.5363614,0 50.0009967,0 C65.4636386,0 78,9.33466221 78,28" id="Stroke-318" stroke="#3A3A3A" stroke-width="3"></path>
                <path d="M48,96 L52,96" id="Stroke-319" stroke="#3A3A3A" stroke-width="3"></path>
                <path d="M48,88 L52,88" id="Stroke-320" stroke="#3A3A3A" stroke-width="3"></path>
                <path d="M31,44 L29.1676455,44 C24.1032212,44 20,39.7471166 20,34.5 C20,29.2528834 24.1032212,25 29.1676455,25" id="Stroke-321" stroke="#3A3A3A" stroke-width="3"></path>
                <polyline id="Stroke-322" stroke="#363A43" stroke-width="3" points="30 24.5 39.3176391 21 50.5 24.5 61.6803708 28 71 24.5"></polyline>
            </g>
        </g>
    </g>
</svg>