<svg xmlns="http://www.w3.org/2000/svg" width="24" height="24" viewBox="0 0 24 24">
  <path fill="#282C35" fill-rule="evenodd" d="M13.4285714,12 C13.4285714,11.2203367 12.787619,10.5858586 12,10.5858586 C11.212381,10.5858586 10.5714286,11.2203367 10.5714286,12 C10.5714286,12.7796633 11.212381,13.4141414 12,13.4141414 C12.787619,13.4141414 13.4285714,12.7796633 13.4285714,12 L13.4285714,12 Z M14.3809524,12 C14.3809524,13.2991246 13.3133333,14.3569024 12,14.3569024 C10.6866667,14.3569024 9.61904762,13.2991246 9.61904762,12 C9.61904762,10.7008754 10.6866667,9.64309764 12,9.64309764 C13.3133333,9.64309764 14.3809524,10.7008754 14.3809524,12 L14.3809524,12 Z M15.7038095,8.33360269 C17.7495238,10.3586532 17.7495238,13.6413468 15.7038095,15.6663973 L16.3771429,16.3329293 C18.7952381,13.940202 18.7952381,10.059798 16.3771429,7.66707071 L15.7038095,8.33360269 Z M7.62285714,7.66707071 C5.2047619,10.059798 5.2047619,13.940202 7.62285714,16.3329293 L8.29619048,15.6663973 C6.25047619,13.6413468 6.25047619,10.3586532 8.29619048,8.33360269 L7.62285714,7.66707071 Z M19.0714286,5 L18.3980952,5.66653199 C21.9314286,9.16417508 21.9314286,14.8358249 18.3980952,18.333468 L19.0714286,19 C22.9761905,15.1337374 22.9761905,8.86626263 19.0714286,5 L19.0714286,5 Z M5.60190476,5.66653199 C2.06857143,9.16417508 2.06857143,14.8358249 5.60190476,18.333468 L4.92857143,19 C1.02380952,15.1337374 1.02380952,8.86626263 4.92857143,5 L5.60190476,5.66653199 Z"/>
</svg>
