<svg xmlns="http://www.w3.org/2000/svg" width="24" height="24" viewBox="0 0 24 24">
  <path fill="#282C35" fill-rule="evenodd" d="M13.0554202,14.1160804 C12.737207,14.2725543 12.3788253,14.3605913 12,14.3605913 C10.6866667,14.3605913 9.61904762,13.3024666 9.61904762,12.0029161 C9.61904762,11.6196871 9.71189008,11.257453 9.87649759,10.9371578 L7.81803495,8.87869512 C6.26531384,10.9112295 6.42469902,13.8173206 8.29619048,15.6705156 L7.62285714,16.3372662 C5.37734663,14.1145844 5.21707965,10.6085845 7.14205622,8.20271639 L5.12103232,6.18169249 C2.07658867,9.7017347 2.23687949,15.0063335 5.60190476,18.3384609 L4.92857143,19.0052114 C1.19081122,15.3030904 1.03095197,9.40003706 4.4489937,5.50965387 L2.64644661,3.70710678 L3.35355339,3 L21.0312229,20.6776695 L20.3241161,21.3847763 L13.0554202,14.1160804 Z M10.6109921,11.6716523 C10.5851315,11.7779486 10.5714286,11.8888799 10.5714286,12.0029161 C10.5714286,12.782835 11.212381,13.4175212 12,13.4175212 C12.1102855,13.4175212 12.2176953,13.4050771 12.3208725,13.3815326 L10.6109921,11.6716523 Z M14.3037596,12.5994145 L13.3930409,11.6886958 C13.2726114,11.165065 12.8578707,10.750918 12.3309927,10.6266476 L11.4202534,9.71590826 C11.6058768,9.66975673 11.8000919,9.64524084 12,9.64524084 C13.3133333,9.64524084 14.3809524,10.7033655 14.3809524,12.0029161 C14.3809524,12.2088983 14.3541305,12.4088151 14.3037596,12.5994145 Z M17.1341263,15.4297812 L16.4482427,14.7438976 C17.7087076,12.7422258 17.4605632,10.0748955 15.7038095,8.3353165 L16.3771429,7.66856595 C18.5090358,9.77878518 18.7613636,13.0457423 17.1341263,15.4297812 Z M19.8472363,18.1428912 L19.1718283,17.4674832 C21.9092211,13.9537611 21.6513101,8.88878133 18.3980952,5.66737124 L19.0714286,5.00062069 C22.69773,8.59234576 22.9563326,14.2556981 19.8472363,18.1428912 Z"/>
</svg>
