<svg xmlns="http://www.w3.org/2000/svg" width="24" height="24" style="background:#fff" viewBox="0 0 24 24">
  <path fill="#282C35" d="M10,11 C8.8954305,11 8,10.1045695 8,9 C8,7.8954305 8.8954305,7 10,7 C11.1045695,7 12,7.8954305 12,9 C12,10.1045695 11.1045695,11 10,11 Z M6.39581062,4.20278237 L7.598166,5.80101312 C6.59858464,6.55300218 6,7.72583176 6,9 C6,10.2825134 6.60653345,11.462184 7.61715071,12.2131817 L6.42424329,13.8184766 C4.91113318,12.6940725 4,10.921974 4,9 C4,7.09056512 4.89923309,5.32866363 6.39581062,4.20278237 Z M13.6129707,13.7905989 L12.4076976,12.1945672 C13.403866,11.4422921 14,10.2715841 14,9 C14,7.73698485 13.4119559,6.57332269 12.4270899,5.82016968 L13.6420107,4.23146974 C15.1165482,5.35908751 16,7.10732274 16,9 C16,10.9055521 15.1044359,12.6642911 13.6129707,13.7905989 Z M4.44491894,0.683751688 L5.55720277,2.34592637 C3.35079957,3.8223937 2,6.29583979 2,9 C2,11.693961 3.34054462,14.1592422 5.53328104,15.6380035 L4.41502938,17.2961691 C1.67669324,15.4494604 0,12.3659969 0,9 C0,5.62124036 1.68949541,2.52760906 4.44491894,0.683751688 Z M15.6666251,17.2405143 L14.5320741,15.5934581 C16.6873828,14.1088046 18,11.6659855 18,9 C18,6.32075408 16.6741819,3.86727573 14.5011434,2.38534211 L15.6279813,0.732999434 C18.3416914,2.58365157 20,5.65241644 20,9 C20,12.3309907 18.358172,15.3864807 15.6666251,17.2405143 Z" transform="translate(2 3)"/>
</svg>
