<?xml version="1.0" encoding="utf-8"?>
<!-- Generator: Adobe Illustrator 20.1.0, SVG Export Plug-In . SVG Version: 6.00 Build 0)  -->
<svg version="1.1" id="eds-icon--rocking-horse_svg"
	 xmlns="http://www.w3.org/2000/svg" xmlns:xlink="http://www.w3.org/1999/xlink" x="0px" y="0px" viewBox="0 0 24 24"
	 enable-background="new 0 0 24 24" xml:space="preserve">
<path id="eds-icon--rocking-horse_base" fill-rule="evenodd" clip-rule="evenodd" d="M21,17.3
	c-0.2,0.2-0.5,0.5-0.7,0.7l-2.3-8.9c0-0.2,0-0.4,0.1-0.5c0.2-0.2,0.6-0.3,0.8-0.1l0.2,0.2c0.6,0.5,1.6,0.4,2.1-0.1
	c0.5-0.5,0.6-1.4,0.2-2l-3-4.5L17,4.1c-2.1,0.1-3.8,1.9-3.8,4.1c0,0.2,0,0.5,0.1,0.8h-0.4H4.1v1h1.9l-2.1,8
	c-0.3-0.2-0.6-0.5-0.8-0.8L2.3,18c2.7,2.7,6.2,4,9.7,4c3.5,0,7-1.3,9.7-4L21,17.3z M17.3,5.1h0.3l0.9-1.3L20.6,7
	c0.2,0.2,0.1,0.6-0.1,0.8c-0.2,0.2-0.6,0.2-0.8,0l-0.2-0.2c-0.3-0.2-0.6-0.4-1-0.4c-0.5,0-0.9,0.2-1.2,0.6c-0.3,0.4-0.4,0.9-0.3,1.4
	l1.9,7.2c-2.2-2.2-4.6-2.7-6.3-2.7c-0.1,0-0.3,0-0.4,0v-0.8c1.4-0.3,2.5-1.6,2.5-3l-0.2-0.7c-0.1-0.3-0.2-0.8-0.2-1.2
	C14.2,6.5,15.6,5.1,17.3,5.1z M13.6,10c0,1.2-0.9,2.1-2.1,2.1h0c-1.2,0-2.1-1-2.1-2.1H13.6z M5.4,16.2L7,10h1.3
	c0,1.6,1.2,2.9,2.8,3.1v0.8c-2.6,0.4-4.6,1.7-5.8,2.8L5.4,16.2z M4.7,18.7L4.7,18.7c0.5-0.7,3-3.6,7.1-3.9c0,0,0.5,0,0.7,0
	c2.7,0,5,1.3,6.8,3.8c0,0,0,0,0.1,0.1C15,21.8,9.1,21.8,4.7,18.7z"/>
</svg>
