<?xml version="1.0" encoding="utf-8"?>
<!-- Generator: Adobe Illustrator 20.0.0, SVG Export Plug-In . SVG Version: 6.00 Build 0)  -->
<svg version="1.1" id="eds-icon--tech_svg"
	 xmlns="http://www.w3.org/2000/svg" xmlns:xlink="http://www.w3.org/1999/xlink" x="0px" y="0px" viewBox="0 0 24 24"
	 enable-background="new 0 0 24 24" xml:space="preserve">
<path id="eds-icon--tech_base" fill-rule="evenodd" clip-rule="evenodd" fill="#231F20" d="M20,21v-5h-0.5H19h-1V8
	c0-1.8-0.8-3.5-2.2-4.6h0C14.7,2.5,13.4,2,12,2S9.3,2.5,8.2,3.4h0C6.8,4.5,6,6.2,6,8v8H5H4.5H4v5H3v1h1h1h1v-1H5v-4h1v3h3v2h6v-2h3
	v-3h1v4h-1v1h1h1h1v-1H20z M8.8,4.2C9.7,3.4,10.8,3,12,3s2.3,0.4,3.2,1.2c0.9,0.7,1.5,1.7,1.7,2.8H7.1C7.3,5.9,7.9,4.9,8.8,4.2z
	 M10,21h4v-1h-4V21z M17,19H7v-2h1v-1H7V8h10v8h-1v1h1V19z"/>
<path id="eds-icon--tech_circle" fill-rule="evenodd" clip-rule="evenodd" fill="#231F20" d="M12,10
	c-1.7,0-3,1.3-3,3s1.3,3,3,3s3-1.3,3-3S13.7,10,12,10z M12,15c-1.1,0-2-0.9-2-2c0-1.1,0.9-2,2-2s2,0.9,2,2C14,14.1,13.1,15,12,15z"
	/>
</svg>
