<?xml version="1.0" encoding="utf-8"?>
<!-- Generator: Adobe Illustrator 20.0.0, SVG Export Plug-In . SVG Version: 6.00 Build 0)  -->
<svg version="1.1" id="eds-icon--rotate_svg"
	 xmlns="http://www.w3.org/2000/svg" xmlns:xlink="http://www.w3.org/1999/xlink" x="0px" y="0px" viewBox="0 0 24 24"
	 enable-background="new 0 0 24 24" xml:space="preserve">
<path id="eds-icon--rotate_base" fill-rule="evenodd" clip-rule="evenodd" d="M5,12c0-3.8,3.1-6.8,6.8-6.8
	c0.6,0,1.1,0.1,1.7,0.2l-1.6,1.6l0.7,0.7l2.8-2.8L12.7,2l-0.7,0.7l1.7,1.7c-0.6-0.1-1.2-0.2-1.8-0.2C7.5,4.2,4,7.7,4,12
	c0,2.2,1,4.4,2.6,5.9l0.7-0.7C5.8,15.8,5,14,5,12z M17,6.1l-0.7,0.7c1.5,1.3,2.3,3.2,2.3,5.1c0,3.8-3.1,6.8-6.8,6.8
	c-0.6,0-1.1-0.1-1.7-0.2l1.6-1.6L11,16.3l-2.8,2.8L11,22l0.7-0.7L10,19.6c0.6,0.1,1.2,0.2,1.8,0.2c4.3,0,7.8-3.5,7.8-7.8
	C19.6,9.8,18.7,7.6,17,6.1z"/>
</svg>
