<?xml version="1.0" encoding="utf-8"?>
<!-- Generator: Adobe Illustrator 19.1.0, SVG Export Plug-In . SVG Version: 6.00 Build 0)  -->
<svg version="1.1" id="eds-icon--row_svg"
	 xmlns="http://www.w3.org/2000/svg" xmlns:xlink="http://www.w3.org/1999/xlink" x="0px" y="0px" viewBox="0 0 24 24"
	 enable-background="new 0 0 24 24" xml:space="preserve">
<path id="eds-icon--row_base" fill-rule="evenodd" clip-rule="evenodd" d="M19,10H5V3h14V10z M4,2v9h16V2H4z"/>
<g id="eds-icon--row_circles">
	<path fill-rule="evenodd" clip-rule="evenodd" d="M18,16c1.1,0,2-0.9,2-2s-0.9-2-2-2s-2,0.9-2,2S16.9,16,18,16z M18,13
		c0.6,0,1,0.4,1,1s-0.4,1-1,1s-1-0.4-1-1S17.4,13,18,13z"/>
	<path fill-rule="evenodd" clip-rule="evenodd" d="M12,13c-1.1,0-2,0.9-2,2s0.9,2,2,2s2-0.9,2-2S13.1,13,12,13z M12,16
		c-0.6,0-1-0.4-1-1s0.4-1,1-1s1,0.4,1,1S12.6,16,12,16z"/>
	<path fill-rule="evenodd" clip-rule="evenodd" d="M18,17c-1.1,0-2,0.9-2,2s0.9,2,2,2s2-0.9,2-2S19.1,17,18,17z M18,20
		c-0.6,0-1-0.4-1-1s0.4-1,1-1s1,0.4,1,1S18.6,20,18,20z"/>
	<path fill-rule="evenodd" clip-rule="evenodd" d="M12,18c-1.1,0-2,0.9-2,2s0.9,2,2,2s2-0.9,2-2S13.1,18,12,18z M12,21
		c-0.6,0-1-0.4-1-1s0.4-1,1-1s1,0.4,1,1S12.6,21,12,21z"/>
	<path fill-rule="evenodd" clip-rule="evenodd" d="M6,12c-1.1,0-2,0.9-2,2s0.9,2,2,2s2-0.9,2-2S7.1,12,6,12z M6,15c-0.6,0-1-0.4-1-1
		s0.4-1,1-1s1,0.4,1,1S6.6,15,6,15z"/>
	<path fill-rule="evenodd" clip-rule="evenodd" d="M6,17c-1.1,0-2,0.9-2,2s0.9,2,2,2s2-0.9,2-2S7.1,17,6,17z M6,20c-0.6,0-1-0.4-1-1
		s0.4-1,1-1s1,0.4,1,1S6.6,20,6,20z"/>
</g>
</svg>
