<?xml version="1.0" encoding="utf-8"?>
<!-- Generator: Adobe Illustrator 19.1.0, SVG Export Plug-In . SVG Version: 6.00 Build 0)  -->
<svg version="1.1" id="eds-icon--scan-plus_svg"
	 xmlns="http://www.w3.org/2000/svg" xmlns:xlink="http://www.w3.org/1999/xlink" x="0px" y="0px" viewBox="0 0 24 24"
	 enable-background="new 0 0 24 24" xml:space="preserve">
<path id="eds-icon--scan-plus_base" fill-rule="evenodd" clip-rule="evenodd" d="M12.5,11.5V8h-1v3.5H8v1h3.5V16h1
	v-3.5H16v-1H12.5z"/>
<g id="eds-icon--scan-plus_corners">
	<polygon fill-rule="evenodd" clip-rule="evenodd" points="3,16 2,16 2,22 8,22 8,21 3,21 	"/>
	<polygon fill-rule="evenodd" clip-rule="evenodd" points="21,21 16,21 16,22 22,22 22,16 21,16 	"/>
	<polygon fill-rule="evenodd" clip-rule="evenodd" points="16,2 16,3 21,3 21,8 22,8 22,2 	"/>
	<polygon fill-rule="evenodd" clip-rule="evenodd" points="2,8 3,8 3,3 8,3 8,2 2,2 	"/>
</g>
</svg>
