<?xml version="1.0" encoding="utf-8"?>
<!-- Generator: Adobe Illustrator 19.1.0, SVG Export Plug-In . SVG Version: 6.00 Build 0)  -->
<svg version="1.1" id="eds-icon--scan-plus-fill_svg"
	 xmlns="http://www.w3.org/2000/svg" xmlns:xlink="http://www.w3.org/1999/xlink" x="0px" y="0px" viewBox="0 0 24 24"
	 enable-background="new 0 0 24 24" xml:space="preserve">
<path id="eds-icon--scan-plus-fill_base" fill-rule="evenodd" clip-rule="evenodd" d="M2,2v20h20V2H2z"/>
<g id="eds-icon--scan-plus-fill_corners">
	<polygon fill-rule="evenodd" clip-rule="evenodd" fill="#FFFFFF" points="3,8 4,8 4,4 8,4 8,3 3,3 	"/>
	<polygon fill-rule="evenodd" clip-rule="evenodd" fill="#FFFFFF" points="16,3 16,4 20,4 20,8 21,8 21,3 	"/>
	<polygon fill-rule="evenodd" clip-rule="evenodd" fill="#FFFFFF" points="20,20 16,20 16,21 21,21 21,16 20,16 	"/>
	<polygon fill-rule="evenodd" clip-rule="evenodd" fill="#FFFFFF" points="4,16 3,16 3,21 8,21 8,20 4,20 	"/>
</g>
<polygon id="eds-icon--scan-plus-fill_plus" fill-rule="evenodd" clip-rule="evenodd" fill="#FFFFFF" points="16,12.5 
	12.5,12.5 12.5,16 11.5,16 11.5,12.5 8,12.5 8,11.5 11.5,11.5 11.5,8 12.5,8 12.5,11.5 16,11.5 "/>
</svg>
