<?xml version="1.0" encoding="utf-8"?>
<!-- Generator: Adobe Illustrator 19.2.1, SVG Export Plug-In . SVG Version: 6.00 Build 0)  -->
<svg version="1.1" id="eds-icon--scan-check_svg"
	 xmlns="http://www.w3.org/2000/svg" xmlns:xlink="http://www.w3.org/1999/xlink" x="0px" y="0px" viewBox="0 0 24 24"
	 enable-background="new 0 0 24 24" xml:space="preserve">
<polygon id="eds-icon--scan-check_check" points="15.3,9.5 11,13.8 8.7,11.5 8,12.2 11,15 16,10.2 "/>
<g id="eds-icon--scan-check_corners">
	<polygon points="2,8 3,8 3,3 8,3 8,2 2,2 	"/>
	<polygon points="16,2 16,3 21,3 21,8 22,8 22,2 	"/>
	<polygon points="21,21 16,21 16,22 22,22 22,16 21,16 	"/>
	<polygon points="3,16 2,16 2,22 8,22 8,21 3,21 	"/>
</g>
</svg>
