<?xml version="1.0" encoding="UTF-8" standalone="no"?>
<svg xmlns="http://www.w3.org/2000/svg" width="64" height="64" viewBox="0 0 64 64">
    <g fill="none" fill-rule="evenodd">
        <path d="M-16-16h96v96h-96z"/>
        <path fill="#EFF2F5" d="M64 32c0 17.6737028-14.3265548 32-32 32S0 49.6737028 0 32 14.3265548 0 32 0s32 14.3262972 32 32"/>
        <path fill="#F6682F" d="M17.143 45.795h45.686V16H17.143z"/>
        <path fill="#F8FAFF" d="M62.829 16L39.986 36.856 17.143 16z"/>
        <path stroke="#363A43" stroke-width="1.5" d="M17.143 45.795h45.686V16H17.143z"/>
        <path stroke="#363A43" stroke-width="1.5" d="M62.829 16L39.986 36.856 17.143 16M17.1428571 46.0537143l12.9108572-12.9108572m33.1428571 12.9108572L50.2857143 33.1428571M1.14285714 21.7142857h1.98628572m1.44228571 0h1.98628572m2.58514285 0h1.98628576m-6.55771433 9.1428572h1.98628572m2.58514285 0h1.98628576m1.4422857 0h1.9862857M1.14285714 41.1428571h1.98628572m1.44228571 0h1.98628572m2.58514285 0h1.98628576"/>
    </g>
</svg>
