<svg xmlns="http://www.w3.org/2000/svg" xmlns:xlink="http://www.w3.org/1999/xlink" width="24" height="24" viewBox="0 0 24 24">
  <defs>
    <path id="ic_share_android-a" d="M18.9056824,19.0443072 C17.7521537,19.0443072 16.8138431,18.1059966 16.8138431,16.9524679 C16.8138431,16.8594414 16.8294313,16.7709405 16.8414996,16.6814339 C16.8862529,16.334973 17.0104559,16.015163 17.2045544,15.7436261 C17.5842032,15.2111122 18.2037094,14.8606285 18.9056824,14.8606285 C20.0592112,14.8606285 20.9975218,15.7989392 20.9975218,16.9524679 C20.9975218,18.1059966 20.0592112,19.0443072 18.9056824,19.0443072 M5.09753134,13.6170904 C3.94400263,13.6170904 3.00569199,12.6787798 3.00569199,11.525251 C3.00569199,10.3712195 3.94400263,9.43290885 5.09753134,9.43290885 C5.80051005,9.43290885 6.41951347,9.78339251 6.7991622,10.3164093 C6.99275791,10.5879461 7.11696087,10.9072533 7.16221701,11.2537142 C7.17428531,11.3437236 7.18987354,11.4322245 7.18987354,11.525251 C7.18987354,11.6177747 7.17428531,11.7067784 7.16221701,11.7967879 C7.11696087,12.1422431 6.99275791,12.462556 6.7991622,12.7340928 C6.41901063,13.2666067 5.80051005,13.6170904 5.09753134,13.6170904 M16.8138431,6.09753134 C16.8138431,4.94400263 17.7521537,4.00569199 18.9056824,4.00569199 C20.0592112,4.00569199 20.9975218,4.94400263 20.9975218,6.09753134 C20.9975218,7.25156291 20.0592112,8.18987354 18.9056824,8.18987354 C18.2037094,8.18987354 17.5837003,7.83938988 17.2045544,7.30637312 C17.0104559,7.03483628 16.8862529,6.71452338 16.8409968,6.36856534 C16.8289285,6.27905875 16.8138431,6.19055785 16.8138431,6.09753134 M18.9056824,13.8549365 C17.7747818,13.8549365 16.7881979,14.4623745 16.2476385,15.3674973 L8.12617279,12.1754309 C8.17092608,11.9657441 8.19556554,11.7480118 8.19556554,11.525251 C8.19556554,11.3019874 8.17092608,11.0847579 8.12617279,10.8750712 L16.2476385,7.68250193 C16.7881979,8.58762472 17.7747818,9.19556554 18.9056824,9.19556554 C20.6163645,9.19556554 22.0032138,7.80821343 22.0032138,6.09753134 C22.0032138,4.38684926 20.6163645,3 18.9056824,3 C17.1950004,3 15.8081511,4.38684926 15.8081511,6.09753134 C15.8081511,6.32079497 15.8327905,6.53802444 15.8775438,6.74771122 L7.75557529,9.94028046 C7.21501584,9.03515766 6.22843199,8.42721685 5.09753134,8.42721685 C3.38684926,8.42721685 2,9.81456896 2,11.525251 C2,13.2359331 3.38684926,14.6227824 5.09753134,14.6227824 C6.22843199,14.6227824 7.21501584,14.0148416 7.75557529,13.1102216 L15.8775438,16.302288 C15.8327905,16.5124776 15.8081511,16.7292043 15.8081511,16.9524679 C15.8081511,18.66315 17.1950004,20.0499992 18.9056824,20.0499992 C20.6163645,20.0499992 22.0032138,18.66315 22.0032138,16.9524679 C22.0032138,15.2417858 20.6163645,13.8549365 18.9056824,13.8549365"/>
  </defs>
  <g fill="none" fill-rule="evenodd">
    <use fill="#000" xlink:href="#ic_share_android-a"/>
  </g>
</svg>
