<?xml version="1.0" encoding="utf-8"?>
<!-- Generator: Adobe Illustrator 20.0.0, SVG Export Plug-In . SVG Version: 6.00 Build 0)  -->
<svg version="1.1" id="eds-icon--sport_svg"
	 xmlns="http://www.w3.org/2000/svg" xmlns:xlink="http://www.w3.org/1999/xlink" x="0px" y="0px" viewBox="0 0 24 24"
	 enable-background="new 0 0 24 24" xml:space="preserve">
<path id="eds-icon--sport_base" fill-rule="evenodd" clip-rule="evenodd" fill="#231F20" d="M22,17c0-6-6-8-6-8
	l-6-2c0,0-1.5,2-4,2C4.7,9,3.1,8,3.1,8L2,8v9h2v1h1v-1h2v1h1v-1h8v1h1v-1h2v1h1v-1H22z M3,16v-2h3c1.7,0,2.6,0.6,2.9,2H3z M9.9,16
	c-0.4-2.4-2.1-3-3.9-3H3V9.1C3.7,9.4,4.9,10,6,10c2.1,0,3.6-1.1,4.3-1.8L11,8.4V13h1V8.7l1,0.3V13h1V9.4l1,0.3V13h1v-2.9
	c1.1,0.4,4.4,2.1,4.9,5.9H9.9z"/>
</svg>
