<?xml version="1.0" encoding="utf-8"?>
<!-- Generator: Adobe Illustrator 19.2.1, SVG Export Plug-In . SVG Version: 6.00 Build 0)  -->
<svg version="1.1" id="eds-icon--stopwatch_svg"
	 xmlns="http://www.w3.org/2000/svg" xmlns:xlink="http://www.w3.org/1999/xlink" x="0px" y="0px" viewBox="0 0 24 24"
	 enable-background="new 0 0 24 24" xml:space="preserve">
<path id="eds-icon--stopwatch_base" fill-rule="evenodd" clip-rule="evenodd" d="M12.5,6V5h1C14.3,5,15,4.3,15,3.5
	S14.3,2,13.5,2h-3C9.7,2,9,2.7,9,3.5S9.7,5,10.5,5h1v1C7.3,6.3,4,9.8,4,14c0,4.4,3.6,8,8,8s8-3.6,8-8C20,9.8,16.7,6.3,12.5,6z
	 M10.5,4C10.2,4,10,3.8,10,3.5S10.2,3,10.5,3h3C13.8,3,14,3.2,14,3.5S13.8,4,13.5,4H10.5z M12,21c-3.9,0-7-3.1-7-7s3.1-7,7-7
	s7,3.1,7,7S15.9,21,12,21z"/>
<rect id="eds-icon--stopwatch_button" x="3.9" y="6.9" transform="matrix(0.7071 -0.7071 0.7071 0.7071 -3.6317 5.9394)" fill-rule="evenodd" clip-rule="evenodd" width="2.8" height="1"/>
<rect id="eds-icon--stopwatch_hand" x="11.2" y="11.5" transform="matrix(0.7071 -0.7071 0.7071 0.7071 -4.3848 13.4142)" fill-rule="evenodd" clip-rule="evenodd" width="5.7" height="1"/>
</svg>
