<?xml version="1.0" encoding="utf-8"?>
<!-- Generator: Adobe Illustrator 20.0.0, SVG Export Plug-In . SVG Version: 6.00 Build 0)  -->
<svg version="1.1" id="eds-icon--strikethrough_svg"
	 xmlns="http://www.w3.org/2000/svg" xmlns:xlink="http://www.w3.org/1999/xlink" x="0px" y="0px" viewBox="0 0 24 24"
	 enable-background="new 0 0 24 24" xml:space="preserve">
<g id="eds-icon--strikethrough_base">
	<path fill-rule="evenodd" clip-rule="evenodd" fill="#010101" d="M15.9,14c1.3,0.9,1.6,1.8,1.6,3.2c0,2.4-2.1,4-5.3,4
		c-2.9,0-5-1.5-5.8-4.5L5.1,17c0.8,3.3,3.4,5.4,7.1,5.4c3.7,0,6.7-2,6.7-5.3c0-1.3-0.3-2.3-0.9-3.1H15.9z"/>
	<path fill-rule="evenodd" clip-rule="evenodd" fill="#010101" d="M15,12c-0.6-0.3-1.3-0.5-2.1-0.8C8.3,9.7,7,8.9,7,6.5
		c0-2,1.8-3.6,4.6-3.6c2.6,0,4.4,1.1,5.3,3.9l1.3-0.4c-0.8-2.8-2.9-4.7-6.6-4.7c-3.5,0-6,2.3-6,4.9c0,2.9,1.6,4.1,5.4,5.4H5v1h8.9
		h2.9H21v-1H15z"/>
</g>
</svg>
