<?xml version="1.0" encoding="utf-8"?>
<!-- Generator: Adobe Illustrator 19.1.0, SVG Export Plug-In . SVG Version: 6.00 Build 0)  -->
<svg version="1.1" id="eds-icon--table_svg"
	 xmlns="http://www.w3.org/2000/svg" xmlns:xlink="http://www.w3.org/1999/xlink" x="0px" y="0px" viewBox="0 0 24 24"
	 enable-background="new 0 0 24 24" xml:space="preserve">
<path id="eds-icon--table_base" fill-rule="evenodd" clip-rule="evenodd" d="M19,16H5V8h14V16z M4,7v10h16V7H4z"/>
<g id="eds-icon--table_circles">
	<path fill-rule="evenodd" clip-rule="evenodd" d="M6,2C4.9,2,4,2.9,4,4s0.9,2,2,2s2-0.9,2-2S7.1,2,6,2z M6,5C5.4,5,5,4.6,5,4
		s0.4-1,1-1s1,0.4,1,1S6.6,5,6,5z"/>
	<path fill-rule="evenodd" clip-rule="evenodd" d="M12,2c-1.1,0-2,0.9-2,2s0.9,2,2,2s2-0.9,2-2S13.1,2,12,2z M12,5c-0.6,0-1-0.4-1-1
		s0.4-1,1-1s1,0.4,1,1S12.6,5,12,5z"/>
	<path fill-rule="evenodd" clip-rule="evenodd" d="M18,6c1.1,0,2-0.9,2-2s-0.9-2-2-2s-2,0.9-2,2S16.9,6,18,6z M18,3c0.6,0,1,0.4,1,1
		s-0.4,1-1,1s-1-0.4-1-1S17.4,3,18,3z"/>
	<path fill-rule="evenodd" clip-rule="evenodd" d="M6,18c-1.1,0-2,0.9-2,2s0.9,2,2,2s2-0.9,2-2S7.1,18,6,18z M6,21c-0.6,0-1-0.4-1-1
		s0.4-1,1-1s1,0.4,1,1S6.6,21,6,21z"/>
	<path fill-rule="evenodd" clip-rule="evenodd" d="M12,18c-1.1,0-2,0.9-2,2s0.9,2,2,2s2-0.9,2-2S13.1,18,12,18z M12,21
		c-0.6,0-1-0.4-1-1s0.4-1,1-1s1,0.4,1,1S12.6,21,12,21z"/>
	<path fill-rule="evenodd" clip-rule="evenodd" d="M18,18c-1.1,0-2,0.9-2,2s0.9,2,2,2s2-0.9,2-2S19.1,18,18,18z M18,21
		c-0.6,0-1-0.4-1-1s0.4-1,1-1s1,0.4,1,1S18.6,21,18,21z"/>
</g>
</svg>
