<?xml version="1.0" encoding="utf-8"?>
<!-- Generator: Adobe Illustrator 19.1.0, SVG Export Plug-In . SVG Version: 6.00 Build 0)  -->
<svg version="1.1" id="eds-icon--ticket_svg"
	 xmlns="http://www.w3.org/2000/svg" xmlns:xlink="http://www.w3.org/1999/xlink" x="0px" y="0px" viewBox="0 0 24 24"
	 enable-background="new 0 0 24 24" xml:space="preserve">
<path id="eds-icon--ticket_base" fill-rule="evenodd" clip-rule="evenodd" d="M19,21h-3c-0.4-1.7-1.6-3-4-3
	s-3.6,1.3-4,3H5V3h3c0.4,1.7,1.5,3.5,4,3.5s3.6-1.8,4-3.5h3V21z M15,2c0,0,0,3.5-3,3.5S9,2,9,2H4v20h5c0,0,0-3,3-3s3,3,3,3h5V2H15z"
	/>
<g id="eds-icon--ticket_dashes">
	<rect x="7" y="11.5" fill-rule="evenodd" clip-rule="evenodd" width="2" height="1"/>
	<rect x="11" y="11.5" fill-rule="evenodd" clip-rule="evenodd" width="2" height="1"/>
	<rect x="15" y="11.5" fill-rule="evenodd" clip-rule="evenodd" width="2" height="1"/>
</g>
</svg>
