<svg id="eds-icon--ticket-multi-fill_svg" xmlns="http://www.w3.org/2000/svg" viewBox="0 0 24 24"><title>ticket-multi-fill</title><polygon points="20 3 20 22 16 22 16 23 21 23 21 3 20 3" style="fill:#231f20"/><path d="M9.1,22a4.14,4.14,0,0,1,2.3-2.7,2.18,2.18,0,0,1,.9.7A3.21,3.21,0,0,0,10,23H5V22Z" style="fill:#231f20"/><path d="M14,1s0,3.5-3,3.5S8,1,8,1H3V21H8a2.94,2.94,0,0,1,2.88-3H11a2.94,2.94,0,0,1,3,2.88S14,21,14,21h5V1ZM8,11.5H6v-1H8Zm4,0H10v-1h2Zm4,0H14v-1h2Z" style="fill:#231f20"/></svg>
