<?xml version="1.0" encoding="UTF-8" standalone="no"?>
<svg width="144px" height="144px" viewBox="0 0 144 144" version="1.1" xmlns="http://www.w3.org/2000/svg" xmlns:xlink="http://www.w3.org/1999/xlink">
    <!-- Generator: Sketch 43.2 (39069) - http://www.bohemiancoding.com/sketch -->
    <title>ticket-add-graphic</title>
    <desc>Created with Sketch.</desc>
    <defs></defs>
    <g id="Page-1" stroke="none" stroke-width="1" fill="none" fill-rule="evenodd">
        <g id="ticket-add-graphic">
            <rect id="Rectangle-path" x="0" y="0" width="144" height="144"></rect>
            <path d="M27,84 L27,84 L27,83.4 C27,78.9 31.05,75.15 35.85,75.15 C40.8,75.15 45,79.35 45,83.7 L45,84 L48,84 L48,84 L48,84 L48,42 L90,42 C90.6,46.35 94.2,49.5 98.85,49.5 C103.5,49.5 107.1,46.35 107.7,42 L115.5,42 L115.5,93 L107.7,93 C107.1,88.65 103.5,85.5 98.85,85.5 C94.2,85.5 90.6,88.65 90,93 L35.85,93 C30.9,93 27.15,90 27,84 Z" id="Shape" fill="#D2D6DF" fill-rule="nonzero"></path>
            <rect id="Rectangle-path" fill="#363A43" fill-rule="nonzero" x="81" y="103" width="6" height="3"></rect>
            <rect id="Rectangle-path-Copy" fill="#363A43" fill-rule="nonzero" x="99" y="103" width="6" height="3"></rect>
            <rect id="Rectangle-path-Copy-4" fill="#363A43" fill-rule="nonzero" x="107" y="103" width="6" height="3"></rect>
            <rect id="Rectangle-path" fill="#363A43" fill-rule="nonzero" x="72" y="103" width="6" height="3"></rect>
            <rect id="Rectangle-path-Copy-2" fill="#363A43" fill-rule="nonzero" x="90" y="103" width="6" height="3"></rect>
            <rect id="Rectangle-path" fill="#363A43" fill-rule="nonzero" x="63" y="103" width="6" height="3"></rect>
            <rect id="Rectangle-path" fill="#363A43" fill-rule="nonzero" x="54" y="102.9" width="6" height="3"></rect>
            <rect id="Rectangle-path" fill="#363A43" fill-rule="nonzero" x="45" y="102.9" width="6" height="3"></rect>
            <rect id="Rectangle-path" fill="#363A43" fill-rule="nonzero" x="36" y="102.9" width="6" height="3"></rect>
            <rect id="Rectangle-path" fill="#363A43" fill-rule="nonzero" x="36" y="94" width="3" height="6"></rect>
            <rect id="Rectangle-path-Copy-3" fill="#363A43" fill-rule="nonzero" x="110" y="94" width="3" height="6"></rect>
            <path d="M24,84.45 C24,91.05 29.25,96.15 35.85,96.15 L93,96.15 L93,94.65 C93,91.2 95.55,88.65 99,88.65 C102.45,88.65 105,91.2 105,94.65 L105,96.15 L118.5,96.15 L118.5,39.15 L105,39.15 L105,40.65 C105,44.1 102.45,46.65 99,46.65 C95.55,46.65 93,44.1 93,40.65 L93,39.15 L47.7,39.15 C46.65,33.45 41.85,29.25 36,29.25 C29.25,29.25 24,34.65 24,41.4 L24,83.55 L24,84.45 Z M45,41.4 L45,76.8 C42,74.1 39.45,72.45 35.85,72.45 C32.25,72.45 28.5,74.1 27,76.5 L27,41.25 C27,36.15 30.9,32.1 36,32.1 C41.1,32.1 45,36.3 45,41.4 Z M27,84 L27,84 L27,83.4 C27,78.9 31.05,75.15 35.85,75.15 C40.8,75.15 45,79.35 45,83.7 L45,84 L48,84 L48,84 L48,84 L48,42 L90,42 C90.6,46.35 94.2,49.5 98.85,49.5 C103.5,49.5 107.1,46.35 107.7,42 L115.5,42 L115.5,93 L107.7,93 C107.1,88.65 103.5,85.5 98.85,85.5 C94.2,85.5 90.6,88.65 90,93 L35.85,93 C30.9,93 27.15,90 27,84 Z" id="Shape" fill="#363A43" fill-rule="nonzero"></path>
            <path d="M45,41.4 L45,76.8 C42,74.1 39.45,72.45 35.85,72.45 C32.25,72.45 28.5,74.1 27,76.5 L27,41.25 C27,36.15 30.9,32.1 36,32.1 C41.1,32.1 45,36.3 45,41.4 Z" id="Shape" fill="#FFFFFF" fill-rule="nonzero"></path>
            <rect id="Rectangle-path" fill="#363A43" fill-rule="nonzero" x="97.35" y="70.8" width="3" height="3"></rect>
            <rect id="Rectangle-path" fill="#363A43" fill-rule="nonzero" x="97.35" y="64.8" width="3" height="3"></rect>
            <rect id="Rectangle-path" fill="#363A43" fill-rule="nonzero" x="97.35" y="76.8" width="3" height="3"></rect>
            <rect id="Rectangle-path" fill="#363A43" fill-rule="nonzero" x="97.35" y="58.8" width="3" height="3"></rect>
            <rect id="Rectangle-path" fill="#363A43" fill-rule="nonzero" x="97.35" y="52.8" width="3" height="3"></rect>
            <rect id="Rectangle-path" fill="#3A3A3A" fill-rule="nonzero" x="54" y="58.8" width="37.5" height="3"></rect>
            <rect id="Rectangle-path" fill="#3A3A3A" fill-rule="nonzero" x="54" y="64.8" width="15" height="3"></rect>
        </g>
    </g>
</svg>