<?xml version="1.0" encoding="utf-8"?>
<!-- Generator: Adobe Illustrator 19.2.1, SVG Export Plug-In . SVG Version: 6.00 Build 0)  -->
<svg version="1.1" id="eds-icon--user-fill_svg"
	 xmlns="http://www.w3.org/2000/svg" xmlns:xlink="http://www.w3.org/1999/xlink" x="0px" y="0px" viewBox="0 0 24 24"
	 enable-background="new 0 0 24 24" xml:space="preserve">
<path id="eds-icon--user-fill_base" fill-rule="evenodd" clip-rule="evenodd" d="M21.3,17.2c-0.4,0.4-0.9,0.8-1.4,1.2
	c-0.1,0.1-0.4,0.3-0.4,0.3c-2.3,1.5-4.9,2.3-7.6,2.3c-3.3,0-6.7-1.2-9.3-3.7L2,17.9C4.8,20.6,8.4,22,12,22s7.2-1.4,10-4.1L21.3,17.2
	z"/>
<path id="eds-icon--user-fill_body" fill-rule="evenodd" clip-rule="evenodd" d="M19.1,17.7c-1.4-2.6-4.1-4.2-7.2-4.2
	c-3,0-5.7,1.7-7.1,4.2C9.1,20.6,14.8,20.6,19.1,17.7z"/>
<circle id="eds-icon--user-fill_head" fill-rule="evenodd" clip-rule="evenodd" cx="12" cy="7" r="5"/>
</svg>
