<?xml version="1.0" encoding="utf-8"?>
<!-- Generator: Adobe Illustrator 20.1.0, SVG Export Plug-In . SVG Version: 6.00 Build 0)  -->
<svg version="1.1" id="eds-icon--user-chunky_svg"
	 xmlns="http://www.w3.org/2000/svg" xmlns:xlink="http://www.w3.org/1999/xlink" x="0px" y="0px" viewBox="0 0 24 24"
	 enable-background="new 0 0 24 24" xml:space="preserve">
<path id="eds-icon--user-chunky_base" fill-rule="evenodd" clip-rule="evenodd" d="M12,18
	c-1.2,0-2.4-0.3-3.5-0.7c0.6-1.3,2-2.2,3.5-2.2c1.5,0,2.9,0.9,3.5,2.2C14.4,17.7,13.2,18,12,18z M18.5,15.1
	c-0.4,0.4-0.8,0.8-1.3,1.1c-1-1.9-3-3.2-5.3-3.2c-2.3,0-4.3,1.3-5.3,3.2c-0.5-0.3-0.9-0.7-1.3-1.1L4,16.5c2.1,2.3,5,3.5,8,3.5
	c3,0,5.9-1.3,8-3.5L18.5,15.1z"/>
<path id="eds-icon--user-chunky_circle" fill-rule="evenodd" clip-rule="evenodd" d="M12,4
	C9.7,4,7.8,5.9,7.8,8.2s1.9,4.2,4.2,4.2s4.2-1.9,4.2-4.2S14.3,4,12,4z M12,10.4c-1.2,0-2.2-1-2.2-2.2C9.8,7,10.8,6,12,6
	s2.2,1,2.2,2.2C14.2,9.4,13.2,10.4,12,10.4z"/>
</svg>
