<?xml version="1.0" encoding="utf-8"?>
<!-- Generator: Adobe Illustrator 19.2.1, SVG Export Plug-In . SVG Version: 6.00 Build 0)  -->
<svg version="1.1" id="eds-icon--list-view_svg"
	 xmlns="http://www.w3.org/2000/svg" xmlns:xlink="http://www.w3.org/1999/xlink" x="0px" y="0px" viewBox="0 0 24 24"
	 enable-background="new 0 0 24 24" xml:space="preserve">
<path id="eds-icon--user_base" fill-rule="evenodd" clip-rule="evenodd" d="M5.2,19.1c1-2.8,3.7-4.7,6.7-4.7
	c3,0,5.7,1.9,6.7,4.7C14.5,21.6,9.3,21.6,5.2,19.1z M21.3,17.2c-0.5,0.5-1.1,1-1.7,1.5c-1.2-3.1-4.2-5.2-7.6-5.2
	c-3.3,0-6.3,2.1-7.6,5.1c-0.6-0.4-1.1-0.9-1.6-1.4L2,17.9C4.8,20.6,8.4,22,12,22s7.2-1.4,10-4.1L21.3,17.2z"/>
<path id="eds-icon--user_head" fill-rule="evenodd" clip-rule="evenodd" d="M12,2C9.2,2,7,4.2,7,7c0,2.8,2.2,5,5,5
	c2.8,0,5-2.2,5-5C17,4.2,14.8,2,12,2z M12,11c-2.2,0-4-1.8-4-4s1.8-4,4-4s4,1.8,4,4S14.2,11,12,11z"/>
</svg>
