<?xml version="1.0" encoding="utf-8"?>
<!-- Generator: Adobe Illustrator 20.0.0, SVG Export Plug-In . SVG Version: 6.00 Build 0)  -->
<svg version="1.1" id="eds-icon--walk_svg"
	 xmlns="http://www.w3.org/2000/svg" xmlns:xlink="http://www.w3.org/1999/xlink" x="0px" y="0px" viewBox="0 0 24 24"
	 enable-background="new 0 0 24 24" xml:space="preserve">
<path id="eds-icon--walk_base" fill-rule="evenodd" clip-rule="evenodd" fill="#231F20" d="M13.1,15.3L11,13.6V10
	c0-0.6,0.5-1,1-1c0.6,0,1,0.5,1,1V15.3z M14.1,10c0-1.1-0.9-2-2.1-2c-0.6,0-1.2,0.3-1.6,0.7l0,0L7,13.1l0.8,0.6L9.9,11v3l5.2,4.3
	v3.4h1v-3.8l0,0l-2.1-1.7V10z"/>
<polygon id="eds-icon--walk_arm" fill-rule="evenodd" clip-rule="evenodd" fill="#231F20" points="15.9,12.4 
	15.2,13.1 17.2,15 17.9,14.3 "/>
<polygon id="eds-icon--walk_leg" fill-rule="evenodd" clip-rule="evenodd" fill="#231F20" points="7.2,21.5 8.1,22 
	11.6,16.7 10.7,16.1 "/>
<path id="eds-icon--walk_head" fill-rule="evenodd" clip-rule="evenodd" fill="#231F20" d="M11.9,2
	c-1.4,0-2.5,1.1-2.5,2.5S10.5,7,11.9,7c1.4,0,2.5-1.1,2.5-2.5S13.3,2,11.9,2z M11.9,6c-0.8,0-1.5-0.7-1.5-1.5S11.1,3,11.9,3
	c0.8,0,1.5,0.7,1.5,1.5S12.7,6,11.9,6z"/>
</svg>
