<?xml version="1.0" encoding="utf-8"?>
<!-- Generator: Adobe Illustrator 20.0.0, SVG Export Plug-In . SVG Version: 6.00 Build 0)  -->
<svg version="1.1" id="eds-icon--wheelchair_svg"
	 xmlns="http://www.w3.org/2000/svg" xmlns:xlink="http://www.w3.org/1999/xlink" x="0px" y="0px" viewBox="0 0 24 24"
	 enable-background="new 0 0 24 24" xml:space="preserve">
<path id="eds-icon--wheelchair_base" fill-rule="evenodd" clip-rule="evenodd" fill="#231F20" d="M13.1,8.4
	C13.3,8.1,13.6,8,14,8c0.2,0,0.4,0.1,0.6,0.2C14.8,8.3,15,8.6,15,8.8c0,0.3,0,0.5-0.2,0.8l0,0l0,0L14,10.8L13.8,11
	c-0.6-0.4-1.3-0.7-2-0.9L13.1,8.4z M14.6,11.6l1-1.5c0.7-0.9,0.5-2.2-0.5-2.8c0,0-0.1,0-0.1-0.1L12,5.1l-0.8-0.6l-0.6,0.8l-2,2.6
	l0.8,0.6l2-2.6l1.8,1.3c-0.3,0.1-0.7,0.4-0.9,0.7L10.6,10c-1.5-0.1-3.1,0.4-4.4,1.4L7,12.1c2.1-1.6,5.1-1.5,7,0.3
	c1.9,1.8,2,4.7,0.4,6.7l0.7,0.7c1.5-1.7,1.9-3.9,1.1-5.9H19v4h1v-5h-4.3c-0.3-0.5-0.6-0.9-1-1.2C14.7,11.7,14.7,11.7,14.6,11.6z"/>
<path id="eds-icon--wheelchair_bottom" fill-rule="evenodd" clip-rule="evenodd" fill="#231F20" d="M6.6,19.5
	c-1.8-1.7-2-4.4-0.7-6.3l-0.8-0.7c-1.8,2.3-1.5,5.6,0.7,7.7c2.2,2.1,5.6,2.3,8.1,0.6l-0.8-0.7C11.2,21.5,8.4,21.2,6.6,19.5z"/>
<path id="eds-icon--wheelchair_circle" fill-rule="evenodd" clip-rule="evenodd" fill="#231F20" d="M17.4,2
	c-1.4,0-2.6,1.1-2.6,2.6c0,1.4,1.2,2.6,2.6,2.6S20,6,20,4.6C20,3.1,18.8,2,17.4,2z M17.4,6.1c-0.9,0-1.6-0.7-1.6-1.5
	c0-0.8,0.7-1.5,1.6-1.5S19,3.7,19,4.6C19,5.4,18.2,6.1,17.4,6.1z"/>
</svg>
