<?xml version="1.0" encoding="utf-8"?>
<!-- Generator: Adobe Illustrator 20.1.0, SVG Export Plug-In . SVG Version: 6.00 Build 0)  -->
<svg version="1.1" id="eds-icon--wifi_svg"
	 xmlns="http://www.w3.org/2000/svg" xmlns:xlink="http://www.w3.org/1999/xlink" x="0px" y="0px" viewBox="0 0 24 24"
	 enable-background="new 0 0 24 24" xml:space="preserve">
<path id="eds-icon--wifi_base" fill-rule="evenodd" clip-rule="evenodd" d="M11.9,14.6c-1.4,0-2.5,1.1-2.5,2.5
	s1.1,2.5,2.5,2.5c1.4,0,2.5-1.1,2.5-2.5S13.3,14.6,11.9,14.6z M11.9,18.6c-0.8,0-1.5-0.7-1.5-1.5c0-0.8,0.7-1.5,1.5-1.5
	c0.8,0,1.5,0.7,1.5,1.5C13.4,17.9,12.8,18.6,11.9,18.6z"/>
<path id="eds-icon--wifi_bottom" fill-rule="evenodd" clip-rule="evenodd" d="M11.9,10.1c-2.4,0-4.5,1.2-5.8,3
	l0.7,0.7c1.1-1.7,2.9-2.8,5-2.8c2.2,0,4.1,1.2,5.1,2.9l0.7-0.7C16.6,11.4,14.4,10.1,11.9,10.1z"/>
<path id="eds-icon--wifi_middle" fill-rule="evenodd" clip-rule="evenodd" d="M11.9,7.1c-3.2,0-6.1,1.5-7.9,3.9
	l0.7,0.7C6.4,9.6,9,8.1,11.9,8.1c3,0,5.7,1.5,7.3,3.8l0.7-0.7C18.1,8.7,15.2,7.1,11.9,7.1z"/>
<path id="eds-icon--wifi_top" fill-rule="evenodd" clip-rule="evenodd" d="M11.9,4.4c-4,0-7.5,1.8-9.9,4.7l0.7,0.7
	c2.2-2.7,5.5-4.4,9.2-4.4c3.8,0,7.1,1.8,9.3,4.5l0.7-0.7C19.6,6.3,16,4.4,11.9,4.4z"/>
</svg>
